G04 ===== Begin FILE IDENTIFICATION =====*
G04 File Format:  Gerber RS274X*
G04 ===== End FILE IDENTIFICATION =====*
%FSLAX34Y34*%
%MOIN*%
%SFA1.0000B1.0000*%
%OFA0.0B0.0*%
%ADD10C,0.000025*%
%LNTop_Mask*%
%IPNEG*%
%LPD*%
G75*
G36*
G01X13472Y8661D02*
G01X13479Y8659D01*
G01X13485Y8658D01*
G01X13492Y8656D01*
G01X13498Y8654D01*
G01X13505Y8652D01*
G01X13511Y8649D01*
G01X13522Y8645D01*
G01X13533Y8641D01*
G01X13543Y8637D01*
G01X13554Y8632D01*
G01X13565Y8627D01*
G01X13576Y8621D01*
G01X13586Y8616D01*
G01X13597Y8610D01*
G01X13608Y8604D01*
G01X13618Y8598D01*
G01X13628Y8591D01*
G01X13639Y8585D01*
G01X13656Y8573D01*
G01X13672Y8561D01*
G01X13675Y8559D01*
G01X13677Y8557D01*
G01X13680Y8555D01*
G01X13682Y8554D01*
G01X13684Y8552D01*
G01X13686Y8550D01*
G01X13689Y8547D01*
G01X13691Y8545D01*
G01X13693Y8543D01*
G01X13694Y8542D01*
G01X13695Y8541D01*
G01Y8540D01*
G01X13696D01*
G01X13697Y8539D01*
G01X13698Y8538D01*
G01X13699Y8537D01*
G01Y8536D01*
G01X13700Y8535D01*
G01X13701Y8533D01*
G01Y8532D01*
G01X13702Y8531D01*
G01X13703Y8530D01*
G01Y8529D01*
G01X13704Y8528D01*
G01Y8527D01*
G01X13705D01*
G01Y8526D01*
G01Y8525D01*
G01X13706D01*
G01Y8524D01*
G01Y8523D01*
G01X13707Y8522D01*
G01Y8521D01*
G01Y8520D01*
G01Y8519D01*
G01Y8518D01*
G01X13708Y8517D01*
G01Y8516D01*
G01Y8515D01*
G01Y8514D01*
G01Y8513D01*
G01Y8512D01*
G01Y8511D01*
G01Y8510D01*
G01X13707Y8509D01*
G01Y8508D01*
G01Y8507D01*
G01Y8506D01*
G01Y8505D01*
G01X13706Y8504D01*
G01Y8503D01*
G01Y8502D01*
G01X13705Y8501D01*
G01Y8500D01*
G01Y8499D01*
G01X13704D01*
G01Y8498D01*
G01Y8497D01*
G01X13703Y8496D01*
G01Y8495D01*
G01X13702D01*
G01Y8494D01*
G01Y8493D01*
G01X13701D01*
G01Y8492D01*
G01X13700D01*
G01Y8491D01*
G01X13699Y8490D01*
G01X13698Y8489D01*
G01X13697Y8488D01*
G01Y8487D01*
G01X13696D01*
G01Y8486D01*
G01X13695D01*
G01Y8485D01*
G01X13694D01*
G01Y8484D01*
G01X13693D01*
G01X13691Y8482D01*
G01X13689Y8481D01*
G01X13687Y8479D01*
G01X13685Y8478D01*
G01X13683Y8477D01*
G01X13681Y8475D01*
G01X13679Y8474D01*
G01X13677Y8473D01*
G01X13675Y8471D01*
G01X13673Y8470D01*
G01X13671Y8469D01*
G01X13626Y8446D01*
G01X13604Y8435D01*
G01X13582Y8425D01*
G01X13562Y8416D01*
G01X13541Y8408D01*
G01X13527Y8403D01*
G01X13514Y8398D01*
G01X13500Y8394D01*
G01X13486Y8390D01*
G01X13473Y8386D01*
G01X13459Y8382D01*
G01X13455Y8381D01*
G01X13452Y8380D01*
G01X13448Y8379D01*
G01X13445D01*
G01X13441Y8378D01*
G01X13438Y8377D01*
G01X13434D01*
G01X13431Y8376D01*
G01X13427D01*
G01X13424D01*
G01X13420D01*
G01X13416Y8375D01*
G01X13413D01*
G01X13409D01*
G01X13406D01*
G01X13402D01*
G01X13396D01*
G01X13390Y8376D01*
G01X13385D01*
G01X13379Y8377D01*
G01X13373D01*
G01X13367Y8378D01*
G01X13361Y8379D01*
G01X13356Y8380D01*
G01X13350Y8381D01*
G01X13344Y8382D01*
G01X13338Y8383D01*
G01X13329Y8386D01*
G01X13319Y8388D01*
G01X13310Y8391D01*
G01X13300Y8394D01*
G01X13291Y8397D01*
G01X13281Y8400D01*
G01X13272Y8404D01*
G01X13263Y8407D01*
G01X13239Y8417D01*
G01X13216Y8427D01*
G01X13192Y8438D01*
G01X13169Y8449D01*
G01X13122Y8473D01*
G01X13120Y8474D01*
G01X13119Y8475D01*
G01X13117Y8476D01*
G01X13116Y8477D01*
G01X13114Y8478D01*
G01X13112Y8479D01*
G01X13111Y8480D01*
G01X13109Y8481D01*
G01X13108Y8482D01*
G01X13106Y8483D01*
G01X13105Y8484D01*
G01X13104Y8485D01*
G01X13102Y8487D01*
G01X13101D01*
G01Y8488D01*
G01X13100D01*
G01Y8489D01*
G01X13099D01*
G01Y8490D01*
G01X13098Y8491D01*
G01X13097Y8492D01*
G01Y8493D01*
G01X13096D01*
G01Y8494D01*
G01Y8495D01*
G01X13095D01*
G01Y8496D01*
G01Y8497D01*
G01X13094D01*
G01Y8498D01*
G01Y8499D01*
G01Y8500D01*
G01X13093Y8501D01*
G01Y8502D01*
G01Y8503D01*
G01Y8504D01*
G01Y8505D01*
G01X13092Y8506D01*
G01Y8507D01*
G01Y8508D01*
G01Y8509D01*
G01Y8510D01*
G01Y8511D01*
G01Y8512D01*
G01Y8513D01*
G01Y8514D01*
G01Y8515D01*
G01Y8516D01*
G01X13093Y8517D01*
G01Y8518D01*
G01Y8519D01*
G01Y8520D01*
G01Y8521D01*
G01X13094D01*
G01Y8522D01*
G01Y8523D01*
G01Y8524D01*
G01X13095Y8525D01*
G01Y8526D01*
G01Y8527D01*
G01X13096D01*
G01Y8528D01*
G01X13097Y8529D01*
G01Y8530D01*
G01X13098Y8531D01*
G01Y8532D01*
G01X13099Y8533D01*
G01X13100Y8535D01*
G01X13101Y8536D01*
G01X13102Y8537D01*
G01X13103Y8538D01*
G01Y8539D01*
G01X13104Y8541D01*
G01X13105Y8542D01*
G01X13106Y8543D01*
G01X13107Y8544D01*
G01X13108Y8545D01*
G01X13109Y8546D01*
G01X13111Y8548D01*
G01X13113Y8550D01*
G01X13115Y8552D01*
G01X13118Y8554D01*
G01X13120Y8556D01*
G01X13122Y8558D01*
G01X13124Y8560D01*
G01X13126Y8561D01*
G01X13129Y8563D01*
G01X13139Y8570D01*
G01X13149Y8577D01*
G01X13159Y8584D01*
G01X13173Y8593D01*
G01X13187Y8602D01*
G01X13202Y8611D01*
G01X13212Y8616D01*
G01X13222Y8622D01*
G01X13232Y8627D01*
G01X13243Y8632D01*
G01X13251Y8635D01*
G01X13259Y8639D01*
G01X13267Y8642D01*
G01X13275Y8645D01*
G01X13283Y8648D01*
G01X13292Y8651D01*
G01X13300Y8654D01*
G01X13309Y8657D01*
G01X13317Y8659D01*
G01X13326Y8661D01*
G01X13329Y8662D01*
G01X13333Y8663D01*
G01X13336Y8664D01*
G01X13340D01*
G01X13343Y8665D01*
G01X13347Y8666D01*
G01X13351D01*
G01X13354Y8667D01*
G01X13358D01*
G01X13366Y8668D01*
G01X13374D01*
G01X13381D01*
G01X13389Y8669D01*
G01X13397D01*
G01X13405D01*
G01X13413Y8668D01*
G01X13421D01*
G01X13429Y8667D01*
G01X13438D01*
G01X13443Y8666D01*
G01X13447D01*
G01X13452Y8665D01*
G01X13457Y8664D01*
G01X13462Y8663D01*
G01X13467Y8662D01*
G01X13472Y8661D01*
G37*
G36*
G01X13521Y7472D02*
G01X13540Y7471D01*
G01X13560Y7468D01*
G01X13580Y7465D01*
G01X13600Y7462D01*
G01X13644Y7454D01*
G01X13689Y7445D01*
G01X13731Y7435D01*
G01X13773Y7424D01*
G01X13784Y7421D01*
G01X13795Y7418D01*
G01X13806Y7414D01*
G01X13816Y7411D01*
G01X13827Y7407D01*
G01X13837Y7403D01*
G01X13875Y7387D01*
G01X13912Y7371D01*
G01X13934Y7361D01*
G01X13956Y7350D01*
G01X13978Y7339D01*
G01X13998Y7328D01*
G01X14018Y7316D01*
G01X14038Y7304D01*
G01X14052Y7295D01*
G01X14067Y7286D01*
G01X14081Y7276D01*
G01X14094Y7267D01*
G01X14114Y7252D01*
G01X14133Y7238D01*
G01X14152Y7223D01*
G01X14170Y7207D01*
G01X14188Y7191D01*
G01X14206Y7175D01*
G01X14223Y7159D01*
G01X14236Y7146D01*
G01X14249Y7134D01*
G01X14261Y7121D01*
G01X14273Y7108D01*
G01X14285Y7095D01*
G01X14296Y7081D01*
G01X14307Y7067D01*
G01X14318Y7053D01*
G01X14329Y7039D01*
G01X14339Y7025D01*
G01X14349Y7011D01*
G01X14359Y6997D01*
G01X14369Y6982D01*
G01X14378Y6968D01*
G01X14387Y6953D01*
G01X14396Y6938D01*
G01X14404Y6922D01*
G01X14412Y6907D01*
G01X14420Y6891D01*
G01X14428Y6875D01*
G01X14435Y6859D01*
G01X14442Y6843D01*
G01X14449Y6827D01*
G01X14456Y6811D01*
G01X14462Y6794D01*
G01X14468Y6778D01*
G01X14473Y6761D01*
G01X14484Y6726D01*
G01X14487Y6718D01*
G01X14489Y6709D01*
G01X14491Y6701D01*
G01X14493Y6691D01*
G01X14495Y6682D01*
G01X14497Y6673D01*
G01X14503Y6634D01*
G01X14504Y6626D01*
G01X14506Y6618D01*
G01Y6610D01*
G01X14507Y6602D01*
G01X14508Y6594D01*
G01Y6586D01*
G01X14509Y6578D01*
G01Y6569D01*
G01Y6561D01*
G01Y6553D01*
G01Y6545D01*
G01X14508Y6537D01*
G01Y6529D01*
G01X14507Y6521D01*
G01X14506Y6512D01*
G01X14505Y6504D01*
G01X14504Y6495D01*
G01X14503Y6486D01*
G01X14501Y6478D01*
G01X14499Y6469D01*
G01X14498Y6460D01*
G01X14496Y6452D01*
G01X14493Y6443D01*
G01X14491Y6435D01*
G01X14489Y6426D01*
G01X14486Y6418D01*
G01X14483Y6409D01*
G01X14480Y6401D01*
G01X14477Y6393D01*
G01X14474Y6385D01*
G01X14471Y6378D01*
G01X14468Y6370D01*
G01X14465Y6363D01*
G01X14461Y6356D01*
G01X14458Y6348D01*
G01X14454Y6341D01*
G01X14450Y6334D01*
G01X14446Y6327D01*
G01X14442Y6320D01*
G01X14438Y6313D01*
G01X14433Y6306D01*
G01X14429Y6300D01*
G01X14424Y6293D01*
G01X14420Y6286D01*
G01X14415Y6281D01*
G01X14411Y6275D01*
G01X14406Y6269D01*
G01X14402Y6263D01*
G01X14397Y6258D01*
G01X14392Y6252D01*
G01X14387Y6247D01*
G01X14382Y6242D01*
G01X14377Y6237D01*
G01X14372Y6232D01*
G01X14366Y6227D01*
G01X14361Y6222D01*
G01X14355Y6217D01*
G01X14350Y6212D01*
G01X14344Y6208D01*
G01X14338Y6203D01*
G01X14331Y6198D01*
G01X14323Y6192D01*
G01X14315Y6187D01*
G01X14307Y6182D01*
G01X14299Y6177D01*
G01X14291Y6172D01*
G01X14271Y6160D01*
G01X14251Y6149D01*
G01X14230Y6139D01*
G01X14208Y6128D01*
G01X14186Y6117D01*
G01X14164Y6107D01*
G01X14148Y6100D01*
G01X14131Y6094D01*
G01X14115Y6088D01*
G01X14098Y6082D01*
G01X14084Y6077D01*
G01X14069Y6072D01*
G01X14055Y6068D01*
G01X14040Y6064D01*
G01X13957Y6043D01*
G01X13866Y6023D01*
G01X13824Y6015D01*
G01X13782Y6008D01*
G01X13751Y6003D01*
G01X13720Y5999D01*
G01X13689Y5995D01*
G01X13658Y5992D01*
G01X13626Y5990D01*
G01X13594Y5988D01*
G01X13541Y5986D01*
G01X13487Y5985D01*
G01X13352D01*
G01X13278Y5987D01*
G01X13204Y5990D01*
G01X13163Y5993D01*
G01X13122Y5997D01*
G01X13081Y6001D01*
G01X13039Y6007D01*
G01X12998Y6014D01*
G01X12957Y6021D01*
G01X12883Y6036D01*
G01X12810Y6053D01*
G01X12789Y6058D01*
G01X12768Y6063D01*
G01X12747Y6069D01*
G01X12726Y6076D01*
G01X12705Y6083D01*
G01X12684Y6091D01*
G01X12662Y6099D01*
G01X12641Y6107D01*
G01X12621Y6116D01*
G01X12601Y6125D01*
G01X12582Y6134D01*
G01X12562Y6144D01*
G01X12551Y6150D01*
G01X12539Y6156D01*
G01X12528Y6162D01*
G01X12517Y6169D01*
G01X12507Y6175D01*
G01X12496Y6182D01*
G01X12489Y6187D01*
G01X12482Y6192D01*
G01X12476Y6197D01*
G01X12469Y6202D01*
G01X12463Y6207D01*
G01X12454Y6214D01*
G01X12445Y6222D01*
G01X12437Y6229D01*
G01X12428Y6237D01*
G01X12421Y6244D01*
G01X12413Y6252D01*
G01X12405Y6260D01*
G01X12398Y6268D01*
G01X12395Y6271D01*
G01X12392Y6274D01*
G01X12390Y6278D01*
G01X12387Y6281D01*
G01X12385Y6284D01*
G01X12382Y6288D01*
G01X12380Y6291D01*
G01X12377Y6294D01*
G01X12373Y6302D01*
G01X12368Y6309D01*
G01X12363Y6317D01*
G01X12359Y6325D01*
G01X12355Y6332D01*
G01X12351Y6340D01*
G01X12347Y6348D01*
G01X12343Y6356D01*
G01X12339Y6364D01*
G01X12336Y6372D01*
G01X12332Y6381D01*
G01X12328Y6390D01*
G01X12324Y6400D01*
G01X12321Y6409D01*
G01X12318Y6418D01*
G01X12315Y6428D01*
G01X12312Y6437D01*
G01X12309Y6447D01*
G01X12307Y6457D01*
G01X12305Y6466D01*
G01X12303Y6476D01*
G01X12301Y6485D01*
G01X12299Y6495D01*
G01X12298Y6505D01*
G01X12296Y6514D01*
G01X12295Y6524D01*
G01X12294Y6534D01*
G01X12293Y6544D01*
G01Y6551D01*
G01Y6559D01*
G01X12292Y6566D01*
G01Y6574D01*
G01X12293Y6582D01*
G01Y6589D01*
G01Y6597D01*
G01X12294Y6604D01*
G01Y6612D01*
G01X12295Y6619D01*
G01X12296Y6627D01*
G01X12297Y6637D01*
G01X12299Y6647D01*
G01X12301Y6657D01*
G01X12303Y6667D01*
G01X12305Y6678D01*
G01X12313Y6709D01*
G01X12321Y6740D01*
G01X12329Y6769D01*
G01X12339Y6799D01*
G01X12340Y6803D01*
G01X12342Y6807D01*
G01X12343Y6811D01*
G01X12345Y6815D01*
G01X12347Y6819D01*
G01X12348Y6823D01*
G01X12350Y6827D01*
G01X12352Y6831D01*
G01X12354Y6835D01*
G01X12357Y6841D01*
G01X12366Y6858D01*
G01X12375Y6877D01*
G01X12386Y6899D01*
G01X12394Y6914D01*
G01X12401Y6929D01*
G01X12410Y6944D01*
G01X12418Y6959D01*
G01X12427Y6973D01*
G01X12435Y6987D01*
G01X12444Y7001D01*
G01X12454Y7014D01*
G01X12463Y7028D01*
G01X12473Y7041D01*
G01X12483Y7054D01*
G01X12494Y7067D01*
G01X12505Y7080D01*
G01X12516Y7093D01*
G01X12527Y7105D01*
G01X12544Y7123D01*
G01X12560Y7139D01*
G01X12577Y7156D01*
G01X12594Y7172D01*
G01X12605Y7182D01*
G01X12616Y7191D01*
G01X12627Y7201D01*
G01X12666Y7233D01*
G01X12705Y7261D01*
G01X12709Y7264D01*
G01X12713Y7267D01*
G01X12717Y7270D01*
G01X12722Y7272D01*
G01X12726Y7275D01*
G01X12730Y7278D01*
G01X12733Y7279D01*
G01X12736Y7281D01*
G01X12738Y7282D01*
G01X12740Y7283D01*
G01X12742Y7285D01*
G01X12744Y7286D01*
G01X12746Y7288D01*
G01Y7289D01*
G01Y7290D01*
G01Y7291D01*
G01X12747D01*
G01Y7292D01*
G01Y7293D01*
G01X12748Y7294D01*
G01Y7295D01*
G01X12749D01*
G01Y7296D01*
G01X12750D01*
G01Y7297D01*
G01X12751D01*
G01X12816Y7330D01*
G01X12849Y7346D01*
G01X12881Y7361D01*
G01X12899Y7369D01*
G01X12917Y7377D01*
G01X12936Y7384D01*
G01X12953Y7391D01*
G01X12970Y7398D01*
G01X12983Y7403D01*
G01X12985Y7404D01*
G01X12986D01*
G01X12988Y7405D01*
G01X12992Y7407D01*
G01X12996Y7409D01*
G01X13000Y7410D01*
G01X13004Y7412D01*
G01X13008Y7413D01*
G01X13012Y7415D01*
G01X13016Y7416D01*
G01X13020Y7417D01*
G01X13024Y7419D01*
G01X13028Y7420D01*
G01X13032Y7421D01*
G01X13118Y7441D01*
G01X13165Y7451D01*
G01X13211Y7459D01*
G01X13238Y7463D01*
G01X13265Y7467D01*
G01X13292Y7470D01*
G01X13304Y7472D01*
G01X13316Y7473D01*
G01X13328Y7474D01*
G01X13341D01*
G01X13406Y7476D01*
G01X13471Y7475D01*
G01X13488D01*
G01X13504Y7474D01*
G01X13521Y7472D01*
G37*
G36*
G01X12916Y8510D02*
G01Y8514D01*
G01Y8518D01*
G01Y8522D01*
G01Y8527D01*
G01X12917Y8532D01*
G01Y8537D01*
G01X12918Y8542D01*
G01X12919Y8547D01*
G01X12920Y8553D01*
G01X12921Y8558D01*
G01X12924Y8572D01*
G01X12927Y8587D01*
G01X12930Y8601D01*
G01X12934Y8616D01*
G01X12938Y8631D01*
G01Y8634D01*
G01X12939Y8638D01*
G01X12940Y8641D01*
G01Y8645D01*
G01X12941Y8648D01*
G01Y8652D01*
G01Y8656D01*
G01X12942Y8661D01*
G01Y8666D01*
G01Y8670D01*
G01Y8675D01*
G01X12943Y8719D01*
G01X12942Y8761D01*
G01Y8768D01*
G01Y8774D01*
G01Y8780D01*
G01X12941Y8786D01*
G01Y8790D01*
G01X12940Y8794D01*
G01Y8799D01*
G01X12939Y8803D01*
G01X12938Y8807D01*
G01X12936Y8820D01*
G01X12933Y8833D01*
G01X12931Y8841D01*
G01X12929Y8848D01*
G01X12927Y8856D01*
G01X12925Y8863D01*
G01X12922Y8870D01*
G01X12920Y8876D01*
G01X12917Y8883D01*
G01X12915Y8890D01*
G01X12912Y8897D01*
G01X12906Y8908D01*
G01X12901Y8920D01*
G01X12891Y8939D01*
G01X12881Y8959D01*
G01X12878Y8964D01*
G01X12875Y8968D01*
G01X12872Y8973D01*
G01X12869Y8977D01*
G01X12866Y8982D01*
G01X12863Y8986D01*
G01X12861Y8990D01*
G01X12858Y8993D01*
G01X12856Y8997D01*
G01X12853Y9000D01*
G01X12851Y9003D01*
G01X12848Y9006D01*
G01X12845Y9009D01*
G01X12839Y9016D01*
G01X12834Y9022D01*
G01X12828Y9027D01*
G01X12822Y9033D01*
G01X12817Y9038D01*
G01X12811Y9043D01*
G01X12806Y9047D01*
G01X12800Y9052D01*
G01X12795Y9056D01*
G01X12789Y9060D01*
G01X12784Y9064D01*
G01X12780Y9067D01*
G01X12775Y9070D01*
G01X12771Y9073D01*
G01X12767Y9076D01*
G01X12762Y9078D01*
G01X12758Y9081D01*
G01X12753Y9083D01*
G01X12749Y9086D01*
G01X12744Y9088D01*
G01X12740Y9090D01*
G01X12735Y9093D01*
G01X12731Y9095D01*
G01X12726Y9096D01*
G01X12721Y9098D01*
G01X12717Y9100D01*
G01X12712Y9102D01*
G01X12707Y9103D01*
G01X12703Y9105D01*
G01X12698Y9106D01*
G01X12693Y9108D01*
G01X12688Y9109D01*
G01X12683Y9110D01*
G01X12678Y9111D01*
G01X12674Y9112D01*
G01X12669Y9113D01*
G01X12664Y9114D01*
G01X12659Y9115D01*
G01X12650Y9116D01*
G01X12642Y9117D01*
G01X12633D01*
G01X12628Y9118D01*
G01X12624D01*
G01X12619D01*
G01X12615D01*
G01X12610D01*
G01X12606D01*
G01X12601D01*
G01X12597D01*
G01X12596D01*
G01Y8878D01*
G01X12598D01*
G01X12600D01*
G01X12602D01*
G01X12605D01*
G01X12608D01*
G01X12611Y8877D01*
G01X12614D01*
G01X12616D01*
G01X12619Y8876D01*
G01X12622D01*
G01X12625Y8875D01*
G01X12627Y8874D01*
G01X12630D01*
G01X12633Y8873D01*
G01X12636Y8872D01*
G01X12638Y8871D01*
G01X12641D01*
G01X12644Y8870D01*
G01X12647Y8869D01*
G01X12650Y8868D01*
G01X12652Y8867D01*
G01X12655Y8865D01*
G01X12658Y8864D01*
G01X12660Y8863D01*
G01X12663Y8862D01*
G01X12666Y8860D01*
G01X12668Y8859D01*
G01X12671Y8858D01*
G01X12673Y8856D01*
G01X12675Y8855D01*
G01X12677Y8854D01*
G01X12679Y8853D01*
G01X12681Y8851D01*
G01X12683Y8850D01*
G01X12685Y8848D01*
G01X12687Y8847D01*
G01X12689Y8845D01*
G01X12691Y8844D01*
G01X12692Y8842D01*
G01X12694Y8841D01*
G01X12696Y8839D01*
G01X12698Y8837D01*
G01X12700Y8836D01*
G01X12702Y8834D01*
G01X12704Y8831D01*
G01X12706Y8829D01*
G01X12708Y8827D01*
G01X12709Y8825D01*
G01X12711Y8822D01*
G01X12713Y8820D01*
G01X12715Y8818D01*
G01X12717Y8815D01*
G01X12718Y8814D01*
G01X12719Y8812D01*
G01X12720Y8811D01*
G01X12721Y8809D01*
G01X12722Y8807D01*
G01X12723Y8806D01*
G01Y8804D01*
G01X12724Y8803D01*
G01X12725Y8801D01*
G01X12726Y8799D01*
G01X12727Y8798D01*
G01Y8796D01*
G01X12728Y8794D01*
G01X12729Y8792D01*
G01X12730Y8790D01*
G01Y8788D01*
G01X12731Y8786D01*
G01X12732Y8784D01*
G01Y8782D01*
G01X12733Y8780D01*
G01Y8778D01*
G01X12734Y8776D01*
G01Y8774D01*
G01X12735Y8772D01*
G01Y8770D01*
G01X12736Y8766D01*
G01Y8761D01*
G01X12737Y8757D01*
G01Y8753D01*
G01X12738Y8749D01*
G01Y8744D01*
G01Y8740D01*
G01Y8735D01*
G01Y8731D01*
G01Y8726D01*
G01Y8721D01*
G01Y8716D01*
G01Y8712D01*
G01X12737Y8707D01*
G01Y8705D01*
G01Y8704D01*
G01Y8702D01*
G01X12736Y8700D01*
G01Y8698D01*
G01Y8697D01*
G01X12735Y8695D01*
G01Y8693D01*
G01X12734Y8692D01*
G01Y8690D01*
G01Y8688D01*
G01X12733Y8687D01*
G01Y8685D01*
G01X12732Y8683D01*
G01X12731Y8682D01*
G01Y8680D01*
G01X12730Y8679D01*
G01Y8677D01*
G01X12729Y8676D01*
G01X12728Y8674D01*
G01X12727Y8673D01*
G01Y8671D01*
G01X12726Y8670D01*
G01X12725Y8668D01*
G01X12724Y8667D01*
G01X12723Y8665D01*
G01X12722Y8664D01*
G01X12721Y8662D01*
G01X12720Y8661D01*
G01Y8660D01*
G01X12717Y8657D01*
G01X12715Y8654D01*
G01X12713Y8651D01*
G01X12710Y8648D01*
G01X12708Y8645D01*
G01X12705Y8642D01*
G01X12702Y8639D01*
G01X12700Y8637D01*
G01X12696Y8633D01*
G01X12692Y8629D01*
G01X12688Y8626D01*
G01X12684Y8622D01*
G01X12680Y8619D01*
G01X12676Y8615D01*
G01X12674Y8614D01*
G01X12673Y8613D01*
G01X12672D01*
G01X12671Y8612D01*
G01X12669Y8611D01*
G01X12668Y8610D01*
G01X12667Y8609D01*
G01X12665Y8608D01*
G01X12664D01*
G01X12662Y8607D01*
G01X12661Y8606D01*
G01X12660Y8605D01*
G01X12658D01*
G01X12657Y8604D01*
G01X12655Y8603D01*
G01X12654D01*
G01X12652Y8602D01*
G01X12651D01*
G01X12649Y8601D01*
G01X12648D01*
G01X12646Y8600D01*
G01X12645D01*
G01X12643Y8599D01*
G01X12642D01*
G01X12640D01*
G01X12638Y8598D01*
G01X12637D01*
G01X12635D01*
G01X12634D01*
G01X12632Y8597D01*
G01X12627D01*
G01X12621Y8596D01*
G01X12616D01*
G01X12611D01*
G01X12605D01*
G01X12600D01*
G01X12575D01*
G01X12574D01*
G01X12573D01*
G01X12571D01*
G01X12570D01*
G01X12569D01*
G01X12567Y8597D01*
G01X12566D01*
G01X12565D01*
G01X12563D01*
G01X12562Y8598D01*
G01X12561D01*
G01X12560D01*
G01X12559D01*
G01X12558Y8599D01*
G01X12557D01*
G01X12556D01*
G01X12555Y8600D01*
G01X12554D01*
G01X12553Y8601D01*
G01X12550Y8602D01*
G01X12546Y8604D01*
G01X12543Y8606D01*
G01X12539Y8608D01*
G01X12537Y8609D01*
G01X12535Y8611D01*
G01X12533Y8612D01*
G01X12530Y8614D01*
G01X12528Y8615D01*
G01X12526Y8617D01*
G01X12524Y8618D01*
G01X12522Y8620D01*
G01X12520Y8621D01*
G01X12517Y8624D01*
G01X12515Y8626D01*
G01X12512Y8628D01*
G01X12509Y8631D01*
G01X12507Y8633D01*
G01X12504Y8636D01*
G01X12502Y8639D01*
G01X12499Y8641D01*
G01X12497Y8644D01*
G01X12495Y8647D01*
G01X12492Y8650D01*
G01X12490Y8653D01*
G01X12488Y8656D01*
G01X12486Y8659D01*
G01X12484Y8661D01*
G01X12483Y8663D01*
G01X12481Y8665D01*
G01X12480Y8668D01*
G01X12479Y8670D01*
G01X12477Y8672D01*
G01X12476Y8675D01*
G01X12475Y8677D01*
G01X12474Y8679D01*
G01X12473Y8682D01*
G01X12471Y8684D01*
G01X12470Y8687D01*
G01X12469Y8689D01*
G01X12468Y8692D01*
G01Y8693D01*
G01X12467Y8694D01*
G01Y8696D01*
G01Y8697D01*
G01X12466Y8698D01*
G01Y8699D01*
G01Y8700D01*
G01X12465Y8702D01*
G01Y8703D01*
G01Y8704D01*
G01Y8706D01*
G01X12464Y8707D01*
G01Y8709D01*
G01Y8711D01*
G01Y8712D01*
G01Y8714D01*
G01Y8715D01*
G01X12463Y8725D01*
G01Y8734D01*
G01Y8744D01*
G01X12464Y8754D01*
G01Y8755D01*
G01Y8757D01*
G01Y8758D01*
G01Y8760D01*
G01Y8761D01*
G01Y8763D01*
G01X12465Y8764D01*
G01Y8766D01*
G01Y8767D01*
G01Y8768D01*
G01X12466Y8769D01*
G01Y8770D01*
G01Y8771D01*
G01Y8772D01*
G01X12467Y8773D01*
G01Y8774D01*
G01Y8775D01*
G01X12468Y8776D01*
G01X12469Y8779D01*
G01X12470Y8781D01*
G01X12471Y8784D01*
G01X12472Y8786D01*
G01X12473Y8789D01*
G01X12475Y8792D01*
G01X12476Y8795D01*
G01X12478Y8798D01*
G01X12480Y8801D01*
G01X12481Y8803D01*
G01X12483Y8806D01*
G01X12485Y8809D01*
G01X12487Y8812D01*
G01X12489Y8815D01*
G01X12491Y8817D01*
G01X12493Y8820D01*
G01X12494Y8822D01*
G01X12496Y8824D01*
G01X12498Y8827D01*
G01X12500Y8829D01*
G01X12502Y8831D01*
G01X12504Y8833D01*
G01X12506Y8835D01*
G01X12509Y8837D01*
G01X12511Y8840D01*
G01X12513Y8842D01*
G01X12515Y8843D01*
G01X12517Y8845D01*
G01X12520Y8847D01*
G01X12522Y8849D01*
G01X12524Y8851D01*
G01X12527Y8853D01*
G01X12529Y8854D01*
G01X12532Y8856D01*
G01X12534Y8858D01*
G01X12537Y8859D01*
G01X12539Y8861D01*
G01X12542Y8862D01*
G01X12544Y8863D01*
G01X12547Y8865D01*
G01X12549Y8866D01*
G01X12552Y8867D01*
G01X12555Y8868D01*
G01X12557Y8870D01*
G01X12560Y8871D01*
G01X12563Y8872D01*
G01X12565Y8873D01*
G01X12568Y8874D01*
G01X12570D01*
G01X12571Y8875D01*
G01X12573D01*
G01X12574Y8876D01*
G01X12576D01*
G01X12577D01*
G01X12579Y8877D01*
G01X12581D01*
G01X12582D01*
G01X12584D01*
G01X12585Y8878D01*
G01X12587D01*
G01X12588D01*
G01X12590D01*
G01X12592D01*
G01X12593D01*
G01X12595D01*
G01X12596D01*
G01Y9118D01*
G01X12592Y9117D01*
G01X12587D01*
G01X12578Y9116D01*
G01X12570Y9114D01*
G01X12561Y9113D01*
G01X12555Y9112D01*
G01X12550Y9111D01*
G01X12545Y9110D01*
G01X12540Y9109D01*
G01X12535Y9107D01*
G01X12530Y9106D01*
G01X12525Y9105D01*
G01X12519Y9103D01*
G01X12514Y9101D01*
G01X12509Y9100D01*
G01X12504Y9098D01*
G01X12500Y9096D01*
G01X12495Y9094D01*
G01X12490Y9092D01*
G01X12485Y9090D01*
G01X12480Y9087D01*
G01X12474Y9084D01*
G01X12468Y9081D01*
G01X12462Y9078D01*
G01X12456Y9074D01*
G01X12450Y9071D01*
G01X12444Y9067D01*
G01X12438Y9063D01*
G01X12432Y9059D01*
G01X12427Y9055D01*
G01X12421Y9051D01*
G01X12415Y9047D01*
G01X12410Y9043D01*
G01X12405Y9038D01*
G01X12399Y9034D01*
G01X12394Y9029D01*
G01X12388Y9024D01*
G01X12383Y9019D01*
G01X12378Y9014D01*
G01X12373Y9009D01*
G01X12368Y9004D01*
G01X12363Y8998D01*
G01X12358Y8993D01*
G01X12353Y8987D01*
G01X12349Y8982D01*
G01X12344Y8976D01*
G01X12340Y8970D01*
G01X12335Y8964D01*
G01X12330Y8958D01*
G01X12326Y8951D01*
G01X12322Y8944D01*
G01X12317Y8938D01*
G01X12313Y8931D01*
G01X12309Y8924D01*
G01X12305Y8917D01*
G01X12301Y8910D01*
G01X12298Y8903D01*
G01X12294Y8896D01*
G01X12291Y8889D01*
G01X12286Y8877D01*
G01X12281Y8865D01*
G01X12279Y8861D01*
G01X12278Y8858D01*
G01X12277Y8854D01*
G01X12275Y8850D01*
G01X12274Y8847D01*
G01X12273Y8841D01*
G01X12271Y8836D01*
G01X12270Y8830D01*
G01X12269Y8825D01*
G01X12261Y8787D01*
G01X12258Y8772D01*
G01X12255Y8757D01*
G01X12253Y8742D01*
G01X12250Y8727D01*
G01X12249Y8712D01*
G01X12247Y8700D01*
G01X12246Y8689D01*
G01Y8677D01*
G01X12245Y8665D01*
G01Y8653D01*
G01Y8641D01*
G01Y8630D01*
G01X12246Y8618D01*
G01Y8607D01*
G01X12247Y8596D01*
G01X12248Y8584D01*
G01X12249Y8573D01*
G01X12251Y8562D01*
G01X12253Y8550D01*
G01X12255Y8539D01*
G01X12257Y8528D01*
G01X12260Y8517D01*
G01X12262Y8506D01*
G01X12264Y8498D01*
G01X12266Y8491D01*
G01X12269Y8483D01*
G01X12271Y8476D01*
G01X12274Y8468D01*
G01X12276Y8461D01*
G01X12279Y8453D01*
G01X12282Y8446D01*
G01X12285Y8439D01*
G01X12288Y8432D01*
G01X12292Y8424D01*
G01X12295Y8417D01*
G01X12299Y8410D01*
G01X12303Y8402D01*
G01X12308Y8393D01*
G01X12313Y8384D01*
G01X12318Y8376D01*
G01X12323Y8368D01*
G01X12328Y8359D01*
G01X12334Y8351D01*
G01X12340Y8343D01*
G01X12345Y8335D01*
G01X12351Y8327D01*
G01X12357Y8320D01*
G01X12364Y8311D01*
G01X12372Y8302D01*
G01X12379Y8293D01*
G01X12387Y8285D01*
G01X12395Y8277D01*
G01X12403Y8268D01*
G01X12411Y8260D01*
G01X12419Y8252D01*
G01X12427Y8245D01*
G01X12436Y8237D01*
G01X12446Y8229D01*
G01X12456Y8220D01*
G01X12467Y8212D01*
G01X12477Y8204D01*
G01X12488Y8196D01*
G01X12499Y8188D01*
G01X12509Y8181D01*
G01X12521Y8174D01*
G01X12532Y8167D01*
G01X12542Y8160D01*
G01X12553Y8154D01*
G01X12564Y8148D01*
G01X12574Y8142D01*
G01X12585Y8136D01*
G01X12621Y8119D01*
G01X12657Y8102D01*
G01X12694Y8086D01*
G01X12732Y8070D01*
G01X12748Y8064D01*
G01X12763Y8058D01*
G01X12779Y8052D01*
G01X12795Y8047D01*
G01X12848Y8031D01*
G01X12908Y8015D01*
G01X12967Y8000D01*
G01X12992Y7995D01*
G01X13016Y7990D01*
G01X13122Y7972D01*
G01X13151Y7968D01*
G01X13180Y7964D01*
G01X13210Y7962D01*
G01X13240Y7959D01*
G01X13270Y7957D01*
G01X13300Y7956D01*
G01X13414Y7955D01*
G01X13508Y7956D01*
G01X13540Y7957D01*
G01X13571Y7958D01*
G01X13592Y7960D01*
G01X13612Y7962D01*
G01X13632Y7964D01*
G01X13715Y7975D01*
G01X13750Y7981D01*
G01X13786Y7987D01*
G01X13822Y7995D01*
G01X13858Y8003D01*
G01X13895Y8012D01*
G01X13932Y8022D01*
G01X13970Y8033D01*
G01X14008Y8045D01*
G01X14024Y8050D01*
G01X14040Y8056D01*
G01X14055Y8062D01*
G01X14116Y8086D01*
G01X14173Y8111D01*
G01X14177Y8113D01*
G01X14181Y8115D01*
G01X14186Y8117D01*
G01X14190Y8119D01*
G01X14194Y8122D01*
G01X14198Y8124D01*
G01X14202Y8127D01*
G01X14210Y8132D01*
G01X14223Y8139D01*
G01X14238Y8148D01*
G01X14252Y8156D01*
G01X14263Y8162D01*
G01X14275Y8169D01*
G01X14286Y8176D01*
G01X14297Y8183D01*
G01X14308Y8191D01*
G01X14319Y8199D01*
G01X14330Y8207D01*
G01X14339Y8214D01*
G01X14348Y8221D01*
G01X14356Y8228D01*
G01X14365Y8235D01*
G01X14374Y8243D01*
G01X14382Y8251D01*
G01X14390Y8259D01*
G01X14398Y8267D01*
G01X14406Y8275D01*
G01X14414Y8283D01*
G01X14421Y8292D01*
G01X14429Y8300D01*
G01X14436Y8309D01*
G01X14443Y8318D01*
G01X14450Y8327D01*
G01X14457Y8336D01*
G01X14465Y8347D01*
G01X14472Y8358D01*
G01X14480Y8369D01*
G01X14487Y8381D01*
G01X14494Y8392D01*
G01X14500Y8404D01*
G01X14507Y8415D01*
G01X14510Y8421D01*
G01X14512Y8427D01*
G01X14515Y8432D01*
G01X14518Y8438D01*
G01X14520Y8444D01*
G01X14523Y8450D01*
G01X14525Y8456D01*
G01X14527Y8462D01*
G01X14529Y8468D01*
G01X14532Y8475D01*
G01X14534Y8482D01*
G01X14536Y8489D01*
G01X14538Y8496D01*
G01X14540Y8503D01*
G01X14541Y8510D01*
G01X14543Y8517D01*
G01X14544Y8524D01*
G01X14546Y8534D01*
G01X14547Y8543D01*
G01X14548Y8552D01*
G01X14550Y8561D01*
G01Y8571D01*
G01X14551Y8580D01*
G01X14552Y8590D01*
G01X14553Y8609D01*
G01Y8628D01*
G01Y8648D01*
G01Y8667D01*
G01X14552Y8689D01*
G01X14550Y8711D01*
G01X14549Y8733D01*
G01X14546Y8755D01*
G01X14545Y8764D01*
G01X14544Y8773D01*
G01X14542Y8782D01*
G01X14541Y8791D01*
G01X14539Y8800D01*
G01X14537Y8809D01*
G01X14535Y8818D01*
G01X14533Y8827D01*
G01X14530Y8834D01*
G01X14528Y8841D01*
G01X14526Y8848D01*
G01X14524Y8855D01*
G01X14521Y8862D01*
G01X14518Y8869D01*
G01X14515Y8876D01*
G01X14512Y8882D01*
G01X14509Y8889D01*
G01X14506Y8897D01*
G01X14502Y8905D01*
G01X14497Y8913D01*
G01X14493Y8920D01*
G01X14489Y8928D01*
G01X14484Y8935D01*
G01X14480Y8943D01*
G01X14475Y8950D01*
G01X14469Y8958D01*
G01X14464Y8966D01*
G01X14458Y8973D01*
G01X14452Y8981D01*
G01X14446Y8988D01*
G01X14440Y8995D01*
G01X14436Y9000D01*
G01X14431Y9005D01*
G01X14427Y9010D01*
G01X14422Y9015D01*
G01X14417Y9020D01*
G01X14412Y9024D01*
G01X14407Y9029D01*
G01X14402Y9033D01*
G01X14397Y9038D01*
G01X14392Y9042D01*
G01X14387Y9046D01*
G01X14382Y9050D01*
G01X14377Y9054D01*
G01X14371Y9057D01*
G01X14366Y9061D01*
G01X14360Y9065D01*
G01X14354Y9069D01*
G01X14347Y9073D01*
G01X14340Y9077D01*
G01X14333Y9080D01*
G01X14327Y9084D01*
G01X14320Y9087D01*
G01X14313Y9091D01*
G01X14308Y9093D01*
G01X14303Y9095D01*
G01X14298Y9097D01*
G01X14293Y9099D01*
G01X14288Y9101D01*
G01X14283Y9103D01*
G01X14278Y9104D01*
G01X14274Y9105D01*
G01X14270Y9106D01*
G01X14266Y9108D01*
G01X14262Y9109D01*
G01X14257Y9110D01*
G01X14253D01*
G01X14248Y9111D01*
G01X14242Y9112D01*
G01X14237Y9113D01*
G01X14232Y9114D01*
G01X14226D01*
G01X14221Y9115D01*
G01X14211D01*
G01X14202Y9116D01*
G01X14193D01*
G01Y8878D01*
G01X14194D01*
G01X14196D01*
G01X14197D01*
G01X14199D01*
G01X14201D01*
G01X14202D01*
G01X14204D01*
G01X14205Y8877D01*
G01X14207D01*
G01X14210Y8876D01*
G01X14214D01*
G01X14217Y8875D01*
G01X14221Y8874D01*
G01X14224Y8873D01*
G01X14227D01*
G01X14230Y8872D01*
G01X14232Y8871D01*
G01X14235Y8870D01*
G01X14237Y8869D01*
G01X14240Y8868D01*
G01X14243Y8867D01*
G01X14245Y8866D01*
G01X14248Y8865D01*
G01X14250Y8864D01*
G01X14253Y8863D01*
G01X14255Y8862D01*
G01X14257Y8860D01*
G01X14260Y8859D01*
G01X14262Y8858D01*
G01X14264Y8857D01*
G01X14266Y8855D01*
G01X14268Y8854D01*
G01X14270Y8853D01*
G01X14272Y8851D01*
G01X14274Y8850D01*
G01X14276Y8848D01*
G01X14278Y8847D01*
G01X14280Y8845D01*
G01X14282Y8844D01*
G01X14284Y8842D01*
G01X14286Y8840D01*
G01X14288Y8838D01*
G01X14290Y8836D01*
G01X14292Y8834D01*
G01X14294Y8832D01*
G01X14296Y8830D01*
G01X14298Y8828D01*
G01X14299Y8826D01*
G01X14301Y8824D01*
G01X14303Y8822D01*
G01X14304Y8820D01*
G01X14306Y8818D01*
G01X14308Y8815D01*
G01X14310Y8812D01*
G01X14311Y8810D01*
G01X14313Y8807D01*
G01X14315Y8805D01*
G01X14316Y8802D01*
G01X14318Y8799D01*
G01X14319Y8797D01*
G01X14320Y8794D01*
G01X14322Y8791D01*
G01X14324Y8786D01*
G01X14327Y8780D01*
G01X14329Y8775D01*
G01Y8774D01*
G01X14330Y8772D01*
G01Y8771D01*
G01X14331Y8770D01*
G01Y8769D01*
G01Y8767D01*
G01X14332Y8766D01*
G01Y8765D01*
G01Y8763D01*
G01X14333Y8762D01*
G01Y8760D01*
G01Y8759D01*
G01Y8758D01*
G01Y8756D01*
G01X14334Y8755D01*
G01Y8753D01*
G01Y8752D01*
G01Y8751D01*
G01Y8741D01*
G01Y8731D01*
G01Y8720D01*
G01Y8710D01*
G01Y8709D01*
G01Y8708D01*
G01Y8707D01*
G01Y8705D01*
G01X14333Y8704D01*
G01Y8703D01*
G01Y8702D01*
G01Y8701D01*
G01Y8699D01*
G01X14332Y8698D01*
G01Y8697D01*
G01Y8696D01*
G01Y8695D01*
G01X14331Y8694D01*
G01Y8693D01*
G01Y8692D01*
G01X14330Y8691D01*
G01Y8690D01*
G01X14329Y8689D01*
G01Y8688D01*
G01X14326Y8683D01*
G01X14324Y8678D01*
G01X14321Y8673D01*
G01X14320Y8670D01*
G01X14318Y8667D01*
G01X14316Y8664D01*
G01X14315Y8661D01*
G01X14313Y8659D01*
G01X14311Y8656D01*
G01X14309Y8653D01*
G01X14308Y8651D01*
G01X14306Y8648D01*
G01X14304Y8646D01*
G01X14302Y8643D01*
G01X14300Y8641D01*
G01X14298Y8639D01*
G01X14297Y8637D01*
G01X14295Y8636D01*
G01X14293Y8634D01*
G01X14292Y8632D01*
G01X14290Y8631D01*
G01X14288Y8629D01*
G01X14286Y8627D01*
G01X14285Y8626D01*
G01X14283Y8624D01*
G01X14281Y8623D01*
G01X14279Y8621D01*
G01X14277Y8620D01*
G01X14275Y8619D01*
G01X14273Y8617D01*
G01X14272Y8616D01*
G01X14270Y8615D01*
G01X14268Y8613D01*
G01X14266Y8612D01*
G01X14264Y8611D01*
G01X14262Y8610D01*
G01X14260Y8609D01*
G01X14258Y8608D01*
G01X14255Y8607D01*
G01X14253Y8606D01*
G01X14251Y8605D01*
G01X14249Y8604D01*
G01X14247Y8603D01*
G01X14245D01*
G01X14243Y8602D01*
G01X14240Y8601D01*
G01X14238Y8600D01*
G01X14235D01*
G01X14233Y8599D01*
G01X14230Y8598D01*
G01X14228D01*
G01X14225Y8597D01*
G01X14223D01*
G01X14220Y8596D01*
G01X14218D01*
G01X14215D01*
G01X14213Y8595D01*
G01X14210D01*
G01X14208D01*
G01X14204D01*
G01X14200Y8594D01*
G01X14197D01*
G01X14193D01*
G01X14189D01*
G01X14186D01*
G01X14182D01*
G01X14180Y8595D01*
G01X14178D01*
G01X14175D01*
G01X14173D01*
G01X14171Y8596D01*
G01X14169D01*
G01X14167D01*
G01X14164Y8597D01*
G01X14162D01*
G01X14160Y8598D01*
G01X14158D01*
G01X14156Y8599D01*
G01X14154D01*
G01X14152Y8600D01*
G01X14151D01*
G01X14149Y8601D01*
G01X14147Y8602D01*
G01X14145D01*
G01X14143Y8603D01*
G01X14142Y8604D01*
G01X14140Y8605D01*
G01X14137Y8606D01*
G01X14134Y8607D01*
G01X14132Y8609D01*
G01X14129Y8610D01*
G01X14127Y8612D01*
G01X14124Y8613D01*
G01X14122Y8615D01*
G01X14119Y8616D01*
G01X14117Y8618D01*
G01X14115Y8619D01*
G01X14113Y8620D01*
G01X14111Y8622D01*
G01X14109Y8623D01*
G01X14108Y8625D01*
G01X14106Y8627D01*
G01X14104Y8628D01*
G01X14102Y8630D01*
G01X14100Y8631D01*
G01X14099Y8633D01*
G01X14097Y8635D01*
G01X14095Y8637D01*
G01X14094Y8638D01*
G01X14092Y8640D01*
G01X14091Y8642D01*
G01X14089Y8644D01*
G01X14088Y8646D01*
G01X14086Y8648D01*
G01X14085Y8650D01*
G01X14083Y8652D01*
G01X14082Y8654D01*
G01X14080Y8656D01*
G01X14079Y8659D01*
G01X14078Y8661D01*
G01X14076Y8663D01*
G01X14075Y8665D01*
G01X14074Y8668D01*
G01X14073Y8670D01*
G01X14072Y8672D01*
G01X14070Y8675D01*
G01X14069Y8677D01*
G01X14068Y8679D01*
G01Y8682D01*
G01X14067Y8684D01*
G01X14066Y8687D01*
G01X14065Y8689D01*
G01X14064Y8692D01*
G01X14063Y8694D01*
G01Y8697D01*
G01X14062Y8699D01*
G01Y8702D01*
G01X14061Y8705D01*
G01Y8707D01*
G01X14060Y8710D01*
G01Y8712D01*
G01X14059Y8715D01*
G01Y8718D01*
G01Y8720D01*
G01Y8723D01*
G01X14058Y8726D01*
G01Y8728D01*
G01Y8731D01*
G01Y8733D01*
G01Y8736D01*
G01Y8739D01*
G01Y8742D01*
G01X14059Y8745D01*
G01Y8747D01*
G01Y8750D01*
G01Y8753D01*
G01X14060Y8756D01*
G01Y8759D01*
G01X14061Y8762D01*
G01Y8764D01*
G01X14062Y8767D01*
G01Y8770D01*
G01X14063Y8773D01*
G01X14064Y8775D01*
G01X14065Y8778D01*
G01Y8781D01*
G01X14066Y8783D01*
G01X14067Y8786D01*
G01X14068Y8788D01*
G01X14069Y8790D01*
G01Y8792D01*
G01X14070Y8793D01*
G01X14071Y8795D01*
G01X14072Y8797D01*
G01X14073Y8799D01*
G01X14074Y8801D01*
G01X14075Y8803D01*
G01X14076Y8805D01*
G01X14077Y8807D01*
G01X14078Y8809D01*
G01X14080Y8810D01*
G01X14081Y8812D01*
G01X14082Y8815D01*
G01X14084Y8817D01*
G01X14086Y8819D01*
G01X14088Y8822D01*
G01X14090Y8824D01*
G01X14091Y8826D01*
G01X14093Y8828D01*
G01X14095Y8831D01*
G01X14097Y8833D01*
G01X14099Y8835D01*
G01X14102Y8837D01*
G01X14104Y8839D01*
G01X14106Y8841D01*
G01X14108Y8843D01*
G01X14110Y8845D01*
G01X14112Y8847D01*
G01X14115Y8849D01*
G01X14117Y8850D01*
G01X14119Y8852D01*
G01X14122Y8854D01*
G01X14124Y8856D01*
G01X14127Y8857D01*
G01X14129Y8859D01*
G01X14132Y8860D01*
G01X14133Y8861D01*
G01X14135Y8862D01*
G01X14137Y8863D01*
G01X14139Y8864D01*
G01X14140Y8865D01*
G01X14142Y8866D01*
G01X14144Y8867D01*
G01X14146Y8868D01*
G01X14148D01*
G01X14149Y8869D01*
G01X14151Y8870D01*
G01X14153Y8871D01*
G01X14155D01*
G01X14157Y8872D01*
G01X14159D01*
G01X14161Y8873D01*
G01X14165Y8874D01*
G01X14170Y8875D01*
G01X14174Y8876D01*
G01X14178Y8877D01*
G01X14180D01*
G01X14182D01*
G01X14183Y8878D01*
G01X14185D01*
G01X14186D01*
G01X14188D01*
G01X14189D01*
G01X14191D01*
G01X14193D01*
G01Y9116D01*
G01X14192D01*
G01X14183D01*
G01X14175D01*
G01X14167D01*
G01X14159D01*
G01X14151Y9115D01*
G01X14143D01*
G01X14139Y9114D01*
G01X14135D01*
G01X14131Y9113D01*
G01X14127D01*
G01X14123Y9112D01*
G01X14119Y9111D01*
G01X14115Y9110D01*
G01X14111Y9109D01*
G01X14107Y9108D01*
G01X14103Y9107D01*
G01X14099Y9106D01*
G01X14095Y9105D01*
G01X14091Y9104D01*
G01X14087Y9102D01*
G01X14083Y9101D01*
G01X14079Y9099D01*
G01X14072Y9096D01*
G01X14065Y9093D01*
G01X14058Y9090D01*
G01X14051Y9086D01*
G01X14044Y9083D01*
G01X14038Y9080D01*
G01X14033Y9077D01*
G01X14028Y9074D01*
G01X14022Y9071D01*
G01X14017Y9067D01*
G01X14012Y9064D01*
G01X14006Y9060D01*
G01X14001Y9057D01*
G01X13997Y9054D01*
G01X13993Y9051D01*
G01X13989Y9047D01*
G01X13985Y9044D01*
G01X13981Y9041D01*
G01X13977Y9037D01*
G01X13973Y9034D01*
G01X13969Y9030D01*
G01X13966Y9026D01*
G01X13962Y9022D01*
G01X13958Y9018D01*
G01X13955Y9014D01*
G01X13951Y9010D01*
G01X13948Y9006D01*
G01X13944Y9002D01*
G01X13941Y8998D01*
G01X13938Y8993D01*
G01X13934Y8989D01*
G01X13929Y8981D01*
G01X13924Y8974D01*
G01X13919Y8966D01*
G01X13915Y8958D01*
G01X13910Y8950D01*
G01X13906Y8943D01*
G01X13902Y8936D01*
G01X13899Y8929D01*
G01X13895Y8922D01*
G01X13892Y8915D01*
G01X13889Y8908D01*
G01X13886Y8900D01*
G01X13883Y8893D01*
G01X13881Y8886D01*
G01X13878Y8879D01*
G01X13876Y8871D01*
G01X13873Y8864D01*
G01X13871Y8855D01*
G01X13869Y8846D01*
G01X13866Y8838D01*
G01X13864Y8829D01*
G01X13862Y8820D01*
G01X13861Y8811D01*
G01X13859Y8802D01*
G01X13858Y8793D01*
G01X13857Y8785D01*
G01X13856Y8776D01*
G01X13855Y8767D01*
G01X13854Y8757D01*
G01X13853Y8748D01*
G01Y8739D01*
G01Y8730D01*
G01X13852Y8721D01*
G01Y8712D01*
G01X13853Y8703D01*
G01Y8694D01*
G01X13854Y8685D01*
G01Y8677D01*
G01X13855Y8669D01*
G01X13856Y8661D01*
G01X13857Y8653D01*
G01X13858Y8645D01*
G01X13859Y8637D01*
G01X13861Y8629D01*
G01X13862Y8621D01*
G01X13864Y8613D01*
G01X13866Y8605D01*
G01X13868Y8598D01*
G01X13874Y8571D01*
G01X13875Y8566D01*
G01X13876Y8562D01*
G01X13877Y8557D01*
G01X13878Y8552D01*
G01Y8548D01*
G01X13879Y8544D01*
G01Y8540D01*
G01Y8537D01*
G01X13880Y8533D01*
G01Y8521D01*
G01Y8509D01*
G01Y8483D01*
G01Y8481D01*
G01Y8480D01*
G01Y8479D01*
G01Y8477D01*
G01Y8476D01*
G01Y8475D01*
G01X13879Y8473D01*
G01Y8472D01*
G01Y8471D01*
G01Y8469D01*
G01X13878Y8468D01*
G01Y8467D01*
G01Y8466D01*
G01Y8465D01*
G01X13877Y8464D01*
G01Y8463D01*
G01Y8462D01*
G01X13876Y8461D01*
G01Y8460D01*
G01Y8459D01*
G01X13875Y8458D01*
G01Y8457D01*
G01X13871Y8448D01*
G01X13866Y8438D01*
G01X13864Y8434D01*
G01X13862Y8431D01*
G01X13861Y8428D01*
G01X13859Y8424D01*
G01X13857Y8421D01*
G01X13855Y8419D01*
G01X13854Y8416D01*
G01X13852Y8414D01*
G01X13850Y8411D01*
G01X13848Y8409D01*
G01X13847Y8407D01*
G01X13844Y8403D01*
G01X13842Y8400D01*
G01X13839Y8397D01*
G01X13836Y8394D01*
G01X13833Y8391D01*
G01X13813Y8370D01*
G01X13803Y8360D01*
G01X13792Y8350D01*
G01X13788Y8346D01*
G01X13783Y8342D01*
G01X13779Y8338D01*
G01X13774Y8335D01*
G01X13770Y8331D01*
G01X13765Y8328D01*
G01X13760Y8324D01*
G01X13755Y8321D01*
G01X13743Y8314D01*
G01X13731Y8306D01*
G01X13718Y8299D01*
G01X13704Y8291D01*
G01X13691Y8284D01*
G01X13666Y8272D01*
G01X13642Y8261D01*
G01X13617Y8250D01*
G01X13593Y8240D01*
G01X13585Y8237D01*
G01X13578Y8234D01*
G01X13571Y8232D01*
G01X13563Y8229D01*
G01X13555Y8227D01*
G01X13543Y8223D01*
G01X13530Y8220D01*
G01X13517Y8216D01*
G01X13503Y8213D01*
G01X13490Y8210D01*
G01X13476Y8208D01*
G01X13463Y8206D01*
G01X13450Y8204D01*
G01X13437Y8202D01*
G01X13432Y8201D01*
G01X13428D01*
G01X13424D01*
G01X13420Y8200D01*
G01X13416D01*
G01X13411D01*
G01X13407D01*
G01X13399D01*
G01X13392D01*
G01X13384Y8201D01*
G01X13376D01*
G01X13369Y8202D01*
G01X13361D01*
G01X13354Y8203D01*
G01X13346Y8204D01*
G01X13338Y8206D01*
G01X13331Y8207D01*
G01X13323Y8208D01*
G01X13316Y8210D01*
G01X13308Y8212D01*
G01X13301Y8213D01*
G01X13285Y8218D01*
G01X13269Y8222D01*
G01X13254Y8227D01*
G01X13238Y8232D01*
G01X13223Y8237D01*
G01X13207Y8243D01*
G01X13192Y8248D01*
G01X13177Y8254D01*
G01X13162Y8261D01*
G01X13147Y8267D01*
G01X13133Y8274D01*
G01X13118Y8281D01*
G01X13103Y8289D01*
G01X13089Y8296D01*
G01X13075Y8304D01*
G01X13061Y8312D01*
G01X13055Y8316D01*
G01X13049Y8319D01*
G01X13043Y8323D01*
G01X13038Y8327D01*
G01X13032Y8331D01*
G01X13026Y8335D01*
G01X13021Y8339D01*
G01X13015Y8343D01*
G01X13010Y8348D01*
G01X13005Y8352D01*
G01X12999Y8357D01*
G01X12994Y8361D01*
G01X12989Y8366D01*
G01X12984Y8371D01*
G01X12979Y8376D01*
G01X12972Y8384D01*
G01X12964Y8392D01*
G01X12957Y8401D01*
G01X12954Y8403D01*
G01X12952Y8406D01*
G01X12950Y8409D01*
G01X12948Y8412D01*
G01X12945Y8415D01*
G01X12943Y8418D01*
G01X12941Y8421D01*
G01X12940Y8423D01*
G01X12939Y8425D01*
G01X12937Y8427D01*
G01X12936Y8430D01*
G01X12935Y8432D01*
G01X12934Y8434D01*
G01X12933Y8436D01*
G01X12932Y8439D01*
G01X12930Y8441D01*
G01X12929Y8444D01*
G01X12928Y8447D01*
G01X12926Y8451D01*
G01X12925Y8454D01*
G01X12924Y8457D01*
G01X12923Y8461D01*
G01X12922Y8464D01*
G01X12921Y8466D01*
G01X12920Y8469D01*
G01Y8471D01*
G01X12919Y8474D01*
G01Y8476D01*
G01X12918Y8479D01*
G01Y8481D01*
G01X12917Y8484D01*
G01Y8486D01*
G01Y8489D01*
G01Y8491D01*
G01X12916Y8495D01*
G01Y8499D01*
G01Y8503D01*
G01Y8506D01*
G01X12916Y8510D01*
G37*
G36*
G01X11040Y7024D02*
G01Y7014D01*
G01Y7004D01*
G01X11041Y6993D01*
G01Y6983D01*
G01X11042Y6973D01*
G01X11043Y6963D01*
G01X11044Y6953D01*
G01X11046Y6943D01*
G01X11047Y6933D01*
G01X11048Y6928D01*
G01X11049Y6923D01*
G01X11050Y6918D01*
G01X11051Y6913D01*
G01X11053Y6908D01*
G01X11054Y6903D01*
G01X11055Y6898D01*
G01X11057Y6894D01*
G01X11058Y6889D01*
G01X11060Y6884D01*
G01X11062Y6879D01*
G01X11064Y6874D01*
G01X11066Y6870D01*
G01X11068Y6865D01*
G01X11070Y6860D01*
G01X11071Y6856D01*
G01X11073Y6853D01*
G01X11075Y6849D01*
G01X11077Y6845D01*
G01X11079Y6842D01*
G01X11081Y6838D01*
G01X11084Y6835D01*
G01X11086Y6831D01*
G01X11088Y6828D01*
G01X11091Y6824D01*
G01X11093Y6821D01*
G01X11095Y6817D01*
G01X11098Y6814D01*
G01X11101Y6811D01*
G01X11103Y6808D01*
G01X11106Y6804D01*
G01X11109Y6801D01*
G01X11112Y6797D01*
G01X11116Y6793D01*
G01X11120Y6790D01*
G01X11124Y6786D01*
G01X11128Y6782D01*
G01X11132Y6779D01*
G01X11136Y6775D01*
G01X11140Y6772D01*
G01X11144Y6768D01*
G01X11148Y6765D01*
G01X11152Y6762D01*
G01X11157Y6759D01*
G01X11161Y6756D01*
G01X11166Y6753D01*
G01X11169Y6751D01*
G01X11172Y6749D01*
G01X11176Y6747D01*
G01X11179Y6745D01*
G01X11184Y6742D01*
G01X11190Y6739D01*
G01X11195Y6736D01*
G01X11200Y6734D01*
G01X11206Y6731D01*
G01X11211Y6729D01*
G01X11215Y6728D01*
G01X11218Y6726D01*
G01X11222Y6725D01*
G01X11225Y6724D01*
G01X11230Y6722D01*
G01X11235Y6721D01*
G01X11239Y6720D01*
G01X11244Y6719D01*
G01X11246Y6718D01*
G01X11249D01*
G01X11251Y6717D01*
G01X11253D01*
G01X11255Y6716D01*
G01X11258D01*
G01X11260D01*
G01X11264Y6715D01*
G01X11268D01*
G01X11272D01*
G01X11275Y6714D01*
G01X11279D01*
G01X11312D01*
G01X11331D01*
G01X11351D01*
G01X11356D01*
G01X11362Y6715D01*
G01X11368D01*
G01X11373Y6716D01*
G01X11379Y6717D01*
G01X11384D01*
G01X11388Y6718D01*
G01X11393Y6719D01*
G01X11397Y6720D01*
G01X11401Y6721D01*
G01X11406Y6722D01*
G01X11416Y6724D01*
G01X11427Y6727D01*
G01X11438Y6731D01*
G01X11447Y6734D01*
G01X11456Y6737D01*
G01X11465Y6740D01*
G01X11499Y6754D01*
G01X11534Y6770D01*
G01X11550Y6777D01*
G01X11565Y6785D01*
G01X11578Y6791D01*
G01X11589Y6796D01*
G01X11599Y6801D01*
G01X11600D01*
G01X11601D01*
G01X11602D01*
G01X11603D01*
G01X11604D01*
G01Y6800D01*
G01X11605D01*
G01Y6799D01*
G01X11606D01*
G01Y6798D01*
G01Y6797D01*
G01X11607D01*
G01Y6796D01*
G01Y6795D01*
G01X11608Y6794D01*
G01Y6793D01*
G01X11619Y6746D01*
G01X11629Y6709D01*
G01X11639Y6673D01*
G01X11654Y6627D01*
G01X11662Y6604D01*
G01X11670Y6581D01*
G01X11679Y6558D01*
G01X11689Y6535D01*
G01X11698Y6513D01*
G01X11709Y6491D01*
G01X11719Y6468D01*
G01X11730Y6446D01*
G01X11742Y6425D01*
G01X11754Y6403D01*
G01X11767Y6382D01*
G01X11779Y6361D01*
G01X11790Y6344D01*
G01X11802Y6327D01*
G01X11813Y6310D01*
G01X11825Y6293D01*
G01X11837Y6277D01*
G01X11850Y6261D01*
G01X11863Y6245D01*
G01X11873Y6232D01*
G01X11884Y6219D01*
G01X11895Y6207D01*
G01X11906Y6195D01*
G01X11918Y6183D01*
G01X11930Y6171D01*
G01X11942Y6160D01*
G01X11954Y6149D01*
G01X11972Y6133D01*
G01X11989Y6117D01*
G01X12004Y6104D01*
G01X12012Y6096D01*
G01X12027Y6083D01*
G01X12003Y6058D01*
G01X12000Y6054D01*
G01X11996Y6051D01*
G01X11993Y6047D01*
G01X11989Y6043D01*
G01X11986Y6039D01*
G01X11983Y6035D01*
G01X11980Y6030D01*
G01X11977Y6026D01*
G01X11974Y6022D01*
G01X11971Y6018D01*
G01X11968Y6014D01*
G01X11966Y6010D01*
G01X11964Y6006D01*
G01X11961Y6002D01*
G01X11959Y5998D01*
G01X11957Y5994D01*
G01X11955Y5990D01*
G01X11953Y5985D01*
G01X11951Y5981D01*
G01X11949Y5977D01*
G01X11948Y5973D01*
G01X11946Y5968D01*
G01X11944Y5964D01*
G01X11943Y5959D01*
G01X11941Y5955D01*
G01X11940Y5950D01*
G01X11939Y5946D01*
G01X11937Y5941D01*
G01X11936Y5937D01*
G01X11935Y5932D01*
G01X11934Y5928D01*
G01X11933Y5923D01*
G01Y5918D01*
G01X11932Y5913D01*
G01X11931Y5907D01*
G01X11930Y5902D01*
G01Y5897D01*
G01Y5891D01*
G01X11929Y5886D01*
G01Y5881D01*
G01Y5875D01*
G01Y5870D01*
G01Y5864D01*
G01Y5859D01*
G01Y5853D01*
G01X11930Y5848D01*
G01Y5842D01*
G01X11931Y5837D01*
G01Y5831D01*
G01X11932Y5826D01*
G01X11933Y5820D01*
G01X11934Y5815D01*
G01X11935Y5810D01*
G01Y5806D01*
G01X11936Y5802D01*
G01X11937Y5798D01*
G01X11939Y5794D01*
G01X11940Y5790D01*
G01X11941Y5786D01*
G01X11942Y5781D01*
G01X11944Y5777D01*
G01X11945Y5773D01*
G01X11947Y5769D01*
G01X11949Y5765D01*
G01X11950Y5762D01*
G01X11952Y5758D01*
G01X11954Y5754D01*
G01X11956Y5750D01*
G01X11958Y5746D01*
G01X11960Y5742D01*
G01X11962Y5739D01*
G01X11964Y5735D01*
G01X11967Y5731D01*
G01X11969Y5728D01*
G01X11971Y5724D01*
G01X11974Y5721D01*
G01X11977Y5716D01*
G01X11980Y5712D01*
G01X11984Y5708D01*
G01X11987Y5704D01*
G01X11991Y5700D01*
G01X11995Y5695D01*
G01X11998Y5691D01*
G01X12002Y5688D01*
G01X12006Y5684D01*
G01X12010Y5680D01*
G01X12019Y5671D01*
G01X12029Y5662D01*
G01X12032Y5660D01*
G01X12034Y5658D01*
G01X12037Y5656D01*
G01X12039Y5654D01*
G01X12042Y5652D01*
G01X12045Y5651D01*
G01X12048Y5648D01*
G01X12052Y5646D01*
G01X12056Y5644D01*
G01X12059Y5641D01*
G01X12063Y5639D01*
G01X12095Y5622D01*
G01X12103Y5618D01*
G01X12112Y5613D01*
G01X12121Y5609D01*
G01X12130Y5605D01*
G01X12139Y5602D01*
G01X12148Y5598D01*
G01X12163Y5592D01*
G01X12179Y5587D01*
G01X12194Y5582D01*
G01X12210Y5577D01*
G01X12227Y5572D01*
G01X12245Y5567D01*
G01X12262Y5563D01*
G01X12280Y5559D01*
G01X12306Y5554D01*
G01X12332Y5549D01*
G01X12358Y5545D01*
G01X12422Y5536D01*
G01X12437Y5534D01*
G01X12451Y5532D01*
G01X12466Y5531D01*
G01X12481Y5530D01*
G01X12496Y5529D01*
G01X12510D01*
G01X12576Y5528D01*
G01X12615Y5529D01*
G01X12655Y5530D01*
G01X12670Y5531D01*
G01X12686Y5532D01*
G01X12701Y5533D01*
G01X12716Y5535D01*
G01X12731Y5537D01*
G01X12745Y5539D01*
G01X12759Y5541D01*
G01X12774Y5544D01*
G01X12808Y5552D01*
G01X12842Y5560D01*
G01X12860Y5565D01*
G01X12878Y5570D01*
G01X12896Y5576D01*
G01X12913Y5581D01*
G01X12926Y5586D01*
G01X12938Y5590D01*
G01X12950Y5595D01*
G01X12962Y5600D01*
G01X12974Y5606D01*
G01X12984Y5610D01*
G01X12993Y5615D01*
G01X13002Y5619D01*
G01X13011Y5624D01*
G01X13020Y5629D01*
G01X13029Y5634D01*
G01X13037Y5639D01*
G01X13046Y5645D01*
G01X13054Y5650D01*
G01X13062Y5656D01*
G01X13070Y5662D01*
G01X13078Y5668D01*
G01X13104Y5688D01*
G01X13131Y5686D01*
G01X13144Y5685D01*
G01X13165Y5683D01*
G01X13187Y5681D01*
G01X13209Y5679D01*
G01X13230Y5678D01*
G01X13250Y5677D01*
G01X13270Y5676D01*
G01X13290Y5675D01*
G01X13420D01*
G01X13550Y5677D01*
G01X13578D01*
G01X13607Y5679D01*
G01X13635Y5681D01*
G01X13707Y5688D01*
G01X13717Y5679D01*
G01X13719Y5677D01*
G01X13722Y5675D01*
G01X13724Y5673D01*
G01X13727Y5670D01*
G01X13730Y5668D01*
G01X13732Y5666D01*
G01X13744Y5658D01*
G01X13755Y5651D01*
G01X13768Y5642D01*
G01X13780Y5634D01*
G01X13788Y5630D01*
G01X13796Y5625D01*
G01X13804Y5621D01*
G01X13815Y5615D01*
G01X13826Y5610D01*
G01X13837Y5604D01*
G01X13848Y5599D01*
G01X13859Y5594D01*
G01X13871Y5589D01*
G01X13882Y5585D01*
G01X13894Y5581D01*
G01X13905Y5576D01*
G01X13917Y5573D01*
G01X13929Y5569D01*
G01X13941Y5565D01*
G01X13952Y5562D01*
G01X13964Y5559D01*
G01X13976Y5556D01*
G01X13988Y5553D01*
G01X14001Y5551D01*
G01X14025Y5546D01*
G01X14049Y5543D01*
G01X14073Y5539D01*
G01X14098Y5536D01*
G01X14122Y5533D01*
G01X14146Y5531D01*
G01X14171Y5530D01*
G01X14196Y5528D01*
G01X14220D01*
G01X14245Y5527D01*
G01X14269D01*
G01X14294Y5528D01*
G01X14319Y5529D01*
G01X14344Y5531D01*
G01X14369Y5533D01*
G01X14393Y5535D01*
G01X14418Y5538D01*
G01X14443Y5542D01*
G01X14467Y5546D01*
G01X14492Y5550D01*
G01X14506Y5553D01*
G01X14520Y5556D01*
G01X14534Y5559D01*
G01X14549Y5563D01*
G01X14563Y5567D01*
G01X14577Y5571D01*
G01X14590Y5575D01*
G01X14604Y5580D01*
G01X14618Y5585D01*
G01X14632Y5590D01*
G01X14645Y5595D01*
G01X14659Y5601D01*
G01X14672Y5606D01*
G01X14685Y5613D01*
G01X14698Y5619D01*
G01X14706Y5623D01*
G01X14714Y5627D01*
G01X14722Y5632D01*
G01X14730Y5636D01*
G01X14737Y5641D01*
G01X14745Y5645D01*
G01X14752Y5650D01*
G01X14760Y5656D01*
G01X14764Y5659D01*
G01X14768Y5662D01*
G01X14772Y5665D01*
G01X14776Y5668D01*
G01X14780Y5671D01*
G01X14784Y5675D01*
G01X14788Y5678D01*
G01X14792Y5682D01*
G01X14796Y5686D01*
G01X14799Y5689D01*
G01X14803Y5693D01*
G01X14807Y5697D01*
G01X14810Y5700D01*
G01X14813Y5704D01*
G01X14816Y5707D01*
G01X14818Y5711D01*
G01X14821Y5715D01*
G01X14824Y5718D01*
G01X14827Y5722D01*
G01X14829Y5726D01*
G01X14832Y5730D01*
G01X14834Y5734D01*
G01X14837Y5737D01*
G01X14839Y5741D01*
G01X14841Y5745D01*
G01X14844Y5751D01*
G01X14846Y5756D01*
G01X14849Y5761D01*
G01X14851Y5766D01*
G01X14854Y5771D01*
G01X14856Y5777D01*
G01X14858Y5782D01*
G01X14860Y5787D01*
G01X14862Y5793D01*
G01X14864Y5798D01*
G01X14865Y5804D01*
G01X14866Y5808D01*
G01X14868Y5812D01*
G01X14869Y5816D01*
G01X14870Y5820D01*
G01Y5823D01*
G01X14871Y5826D01*
G01Y5829D01*
G01X14872Y5832D01*
G01Y5835D01*
G01X14873Y5839D01*
G01Y5843D01*
G01Y5847D01*
G01Y5851D01*
G01X14874Y5862D01*
G01Y5873D01*
G01Y5879D01*
G01Y5885D01*
G01X14873Y5890D01*
G01Y5896D01*
G01X14872Y5902D01*
G01Y5907D01*
G01X14871Y5913D01*
G01X14870Y5919D01*
G01Y5925D01*
G01X14869Y5929D01*
G01X14868Y5934D01*
G01X14867Y5939D01*
G01X14866Y5944D01*
G01X14865Y5949D01*
G01X14863Y5954D01*
G01X14862Y5959D01*
G01X14860Y5963D01*
G01X14859Y5968D01*
G01X14857Y5973D01*
G01X14856Y5978D01*
G01X14854Y5982D01*
G01X14852Y5987D01*
G01X14850Y5991D01*
G01X14848Y5995D01*
G01X14846Y6000D01*
G01X14844Y6004D01*
G01X14842Y6008D01*
G01X14840Y6013D01*
G01X14837Y6017D01*
G01X14835Y6021D01*
G01X14833Y6024D01*
G01X14831Y6028D01*
G01X14828Y6032D01*
G01X14826Y6035D01*
G01X14824Y6039D01*
G01X14821Y6042D01*
G01X14818Y6045D01*
G01X14816Y6049D01*
G01X14813Y6052D01*
G01X14810Y6055D01*
G01X14803Y6065D01*
G01X14796Y6073D01*
G01X14791Y6080D01*
G01X14790D01*
G01Y6081D01*
G01Y6082D01*
G01Y6083D01*
G01X14791D01*
G01X14804Y6096D01*
G01X14820Y6112D01*
G01X14839Y6130D01*
G01X14855Y6145D01*
G01X14870Y6161D01*
G01X14886Y6176D01*
G01X14901Y6192D01*
G01X14915Y6208D01*
G01X14929Y6224D01*
G01X14943Y6241D01*
G01X14956Y6257D01*
G01X14969Y6274D01*
G01X14981Y6291D01*
G01X14994Y6308D01*
G01X15006Y6326D01*
G01X15017Y6344D01*
G01X15029Y6363D01*
G01X15040Y6381D01*
G01X15051Y6400D01*
G01X15062Y6420D01*
G01X15073Y6441D01*
G01X15083Y6462D01*
G01X15093Y6482D01*
G01X15103Y6504D01*
G01X15112Y6525D01*
G01X15121Y6546D01*
G01X15130Y6568D01*
G01X15138Y6591D01*
G01X15146Y6613D01*
G01X15153Y6636D01*
G01X15160Y6659D01*
G01X15167Y6681D01*
G01X15173Y6704D01*
G01X15180Y6732D01*
G01X15186Y6760D01*
G01X15192Y6788D01*
G01X15197Y6816D01*
G01X15202Y6844D01*
G01X15206Y6872D01*
G01X15210Y6902D01*
G01X15213Y6931D01*
G01X15216Y6960D01*
G01X15218Y6990D01*
G01X15219Y7019D01*
G01X15220Y7049D01*
G01X15221Y7082D01*
G01Y7116D01*
G01X15218Y7198D01*
G01X15215Y7276D01*
G01X15214Y7285D01*
G01X15213Y7294D01*
G01X15212Y7303D01*
G01X15211Y7311D01*
G01X15210Y7320D01*
G01X15207Y7338D01*
G01X15253Y7379D01*
G01X15277Y7401D01*
G01X15301Y7424D01*
G01X15324Y7447D01*
G01X15362Y7486D01*
G01X15398Y7526D01*
G01X15433Y7566D01*
G01X15468Y7607D01*
G01X15488Y7633D01*
G01X15508Y7659D01*
G01X15527Y7685D01*
G01X15551Y7720D01*
G01X15579Y7760D01*
G01X15607Y7801D01*
G01Y7802D01*
G01Y7803D01*
G01Y7804D01*
G01X15608D01*
G01Y7805D01*
G01X15615Y7818D01*
G01X15624Y7833D01*
G01X15634Y7850D01*
G01X15644Y7867D01*
G01X15654Y7884D01*
G01X15663Y7901D01*
G01X15698Y7970D01*
G01X15730Y8037D01*
G01X15735Y8048D01*
G01X15739Y8059D01*
G01X15744Y8071D01*
G01X15748Y8082D01*
G01X15754Y8098D01*
G01X15761Y8117D01*
G01X15767Y8135D01*
G01X15772Y8149D01*
G01X15776Y8160D01*
G01X15780Y8171D01*
G01X15783Y8182D01*
G01X15796Y8228D01*
G01X15808Y8275D01*
G01X15812Y8294D01*
G01X15816Y8313D01*
G01X15819Y8333D01*
G01X15822Y8353D01*
G01X15825Y8374D01*
G01X15827Y8394D01*
G01X15829Y8415D01*
G01X15830Y8436D01*
G01X15831Y8456D01*
G01X15832Y8476D01*
G01Y8496D01*
G01Y8506D01*
G01X15831Y8517D01*
G01X15830Y8527D01*
G01Y8538D01*
G01X15829Y8549D01*
G01X15828Y8556D01*
G01X15827Y8563D01*
G01X15826Y8570D01*
G01X15825Y8578D01*
G01X15823Y8585D01*
G01X15822Y8592D01*
G01X15820Y8599D01*
G01X15818Y8606D01*
G01X15817Y8613D01*
G01X15815Y8620D01*
G01X15813Y8627D01*
G01X15810Y8634D01*
G01X15808Y8641D01*
G01X15806Y8646D01*
G01X15804Y8651D01*
G01X15802Y8656D01*
G01X15800Y8661D01*
G01X15798Y8666D01*
G01X15795Y8671D01*
G01X15793Y8676D01*
G01X15790Y8681D01*
G01X15788Y8686D01*
G01X15785Y8691D01*
G01X15782Y8696D01*
G01X15780Y8700D01*
G01X15777Y8705D01*
G01X15774Y8710D01*
G01X15770Y8714D01*
G01X15767Y8719D01*
G01X15764Y8723D01*
G01X15761Y8727D01*
G01X15758Y8731D01*
G01X15755Y8734D01*
G01X15752Y8738D01*
G01X15749Y8742D01*
G01X15745Y8746D01*
G01X15742Y8749D01*
G01X15739Y8753D01*
G01X15735Y8756D01*
G01X15731Y8760D01*
G01X15728Y8763D01*
G01X15724Y8766D01*
G01X15720Y8769D01*
G01X15716Y8773D01*
G01X15713Y8776D01*
G01X15709Y8779D01*
G01X15705Y8781D01*
G01X15701Y8784D01*
G01X15697Y8787D01*
G01X15694Y8789D01*
G01X15690Y8792D01*
G01X15686Y8794D01*
G01X15682Y8796D01*
G01X15678Y8799D01*
G01X15674Y8801D01*
G01X15670Y8803D01*
G01X15665Y8805D01*
G01X15661Y8807D01*
G01X15657Y8809D01*
G01X15653Y8811D01*
G01X15649Y8812D01*
G01X15644Y8814D01*
G01X15640Y8816D01*
G01X15636Y8817D01*
G01X15631Y8819D01*
G01X15626Y8820D01*
G01X15622Y8821D01*
G01X15617Y8823D01*
G01X15614D01*
G01X15612Y8824D01*
G01X15609Y8825D01*
G01X15606D01*
G01X15604D01*
G01X15601Y8826D01*
G01X15596D01*
G01X15591Y8827D01*
G01X15586D01*
G01X15581Y8828D01*
G01X15548Y8829D01*
G01X15512Y8830D01*
G01X15508D01*
G01X15504D01*
G01X15500Y8829D01*
G01X15496D01*
G01X15492D01*
G01X15488Y8828D01*
G01X15485D01*
G01X15482D01*
G01X15479Y8827D01*
G01X15476D01*
G01X15473Y8826D01*
G01X15460Y8823D01*
G01X15446Y8819D01*
G01X15436Y8817D01*
G01X15427Y8814D01*
G01X15417Y8811D01*
G01X15408Y8808D01*
G01X15399Y8805D01*
G01X15389Y8801D01*
G01X15380Y8798D01*
G01X15370Y8794D01*
G01X15361Y8790D01*
G01X15352Y8785D01*
G01X15339Y8779D01*
G01X15327Y8773D01*
G01X15314Y8767D01*
G01X15302Y8760D01*
G01X15284Y8749D01*
G01X15265Y8738D01*
G01X15248Y8727D01*
G01X15238Y8721D01*
G01X15228Y8715D01*
G01X15220Y8710D01*
G01X15218Y8709D01*
G01X15217Y8708D01*
G01X15215Y8707D01*
G01X15213Y8706D01*
G01X15211Y8704D01*
G01X15208Y8703D01*
G01X15206Y8702D01*
G01X15204Y8700D01*
G01X15202Y8699D01*
G01X15142Y8657D01*
G01X15082Y8615D01*
G01X15080Y8614D01*
G01X15078Y8612D01*
G01X15076Y8611D01*
G01X15074Y8609D01*
G01X15072Y8608D01*
G01X15070Y8606D01*
G01X15069Y8605D01*
G01X15068Y8604D01*
G01X15067D01*
G01Y8603D01*
G01X15066D01*
G01X15065Y8602D01*
G01X15064D01*
G01X15063D01*
G01X15062D01*
G01X15061D01*
G01Y8603D01*
G01X15058Y8616D01*
G01X15056Y8630D01*
G01X15053Y8647D01*
G01X15049Y8667D01*
G01X15045Y8693D01*
G01X15040Y8720D01*
G01X15036Y8744D01*
G01X15030Y8773D01*
G01X15024Y8803D01*
G01X15017Y8834D01*
G01X15010Y8864D01*
G01X15001Y8895D01*
G01X14993Y8925D01*
G01X14984Y8955D01*
G01X14974Y8984D01*
G01X14961Y9021D01*
G01X14948Y9058D01*
G01X14933Y9095D01*
G01X14918Y9131D01*
G01X14902Y9168D01*
G01X14891Y9191D01*
G01X14879Y9214D01*
G01X14868Y9237D01*
G01X14855Y9260D01*
G01X14843Y9283D01*
G01X14830Y9305D01*
G01X14816Y9327D01*
G01X14803Y9349D01*
G01X14788Y9370D01*
G01X14774Y9391D01*
G01X14759Y9412D01*
G01X14744Y9432D01*
G01X14728Y9452D01*
G01X14712Y9472D01*
G01X14691Y9497D01*
G01X14670Y9521D01*
G01X14648Y9545D01*
G01X14626Y9568D01*
G01X14604Y9591D01*
G01X14581Y9614D01*
G01X14553Y9641D01*
G01X14524Y9668D01*
G01X14507Y9683D01*
G01X14490Y9698D01*
G01X14473Y9712D01*
G01X14455Y9726D01*
G01X14437Y9740D01*
G01X14419Y9753D01*
G01X14387Y9776D01*
G01X14354Y9798D01*
G01X14313Y9825D01*
G01X14272Y9851D01*
G01X14245Y9867D01*
G01X14218Y9882D01*
G01X14190Y9897D01*
G01X14163Y9911D01*
G01X14135Y9925D01*
G01X14107Y9938D01*
G01X14078Y9951D01*
G01X14049Y9963D01*
G01X14019Y9975D01*
G01X13987Y9987D01*
G01X13955Y9999D01*
G01X13922Y10010D01*
G01X13889Y10020D01*
G01X13857Y10030D01*
G01X13824Y10039D01*
G01X13791Y10047D01*
G01X13758Y10055D01*
G01X13726Y10061D01*
G01X13694Y10068D01*
G01X13661Y10073D01*
G01X13629Y10078D01*
G01X13604Y10081D01*
G01X13580Y10083D01*
G01X13555Y10086D01*
G01X13530Y10087D01*
G01X13506Y10088D01*
G01X13442Y10091D01*
G01X13405D01*
G01X13374D01*
G01X13356Y10090D01*
G01Y9969D01*
G01X13441Y9968D01*
G01X13526Y9965D01*
G01X13540Y9964D01*
G01X13553D01*
G01X13567Y9962D01*
G01X13581Y9961D01*
G01X13607Y9957D01*
G01X13633Y9953D01*
G01X13659Y9949D01*
G01X13685Y9944D01*
G01X13711Y9939D01*
G01X13747Y9930D01*
G01X13782Y9921D01*
G01X13818Y9912D01*
G01X13853Y9902D01*
G01X13887Y9891D01*
G01X13921Y9880D01*
G01X13955Y9869D01*
G01X13988Y9856D01*
G01X14004Y9850D01*
G01X14020Y9844D01*
G01X14035Y9837D01*
G01X14051Y9830D01*
G01X14066Y9823D01*
G01X14081Y9815D01*
G01X14096Y9807D01*
G01X14112Y9799D01*
G01X14129Y9791D01*
G01X14143Y9783D01*
G01X14151Y9779D01*
G01X14162Y9774D01*
G01X14172Y9768D01*
G01X14183Y9762D01*
G01X14193Y9756D01*
G01X14204Y9750D01*
G01X14238Y9729D01*
G01X14272Y9707D01*
G01X14307Y9684D01*
G01X14341Y9660D01*
G01X14361Y9646D01*
G01X14380Y9631D01*
G01X14398Y9616D01*
G01X14418Y9600D01*
G01X14437Y9584D01*
G01X14456Y9567D01*
G01X14475Y9550D01*
G01X14493Y9532D01*
G01X14511Y9514D01*
G01X14529Y9496D01*
G01X14546Y9478D01*
G01X14563Y9459D01*
G01X14580Y9440D01*
G01X14597Y9421D01*
G01X14613Y9401D01*
G01X14628Y9381D01*
G01X14644Y9361D01*
G01X14659Y9340D01*
G01X14673Y9320D01*
G01X14688Y9299D01*
G01X14702Y9278D01*
G01X14715Y9256D01*
G01X14729Y9234D01*
G01X14741Y9212D01*
G01X14754Y9190D01*
G01X14766Y9167D01*
G01X14778Y9145D01*
G01X14789Y9122D01*
G01X14800Y9099D01*
G01X14810Y9075D01*
G01X14822Y9049D01*
G01X14832Y9022D01*
G01X14843Y8994D01*
G01X14853Y8967D01*
G01X14862Y8940D01*
G01X14871Y8912D01*
G01X14879Y8884D01*
G01X14887Y8856D01*
G01X14894Y8830D01*
G01X14900Y8804D01*
G01X14905Y8778D01*
G01X14925Y8669D01*
G01X14942Y8556D01*
G01X14948Y8507D01*
G01X14953Y8459D01*
G01X14956Y8432D01*
G01X14958Y8409D01*
G01X14960Y8389D01*
G01X14961D01*
G01Y8388D01*
G01X14962D01*
G01X14963D01*
G01X14988Y8403D01*
G01X15012Y8419D01*
G01X15018Y8423D01*
G01X15024Y8427D01*
G01X15030Y8432D01*
G01X15040Y8439D01*
G01X15057Y8451D01*
G01X15077Y8465D01*
G01X15098Y8479D01*
G01X15119Y8493D01*
G01X15140Y8508D01*
G01X15160Y8522D01*
G01X15173Y8530D01*
G01X15245Y8580D01*
G01X15275Y8600D01*
G01X15306Y8619D01*
G01X15333Y8635D01*
G01X15361Y8651D01*
G01X15388Y8666D01*
G01X15416Y8680D01*
G01X15427Y8685D01*
G01X15439Y8691D01*
G01X15450Y8696D01*
G01X15452Y8697D01*
G01X15455Y8698D01*
G01X15458Y8699D01*
G01X15460Y8700D01*
G01X15463D01*
G01X15466Y8701D01*
G01X15468Y8702D01*
G01X15471Y8703D01*
G01X15474D01*
G01X15477Y8704D01*
G01X15479Y8705D01*
G01X15482D01*
G01X15485Y8706D01*
G01X15488D01*
G01X15490D01*
G01X15493Y8707D01*
G01X15496D01*
G01X15499D01*
G01X15510Y8708D01*
G01X15522D01*
G01X15534D01*
G01X15564D01*
G01X15566D01*
G01X15568D01*
G01X15570D01*
G01X15572Y8707D01*
G01X15575D01*
G01X15577D01*
G01X15579D01*
G01X15580Y8706D01*
G01X15581D01*
G01X15582D01*
G01X15583D01*
G01X15584D01*
G01X15585Y8705D01*
G01X15587D01*
G01X15588D01*
G01X15589Y8704D01*
G01X15590D01*
G01X15591D01*
G01X15594Y8703D01*
G01X15596Y8702D01*
G01X15599Y8700D01*
G01X15602Y8699D01*
G01X15605Y8698D01*
G01X15607Y8697D01*
G01X15609Y8696D01*
G01X15611Y8695D01*
G01X15613Y8694D01*
G01X15615Y8693D01*
G01X15617Y8692D01*
G01X15618Y8690D01*
G01X15620Y8689D01*
G01X15622Y8688D01*
G01X15624Y8687D01*
G01X15628Y8684D01*
G01X15631Y8681D01*
G01X15635Y8679D01*
G01X15638Y8676D01*
G01X15642Y8673D01*
G01X15645Y8670D01*
G01X15648Y8667D01*
G01X15652Y8664D01*
G01X15655Y8661D01*
G01X15658Y8657D01*
G01X15661Y8654D01*
G01X15664Y8651D01*
G01X15666Y8649D01*
G01X15668Y8647D01*
G01X15669Y8644D01*
G01X15671Y8642D01*
G01X15673Y8640D01*
G01X15674Y8638D01*
G01X15676Y8636D01*
G01X15677Y8634D01*
G01X15679Y8631D01*
G01X15680Y8630D01*
G01X15681Y8628D01*
G01X15682Y8626D01*
G01X15683Y8624D01*
G01X15684Y8623D01*
G01X15687Y8617D01*
G01X15690Y8611D01*
G01X15693Y8604D01*
G01X15695Y8598D01*
G01X15697Y8594D01*
G01X15699Y8590D01*
G01X15700Y8586D01*
G01X15701Y8582D01*
G01X15703Y8579D01*
G01X15704Y8575D01*
G01X15705Y8571D01*
G01X15706Y8567D01*
G01Y8566D01*
G01X15707Y8564D01*
G01Y8562D01*
G01X15708Y8560D01*
G01Y8558D01*
G01Y8556D01*
G01X15709Y8554D01*
G01Y8552D01*
G01Y8548D01*
G01X15710Y8544D01*
G01Y8539D01*
G01Y8535D01*
G01Y8531D01*
G01Y8487D01*
G01Y8439D01*
G01Y8432D01*
G01X15709Y8426D01*
G01Y8420D01*
G01X15708Y8413D01*
G01Y8407D01*
G01X15707Y8398D01*
G01X15705Y8389D01*
G01X15704Y8381D01*
G01X15702Y8372D01*
G01X15690Y8307D01*
G01X15687Y8297D01*
G01X15685Y8286D01*
G01X15682Y8276D01*
G01X15671Y8237D01*
G01X15655Y8191D01*
G01X15636Y8134D01*
G01X15632Y8125D01*
G01X15628Y8116D01*
G01X15617Y8089D01*
G01X15604Y8060D01*
G01X15591Y8032D01*
G01X15574Y7999D01*
G01X15557Y7966D01*
G01X15539Y7933D01*
G01X15520Y7901D01*
G01X15502Y7870D01*
G01X15482Y7838D01*
G01X15462Y7808D01*
G01X15442Y7778D01*
G01X15421Y7748D01*
G01X15399Y7718D01*
G01X15376Y7689D01*
G01X15353Y7660D01*
G01X15342Y7647D01*
G01X15330Y7634D01*
G01X15319Y7621D01*
G01X15307Y7608D01*
G01X15238Y7538D01*
G01X15164Y7467D01*
G01X15144Y7449D01*
G01X15123Y7431D01*
G01X15102Y7413D01*
G01X15097Y7408D01*
G01X15092Y7404D01*
G01X15091Y7403D01*
G01X15090Y7402D01*
G01X15089Y7401D01*
G01X15088Y7400D01*
G01X15087Y7399D01*
G01X15086Y7398D01*
G01X15085Y7397D01*
G01X15084Y7396D01*
G01Y7395D01*
G01X15083D01*
G01Y7394D01*
G01X15082D01*
G01Y7393D01*
G01Y7392D01*
G01X15081D01*
G01Y7391D01*
G01X15080D01*
G01Y7390D01*
G01Y7389D01*
G01Y7388D01*
G01Y7387D01*
G01X15081D01*
G01Y7386D01*
G01Y7385D01*
G01Y7384D01*
G01X15082D01*
G01Y7383D01*
G01Y7382D01*
G01Y7381D01*
G01Y7380D01*
G01X15083D01*
G01Y7379D01*
G01Y7378D01*
G01Y7377D01*
G01Y7376D01*
G01X15088Y7328D01*
G01X15094Y7275D01*
G01X15098Y7221D01*
G01X15099Y7198D01*
G01X15100Y7175D01*
G01X15101Y7152D01*
G01Y7129D01*
G01X15100Y7075D01*
G01X15098Y7021D01*
G01X15094Y6968D01*
G01X15089Y6915D01*
G01X15086Y6892D01*
G01X15083Y6870D01*
G01X15079Y6848D01*
G01X15075Y6826D01*
G01X15072Y6809D01*
G01X15068Y6793D01*
G01X15064Y6777D01*
G01X15047Y6713D01*
G01X15027Y6650D01*
G01X15021Y6633D01*
G01X15016Y6617D01*
G01X15010Y6601D01*
G01X15002Y6583D01*
G01X14994Y6564D01*
G01X14986Y6546D01*
G01X14977Y6527D01*
G01X14963Y6500D01*
G01X14949Y6472D01*
G01X14934Y6445D01*
G01X14913Y6408D01*
G01X14890Y6372D01*
G01X14889Y6369D01*
G01X14887Y6366D01*
G01X14885Y6364D01*
G01X14883Y6361D01*
G01X14881Y6358D01*
G01X14879Y6356D01*
G01X14877Y6353D01*
G01X14875Y6351D01*
G01X14873Y6348D01*
G01X14871Y6346D01*
G01X14868Y6343D01*
G01X14866Y6341D01*
G01X14864Y6339D01*
G01X14861Y6336D01*
G01Y6335D01*
G01X14860D01*
G01X14856Y6330D01*
G01X14852Y6324D01*
G01X14846Y6318D01*
G01X14839Y6308D01*
G01X14831Y6298D01*
G01X14823Y6288D01*
G01X14815Y6279D01*
G01X14806Y6270D01*
G01X14797Y6261D01*
G01X14782Y6246D01*
G01X14767Y6231D01*
G01X14751Y6216D01*
G01X14735Y6201D01*
G01X14719Y6187D01*
G01X14702Y6173D01*
G01X14685Y6160D01*
G01X14668Y6146D01*
G01X14657Y6138D01*
G01X14646Y6131D01*
G01X14635Y6123D01*
G01X14625Y6116D01*
G01X14614Y6109D01*
G01X14602Y6102D01*
G01X14591Y6095D01*
G01X14580Y6088D01*
G01X14579D01*
G01Y6087D01*
G01X14578D01*
G01Y6086D01*
G01X14577Y6085D01*
G01Y6084D01*
G01Y6083D01*
G01Y6082D01*
G01Y6081D01*
G01X14578D01*
G01Y6080D01*
G01Y6079D01*
G01X14579D01*
G01Y6078D01*
G01X14580D01*
G01Y6077D01*
G01X14581D01*
G01Y6076D01*
G01X14582D01*
G01Y6075D01*
G01X14616Y6055D01*
G01X14628Y6048D01*
G01X14639Y6040D01*
G01X14651Y6032D01*
G01X14659Y6027D01*
G01X14667Y6021D01*
G01X14675Y6015D01*
G01X14683Y6008D01*
G01X14689Y6003D01*
G01X14696Y5997D01*
G01X14702Y5991D01*
G01X14709Y5985D01*
G01X14710Y5984D01*
G01X14712Y5982D01*
G01X14713Y5981D01*
G01X14714Y5979D01*
G01X14716Y5978D01*
G01X14717Y5976D01*
G01X14718Y5975D01*
G01X14720Y5973D01*
G01X14721Y5971D01*
G01X14722Y5970D01*
G01X14723Y5968D01*
G01X14725Y5966D01*
G01X14727Y5962D01*
G01X14730Y5958D01*
G01X14732Y5954D01*
G01X14735Y5950D01*
G01X14737Y5946D01*
G01X14739Y5942D01*
G01X14741Y5937D01*
G01X14742Y5935D01*
G01X14743Y5932D01*
G01X14744Y5930D01*
G01X14745Y5928D01*
G01X14746Y5925D01*
G01X14747Y5923D01*
G01X14748Y5920D01*
G01X14749Y5917D01*
G01X14750Y5915D01*
G01Y5912D01*
G01X14751Y5910D01*
G01X14752Y5908D01*
G01Y5905D01*
G01X14753Y5903D01*
G01Y5901D01*
G01Y5898D01*
G01X14754Y5896D01*
G01Y5894D01*
G01Y5892D01*
G01Y5889D01*
G01X14755Y5887D01*
G01Y5885D01*
G01Y5882D01*
G01Y5880D01*
G01Y5877D01*
G01Y5875D01*
G01Y5872D01*
G01X14754Y5869D01*
G01Y5867D01*
G01Y5864D01*
G01Y5861D01*
G01X14753Y5859D01*
G01Y5856D01*
G01Y5854D01*
G01X14752Y5851D01*
G01Y5848D01*
G01X14751Y5846D01*
G01Y5843D01*
G01X14750Y5840D01*
G01X14749Y5838D01*
G01X14748Y5835D01*
G01Y5833D01*
G01X14747Y5830D01*
G01X14746Y5828D01*
G01X14745Y5825D01*
G01X14744Y5823D01*
G01X14743Y5820D01*
G01X14742Y5818D01*
G01X14741Y5815D01*
G01X14740Y5813D01*
G01X14738Y5810D01*
G01X14737Y5808D01*
G01X14736Y5806D01*
G01X14735Y5803D01*
G01X14733Y5801D01*
G01X14732Y5798D01*
G01X14730Y5796D01*
G01X14728Y5793D01*
G01X14727Y5791D01*
G01X14725Y5789D01*
G01X14723Y5786D01*
G01X14722Y5784D01*
G01X14720Y5782D01*
G01X14718Y5780D01*
G01X14716Y5777D01*
G01X14714Y5775D01*
G01X14712Y5773D01*
G01X14710Y5771D01*
G01X14708Y5769D01*
G01X14706Y5767D01*
G01X14704Y5765D01*
G01X14702Y5763D01*
G01X14700Y5761D01*
G01X14696Y5758D01*
G01X14693Y5756D01*
G01X14690Y5753D01*
G01X14686Y5750D01*
G01X14683Y5748D01*
G01X14679Y5745D01*
G01X14675Y5743D01*
G01X14672Y5741D01*
G01X14668Y5738D01*
G01X14664Y5736D01*
G01X14661Y5734D01*
G01X14657Y5732D01*
G01X14653Y5730D01*
G01X14649Y5728D01*
G01X14645Y5726D01*
G01X14634Y5721D01*
G01X14624Y5716D01*
G01X14613Y5712D01*
G01X14602Y5707D01*
G01X14590Y5703D01*
G01X14579Y5699D01*
G01X14568Y5695D01*
G01X14554Y5691D01*
G01X14541Y5687D01*
G01X14527Y5684D01*
G01X14513Y5680D01*
G01X14499Y5677D01*
G01X14486Y5674D01*
G01X14472Y5671D01*
G01X14458Y5669D01*
G01X14444Y5666D01*
G01X14419Y5663D01*
G01X14395Y5660D01*
G01X14370Y5657D01*
G01X14345Y5655D01*
G01X14321Y5654D01*
G01X14296Y5652D01*
G01X14271D01*
G01X14246Y5651D01*
G01X14221D01*
G01X14197Y5652D01*
G01X14172Y5653D01*
G01X14147Y5654D01*
G01X14131Y5655D01*
G01X14114Y5657D01*
G01X14098Y5659D01*
G01X14082Y5661D01*
G01X14066Y5663D01*
G01X14050Y5666D01*
G01X14033Y5669D01*
G01X14018Y5672D01*
G01X14002Y5676D01*
G01X13987Y5680D01*
G01X13972Y5684D01*
G01X13957Y5688D01*
G01X13942Y5693D01*
G01X13932Y5696D01*
G01X13923Y5700D01*
G01X13914Y5703D01*
G01X13904Y5707D01*
G01X13895Y5711D01*
G01X13886Y5715D01*
G01X13877Y5719D01*
G01X13869Y5723D01*
G01X13862Y5727D01*
G01X13855Y5730D01*
G01X13848Y5734D01*
G01X13841Y5739D01*
G01X13834Y5743D01*
G01X13827Y5747D01*
G01X13820Y5752D01*
G01X13813Y5756D01*
G01X13807Y5761D01*
G01X13800Y5766D01*
G01X13794Y5771D01*
G01X13787Y5776D01*
G01X13781Y5781D01*
G01X13775Y5786D01*
G01X13769Y5792D01*
G01X13766Y5794D01*
G01X13763Y5797D01*
G01X13760Y5799D01*
G01X13758Y5801D01*
G01X13756Y5802D01*
G01X13754Y5804D01*
G01X13752Y5805D01*
G01X13750Y5807D01*
G01X13748Y5808D01*
G01X13746Y5809D01*
G01X13744Y5810D01*
G01X13743D01*
G01Y5811D01*
G01X13742D01*
G01X13741D01*
G01X13740D01*
G01X13739D01*
G01X13737D01*
G01X13736D01*
G01X13735D01*
G01X13719Y5810D01*
G01X13700Y5808D01*
G01X13679Y5806D01*
G01X13615Y5800D01*
G01X13544Y5796D01*
G01X13471Y5793D01*
G01X13401D01*
G01X13333Y5794D01*
G01X13252Y5797D01*
G01X13175Y5802D01*
G01X13163Y5803D01*
G01X13152Y5804D01*
G01X13140Y5806D01*
G01X13129Y5807D01*
G01X13123Y5808D01*
G01X13118Y5809D01*
G01X13105Y5810D01*
G01X13093Y5811D01*
G01X13088D01*
G01X13084D01*
G01X13080D01*
G01X13077D01*
G01X13074D01*
G01X13071D01*
G01X13070D01*
G01X13069D01*
G01Y5810D01*
G01X13068D01*
G01X13067D01*
G01X13066D01*
G01X13065D01*
G01Y5809D01*
G01X13064D01*
G01X13063D01*
G01Y5808D01*
G01X13062D01*
G01X13061D01*
G01Y5807D01*
G01X13060D01*
G01X13059Y5806D01*
G01X13058D01*
G01Y5805D01*
G01X13057D01*
G01X13055Y5803D01*
G01X13053Y5800D01*
G01X13050Y5798D01*
G01X13048Y5796D01*
G01X13046Y5794D01*
G01X13044Y5792D01*
G01X13043Y5791D01*
G01X13041Y5789D01*
G01X13039Y5787D01*
G01X13037Y5786D01*
G01X13035Y5784D01*
G01X13033Y5782D01*
G01X13031Y5781D01*
G01X13016Y5770D01*
G01X13001Y5760D01*
G01X12984Y5749D01*
G01X12968Y5738D01*
G01X12958Y5732D01*
G01X12947Y5726D01*
G01X12937Y5720D01*
G01X12932Y5718D01*
G01X12928Y5715D01*
G01X12923Y5713D01*
G01X12918Y5711D01*
G01X12914Y5709D01*
G01X12899Y5703D01*
G01X12883Y5697D01*
G01X12868Y5691D01*
G01X12853Y5686D01*
G01X12849Y5685D01*
G01X12846Y5684D01*
G01X12842Y5683D01*
G01X12838Y5682D01*
G01X12834Y5681D01*
G01X12831Y5680D01*
G01X12823Y5678D01*
G01X12810Y5676D01*
G01X12795Y5673D01*
G01X12780Y5670D01*
G01X12764Y5666D01*
G01X12748Y5664D01*
G01X12733Y5661D01*
G01X12718Y5659D01*
G01X12703Y5657D01*
G01X12689Y5656D01*
G01X12672Y5654D01*
G01X12656D01*
G01X12640Y5653D01*
G01X12578Y5652D01*
G01X12531Y5653D01*
G01X12485Y5655D01*
G01X12466Y5656D01*
G01X12447Y5657D01*
G01X12428Y5659D01*
G01X12409Y5661D01*
G01X12391Y5663D01*
G01X12373Y5666D01*
G01X12355Y5669D01*
G01X12338Y5672D01*
G01X12312Y5677D01*
G01X12286Y5683D01*
G01X12260Y5690D01*
G01X12223Y5700D01*
G01X12218Y5702D01*
G01X12212Y5703D01*
G01X12207Y5705D01*
G01X12202Y5707D01*
G01X12197Y5709D01*
G01X12192Y5711D01*
G01X12187Y5713D01*
G01X12182Y5715D01*
G01X12177Y5718D01*
G01X12172Y5720D01*
G01X12156Y5729D01*
G01X12141Y5737D01*
G01X12135Y5740D01*
G01X12130Y5744D01*
G01X12125Y5747D01*
G01X12119Y5751D01*
G01X12114Y5754D01*
G01X12110Y5757D01*
G01X12106Y5760D01*
G01X12102Y5763D01*
G01X12099Y5766D01*
G01X12095Y5770D01*
G01X12091Y5773D01*
G01X12088Y5776D01*
G01X12085Y5778D01*
G01X12083Y5781D01*
G01X12080Y5784D01*
G01X12077Y5787D01*
G01X12075Y5790D01*
G01X12072Y5792D01*
G01X12071Y5794D01*
G01X12070Y5796D01*
G01X12068Y5797D01*
G01X12067Y5799D01*
G01X12066Y5801D01*
G01X12065Y5803D01*
G01X12064Y5804D01*
G01X12063Y5806D01*
G01X12062Y5808D01*
G01X12060Y5810D01*
G01X12059Y5812D01*
G01Y5813D01*
G01X12058Y5814D01*
G01Y5815D01*
G01X12057Y5817D01*
G01X12056Y5818D01*
G01Y5820D01*
G01X12055Y5821D01*
G01Y5822D01*
G01X12054Y5823D01*
G01Y5824D01*
G01Y5825D01*
G01Y5826D01*
G01X12053Y5827D01*
G01Y5828D01*
G01Y5829D01*
G01Y5830D01*
G01X12052Y5831D01*
G01Y5832D01*
G01Y5833D01*
G01Y5835D01*
G01Y5837D01*
G01X12051Y5839D01*
G01Y5840D01*
G01Y5842D01*
G01Y5844D01*
G01Y5846D01*
G01Y5871D01*
G01Y5914D01*
G01X12066Y5942D01*
G01X12067Y5945D01*
G01X12069Y5949D01*
G01X12071Y5952D01*
G01X12073Y5955D01*
G01X12076Y5958D01*
G01X12078Y5962D01*
G01X12080Y5965D01*
G01X12083Y5968D01*
G01X12085Y5971D01*
G01X12088Y5974D01*
G01X12090Y5977D01*
G01X12093Y5980D01*
G01X12096Y5983D01*
G01X12098Y5986D01*
G01X12101Y5989D01*
G01X12104Y5991D01*
G01X12107Y5995D01*
G01X12111Y5998D01*
G01X12115Y6001D01*
G01X12119Y6005D01*
G01X12123Y6008D01*
G01X12127Y6011D01*
G01X12144Y6024D01*
G01X12162Y6036D01*
G01X12179Y6048D01*
G01X12196Y6059D01*
G01X12200Y6061D01*
G01X12203Y6063D01*
G01X12206Y6065D01*
G01X12210Y6067D01*
G01X12213Y6069D01*
G01X12217Y6070D01*
G01X12220Y6072D01*
G01X12223Y6074D01*
G01X12226Y6075D01*
G01X12228Y6076D01*
G01X12230Y6077D01*
G01X12231Y6078D01*
G01X12236Y6080D01*
G01Y6081D01*
G01Y6082D01*
G01X12228Y6087D01*
G01X12220Y6093D01*
G01X12209Y6100D01*
G01X12195Y6108D01*
G01X12182Y6117D01*
G01X12168Y6127D01*
G01X12155Y6136D01*
G01X12142Y6146D01*
G01X12118Y6165D01*
G01X12094Y6185D01*
G01X12070Y6206D01*
G01X12053Y6221D01*
G01X12036Y6237D01*
G01X12019Y6253D01*
G01X12003Y6270D01*
G01X11993Y6280D01*
G01X11984Y6289D01*
G01X11975Y6300D01*
G01X11966Y6310D01*
G01X11958Y6320D01*
G01X11949Y6331D01*
G01X11938Y6346D01*
G01X11926Y6361D01*
G01X11915Y6376D01*
G01X11904Y6392D01*
G01X11894Y6408D01*
G01X11881Y6428D01*
G01X11868Y6448D01*
G01X11856Y6469D01*
G01X11845Y6490D01*
G01X11836Y6506D01*
G01X11827Y6523D01*
G01X11819Y6540D01*
G01X11811Y6557D01*
G01X11804Y6575D01*
G01X11796Y6592D01*
G01X11790Y6609D01*
G01X11783Y6626D01*
G01X11777Y6643D01*
G01X11771Y6661D01*
G01X11766Y6676D01*
G01X11762Y6689D01*
G01X11758Y6701D01*
G01X11757Y6702D01*
G01Y6703D01*
G01X11756Y6704D01*
G01Y6706D01*
G01X11754Y6709D01*
G01X11753Y6713D01*
G01X11751Y6716D01*
G01X11750Y6720D01*
G01X11749Y6724D01*
G01X11747Y6727D01*
G01X11746Y6731D01*
G01X11745Y6735D01*
G01X11744Y6738D01*
G01X11743Y6742D01*
G01X11742Y6746D01*
G01X11734Y6785D01*
G01X11727Y6823D01*
G01X11719Y6867D01*
G01X11712Y6911D01*
G01X11707Y6952D01*
G01X11703Y6994D01*
G01X11702Y7005D01*
G01X11671Y6982D01*
G01X11659Y6973D01*
G01X11648Y6965D01*
G01X11639Y6959D01*
G01X11638D01*
G01X11637D01*
G01X11636Y6958D01*
G01X11635D01*
G01X11627Y6954D01*
G01X11618Y6948D01*
G01X11608Y6942D01*
G01X11600Y6936D01*
G01X11591Y6931D01*
G01X11582Y6926D01*
G01X11566Y6918D01*
G01X11550Y6910D01*
G01X11531Y6901D01*
G01X11513Y6892D01*
G01X11469Y6873D01*
G01X11427Y6856D01*
G01X11420Y6853D01*
G01X11413Y6851D01*
G01X11405Y6848D01*
G01X11398Y6846D01*
G01X11393Y6845D01*
G01X11388Y6843D01*
G01X11383Y6842D01*
G01X11378Y6841D01*
G01X11373Y6840D01*
G01X11366Y6838D01*
G01X11359Y6837D01*
G01X11353Y6836D01*
G01X11346Y6835D01*
G01X11341D01*
G01X11337D01*
G01X11333Y6834D01*
G01X11329D01*
G01X11325D01*
G01X11320D01*
G01X11316D01*
G01X11312D01*
G01X11308D01*
G01X11304D01*
G01X11299Y6835D01*
G01X11295D01*
G01X11291D01*
G01X11287Y6836D01*
G01X11283Y6837D01*
G01X11278D01*
G01X11274Y6838D01*
G01X11270Y6839D01*
G01X11266Y6840D01*
G01X11264D01*
G01X11262Y6841D01*
G01X11260D01*
G01X11258Y6842D01*
G01X11255Y6843D01*
G01X11253D01*
G01X11251Y6844D01*
G01X11249Y6845D01*
G01X11247Y6846D01*
G01X11245Y6847D01*
G01X11243Y6848D01*
G01X11241D01*
G01X11239Y6849D01*
G01X11237Y6850D01*
G01X11235Y6851D01*
G01X11233Y6853D01*
G01X11231Y6854D01*
G01X11230Y6855D01*
G01X11228Y6856D01*
G01X11226Y6857D01*
G01X11224Y6858D01*
G01X11222Y6860D01*
G01X11220Y6861D01*
G01X11219Y6862D01*
G01X11217Y6864D01*
G01X11215Y6865D01*
G01X11214Y6866D01*
G01X11212Y6868D01*
G01X11210Y6869D01*
G01X11209Y6871D01*
G01X11207Y6872D01*
G01X11205Y6874D01*
G01X11204Y6876D01*
G01X11202Y6878D01*
G01X11200Y6880D01*
G01X11199Y6882D01*
G01X11197Y6883D01*
G01X11196Y6885D01*
G01X11194Y6887D01*
G01X11193Y6889D01*
G01X11191Y6891D01*
G01X11190Y6893D01*
G01X11188Y6895D01*
G01X11187Y6898D01*
G01X11186Y6900D01*
G01X11185Y6902D01*
G01X11183Y6904D01*
G01X11182Y6906D01*
G01X11181Y6908D01*
G01X11180Y6910D01*
G01X11179Y6913D01*
G01X11178Y6915D01*
G01X11177Y6917D01*
G01X11176Y6920D01*
G01X11175Y6922D01*
G01X11174Y6924D01*
G01X11173Y6926D01*
G01Y6929D01*
G01X11172Y6931D01*
G01X11171Y6934D01*
G01X11170Y6939D01*
G01X11168Y6945D01*
G01X11167Y6951D01*
G01X11166Y6957D01*
G01X11165Y6962D01*
G01X11164Y6968D01*
G01X11163Y6974D01*
G01X11162Y6980D01*
G01X11161Y6986D01*
G01Y6992D01*
G01X11160Y6998D01*
G01Y7003D01*
G01X11159Y7009D01*
G01Y7015D01*
G01Y7021D01*
G01Y7032D01*
G01X11160Y7043D01*
G01Y7053D01*
G01X11161Y7061D01*
G01X11162Y7068D01*
G01Y7076D01*
G01X11164Y7083D01*
G01X11165Y7095D01*
G01X11167Y7107D01*
G01X11170Y7118D01*
G01X11181Y7167D01*
G01X11185Y7184D01*
G01X11189Y7200D01*
G01X11194Y7217D01*
G01X11199Y7233D01*
G01X11205Y7249D01*
G01X11211Y7266D01*
G01X11225Y7305D01*
G01X11241Y7343D01*
G01X11258Y7381D01*
G01X11276Y7421D01*
G01X11296Y7460D01*
G01X11316Y7499D01*
G01X11331Y7527D01*
G01X11346Y7554D01*
G01X11362Y7581D01*
G01X11379Y7608D01*
G01X11389Y7624D01*
G01X11401Y7643D01*
G01X11413Y7663D01*
G01X11423Y7679D01*
G01X11433Y7694D01*
G01X11444Y7711D01*
G01X11455Y7728D01*
G01X11463Y7740D01*
G01X11488Y7775D01*
G01X11536Y7840D01*
G01X11585Y7905D01*
G01X11591Y7913D01*
G01X11597Y7920D01*
G01X11603Y7928D01*
G01X11623Y7951D01*
G01X11649Y7982D01*
G01X11676Y8012D01*
G01X11696Y8035D01*
G01X11706Y8046D01*
G01X11717Y8058D01*
G01X11727Y8070D01*
G01X11735Y8080D01*
G01X11742Y8088D01*
G01X11746Y8092D01*
G01X11749Y8095D01*
G01X11755Y8101D01*
G01Y8102D01*
G01X11756D01*
G01X11757D01*
G01Y8103D01*
G01X11758D01*
G01Y8104D01*
G01X11759D01*
G01X11760Y8105D01*
G01X11761D01*
G01Y8106D01*
G01X11762D01*
G01X11763Y8107D01*
G01Y8108D01*
G01X11764D01*
G01Y8109D01*
G01X11765D01*
G01Y8110D01*
G01X11766D01*
G01Y8111D01*
G01X11767Y8112D01*
G01X11770Y8117D01*
G01X11773Y8122D01*
G01X11776Y8128D01*
G01X11779Y8133D01*
G01X11782Y8139D01*
G01X11785Y8146D01*
G01X11788Y8152D01*
G01X11791Y8159D01*
G01X11793Y8164D01*
G01X11795Y8169D01*
G01X11797Y8174D01*
G01X11799Y8179D01*
G01X11801Y8185D01*
G01X11803Y8192D01*
G01X11806Y8200D01*
G01X11808Y8208D01*
G01X11810Y8215D01*
G01X11811Y8223D01*
G01X11815Y8239D01*
G01X11817Y8254D01*
G01X11820Y8270D01*
G01X11830Y8342D01*
G01X11846Y8472D01*
G01X11853Y8527D01*
G01X11862Y8588D01*
G01X11870Y8644D01*
G01X11872Y8657D01*
G01X11874Y8671D01*
G01X11877Y8682D01*
G01X11879Y8696D01*
G01X11882Y8710D01*
G01X11884Y8721D01*
G01X11885Y8732D01*
G01X11887Y8743D01*
G01X11890Y8753D01*
G01X11891Y8761D01*
G01X11893Y8769D01*
G01X11897Y8784D01*
G01X11900Y8802D01*
G01X11904Y8821D01*
G01X11910Y8844D01*
G01X11915Y8867D01*
G01X11922Y8889D01*
G01X11928Y8912D01*
G01X11936Y8935D01*
G01X11943Y8958D01*
G01X11951Y8981D01*
G01X11960Y9004D01*
G01X11970Y9028D01*
G01X11980Y9052D01*
G01X11991Y9075D01*
G01X12002Y9099D01*
G01X12027Y9151D01*
G01X12055Y9203D01*
G01X12060Y9212D01*
G01X12065Y9221D01*
G01X12070Y9229D01*
G01X12076Y9238D01*
G01X12114Y9295D01*
G01X12153Y9352D01*
G01X12159Y9361D01*
G01X12166Y9370D01*
G01X12172Y9378D01*
G01X12179Y9387D01*
G01X12201Y9413D01*
G01X12223Y9438D01*
G01X12246Y9464D01*
G01X12269Y9488D01*
G01X12292Y9513D01*
G01X12310Y9531D01*
G01X12329Y9549D01*
G01X12348Y9567D01*
G01X12368Y9584D01*
G01X12387Y9601D01*
G01X12407Y9617D01*
G01X12428Y9633D01*
G01X12448Y9649D01*
G01X12469Y9664D01*
G01X12491Y9679D01*
G01X12512Y9694D01*
G01X12534Y9708D01*
G01X12563Y9726D01*
G01X12593Y9743D01*
G01X12622Y9760D01*
G01X12652Y9777D01*
G01X12683Y9793D01*
G01X12706Y9804D01*
G01X12729Y9816D01*
G01X12753Y9827D01*
G01X12777Y9837D01*
G01X12801Y9847D01*
G01X12825Y9857D01*
G01X12856Y9868D01*
G01X12887Y9879D01*
G01X12918Y9889D01*
G01X12949Y9899D01*
G01X12981Y9908D01*
G01X13013Y9917D01*
G01X13045Y9925D01*
G01X13077Y9932D01*
G01X13110Y9939D01*
G01X13142Y9945D01*
G01X13174Y9951D01*
G01X13205Y9956D01*
G01X13237Y9960D01*
G01X13269Y9963D01*
G01X13301Y9966D01*
G01X13315Y9967D01*
G01X13329Y9968D01*
G01X13342D01*
G01X13356Y9969D01*
G01Y10090D01*
G01X13331Y10089D01*
G01X13299Y10088D01*
G01X13267Y10086D01*
G01X13235Y10083D01*
G01X13204Y10080D01*
G01X13174Y10076D01*
G01X13143Y10071D01*
G01X13112Y10066D01*
G01X13081Y10060D01*
G01X13050Y10053D01*
G01X12999Y10041D01*
G01X12949Y10028D01*
G01X12916Y10018D01*
G01X12887Y10009D01*
G01X12863Y10002D01*
G01X12860Y10001D01*
G01X12856Y9999D01*
G01X12853Y9998D01*
G01X12849Y9997D01*
G01X12847Y9996D01*
G01X12845Y9995D01*
G01X12839Y9992D01*
G01X12831Y9989D01*
G01X12823Y9987D01*
G01X12804Y9980D01*
G01X12785Y9972D01*
G01X12735Y9951D01*
G01X12684Y9929D01*
G01X12640Y9908D01*
G01X12613Y9894D01*
G01X12586Y9879D01*
G01X12559Y9864D01*
G01X12532Y9849D01*
G01X12506Y9833D01*
G01X12480Y9816D01*
G01X12454Y9799D01*
G01X12429Y9782D01*
G01X12404Y9765D01*
G01X12379Y9746D01*
G01X12355Y9728D01*
G01X12331Y9709D01*
G01X12307Y9689D01*
G01X12284Y9669D01*
G01X12262Y9649D01*
G01X12239Y9629D01*
G01X12218Y9608D01*
G01X12196Y9587D01*
G01X12175Y9565D01*
G01X12155Y9544D01*
G01X12135Y9521D01*
G01X12118Y9502D01*
G01X12101Y9482D01*
G01X12085Y9462D01*
G01X12069Y9442D01*
G01X12054Y9422D01*
G01X12039Y9401D01*
G01X12024Y9380D01*
G01X12010Y9359D01*
G01X11980Y9313D01*
G01X11969Y9296D01*
G01X11959Y9278D01*
G01X11949Y9260D01*
G01X11939Y9242D01*
G01X11913Y9192D01*
G01X11901Y9168D01*
G01X11890Y9143D01*
G01X11879Y9119D01*
G01X11868Y9094D01*
G01X11858Y9069D01*
G01X11849Y9044D01*
G01X11837Y9011D01*
G01X11827Y8979D01*
G01X11816Y8946D01*
G01X11807Y8913D01*
G01X11798Y8880D01*
G01X11786Y8832D01*
G01X11775Y8784D01*
G01X11765Y8736D01*
G01X11757Y8688D01*
G01X11738Y8573D01*
G01X11723Y8457D01*
G01X11704Y8309D01*
G01X11702Y8290D01*
G01X11699Y8271D01*
G01X11695Y8253D01*
G01Y8249D01*
G01X11694Y8245D01*
G01X11693Y8242D01*
G01X11692Y8238D01*
G01X11691Y8234D01*
G01X11690Y8231D01*
G01X11689Y8227D01*
G01X11688Y8224D01*
G01X11686Y8220D01*
G01Y8218D01*
G01X11685Y8216D01*
G01X11684Y8214D01*
G01X11683Y8212D01*
G01X11682Y8209D01*
G01X11681Y8207D01*
G01X11680Y8205D01*
G01X11679Y8203D01*
G01X11678Y8201D01*
G01X11677Y8199D01*
G01X11676Y8197D01*
G01X11674Y8195D01*
G01X11673Y8193D01*
G01X11671Y8189D01*
G01X11668Y8185D01*
G01X11665Y8182D01*
G01X11654Y8167D01*
G01X11642Y8153D01*
G01X11636Y8146D01*
G01X11631Y8140D01*
G01X11606Y8113D01*
G01X11568Y8069D01*
G01X11528Y8023D01*
G01X11497Y7986D01*
G01X11481Y7966D01*
G01X11457Y7935D01*
G01X11430Y7899D01*
G01X11403Y7863D01*
G01X11387Y7839D01*
G01X11371Y7815D01*
G01X11317Y7734D01*
G01X11265Y7653D01*
G01X11251Y7629D01*
G01X11237Y7605D01*
G01X11213Y7562D01*
G01X11190Y7519D01*
G01X11168Y7473D01*
G01X11146Y7426D01*
G01X11126Y7381D01*
G01X11107Y7335D01*
G01X11100Y7316D01*
G01X11093Y7297D01*
G01X11086Y7278D01*
G01X11080Y7258D01*
G01X11075Y7244D01*
G01X11071Y7229D01*
G01X11067Y7214D01*
G01X11064Y7200D01*
G01X11059Y7179D01*
G01X11055Y7158D01*
G01X11051Y7137D01*
G01X11048Y7117D01*
G01X11045Y7097D01*
G01X11043Y7076D01*
G01X11042Y7066D01*
G01X11041Y7055D01*
G01Y7045D01*
G01X11040Y7034D01*
G01X11040Y7024D01*
G37*
G36*
G01X11040Y7024D02*
G01Y7014D01*
G01Y7004D01*
G01X11041Y6993D01*
G01Y6983D01*
G01X11042Y6973D01*
G01X11043Y6963D01*
G01X11044Y6953D01*
G01X11046Y6943D01*
G01X11047Y6933D01*
G01X11048Y6928D01*
G01X11049Y6923D01*
G01X11050Y6918D01*
G01X11051Y6913D01*
G01X11053Y6908D01*
G01X11054Y6903D01*
G01X11055Y6898D01*
G01X11057Y6894D01*
G01X11058Y6889D01*
G01X11060Y6884D01*
G01X11062Y6879D01*
G01X11064Y6874D01*
G01X11066Y6870D01*
G01X11068Y6865D01*
G01X11070Y6860D01*
G01X11071Y6856D01*
G01X11073Y6853D01*
G01X11075Y6849D01*
G01X11077Y6845D01*
G01X11079Y6842D01*
G01X11081Y6838D01*
G01X11084Y6835D01*
G01X11086Y6831D01*
G01X11088Y6828D01*
G01X11091Y6824D01*
G01X11093Y6821D01*
G01X11095Y6817D01*
G01X11098Y6814D01*
G01X11101Y6811D01*
G01X11103Y6808D01*
G01X11106Y6804D01*
G01X11109Y6801D01*
G01X11112Y6797D01*
G01X11116Y6793D01*
G01X11120Y6790D01*
G01X11124Y6786D01*
G01X11128Y6782D01*
G01X11132Y6779D01*
G01X11136Y6775D01*
G01X11140Y6772D01*
G01X11144Y6768D01*
G01X11148Y6765D01*
G01X11152Y6762D01*
G01X11157Y6759D01*
G01X11161Y6756D01*
G01X11166Y6753D01*
G01X11169Y6751D01*
G01X11172Y6749D01*
G01X11176Y6747D01*
G01X11179Y6745D01*
G01X11184Y6742D01*
G01X11190Y6739D01*
G01X11195Y6736D01*
G01X11200Y6734D01*
G01X11206Y6731D01*
G01X11211Y6729D01*
G01X11215Y6728D01*
G01X11218Y6726D01*
G01X11222Y6725D01*
G01X11225Y6724D01*
G01X11230Y6722D01*
G01X11235Y6721D01*
G01X11239Y6720D01*
G01X11244Y6719D01*
G01X11246Y6718D01*
G01X11249D01*
G01X11251Y6717D01*
G01X11253D01*
G01X11255Y6716D01*
G01X11258D01*
G01X11260D01*
G01X11264Y6715D01*
G01X11268D01*
G01X11272D01*
G01X11275Y6714D01*
G01X11279D01*
G01X11312D01*
G01X11331D01*
G01X11351D01*
G01X11356D01*
G01X11362Y6715D01*
G01X11368D01*
G01X11373Y6716D01*
G01X11379Y6717D01*
G01X11384D01*
G01X11388Y6718D01*
G01X11393Y6719D01*
G01X11397Y6720D01*
G01X11401Y6721D01*
G01X11406Y6722D01*
G01X11416Y6724D01*
G01X11427Y6727D01*
G01X11438Y6731D01*
G01X11447Y6734D01*
G01X11456Y6737D01*
G01X11465Y6740D01*
G01X11499Y6754D01*
G01X11534Y6770D01*
G01X11550Y6777D01*
G01X11565Y6785D01*
G01X11578Y6791D01*
G01X11589Y6796D01*
G01X11599Y6801D01*
G01X11600D01*
G01X11601D01*
G01X11602D01*
G01X11603D01*
G01X11604D01*
G01Y6800D01*
G01X11605D01*
G01Y6799D01*
G01X11606D01*
G01Y6798D01*
G01Y6797D01*
G01X11607D01*
G01Y6796D01*
G01Y6795D01*
G01X11608Y6794D01*
G01Y6793D01*
G01X11619Y6746D01*
G01X11629Y6709D01*
G01X11639Y6673D01*
G01X11654Y6627D01*
G01X11662Y6604D01*
G01X11670Y6581D01*
G01X11679Y6558D01*
G01X11689Y6535D01*
G01X11698Y6513D01*
G01X11709Y6491D01*
G01X11719Y6468D01*
G01X11730Y6446D01*
G01X11742Y6425D01*
G01X11754Y6403D01*
G01X11767Y6382D01*
G01X11779Y6361D01*
G01X11790Y6344D01*
G01X11802Y6327D01*
G01X11813Y6310D01*
G01X11825Y6293D01*
G01X11837Y6277D01*
G01X11850Y6261D01*
G01X11863Y6245D01*
G01X11873Y6232D01*
G01X11884Y6219D01*
G01X11895Y6207D01*
G01X11906Y6195D01*
G01X11918Y6183D01*
G01X11930Y6171D01*
G01X11942Y6160D01*
G01X11954Y6149D01*
G01X11972Y6133D01*
G01X11989Y6117D01*
G01X12004Y6104D01*
G01X12012Y6096D01*
G01X12027Y6083D01*
G01X12003Y6058D01*
G01X12000Y6054D01*
G01X11996Y6051D01*
G01X11993Y6047D01*
G01X11989Y6043D01*
G01X11986Y6039D01*
G01X11983Y6035D01*
G01X11980Y6030D01*
G01X11977Y6026D01*
G01X11974Y6022D01*
G01X11971Y6018D01*
G01X11968Y6014D01*
G01X11966Y6010D01*
G01X11964Y6006D01*
G01X11961Y6002D01*
G01X11959Y5998D01*
G01X11957Y5994D01*
G01X11955Y5990D01*
G01X11953Y5985D01*
G01X11951Y5981D01*
G01X11949Y5977D01*
G01X11948Y5973D01*
G01X11946Y5968D01*
G01X11944Y5964D01*
G01X11943Y5959D01*
G01X11941Y5955D01*
G01X11940Y5950D01*
G01X11939Y5946D01*
G01X11937Y5941D01*
G01X11936Y5937D01*
G01X11935Y5932D01*
G01X11934Y5928D01*
G01X11933Y5923D01*
G01Y5918D01*
G01X11932Y5913D01*
G01X11931Y5907D01*
G01X11930Y5902D01*
G01Y5897D01*
G01Y5891D01*
G01X11929Y5886D01*
G01Y5881D01*
G01Y5875D01*
G01Y5870D01*
G01Y5864D01*
G01Y5859D01*
G01Y5853D01*
G01X11930Y5848D01*
G01Y5842D01*
G01X11931Y5837D01*
G01Y5831D01*
G01X11932Y5826D01*
G01X11933Y5820D01*
G01X11934Y5815D01*
G01X11935Y5810D01*
G01Y5806D01*
G01X11936Y5802D01*
G01X11937Y5798D01*
G01X11939Y5794D01*
G01X11940Y5790D01*
G01X11941Y5786D01*
G01X11942Y5781D01*
G01X11944Y5777D01*
G01X11945Y5773D01*
G01X11947Y5769D01*
G01X11949Y5765D01*
G01X11950Y5762D01*
G01X11952Y5758D01*
G01X11954Y5754D01*
G01X11956Y5750D01*
G01X11958Y5746D01*
G01X11960Y5742D01*
G01X11962Y5739D01*
G01X11964Y5735D01*
G01X11967Y5731D01*
G01X11969Y5728D01*
G01X11971Y5724D01*
G01X11974Y5721D01*
G01X11977Y5716D01*
G01X11980Y5712D01*
G01X11984Y5708D01*
G01X11987Y5704D01*
G01X11991Y5700D01*
G01X11995Y5695D01*
G01X11998Y5691D01*
G01X12002Y5688D01*
G01X12006Y5684D01*
G01X12010Y5680D01*
G01X12019Y5671D01*
G01X12029Y5662D01*
G01X12032Y5660D01*
G01X12034Y5658D01*
G01X12037Y5656D01*
G01X12039Y5654D01*
G01X12042Y5652D01*
G01X12045Y5651D01*
G01X12048Y5648D01*
G01X12052Y5646D01*
G01X12056Y5644D01*
G01X12059Y5641D01*
G01X12063Y5639D01*
G01X12095Y5622D01*
G01X12103Y5618D01*
G01X12112Y5613D01*
G01X12121Y5609D01*
G01X12130Y5605D01*
G01X12139Y5602D01*
G01X12148Y5598D01*
G01X12163Y5592D01*
G01X12179Y5587D01*
G01X12194Y5582D01*
G01X12210Y5577D01*
G01X12227Y5572D01*
G01X12245Y5567D01*
G01X12262Y5563D01*
G01X12280Y5559D01*
G01X12306Y5554D01*
G01X12332Y5549D01*
G01X12358Y5545D01*
G01X12422Y5536D01*
G01X12437Y5534D01*
G01X12451Y5532D01*
G01X12466Y5531D01*
G01X12481Y5530D01*
G01X12496Y5529D01*
G01X12510D01*
G01X12576Y5528D01*
G01X12615Y5529D01*
G01X12655Y5530D01*
G01X12670Y5531D01*
G01X12686Y5532D01*
G01X12701Y5533D01*
G01X12716Y5535D01*
G01X12731Y5537D01*
G01X12745Y5539D01*
G01X12759Y5541D01*
G01X12774Y5544D01*
G01X12808Y5552D01*
G01X12842Y5560D01*
G01X12860Y5565D01*
G01X12878Y5570D01*
G01X12896Y5576D01*
G01X12913Y5581D01*
G01X12926Y5586D01*
G01X12938Y5590D01*
G01X12950Y5595D01*
G01X12962Y5600D01*
G01X12974Y5606D01*
G01X12984Y5610D01*
G01X12993Y5615D01*
G01X13002Y5619D01*
G01X13011Y5624D01*
G01X13020Y5629D01*
G01X13029Y5634D01*
G01X13037Y5639D01*
G01X13046Y5645D01*
G01X13054Y5650D01*
G01X13062Y5656D01*
G01X13070Y5662D01*
G01X13078Y5668D01*
G01X13104Y5688D01*
G01X13131Y5686D01*
G01X13144Y5685D01*
G01X13165Y5683D01*
G01X13187Y5681D01*
G01X13209Y5679D01*
G01X13230Y5678D01*
G01X13250Y5677D01*
G01X13270Y5676D01*
G01X13290Y5675D01*
G01X13420D01*
G01X13550Y5677D01*
G01X13578D01*
G01X13607Y5679D01*
G01X13635Y5681D01*
G01X13707Y5688D01*
G01X13717Y5679D01*
G01X13719Y5677D01*
G01X13722Y5675D01*
G01X13724Y5673D01*
G01X13727Y5670D01*
G01X13730Y5668D01*
G01X13732Y5666D01*
G01X13744Y5658D01*
G01X13755Y5651D01*
G01X13768Y5642D01*
G01X13780Y5634D01*
G01X13788Y5630D01*
G01X13796Y5625D01*
G01X13804Y5621D01*
G01X13815Y5615D01*
G01X13826Y5610D01*
G01X13837Y5604D01*
G01X13848Y5599D01*
G01X13859Y5594D01*
G01X13871Y5589D01*
G01X13882Y5585D01*
G01X13894Y5581D01*
G01X13905Y5576D01*
G01X13917Y5573D01*
G01X13929Y5569D01*
G01X13941Y5565D01*
G01X13952Y5562D01*
G01X13964Y5559D01*
G01X13976Y5556D01*
G01X13988Y5553D01*
G01X14001Y5551D01*
G01X14025Y5546D01*
G01X14049Y5543D01*
G01X14073Y5539D01*
G01X14098Y5536D01*
G01X14122Y5533D01*
G01X14146Y5531D01*
G01X14171Y5530D01*
G01X14196Y5528D01*
G01X14220D01*
G01X14245Y5527D01*
G01X14269D01*
G01X14294Y5528D01*
G01X14319Y5529D01*
G01X14344Y5531D01*
G01X14369Y5533D01*
G01X14393Y5535D01*
G01X14418Y5538D01*
G01X14443Y5542D01*
G01X14467Y5546D01*
G01X14492Y5550D01*
G01X14506Y5553D01*
G01X14520Y5556D01*
G01X14534Y5559D01*
G01X14549Y5563D01*
G01X14563Y5567D01*
G01X14577Y5571D01*
G01X14590Y5575D01*
G01X14604Y5580D01*
G01X14618Y5585D01*
G01X14632Y5590D01*
G01X14645Y5595D01*
G01X14659Y5601D01*
G01X14672Y5606D01*
G01X14685Y5613D01*
G01X14698Y5619D01*
G01X14706Y5623D01*
G01X14714Y5627D01*
G01X14722Y5632D01*
G01X14730Y5636D01*
G01X14737Y5641D01*
G01X14745Y5645D01*
G01X14752Y5650D01*
G01X14760Y5656D01*
G01X14764Y5659D01*
G01X14768Y5662D01*
G01X14772Y5665D01*
G01X14776Y5668D01*
G01X14780Y5671D01*
G01X14784Y5675D01*
G01X14788Y5678D01*
G01X14792Y5682D01*
G01X14796Y5686D01*
G01X14799Y5689D01*
G01X14803Y5693D01*
G01X14807Y5697D01*
G01X14810Y5700D01*
G01X14813Y5704D01*
G01X14816Y5707D01*
G01X14818Y5711D01*
G01X14821Y5715D01*
G01X14824Y5718D01*
G01X14827Y5722D01*
G01X14829Y5726D01*
G01X14832Y5730D01*
G01X14834Y5734D01*
G01X14837Y5737D01*
G01X14839Y5741D01*
G01X14841Y5745D01*
G01X14844Y5751D01*
G01X14846Y5756D01*
G01X14849Y5761D01*
G01X14851Y5766D01*
G01X14854Y5771D01*
G01X14856Y5777D01*
G01X14858Y5782D01*
G01X14860Y5787D01*
G01X14862Y5793D01*
G01X14864Y5798D01*
G01X14865Y5804D01*
G01X14866Y5808D01*
G01X14868Y5812D01*
G01X14869Y5816D01*
G01X14870Y5820D01*
G01Y5823D01*
G01X14871Y5826D01*
G01Y5829D01*
G01X14872Y5832D01*
G01Y5835D01*
G01X14873Y5839D01*
G01Y5843D01*
G01Y5847D01*
G01Y5851D01*
G01X14874Y5862D01*
G01Y5873D01*
G01Y5879D01*
G01Y5885D01*
G01X14873Y5890D01*
G01Y5896D01*
G01X14872Y5902D01*
G01Y5907D01*
G01X14871Y5913D01*
G01X14870Y5919D01*
G01Y5925D01*
G01X14869Y5929D01*
G01X14868Y5934D01*
G01X14867Y5939D01*
G01X14866Y5944D01*
G01X14865Y5949D01*
G01X14863Y5954D01*
G01X14862Y5959D01*
G01X14860Y5963D01*
G01X14859Y5968D01*
G01X14857Y5973D01*
G01X14856Y5978D01*
G01X14854Y5982D01*
G01X14852Y5987D01*
G01X14850Y5991D01*
G01X14848Y5995D01*
G01X14846Y6000D01*
G01X14844Y6004D01*
G01X14842Y6008D01*
G01X14840Y6013D01*
G01X14837Y6017D01*
G01X14835Y6021D01*
G01X14833Y6024D01*
G01X14831Y6028D01*
G01X14828Y6032D01*
G01X14826Y6035D01*
G01X14824Y6039D01*
G01X14821Y6042D01*
G01X14818Y6045D01*
G01X14816Y6049D01*
G01X14813Y6052D01*
G01X14810Y6055D01*
G01X14803Y6065D01*
G01X14796Y6073D01*
G01X14791Y6080D01*
G01X14790D01*
G01Y6081D01*
G01Y6082D01*
G01Y6083D01*
G01X14791D01*
G01X14804Y6096D01*
G01X14820Y6112D01*
G01X14839Y6130D01*
G01X14855Y6145D01*
G01X14870Y6161D01*
G01X14886Y6176D01*
G01X14901Y6192D01*
G01X14915Y6208D01*
G01X14929Y6224D01*
G01X14943Y6241D01*
G01X14956Y6257D01*
G01X14969Y6274D01*
G01X14981Y6291D01*
G01X14994Y6308D01*
G01X15006Y6326D01*
G01X15017Y6344D01*
G01X15029Y6363D01*
G01X15040Y6381D01*
G01X15051Y6400D01*
G01X15062Y6420D01*
G01X15073Y6441D01*
G01X15083Y6462D01*
G01X15093Y6482D01*
G01X15103Y6504D01*
G01X15112Y6525D01*
G01X15121Y6546D01*
G01X15130Y6568D01*
G01X15138Y6591D01*
G01X15146Y6613D01*
G01X15153Y6636D01*
G01X15160Y6659D01*
G01X15167Y6681D01*
G01X15173Y6704D01*
G01X15180Y6732D01*
G01X15186Y6760D01*
G01X15192Y6788D01*
G01X15197Y6816D01*
G01X15202Y6844D01*
G01X15206Y6872D01*
G01X15210Y6902D01*
G01X15213Y6931D01*
G01X15216Y6960D01*
G01X15218Y6990D01*
G01X15219Y7019D01*
G01X15220Y7049D01*
G01X15221Y7082D01*
G01Y7116D01*
G01X15218Y7198D01*
G01X15215Y7276D01*
G01X15214Y7285D01*
G01X15213Y7294D01*
G01X15212Y7303D01*
G01X15211Y7311D01*
G01X15210Y7320D01*
G01X15207Y7338D01*
G01X15253Y7379D01*
G01X15277Y7401D01*
G01X15301Y7424D01*
G01X15324Y7447D01*
G01X15362Y7486D01*
G01X15398Y7526D01*
G01X15433Y7566D01*
G01X15468Y7607D01*
G01X15488Y7633D01*
G01X15508Y7659D01*
G01X15527Y7685D01*
G01X15551Y7720D01*
G01X15579Y7760D01*
G01X15607Y7801D01*
G01Y7802D01*
G01Y7803D01*
G01Y7804D01*
G01X15608D01*
G01Y7805D01*
G01X15615Y7818D01*
G01X15624Y7833D01*
G01X15634Y7850D01*
G01X15644Y7867D01*
G01X15654Y7884D01*
G01X15663Y7901D01*
G01X15698Y7970D01*
G01X15730Y8037D01*
G01X15735Y8048D01*
G01X15739Y8059D01*
G01X15744Y8071D01*
G01X15748Y8082D01*
G01X15754Y8098D01*
G01X15761Y8117D01*
G01X15767Y8135D01*
G01X15772Y8149D01*
G01X15776Y8160D01*
G01X15780Y8171D01*
G01X15783Y8182D01*
G01X15796Y8228D01*
G01X15808Y8275D01*
G01X15812Y8294D01*
G01X15816Y8313D01*
G01X15819Y8333D01*
G01X15822Y8353D01*
G01X15825Y8374D01*
G01X15827Y8394D01*
G01X15829Y8415D01*
G01X15830Y8436D01*
G01X15831Y8456D01*
G01X15832Y8476D01*
G01Y8496D01*
G01Y8506D01*
G01X15831Y8517D01*
G01X15830Y8527D01*
G01Y8538D01*
G01X15829Y8549D01*
G01X15828Y8556D01*
G01X15827Y8563D01*
G01X15826Y8570D01*
G01X15825Y8578D01*
G01X15823Y8585D01*
G01X15822Y8592D01*
G01X15820Y8599D01*
G01X15818Y8606D01*
G01X15817Y8613D01*
G01X15815Y8620D01*
G01X15813Y8627D01*
G01X15810Y8634D01*
G01X15808Y8641D01*
G01X15806Y8646D01*
G01X15804Y8651D01*
G01X15802Y8656D01*
G01X15800Y8661D01*
G01X15798Y8666D01*
G01X15795Y8671D01*
G01X15793Y8676D01*
G01X15790Y8681D01*
G01X15788Y8686D01*
G01X15785Y8691D01*
G01X15782Y8696D01*
G01X15780Y8700D01*
G01X15777Y8705D01*
G01X15774Y8710D01*
G01X15770Y8714D01*
G01X15767Y8719D01*
G01X15764Y8723D01*
G01X15761Y8727D01*
G01X15758Y8731D01*
G01X15755Y8734D01*
G01X15752Y8738D01*
G01X15749Y8742D01*
G01X15745Y8746D01*
G01X15742Y8749D01*
G01X15739Y8753D01*
G01X15735Y8756D01*
G01X15731Y8760D01*
G01X15728Y8763D01*
G01X15724Y8766D01*
G01X15720Y8769D01*
G01X15716Y8773D01*
G01X15713Y8776D01*
G01X15709Y8779D01*
G01X15705Y8781D01*
G01X15701Y8784D01*
G01X15697Y8787D01*
G01X15694Y8789D01*
G01X15690Y8792D01*
G01X15686Y8794D01*
G01X15682Y8796D01*
G01X15678Y8799D01*
G01X15674Y8801D01*
G01X15670Y8803D01*
G01X15665Y8805D01*
G01X15661Y8807D01*
G01X15657Y8809D01*
G01X15653Y8811D01*
G01X15649Y8812D01*
G01X15644Y8814D01*
G01X15640Y8816D01*
G01X15636Y8817D01*
G01X15631Y8819D01*
G01X15626Y8820D01*
G01X15622Y8821D01*
G01X15617Y8823D01*
G01X15614D01*
G01X15612Y8824D01*
G01X15609Y8825D01*
G01X15606D01*
G01X15604D01*
G01X15601Y8826D01*
G01X15596D01*
G01X15591Y8827D01*
G01X15586D01*
G01X15581Y8828D01*
G01X15548Y8829D01*
G01X15512Y8830D01*
G01X15508D01*
G01X15504D01*
G01X15500Y8829D01*
G01X15496D01*
G01X15492D01*
G01X15488Y8828D01*
G01X15485D01*
G01X15482D01*
G01X15479Y8827D01*
G01X15476D01*
G01X15473Y8826D01*
G01X15460Y8823D01*
G01X15446Y8819D01*
G01X15436Y8817D01*
G01X15427Y8814D01*
G01X15417Y8811D01*
G01X15408Y8808D01*
G01X15399Y8805D01*
G01X15389Y8801D01*
G01X15380Y8798D01*
G01X15370Y8794D01*
G01X15361Y8790D01*
G01X15352Y8785D01*
G01X15339Y8779D01*
G01X15327Y8773D01*
G01X15314Y8767D01*
G01X15302Y8760D01*
G01X15284Y8749D01*
G01X15265Y8738D01*
G01X15248Y8727D01*
G01X15238Y8721D01*
G01X15228Y8715D01*
G01X15220Y8710D01*
G01X15218Y8709D01*
G01X15217Y8708D01*
G01X15215Y8707D01*
G01X15213Y8706D01*
G01X15211Y8704D01*
G01X15208Y8703D01*
G01X15206Y8702D01*
G01X15204Y8700D01*
G01X15202Y8699D01*
G01X15142Y8657D01*
G01X15082Y8615D01*
G01X15080Y8614D01*
G01X15078Y8612D01*
G01X15076Y8611D01*
G01X15074Y8609D01*
G01X15072Y8608D01*
G01X15070Y8606D01*
G01X15069Y8605D01*
G01X15068Y8604D01*
G01X15067D01*
G01Y8603D01*
G01X15066D01*
G01X15065Y8602D01*
G01X15064D01*
G01X15063D01*
G01X15062D01*
G01X15061D01*
G01Y8603D01*
G01X15058Y8616D01*
G01X15056Y8630D01*
G01X15053Y8647D01*
G01X15049Y8667D01*
G01X15045Y8693D01*
G01X15040Y8720D01*
G01X15036Y8744D01*
G01X15030Y8773D01*
G01X15024Y8803D01*
G01X15017Y8834D01*
G01X15010Y8864D01*
G01X15001Y8895D01*
G01X14993Y8925D01*
G01X14984Y8955D01*
G01X14974Y8984D01*
G01X14961Y9021D01*
G01X14948Y9058D01*
G01X14933Y9095D01*
G01X14918Y9131D01*
G01X14902Y9168D01*
G01X14891Y9191D01*
G01X14879Y9214D01*
G01X14868Y9237D01*
G01X14855Y9260D01*
G01X14843Y9283D01*
G01X14830Y9305D01*
G01X14816Y9327D01*
G01X14803Y9349D01*
G01X14788Y9370D01*
G01X14774Y9391D01*
G01X14759Y9412D01*
G01X14744Y9432D01*
G01X14728Y9452D01*
G01X14712Y9472D01*
G01X14691Y9497D01*
G01X14670Y9521D01*
G01X14648Y9545D01*
G01X14626Y9568D01*
G01X14604Y9591D01*
G01X14581Y9614D01*
G01X14553Y9641D01*
G01X14524Y9668D01*
G01X14507Y9683D01*
G01X14490Y9698D01*
G01X14473Y9712D01*
G01X14455Y9726D01*
G01X14437Y9740D01*
G01X14419Y9753D01*
G01X14387Y9776D01*
G01X14354Y9798D01*
G01X14313Y9825D01*
G01X14272Y9851D01*
G01X14245Y9867D01*
G01X14218Y9882D01*
G01X14190Y9897D01*
G01X14163Y9911D01*
G01X14135Y9925D01*
G01X14107Y9938D01*
G01X14078Y9951D01*
G01X14049Y9963D01*
G01X14019Y9975D01*
G01X13987Y9987D01*
G01X13955Y9999D01*
G01X13922Y10010D01*
G01X13889Y10020D01*
G01X13857Y10030D01*
G01X13824Y10039D01*
G01X13791Y10047D01*
G01X13758Y10055D01*
G01X13726Y10061D01*
G01X13694Y10068D01*
G01X13661Y10073D01*
G01X13629Y10078D01*
G01X13604Y10081D01*
G01X13580Y10083D01*
G01X13555Y10086D01*
G01X13530Y10087D01*
G01X13506Y10088D01*
G01X13442Y10091D01*
G01X13405D01*
G01X13374D01*
G01X13356Y10090D01*
G01Y9969D01*
G01X13441Y9968D01*
G01X13526Y9965D01*
G01X13540Y9964D01*
G01X13553D01*
G01X13567Y9962D01*
G01X13581Y9961D01*
G01X13607Y9957D01*
G01X13633Y9953D01*
G01X13659Y9949D01*
G01X13685Y9944D01*
G01X13711Y9939D01*
G01X13747Y9930D01*
G01X13782Y9921D01*
G01X13818Y9912D01*
G01X13853Y9902D01*
G01X13887Y9891D01*
G01X13921Y9880D01*
G01X13955Y9869D01*
G01X13988Y9856D01*
G01X14004Y9850D01*
G01X14020Y9844D01*
G01X14035Y9837D01*
G01X14051Y9830D01*
G01X14066Y9823D01*
G01X14081Y9815D01*
G01X14096Y9807D01*
G01X14112Y9799D01*
G01X14129Y9791D01*
G01X14143Y9783D01*
G01X14151Y9779D01*
G01X14162Y9774D01*
G01X14172Y9768D01*
G01X14183Y9762D01*
G01X14193Y9756D01*
G01X14204Y9750D01*
G01X14238Y9729D01*
G01X14272Y9707D01*
G01X14307Y9684D01*
G01X14341Y9660D01*
G01X14361Y9646D01*
G01X14380Y9631D01*
G01X14398Y9616D01*
G01X14418Y9600D01*
G01X14437Y9584D01*
G01X14456Y9567D01*
G01X14475Y9550D01*
G01X14493Y9532D01*
G01X14511Y9514D01*
G01X14529Y9496D01*
G01X14546Y9478D01*
G01X14563Y9459D01*
G01X14580Y9440D01*
G01X14597Y9421D01*
G01X14613Y9401D01*
G01X14628Y9381D01*
G01X14644Y9361D01*
G01X14659Y9340D01*
G01X14673Y9320D01*
G01X14688Y9299D01*
G01X14702Y9278D01*
G01X14715Y9256D01*
G01X14729Y9234D01*
G01X14741Y9212D01*
G01X14754Y9190D01*
G01X14766Y9167D01*
G01X14778Y9145D01*
G01X14789Y9122D01*
G01X14800Y9099D01*
G01X14810Y9075D01*
G01X14822Y9049D01*
G01X14832Y9022D01*
G01X14843Y8994D01*
G01X14853Y8967D01*
G01X14862Y8940D01*
G01X14871Y8912D01*
G01X14879Y8884D01*
G01X14887Y8856D01*
G01X14894Y8830D01*
G01X14900Y8804D01*
G01X14905Y8778D01*
G01X14925Y8669D01*
G01X14942Y8556D01*
G01X14948Y8507D01*
G01X14953Y8459D01*
G01X14956Y8432D01*
G01X14958Y8409D01*
G01X14960Y8389D01*
G01X14961D01*
G01Y8388D01*
G01X14962D01*
G01X14963D01*
G01X14988Y8403D01*
G01X15012Y8419D01*
G01X15018Y8423D01*
G01X15024Y8427D01*
G01X15030Y8432D01*
G01X15040Y8439D01*
G01X15057Y8451D01*
G01X15077Y8465D01*
G01X15098Y8479D01*
G01X15119Y8493D01*
G01X15140Y8508D01*
G01X15160Y8522D01*
G01X15173Y8530D01*
G01X15245Y8580D01*
G01X15275Y8600D01*
G01X15306Y8619D01*
G01X15333Y8635D01*
G01X15361Y8651D01*
G01X15388Y8666D01*
G01X15416Y8680D01*
G01X15427Y8685D01*
G01X15439Y8691D01*
G01X15450Y8696D01*
G01X15452Y8697D01*
G01X15455Y8698D01*
G01X15458Y8699D01*
G01X15460Y8700D01*
G01X15463D01*
G01X15466Y8701D01*
G01X15468Y8702D01*
G01X15471Y8703D01*
G01X15474D01*
G01X15477Y8704D01*
G01X15479Y8705D01*
G01X15482D01*
G01X15485Y8706D01*
G01X15488D01*
G01X15490D01*
G01X15493Y8707D01*
G01X15496D01*
G01X15499D01*
G01X15510Y8708D01*
G01X15522D01*
G01X15534D01*
G01X15564D01*
G01X15566D01*
G01X15568D01*
G01X15570D01*
G01X15572Y8707D01*
G01X15575D01*
G01X15577D01*
G01X15579D01*
G01X15580Y8706D01*
G01X15581D01*
G01X15582D01*
G01X15583D01*
G01X15584D01*
G01X15585Y8705D01*
G01X15587D01*
G01X15588D01*
G01X15589Y8704D01*
G01X15590D01*
G01X15591D01*
G01X15594Y8703D01*
G01X15596Y8702D01*
G01X15599Y8700D01*
G01X15602Y8699D01*
G01X15605Y8698D01*
G01X15607Y8697D01*
G01X15609Y8696D01*
G01X15611Y8695D01*
G01X15613Y8694D01*
G01X15615Y8693D01*
G01X15617Y8692D01*
G01X15618Y8690D01*
G01X15620Y8689D01*
G01X15622Y8688D01*
G01X15624Y8687D01*
G01X15628Y8684D01*
G01X15631Y8681D01*
G01X15635Y8679D01*
G01X15638Y8676D01*
G01X15642Y8673D01*
G01X15645Y8670D01*
G01X15648Y8667D01*
G01X15652Y8664D01*
G01X15655Y8661D01*
G01X15658Y8657D01*
G01X15661Y8654D01*
G01X15664Y8651D01*
G01X15666Y8649D01*
G01X15668Y8647D01*
G01X15669Y8644D01*
G01X15671Y8642D01*
G01X15673Y8640D01*
G01X15674Y8638D01*
G01X15676Y8636D01*
G01X15677Y8634D01*
G01X15679Y8631D01*
G01X15680Y8630D01*
G01X15681Y8628D01*
G01X15682Y8626D01*
G01X15683Y8624D01*
G01X15684Y8623D01*
G01X15687Y8617D01*
G01X15690Y8611D01*
G01X15693Y8604D01*
G01X15695Y8598D01*
G01X15697Y8594D01*
G01X15699Y8590D01*
G01X15700Y8586D01*
G01X15701Y8582D01*
G01X15703Y8579D01*
G01X15704Y8575D01*
G01X15705Y8571D01*
G01X15706Y8567D01*
G01Y8566D01*
G01X15707Y8564D01*
G01Y8562D01*
G01X15708Y8560D01*
G01Y8558D01*
G01Y8556D01*
G01X15709Y8554D01*
G01Y8552D01*
G01Y8548D01*
G01X15710Y8544D01*
G01Y8539D01*
G01Y8535D01*
G01Y8531D01*
G01Y8487D01*
G01Y8439D01*
G01Y8432D01*
G01X15709Y8426D01*
G01Y8420D01*
G01X15708Y8413D01*
G01Y8407D01*
G01X15707Y8398D01*
G01X15705Y8389D01*
G01X15704Y8381D01*
G01X15702Y8372D01*
G01X15690Y8307D01*
G01X15687Y8297D01*
G01X15685Y8286D01*
G01X15682Y8276D01*
G01X15671Y8237D01*
G01X15655Y8191D01*
G01X15636Y8134D01*
G01X15632Y8125D01*
G01X15628Y8116D01*
G01X15617Y8089D01*
G01X15604Y8060D01*
G01X15591Y8032D01*
G01X15574Y7999D01*
G01X15557Y7966D01*
G01X15539Y7933D01*
G01X15520Y7901D01*
G01X15502Y7870D01*
G01X15482Y7838D01*
G01X15462Y7808D01*
G01X15442Y7778D01*
G01X15421Y7748D01*
G01X15399Y7718D01*
G01X15376Y7689D01*
G01X15353Y7660D01*
G01X15342Y7647D01*
G01X15330Y7634D01*
G01X15319Y7621D01*
G01X15307Y7608D01*
G01X15238Y7538D01*
G01X15164Y7467D01*
G01X15144Y7449D01*
G01X15123Y7431D01*
G01X15102Y7413D01*
G01X15097Y7408D01*
G01X15092Y7404D01*
G01X15091Y7403D01*
G01X15090Y7402D01*
G01X15089Y7401D01*
G01X15088Y7400D01*
G01X15087Y7399D01*
G01X15086Y7398D01*
G01X15085Y7397D01*
G01X15084Y7396D01*
G01Y7395D01*
G01X15083D01*
G01Y7394D01*
G01X15082D01*
G01Y7393D01*
G01Y7392D01*
G01X15081D01*
G01Y7391D01*
G01X15080D01*
G01Y7390D01*
G01Y7389D01*
G01Y7388D01*
G01Y7387D01*
G01X15081D01*
G01Y7386D01*
G01Y7385D01*
G01Y7384D01*
G01X15082D01*
G01Y7383D01*
G01Y7382D01*
G01Y7381D01*
G01Y7380D01*
G01X15083D01*
G01Y7379D01*
G01Y7378D01*
G01Y7377D01*
G01Y7376D01*
G01X15088Y7328D01*
G01X15094Y7275D01*
G01X15098Y7221D01*
G01X15099Y7198D01*
G01X15100Y7175D01*
G01X15101Y7152D01*
G01Y7129D01*
G01X15100Y7075D01*
G01X15098Y7021D01*
G01X15094Y6968D01*
G01X15089Y6915D01*
G01X15086Y6892D01*
G01X15083Y6870D01*
G01X15079Y6848D01*
G01X15075Y6826D01*
G01X15072Y6809D01*
G01X15068Y6793D01*
G01X15064Y6777D01*
G01X15047Y6713D01*
G01X15027Y6650D01*
G01X15021Y6633D01*
G01X15016Y6617D01*
G01X15010Y6601D01*
G01X15002Y6583D01*
G01X14994Y6564D01*
G01X14986Y6546D01*
G01X14977Y6527D01*
G01X14963Y6500D01*
G01X14949Y6472D01*
G01X14934Y6445D01*
G01X14913Y6408D01*
G01X14890Y6372D01*
G01X14889Y6369D01*
G01X14887Y6366D01*
G01X14885Y6364D01*
G01X14883Y6361D01*
G01X14881Y6358D01*
G01X14879Y6356D01*
G01X14877Y6353D01*
G01X14875Y6351D01*
G01X14873Y6348D01*
G01X14871Y6346D01*
G01X14868Y6343D01*
G01X14866Y6341D01*
G01X14864Y6339D01*
G01X14861Y6336D01*
G01Y6335D01*
G01X14860D01*
G01X14856Y6330D01*
G01X14852Y6324D01*
G01X14846Y6318D01*
G01X14839Y6308D01*
G01X14831Y6298D01*
G01X14823Y6288D01*
G01X14815Y6279D01*
G01X14806Y6270D01*
G01X14797Y6261D01*
G01X14782Y6246D01*
G01X14767Y6231D01*
G01X14751Y6216D01*
G01X14735Y6201D01*
G01X14719Y6187D01*
G01X14702Y6173D01*
G01X14685Y6160D01*
G01X14668Y6146D01*
G01X14657Y6138D01*
G01X14646Y6131D01*
G01X14635Y6123D01*
G01X14625Y6116D01*
G01X14614Y6109D01*
G01X14602Y6102D01*
G01X14591Y6095D01*
G01X14580Y6088D01*
G01X14579D01*
G01Y6087D01*
G01X14578D01*
G01Y6086D01*
G01X14577Y6085D01*
G01Y6084D01*
G01Y6083D01*
G01Y6082D01*
G01Y6081D01*
G01X14578D01*
G01Y6080D01*
G01Y6079D01*
G01X14579D01*
G01Y6078D01*
G01X14580D01*
G01Y6077D01*
G01X14581D01*
G01Y6076D01*
G01X14582D01*
G01Y6075D01*
G01X14616Y6055D01*
G01X14628Y6048D01*
G01X14639Y6040D01*
G01X14651Y6032D01*
G01X14659Y6027D01*
G01X14667Y6021D01*
G01X14675Y6015D01*
G01X14683Y6008D01*
G01X14689Y6003D01*
G01X14696Y5997D01*
G01X14702Y5991D01*
G01X14709Y5985D01*
G01X14710Y5984D01*
G01X14712Y5982D01*
G01X14713Y5981D01*
G01X14714Y5979D01*
G01X14716Y5978D01*
G01X14717Y5976D01*
G01X14718Y5975D01*
G01X14720Y5973D01*
G01X14721Y5971D01*
G01X14722Y5970D01*
G01X14723Y5968D01*
G01X14725Y5966D01*
G01X14727Y5962D01*
G01X14730Y5958D01*
G01X14732Y5954D01*
G01X14735Y5950D01*
G01X14737Y5946D01*
G01X14739Y5942D01*
G01X14741Y5937D01*
G01X14742Y5935D01*
G01X14743Y5932D01*
G01X14744Y5930D01*
G01X14745Y5928D01*
G01X14746Y5925D01*
G01X14747Y5923D01*
G01X14748Y5920D01*
G01X14749Y5917D01*
G01X14750Y5915D01*
G01Y5912D01*
G01X14751Y5910D01*
G01X14752Y5908D01*
G01Y5905D01*
G01X14753Y5903D01*
G01Y5901D01*
G01Y5898D01*
G01X14754Y5896D01*
G01Y5894D01*
G01Y5892D01*
G01Y5889D01*
G01X14755Y5887D01*
G01Y5885D01*
G01Y5882D01*
G01Y5880D01*
G01Y5877D01*
G01Y5875D01*
G01Y5872D01*
G01X14754Y5869D01*
G01Y5867D01*
G01Y5864D01*
G01Y5861D01*
G01X14753Y5859D01*
G01Y5856D01*
G01Y5854D01*
G01X14752Y5851D01*
G01Y5848D01*
G01X14751Y5846D01*
G01Y5843D01*
G01X14750Y5840D01*
G01X14749Y5838D01*
G01X14748Y5835D01*
G01Y5833D01*
G01X14747Y5830D01*
G01X14746Y5828D01*
G01X14745Y5825D01*
G01X14744Y5823D01*
G01X14743Y5820D01*
G01X14742Y5818D01*
G01X14741Y5815D01*
G01X14740Y5813D01*
G01X14738Y5810D01*
G01X14737Y5808D01*
G01X14736Y5806D01*
G01X14735Y5803D01*
G01X14733Y5801D01*
G01X14732Y5798D01*
G01X14730Y5796D01*
G01X14728Y5793D01*
G01X14727Y5791D01*
G01X14725Y5789D01*
G01X14723Y5786D01*
G01X14722Y5784D01*
G01X14720Y5782D01*
G01X14718Y5780D01*
G01X14716Y5777D01*
G01X14714Y5775D01*
G01X14712Y5773D01*
G01X14710Y5771D01*
G01X14708Y5769D01*
G01X14706Y5767D01*
G01X14704Y5765D01*
G01X14702Y5763D01*
G01X14700Y5761D01*
G01X14696Y5758D01*
G01X14693Y5756D01*
G01X14690Y5753D01*
G01X14686Y5750D01*
G01X14683Y5748D01*
G01X14679Y5745D01*
G01X14675Y5743D01*
G01X14672Y5741D01*
G01X14668Y5738D01*
G01X14664Y5736D01*
G01X14661Y5734D01*
G01X14657Y5732D01*
G01X14653Y5730D01*
G01X14649Y5728D01*
G01X14645Y5726D01*
G01X14634Y5721D01*
G01X14624Y5716D01*
G01X14613Y5712D01*
G01X14602Y5707D01*
G01X14590Y5703D01*
G01X14579Y5699D01*
G01X14568Y5695D01*
G01X14554Y5691D01*
G01X14541Y5687D01*
G01X14527Y5684D01*
G01X14513Y5680D01*
G01X14499Y5677D01*
G01X14486Y5674D01*
G01X14472Y5671D01*
G01X14458Y5669D01*
G01X14444Y5666D01*
G01X14419Y5663D01*
G01X14395Y5660D01*
G01X14370Y5657D01*
G01X14345Y5655D01*
G01X14321Y5654D01*
G01X14296Y5652D01*
G01X14271D01*
G01X14246Y5651D01*
G01X14221D01*
G01X14197Y5652D01*
G01X14172Y5653D01*
G01X14147Y5654D01*
G01X14131Y5655D01*
G01X14114Y5657D01*
G01X14098Y5659D01*
G01X14082Y5661D01*
G01X14066Y5663D01*
G01X14050Y5666D01*
G01X14033Y5669D01*
G01X14018Y5672D01*
G01X14002Y5676D01*
G01X13987Y5680D01*
G01X13972Y5684D01*
G01X13957Y5688D01*
G01X13942Y5693D01*
G01X13932Y5696D01*
G01X13923Y5700D01*
G01X13914Y5703D01*
G01X13904Y5707D01*
G01X13895Y5711D01*
G01X13886Y5715D01*
G01X13877Y5719D01*
G01X13869Y5723D01*
G01X13862Y5727D01*
G01X13855Y5730D01*
G01X13848Y5734D01*
G01X13841Y5739D01*
G01X13834Y5743D01*
G01X13827Y5747D01*
G01X13820Y5752D01*
G01X13813Y5756D01*
G01X13807Y5761D01*
G01X13800Y5766D01*
G01X13794Y5771D01*
G01X13787Y5776D01*
G01X13781Y5781D01*
G01X13775Y5786D01*
G01X13769Y5792D01*
G01X13766Y5794D01*
G01X13763Y5797D01*
G01X13760Y5799D01*
G01X13758Y5801D01*
G01X13756Y5802D01*
G01X13754Y5804D01*
G01X13752Y5805D01*
G01X13750Y5807D01*
G01X13748Y5808D01*
G01X13746Y5809D01*
G01X13744Y5810D01*
G01X13743D01*
G01Y5811D01*
G01X13742D01*
G01X13741D01*
G01X13740D01*
G01X13739D01*
G01X13737D01*
G01X13736D01*
G01X13735D01*
G01X13719Y5810D01*
G01X13700Y5808D01*
G01X13679Y5806D01*
G01X13615Y5800D01*
G01X13544Y5796D01*
G01X13471Y5793D01*
G01X13401D01*
G01X13333Y5794D01*
G01X13252Y5797D01*
G01X13175Y5802D01*
G01X13163Y5803D01*
G01X13152Y5804D01*
G01X13140Y5806D01*
G01X13129Y5807D01*
G01X13123Y5808D01*
G01X13118Y5809D01*
G01X13105Y5810D01*
G01X13093Y5811D01*
G01X13088D01*
G01X13084D01*
G01X13080D01*
G01X13077D01*
G01X13074D01*
G01X13071D01*
G01X13070D01*
G01X13069D01*
G01Y5810D01*
G01X13068D01*
G01X13067D01*
G01X13066D01*
G01X13065D01*
G01Y5809D01*
G01X13064D01*
G01X13063D01*
G01Y5808D01*
G01X13062D01*
G01X13061D01*
G01Y5807D01*
G01X13060D01*
G01X13059Y5806D01*
G01X13058D01*
G01Y5805D01*
G01X13057D01*
G01X13055Y5803D01*
G01X13053Y5800D01*
G01X13050Y5798D01*
G01X13048Y5796D01*
G01X13046Y5794D01*
G01X13044Y5792D01*
G01X13043Y5791D01*
G01X13041Y5789D01*
G01X13039Y5787D01*
G01X13037Y5786D01*
G01X13035Y5784D01*
G01X13033Y5782D01*
G01X13031Y5781D01*
G01X13016Y5770D01*
G01X13001Y5760D01*
G01X12984Y5749D01*
G01X12968Y5738D01*
G01X12958Y5732D01*
G01X12947Y5726D01*
G01X12937Y5720D01*
G01X12932Y5718D01*
G01X12928Y5715D01*
G01X12923Y5713D01*
G01X12918Y5711D01*
G01X12914Y5709D01*
G01X12899Y5703D01*
G01X12883Y5697D01*
G01X12868Y5691D01*
G01X12853Y5686D01*
G01X12849Y5685D01*
G01X12846Y5684D01*
G01X12842Y5683D01*
G01X12838Y5682D01*
G01X12834Y5681D01*
G01X12831Y5680D01*
G01X12823Y5678D01*
G01X12810Y5676D01*
G01X12795Y5673D01*
G01X12780Y5670D01*
G01X12764Y5666D01*
G01X12748Y5664D01*
G01X12733Y5661D01*
G01X12718Y5659D01*
G01X12703Y5657D01*
G01X12689Y5656D01*
G01X12672Y5654D01*
G01X12656D01*
G01X12640Y5653D01*
G01X12578Y5652D01*
G01X12531Y5653D01*
G01X12485Y5655D01*
G01X12466Y5656D01*
G01X12447Y5657D01*
G01X12428Y5659D01*
G01X12409Y5661D01*
G01X12391Y5663D01*
G01X12373Y5666D01*
G01X12355Y5669D01*
G01X12338Y5672D01*
G01X12312Y5677D01*
G01X12286Y5683D01*
G01X12260Y5690D01*
G01X12223Y5700D01*
G01X12218Y5702D01*
G01X12212Y5703D01*
G01X12207Y5705D01*
G01X12202Y5707D01*
G01X12197Y5709D01*
G01X12192Y5711D01*
G01X12187Y5713D01*
G01X12182Y5715D01*
G01X12177Y5718D01*
G01X12172Y5720D01*
G01X12156Y5729D01*
G01X12141Y5737D01*
G01X12135Y5740D01*
G01X12130Y5744D01*
G01X12125Y5747D01*
G01X12119Y5751D01*
G01X12114Y5754D01*
G01X12110Y5757D01*
G01X12106Y5760D01*
G01X12102Y5763D01*
G01X12099Y5766D01*
G01X12095Y5770D01*
G01X12091Y5773D01*
G01X12088Y5776D01*
G01X12085Y5778D01*
G01X12083Y5781D01*
G01X12080Y5784D01*
G01X12077Y5787D01*
G01X12075Y5790D01*
G01X12072Y5792D01*
G01X12071Y5794D01*
G01X12070Y5796D01*
G01X12068Y5797D01*
G01X12067Y5799D01*
G01X12066Y5801D01*
G01X12065Y5803D01*
G01X12064Y5804D01*
G01X12063Y5806D01*
G01X12062Y5808D01*
G01X12060Y5810D01*
G01X12059Y5812D01*
G01Y5813D01*
G01X12058Y5814D01*
G01Y5815D01*
G01X12057Y5817D01*
G01X12056Y5818D01*
G01Y5820D01*
G01X12055Y5821D01*
G01Y5822D01*
G01X12054Y5823D01*
G01Y5824D01*
G01Y5825D01*
G01Y5826D01*
G01X12053Y5827D01*
G01Y5828D01*
G01Y5829D01*
G01Y5830D01*
G01X12052Y5831D01*
G01Y5832D01*
G01Y5833D01*
G01Y5835D01*
G01Y5837D01*
G01X12051Y5839D01*
G01Y5840D01*
G01Y5842D01*
G01Y5844D01*
G01Y5846D01*
G01Y5871D01*
G01Y5914D01*
G01X12066Y5942D01*
G01X12067Y5945D01*
G01X12069Y5949D01*
G01X12071Y5952D01*
G01X12073Y5955D01*
G01X12076Y5958D01*
G01X12078Y5962D01*
G01X12080Y5965D01*
G01X12083Y5968D01*
G01X12085Y5971D01*
G01X12088Y5974D01*
G01X12090Y5977D01*
G01X12093Y5980D01*
G01X12096Y5983D01*
G01X12098Y5986D01*
G01X12101Y5989D01*
G01X12104Y5991D01*
G01X12107Y5995D01*
G01X12111Y5998D01*
G01X12115Y6001D01*
G01X12119Y6005D01*
G01X12123Y6008D01*
G01X12127Y6011D01*
G01X12144Y6024D01*
G01X12162Y6036D01*
G01X12179Y6048D01*
G01X12196Y6059D01*
G01X12200Y6061D01*
G01X12203Y6063D01*
G01X12206Y6065D01*
G01X12210Y6067D01*
G01X12213Y6069D01*
G01X12217Y6070D01*
G01X12220Y6072D01*
G01X12223Y6074D01*
G01X12226Y6075D01*
G01X12228Y6076D01*
G01X12230Y6077D01*
G01X12231Y6078D01*
G01X12236Y6080D01*
G01Y6081D01*
G01Y6082D01*
G01X12228Y6087D01*
G01X12220Y6093D01*
G01X12209Y6100D01*
G01X12195Y6108D01*
G01X12182Y6117D01*
G01X12168Y6127D01*
G01X12155Y6136D01*
G01X12142Y6146D01*
G01X12118Y6165D01*
G01X12094Y6185D01*
G01X12070Y6206D01*
G01X12053Y6221D01*
G01X12036Y6237D01*
G01X12019Y6253D01*
G01X12003Y6270D01*
G01X11993Y6280D01*
G01X11984Y6289D01*
G01X11975Y6300D01*
G01X11966Y6310D01*
G01X11958Y6320D01*
G01X11949Y6331D01*
G01X11938Y6346D01*
G01X11926Y6361D01*
G01X11915Y6376D01*
G01X11904Y6392D01*
G01X11894Y6408D01*
G01X11881Y6428D01*
G01X11868Y6448D01*
G01X11856Y6469D01*
G01X11845Y6490D01*
G01X11836Y6506D01*
G01X11827Y6523D01*
G01X11819Y6540D01*
G01X11811Y6557D01*
G01X11804Y6575D01*
G01X11796Y6592D01*
G01X11790Y6609D01*
G01X11783Y6626D01*
G01X11777Y6643D01*
G01X11771Y6661D01*
G01X11766Y6676D01*
G01X11762Y6689D01*
G01X11758Y6701D01*
G01X11757Y6702D01*
G01Y6703D01*
G01X11756Y6704D01*
G01Y6706D01*
G01X11754Y6709D01*
G01X11753Y6713D01*
G01X11751Y6716D01*
G01X11750Y6720D01*
G01X11749Y6724D01*
G01X11747Y6727D01*
G01X11746Y6731D01*
G01X11745Y6735D01*
G01X11744Y6738D01*
G01X11743Y6742D01*
G01X11742Y6746D01*
G01X11734Y6785D01*
G01X11727Y6823D01*
G01X11719Y6867D01*
G01X11712Y6911D01*
G01X11707Y6952D01*
G01X11703Y6994D01*
G01X11702Y7005D01*
G01X11671Y6982D01*
G01X11659Y6973D01*
G01X11648Y6965D01*
G01X11639Y6959D01*
G01X11638D01*
G01X11637D01*
G01X11636Y6958D01*
G01X11635D01*
G01X11627Y6954D01*
G01X11618Y6948D01*
G01X11608Y6942D01*
G01X11600Y6936D01*
G01X11591Y6931D01*
G01X11582Y6926D01*
G01X11566Y6918D01*
G01X11550Y6910D01*
G01X11531Y6901D01*
G01X11513Y6892D01*
G01X11469Y6873D01*
G01X11427Y6856D01*
G01X11420Y6853D01*
G01X11413Y6851D01*
G01X11405Y6848D01*
G01X11398Y6846D01*
G01X11393Y6845D01*
G01X11388Y6843D01*
G01X11383Y6842D01*
G01X11378Y6841D01*
G01X11373Y6840D01*
G01X11366Y6838D01*
G01X11359Y6837D01*
G01X11353Y6836D01*
G01X11346Y6835D01*
G01X11341D01*
G01X11337D01*
G01X11333Y6834D01*
G01X11329D01*
G01X11325D01*
G01X11320D01*
G01X11316D01*
G01X11312D01*
G01X11308D01*
G01X11304D01*
G01X11299Y6835D01*
G01X11295D01*
G01X11291D01*
G01X11287Y6836D01*
G01X11283Y6837D01*
G01X11278D01*
G01X11274Y6838D01*
G01X11270Y6839D01*
G01X11266Y6840D01*
G01X11264D01*
G01X11262Y6841D01*
G01X11260D01*
G01X11258Y6842D01*
G01X11255Y6843D01*
G01X11253D01*
G01X11251Y6844D01*
G01X11249Y6845D01*
G01X11247Y6846D01*
G01X11245Y6847D01*
G01X11243Y6848D01*
G01X11241D01*
G01X11239Y6849D01*
G01X11237Y6850D01*
G01X11235Y6851D01*
G01X11233Y6853D01*
G01X11231Y6854D01*
G01X11230Y6855D01*
G01X11228Y6856D01*
G01X11226Y6857D01*
G01X11224Y6858D01*
G01X11222Y6860D01*
G01X11220Y6861D01*
G01X11219Y6862D01*
G01X11217Y6864D01*
G01X11215Y6865D01*
G01X11214Y6866D01*
G01X11212Y6868D01*
G01X11210Y6869D01*
G01X11209Y6871D01*
G01X11207Y6872D01*
G01X11205Y6874D01*
G01X11204Y6876D01*
G01X11202Y6878D01*
G01X11200Y6880D01*
G01X11199Y6882D01*
G01X11197Y6883D01*
G01X11196Y6885D01*
G01X11194Y6887D01*
G01X11193Y6889D01*
G01X11191Y6891D01*
G01X11190Y6893D01*
G01X11188Y6895D01*
G01X11187Y6898D01*
G01X11186Y6900D01*
G01X11185Y6902D01*
G01X11183Y6904D01*
G01X11182Y6906D01*
G01X11181Y6908D01*
G01X11180Y6910D01*
G01X11179Y6913D01*
G01X11178Y6915D01*
G01X11177Y6917D01*
G01X11176Y6920D01*
G01X11175Y6922D01*
G01X11174Y6924D01*
G01X11173Y6926D01*
G01Y6929D01*
G01X11172Y6931D01*
G01X11171Y6934D01*
G01X11170Y6939D01*
G01X11168Y6945D01*
G01X11167Y6951D01*
G01X11166Y6957D01*
G01X11165Y6962D01*
G01X11164Y6968D01*
G01X11163Y6974D01*
G01X11162Y6980D01*
G01X11161Y6986D01*
G01Y6992D01*
G01X11160Y6998D01*
G01Y7003D01*
G01X11159Y7009D01*
G01Y7015D01*
G01Y7021D01*
G01Y7032D01*
G01X11160Y7043D01*
G01Y7053D01*
G01X11161Y7061D01*
G01X11162Y7068D01*
G01Y7076D01*
G01X11164Y7083D01*
G01X11165Y7095D01*
G01X11167Y7107D01*
G01X11170Y7118D01*
G01X11181Y7167D01*
G01X11185Y7184D01*
G01X11189Y7200D01*
G01X11194Y7217D01*
G01X11199Y7233D01*
G01X11205Y7249D01*
G01X11211Y7266D01*
G01X11225Y7305D01*
G01X11241Y7343D01*
G01X11258Y7381D01*
G01X11276Y7421D01*
G01X11296Y7460D01*
G01X11316Y7499D01*
G01X11331Y7527D01*
G01X11346Y7554D01*
G01X11362Y7581D01*
G01X11379Y7608D01*
G01X11389Y7624D01*
G01X11401Y7643D01*
G01X11413Y7663D01*
G01X11423Y7679D01*
G01X11433Y7694D01*
G01X11444Y7711D01*
G01X11455Y7728D01*
G01X11463Y7740D01*
G01X11488Y7775D01*
G01X11536Y7840D01*
G01X11585Y7905D01*
G01X11591Y7913D01*
G01X11597Y7920D01*
G01X11603Y7928D01*
G01X11623Y7951D01*
G01X11649Y7982D01*
G01X11676Y8012D01*
G01X11696Y8035D01*
G01X11706Y8046D01*
G01X11717Y8058D01*
G01X11727Y8070D01*
G01X11735Y8080D01*
G01X11742Y8088D01*
G01X11746Y8092D01*
G01X11749Y8095D01*
G01X11755Y8101D01*
G01Y8102D01*
G01X11756D01*
G01X11757D01*
G01Y8103D01*
G01X11758D01*
G01Y8104D01*
G01X11759D01*
G01X11760Y8105D01*
G01X11761D01*
G01Y8106D01*
G01X11762D01*
G01X11763Y8107D01*
G01Y8108D01*
G01X11764D01*
G01Y8109D01*
G01X11765D01*
G01Y8110D01*
G01X11766D01*
G01Y8111D01*
G01X11767Y8112D01*
G01X11770Y8117D01*
G01X11773Y8122D01*
G01X11776Y8128D01*
G01X11779Y8133D01*
G01X11782Y8139D01*
G01X11785Y8146D01*
G01X11788Y8152D01*
G01X11791Y8159D01*
G01X11793Y8164D01*
G01X11795Y8169D01*
G01X11797Y8174D01*
G01X11799Y8179D01*
G01X11801Y8185D01*
G01X11803Y8192D01*
G01X11806Y8200D01*
G01X11808Y8208D01*
G01X11810Y8215D01*
G01X11811Y8223D01*
G01X11815Y8239D01*
G01X11817Y8254D01*
G01X11820Y8270D01*
G01X11830Y8342D01*
G01X11846Y8472D01*
G01X11853Y8527D01*
G01X11862Y8588D01*
G01X11870Y8644D01*
G01X11872Y8657D01*
G01X11874Y8671D01*
G01X11877Y8682D01*
G01X11879Y8696D01*
G01X11882Y8710D01*
G01X11884Y8721D01*
G01X11885Y8732D01*
G01X11887Y8743D01*
G01X11890Y8753D01*
G01X11891Y8761D01*
G01X11893Y8769D01*
G01X11897Y8784D01*
G01X11900Y8802D01*
G01X11904Y8821D01*
G01X11910Y8844D01*
G01X11915Y8867D01*
G01X11922Y8889D01*
G01X11928Y8912D01*
G01X11936Y8935D01*
G01X11943Y8958D01*
G01X11951Y8981D01*
G01X11960Y9004D01*
G01X11970Y9028D01*
G01X11980Y9052D01*
G01X11991Y9075D01*
G01X12002Y9099D01*
G01X12027Y9151D01*
G01X12055Y9203D01*
G01X12060Y9212D01*
G01X12065Y9221D01*
G01X12070Y9229D01*
G01X12076Y9238D01*
G01X12114Y9295D01*
G01X12153Y9352D01*
G01X12159Y9361D01*
G01X12166Y9370D01*
G01X12172Y9378D01*
G01X12179Y9387D01*
G01X12201Y9413D01*
G01X12223Y9438D01*
G01X12246Y9464D01*
G01X12269Y9488D01*
G01X12292Y9513D01*
G01X12310Y9531D01*
G01X12329Y9549D01*
G01X12348Y9567D01*
G01X12368Y9584D01*
G01X12387Y9601D01*
G01X12407Y9617D01*
G01X12428Y9633D01*
G01X12448Y9649D01*
G01X12469Y9664D01*
G01X12491Y9679D01*
G01X12512Y9694D01*
G01X12534Y9708D01*
G01X12563Y9726D01*
G01X12593Y9743D01*
G01X12622Y9760D01*
G01X12652Y9777D01*
G01X12683Y9793D01*
G01X12706Y9804D01*
G01X12729Y9816D01*
G01X12753Y9827D01*
G01X12777Y9837D01*
G01X12801Y9847D01*
G01X12825Y9857D01*
G01X12856Y9868D01*
G01X12887Y9879D01*
G01X12918Y9889D01*
G01X12949Y9899D01*
G01X12981Y9908D01*
G01X13013Y9917D01*
G01X13045Y9925D01*
G01X13077Y9932D01*
G01X13110Y9939D01*
G01X13142Y9945D01*
G01X13174Y9951D01*
G01X13205Y9956D01*
G01X13237Y9960D01*
G01X13269Y9963D01*
G01X13301Y9966D01*
G01X13315Y9967D01*
G01X13329Y9968D01*
G01X13342D01*
G01X13356Y9969D01*
G01Y10090D01*
G01X13331Y10089D01*
G01X13299Y10088D01*
G01X13267Y10086D01*
G01X13235Y10083D01*
G01X13204Y10080D01*
G01X13174Y10076D01*
G01X13143Y10071D01*
G01X13112Y10066D01*
G01X13081Y10060D01*
G01X13050Y10053D01*
G01X12999Y10041D01*
G01X12949Y10028D01*
G01X12916Y10018D01*
G01X12887Y10009D01*
G01X12863Y10002D01*
G01X12860Y10001D01*
G01X12856Y9999D01*
G01X12853Y9998D01*
G01X12849Y9997D01*
G01X12847Y9996D01*
G01X12845Y9995D01*
G01X12839Y9992D01*
G01X12831Y9989D01*
G01X12823Y9987D01*
G01X12804Y9980D01*
G01X12785Y9972D01*
G01X12735Y9951D01*
G01X12684Y9929D01*
G01X12640Y9908D01*
G01X12613Y9894D01*
G01X12586Y9879D01*
G01X12559Y9864D01*
G01X12532Y9849D01*
G01X12506Y9833D01*
G01X12480Y9816D01*
G01X12454Y9799D01*
G01X12429Y9782D01*
G01X12404Y9765D01*
G01X12379Y9746D01*
G01X12355Y9728D01*
G01X12331Y9709D01*
G01X12307Y9689D01*
G01X12284Y9669D01*
G01X12262Y9649D01*
G01X12239Y9629D01*
G01X12218Y9608D01*
G01X12196Y9587D01*
G01X12175Y9565D01*
G01X12155Y9544D01*
G01X12135Y9521D01*
G01X12118Y9502D01*
G01X12101Y9482D01*
G01X12085Y9462D01*
G01X12069Y9442D01*
G01X12054Y9422D01*
G01X12039Y9401D01*
G01X12024Y9380D01*
G01X12010Y9359D01*
G01X11980Y9313D01*
G01X11969Y9296D01*
G01X11959Y9278D01*
G01X11949Y9260D01*
G01X11939Y9242D01*
G01X11913Y9192D01*
G01X11901Y9168D01*
G01X11890Y9143D01*
G01X11879Y9119D01*
G01X11868Y9094D01*
G01X11858Y9069D01*
G01X11849Y9044D01*
G01X11837Y9011D01*
G01X11827Y8979D01*
G01X11816Y8946D01*
G01X11807Y8913D01*
G01X11798Y8880D01*
G01X11786Y8832D01*
G01X11775Y8784D01*
G01X11765Y8736D01*
G01X11757Y8688D01*
G01X11738Y8573D01*
G01X11723Y8457D01*
G01X11704Y8309D01*
G01X11702Y8290D01*
G01X11699Y8271D01*
G01X11695Y8253D01*
G01Y8249D01*
G01X11694Y8245D01*
G01X11693Y8242D01*
G01X11692Y8238D01*
G01X11691Y8234D01*
G01X11690Y8231D01*
G01X11689Y8227D01*
G01X11688Y8224D01*
G01X11686Y8220D01*
G01Y8218D01*
G01X11685Y8216D01*
G01X11684Y8214D01*
G01X11683Y8212D01*
G01X11682Y8209D01*
G01X11681Y8207D01*
G01X11680Y8205D01*
G01X11679Y8203D01*
G01X11678Y8201D01*
G01X11677Y8199D01*
G01X11676Y8197D01*
G01X11674Y8195D01*
G01X11673Y8193D01*
G01X11671Y8189D01*
G01X11668Y8185D01*
G01X11665Y8182D01*
G01X11654Y8167D01*
G01X11642Y8153D01*
G01X11636Y8146D01*
G01X11631Y8140D01*
G01X11606Y8113D01*
G01X11568Y8069D01*
G01X11528Y8023D01*
G01X11497Y7986D01*
G01X11481Y7966D01*
G01X11457Y7935D01*
G01X11430Y7899D01*
G01X11403Y7863D01*
G01X11387Y7839D01*
G01X11371Y7815D01*
G01X11317Y7734D01*
G01X11265Y7653D01*
G01X11251Y7629D01*
G01X11237Y7605D01*
G01X11213Y7562D01*
G01X11190Y7519D01*
G01X11168Y7473D01*
G01X11146Y7426D01*
G01X11126Y7381D01*
G01X11107Y7335D01*
G01X11100Y7316D01*
G01X11093Y7297D01*
G01X11086Y7278D01*
G01X11080Y7258D01*
G01X11075Y7244D01*
G01X11071Y7229D01*
G01X11067Y7214D01*
G01X11064Y7200D01*
G01X11059Y7179D01*
G01X11055Y7158D01*
G01X11051Y7137D01*
G01X11048Y7117D01*
G01X11045Y7097D01*
G01X11043Y7076D01*
G01X11042Y7066D01*
G01X11041Y7055D01*
G01Y7045D01*
G01X11040Y7034D01*
G01X11040Y7024D01*
G37*
M02*

