0
SECTION
2
HEADER
9
$ACADVER
1
AC1015
9
$INSUNITS
70
4
0
ENDSEC
0
SECTION
2
ENTITIES
0
LWPOLYLINE
8
0
90
60
70
0
10
-12.361459
20
-0.624568
10
-11.344510
20
-0.669449
10
-10.327561
20
-0.717556
10
-9.310612
20
-0.769120
10
-8.293663
20
-0.824389
10
-7.276714
20
-0.883630
10
-6.259764
20
-0.947127
10
-5.242815
20
-1.015188
10
-4.225866
20
-1.088140
10
-3.208917
20
-1.166334
10
-2.191968
20
-1.250147
10
-1.175019
20
-1.339983
10
-0.158069
20
-1.436274
10
0.858880
20
-1.539485
10
1.875829
20
-1.650113
10
2.892778
20
-1.768690
10
3.909727
20
-1.895789
10
4.926676
20
-2.032021
10
5.943625
20
-2.178042
10
6.960575
20
-2.334557
10
7.977524
20
-2.502319
10
8.994473
20
-2.682136
10
10.011422
20
-2.874875
10
11.028371
20
-3.081464
10
12.045320
20
-3.302899
10
13.062269
20
-3.540246
10
14.079219
20
-3.794648
10
15.096168
20
-4.067333
10
16.113117
20
-4.359612
10
17.130066
20
-4.672895
10
18.147015
20
-5.008690
10
19.163964
20
-5.368616
10
20.180914
20
-5.754406
10
21.197863
20
-6.167919
10
22.214812
20
-6.611147
10
23.231761
20
-7.086225
10
24.248710
20
-7.595443
10
25.265659
20
-8.141253
10
26.282608
20
-8.726286
10
27.299558
20
-9.353358
10
28.316507
20
-10.025493
10
29.333456
20
-10.745927
10
30.350405
20
-11.518132
10
31.367354
20
-12.345828
10
32.384303
20
-13.233002
10
33.401253
20
-14.183928
10
34.418202
20
-15.203188
10
35.435151
20
-16.295693
10
36.452100
20
-17.466705
10
37.469049
20
-18.721867
10
38.485998
20
-20.067224
10
39.502947
20
-21.509260
10
40.519897
20
-23.054920
10
41.536846
20
-24.711652
10
42.553795
20
-26.487437
10
43.570744
20
-28.390830
10
44.587693
20
-30.431002
10
45.604642
20
-32.617780
10
46.621592
20
-34.961701
10
47.638541
20
-37.474057
0
ENDSEC
0
EOF
