0
SECTION
2
HEADER
9
$ACADVER
1
AC1015
9
$INSUNITS
70
4
0
ENDSEC
0
SECTION
2
ENTITIES
0
LWPOLYLINE
8
0
90
62
70
1
10
-2.724593
20
0.000000
10
3.006231
20
5.980824
10
2.844899
20
6.137918
10
2.679442
20
6.290660
10
2.509978
20
6.438944
10
2.336626
20
6.582665
10
2.159510
20
6.721719
10
1.978755
20
6.856010
10
1.794489
20
6.985441
10
1.606842
20
7.109920
10
1.415949
20
7.229361
10
1.221944
20
7.343678
10
1.024964
20
7.452789
10
0.825149
20
7.556618
10
0.622642
20
7.655091
10
0.417584
20
7.748139
10
0.210123
20
7.835694
10
0.000404
20
7.917696
10
-0.211424
20
7.994086
10
-0.425210
20
8.064810
10
-0.640803
20
8.129818
10
-0.858050
20
8.189064
10
-1.076797
20
8.242505
10
-1.296889
20
8.290104
10
-1.518171
20
8.331828
10
-1.740484
20
8.367646
10
-1.963673
20
8.397533
10
-2.187578
20
8.421468
10
-2.412041
20
8.439435
10
-2.636902
20
8.451419
10
-2.862003
20
8.457414
10
-3.087184
20
8.457414
10
-3.312285
20
8.451419
10
-3.537146
20
8.439435
10
-3.761609
20
8.421468
10
-3.985514
20
8.397533
10
-4.208702
20
8.367646
10
-4.431016
20
8.331828
10
-4.652297
20
8.290104
10
-4.872390
20
8.242505
10
-5.091137
20
8.189064
10
-5.308384
20
8.129818
10
-5.523977
20
8.064810
10
-5.737763
20
7.994086
10
-5.949591
20
7.917696
10
-6.159309
20
7.835694
10
-6.366771
20
7.748139
10
-6.571828
20
7.655091
10
-6.774336
20
7.556618
10
-6.974151
20
7.452789
10
-7.171130
20
7.343678
10
-7.365136
20
7.229361
10
-7.556029
20
7.109920
10
-7.743675
20
6.985441
10
-7.927941
20
6.856010
10
-8.108696
20
6.721719
10
-8.285813
20
6.582665
10
-8.459164
20
6.438944
10
-8.628629
20
6.290660
10
-8.794086
20
6.137918
10
-8.955418
20
5.980824
10
-3.224593
20
0.000000
0
ENDSEC
0
EOF
