0
SECTION
2
HEADER
9
$ACADVER
1
AC1015
9
$INSUNITS
70
4
0
ENDSEC
0
SECTION
2
ENTITIES
0
LWPOLYLINE
8
0
90
73
70
1
10
-12.348987
20
0.000000
10
-12.408521
20
1.363532
10
-12.586667
20
2.716687
10
-12.882070
20
4.049166
10
-13.292483
20
5.350829
10
-13.814781
20
6.611768
10
-14.444990
20
7.822388
10
-15.178313
20
8.973475
10
-16.009170
20
10.056269
10
-16.931236
20
11.062528
10
-17.937495
20
11.984594
10
-19.020289
20
12.815451
10
-20.171376
20
13.548774
10
-21.381996
20
14.178983
10
-22.642935
20
14.701281
10
-23.944598
20
15.111694
10
-25.277077
20
15.407097
10
-26.630232
20
15.585244
10
-27.993764
20
15.644777
10
-29.357296
20
15.585244
10
-30.710451
20
15.407097
10
-32.042930
20
15.111694
10
-33.344593
20
14.701281
10
-34.605532
20
14.178983
10
-35.816152
20
13.548774
10
-36.967239
20
12.815451
10
-38.050033
20
11.984594
10
-39.056292
20
11.062528
10
-39.978358
20
10.056269
10
-40.809215
20
8.973475
10
-41.542538
20
7.822388
10
-42.172747
20
6.611768
10
-42.695045
20
5.350829
10
-43.105458
20
4.049166
10
-43.400861
20
2.716687
10
-43.579008
20
1.363532
10
-43.638541
20
0.000000
10
-43.579008
20
-1.363532
10
-43.400861
20
-2.716687
10
-43.105458
20
-4.049166
10
-42.695045
20
-5.350829
10
-42.172747
20
-6.611768
10
-41.542538
20
-7.822388
10
-40.809215
20
-8.973475
10
-39.978358
20
-10.056269
10
-39.056292
20
-11.062528
10
-38.050033
20
-11.984594
10
-36.967239
20
-12.815451
10
-35.816152
20
-13.548774
10
-34.605532
20
-14.178983
10
-33.344593
20
-14.701281
10
-32.042930
20
-15.111694
10
-30.710451
20
-15.407097
10
-29.357296
20
-15.585244
10
-27.993764
20
-15.644777
10
-26.630232
20
-15.585244
10
-25.277077
20
-15.407097
10
-23.944598
20
-15.111694
10
-22.642935
20
-14.701281
10
-21.381996
20
-14.178983
10
-20.171376
20
-13.548774
10
-19.020289
20
-12.815451
10
-17.937495
20
-11.984594
10
-16.931236
20
-11.062528
10
-16.009170
20
-10.056269
10
-15.178313
20
-8.973475
10
-14.444990
20
-7.822388
10
-13.814781
20
-6.611768
10
-13.292483
20
-5.350829
10
-12.882070
20
-4.049166
10
-12.586667
20
-2.716687
10
-12.408521
20
-1.363532
10
-12.348987
20
-0.000000
0
ENDSEC
0
EOF
