0
SECTION
2
HEADER
9
$ACADVER
1
AC1015
9
$INSUNITS
70
4
0
ENDSEC
0
SECTION
2
ENTITIES
0
LWPOLYLINE
8
0
90
80
70
0
10
-12.361459
20
-0.624568
10
-12.458621
20
-1.848878
10
-12.651520
20
-3.061795
10
-12.938969
20
-4.255842
10
-13.319197
20
-5.423662
10
-13.789859
20
-6.558058
10
-14.348056
20
-7.652038
10
-14.990347
20
-8.698862
10
-15.712775
20
-9.692076
10
-16.510886
20
-10.625562
10
-17.379764
20
-11.493565
10
-18.314051
20
-12.290736
10
-19.307993
20
-13.012164
10
-20.355462
20
-13.653401
10
-21.450003
20
-14.210497
10
-22.584872
20
-14.680018
10
-23.753074
20
-15.059070
10
-24.947410
20
-15.345317
10
-26.160520
20
-15.536996
10
-27.384928
20
-15.632925
10
-28.613088
20
-15.632513
10
-29.837431
20
-15.535763
10
-31.050412
20
-15.343270
10
-32.244556
20
-15.056221
10
-33.412504
20
-14.676386
10
-34.547057
20
-14.206104
10
-35.641225
20
-13.648274
10
-36.688263
20
-13.006334
10
-37.681720
20
-12.284240
10
-38.615473
20
-11.486441
10
-39.483768
20
-10.617855
10
-40.281253
20
-9.683835
10
-41.003014
20
-8.690136
10
-41.644602
20
-7.642882
10
-42.202065
20
-6.548527
10
-42.671967
20
-5.413816
10
-43.051410
20
-4.245741
10
-43.338059
20
-3.051501
10
-43.530144
20
-1.838455
10
-43.626484
20
-0.614080
10
-43.626484
20
0.614080
10
-43.530144
20
1.838455
10
-43.338059
20
3.051501
10
-43.051410
20
4.245741
10
-42.671967
20
5.413816
10
-42.202065
20
6.548527
10
-41.644602
20
7.642882
10
-41.003014
20
8.690136
10
-40.281253
20
9.683835
10
-39.483768
20
10.617855
10
-38.615473
20
11.486441
10
-37.681720
20
12.284240
10
-36.688263
20
13.006334
10
-35.641225
20
13.648274
10
-34.547057
20
14.206104
10
-33.412504
20
14.676386
10
-32.244556
20
15.056221
10
-31.050412
20
15.343270
10
-29.837431
20
15.535763
10
-28.613088
20
15.632513
10
-27.384928
20
15.632925
10
-26.160520
20
15.536996
10
-24.947410
20
15.345317
10
-23.753074
20
15.059070
10
-22.584872
20
14.680018
10
-21.450003
20
14.210497
10
-20.355462
20
13.653401
10
-19.307993
20
13.012164
10
-18.314051
20
12.290736
10
-17.379764
20
11.493565
10
-16.510886
20
10.625562
10
-15.712775
20
9.692076
10
-14.990347
20
8.698862
10
-14.348056
20
7.652038
10
-13.789859
20
6.558058
10
-13.319197
20
5.423662
10
-12.938969
20
4.255842
10
-12.651520
20
3.061795
10
-12.458621
20
1.848878
10
-12.361459
20
0.624568
0
ENDSEC
0
EOF
