%TF.GenerationSoftware,KiCad,Pcbnew,10.0.1*%
%TF.CreationDate,2026-04-22T03:48:45-05:00*%
%TF.ProjectId,5GhzPatch,3547687a-5061-4746-9368-2e6b69636164,rev?*%
%TF.SameCoordinates,Original*%
%TF.FileFunction,Copper,L2,Bot*%
%TF.FilePolarity,Positive*%
%FSLAX46Y46*%
G04 Gerber Fmt 4.6, Leading zero omitted, Abs format (unit mm)*
G04 Created by KiCad (PCBNEW 10.0.1) date 2026-04-22 03:48:45*
%MOMM*%
%LPD*%
G01*
G04 APERTURE LIST*
G04 Aperture macros list*
%AMFreePoly0*
4,1,33,0.253999,0.837323,0.412472,0.771681,0.555094,0.676384,0.676384,0.555094,0.771681,0.412472,0.837323,0.253999,0.870787,0.085765,0.870787,-0.085765,0.837323,-0.253999,0.771681,-0.412472,0.676384,-0.555094,0.555094,-0.676384,0.412472,-0.771681,0.253999,-0.837323,0.085765,-0.870787,-0.085765,-0.870787,-0.253999,-0.837323,-0.412472,-0.771681,-0.555094,-0.676384,-0.676384,-0.555094,
-0.771681,-0.412472,-0.837323,-0.253999,-0.870787,-0.085765,-0.870787,0.085765,-0.837323,0.253999,-0.771681,0.412472,-0.676384,0.555094,-0.555094,0.676384,-0.412472,0.771681,-0.253999,0.837323,-0.085765,0.870787,0.085765,0.870787,0.253999,0.837323,0.253999,0.837323,$1*%
G04 Aperture macros list end*
%TA.AperFunction,ComponentPad*%
%ADD10FreePoly0,0.000000*%
%TD*%
%TA.AperFunction,Profile*%
%ADD11C,0.050000*%
%TD*%
G04 APERTURE END LIST*
D10*
%TO.P,Ant1,1,Feed_1*%
%TO.N,Net-(Ant1-Feed)*%
X150000000Y-100000000D03*
%TD*%
%TA.AperFunction,NonConductor*%
G36*
X166654043Y-75800765D02*
G01*
X166876790Y-75815364D01*
X166892848Y-75817479D01*
X167107781Y-75860231D01*
X167123434Y-75864426D01*
X167330941Y-75934865D01*
X167345925Y-75941071D01*
X167542464Y-76037994D01*
X167556510Y-76046104D01*
X167738705Y-76167842D01*
X167751574Y-76177716D01*
X167916328Y-76322202D01*
X167927797Y-76333671D01*
X168072283Y-76498425D01*
X168082157Y-76511294D01*
X168203895Y-76693489D01*
X168212005Y-76707535D01*
X168308928Y-76904074D01*
X168315135Y-76919060D01*
X168385571Y-77126558D01*
X168389769Y-77142225D01*
X168432518Y-77357140D01*
X168434636Y-77373221D01*
X168449235Y-77595956D01*
X168449500Y-77604066D01*
X168449500Y-122395933D01*
X168449235Y-122404043D01*
X168434636Y-122626778D01*
X168432518Y-122642859D01*
X168389769Y-122857774D01*
X168385571Y-122873441D01*
X168315135Y-123080939D01*
X168308928Y-123095925D01*
X168212005Y-123292464D01*
X168203895Y-123306510D01*
X168082157Y-123488705D01*
X168072283Y-123501574D01*
X167927797Y-123666328D01*
X167916328Y-123677797D01*
X167751574Y-123822283D01*
X167738705Y-123832157D01*
X167556510Y-123953895D01*
X167542464Y-123962005D01*
X167345925Y-124058928D01*
X167330939Y-124065135D01*
X167123441Y-124135571D01*
X167107774Y-124139769D01*
X166892859Y-124182518D01*
X166876778Y-124184636D01*
X166654043Y-124199235D01*
X166645933Y-124199500D01*
X127354067Y-124199500D01*
X127345957Y-124199235D01*
X127123221Y-124184636D01*
X127107140Y-124182518D01*
X126892225Y-124139769D01*
X126876558Y-124135571D01*
X126669060Y-124065135D01*
X126654074Y-124058928D01*
X126457535Y-123962005D01*
X126443489Y-123953895D01*
X126261294Y-123832157D01*
X126248425Y-123822283D01*
X126083671Y-123677797D01*
X126072202Y-123666328D01*
X125927716Y-123501574D01*
X125917842Y-123488705D01*
X125796104Y-123306510D01*
X125787994Y-123292464D01*
X125691071Y-123095925D01*
X125684864Y-123080939D01*
X125614428Y-122873441D01*
X125610230Y-122857774D01*
X125567479Y-122642848D01*
X125565364Y-122626790D01*
X125550765Y-122404043D01*
X125550500Y-122395933D01*
X125550500Y-100000000D01*
X147500000Y-100000000D01*
X147500500Y-100070755D01*
X147500500Y-100070777D01*
X147508505Y-100212042D01*
X147508506Y-100212053D01*
X147524493Y-100352666D01*
X147524497Y-100352690D01*
X147548406Y-100492133D01*
X147548412Y-100492163D01*
X147580183Y-100630071D01*
X147619699Y-100765947D01*
X147619702Y-100765956D01*
X147666850Y-100899396D01*
X147666864Y-100899434D01*
X147721463Y-101029938D01*
X147721472Y-101029958D01*
X147783390Y-101157215D01*
X147783392Y-101157218D01*
X147852412Y-101280769D01*
X147928311Y-101400218D01*
X147928315Y-101400224D01*
X147928327Y-101400242D01*
X148010831Y-101515161D01*
X148010847Y-101515182D01*
X148099751Y-101625287D01*
X148194750Y-101730196D01*
X148295519Y-101829550D01*
X148295525Y-101829555D01*
X148401762Y-101923055D01*
X148513119Y-102010396D01*
X148629239Y-102091296D01*
X148749750Y-102165497D01*
X148874265Y-102232762D01*
X148874266Y-102232762D01*
X148874270Y-102232765D01*
X149002381Y-102292872D01*
X149070340Y-102320180D01*
X149133704Y-102345642D01*
X149133710Y-102345644D01*
X149133718Y-102345647D01*
X149267787Y-102390893D01*
X149267796Y-102390896D01*
X149404234Y-102428491D01*
X149542580Y-102458307D01*
X149682392Y-102480248D01*
X149682396Y-102480248D01*
X149682400Y-102480249D01*
X149729814Y-102484960D01*
X149823221Y-102494244D01*
X149964616Y-102500251D01*
X150106124Y-102498248D01*
X150247293Y-102488243D01*
X150387669Y-102470267D01*
X150526804Y-102444378D01*
X150664251Y-102410659D01*
X150799570Y-102369218D01*
X150932328Y-102320187D01*
X151062099Y-102263725D01*
X151188469Y-102200011D01*
X151311031Y-102129249D01*
X151429393Y-102051668D01*
X151543177Y-101967513D01*
X151652018Y-101877057D01*
X151755566Y-101780587D01*
X151853491Y-101678414D01*
X151945479Y-101570865D01*
X152031235Y-101458283D01*
X152031240Y-101458275D01*
X152031254Y-101458256D01*
X152110467Y-101341055D01*
X152110484Y-101341030D01*
X152182973Y-101219482D01*
X152248469Y-101094027D01*
X152306762Y-100965067D01*
X152357666Y-100833016D01*
X152401018Y-100698297D01*
X152436678Y-100561341D01*
X152464534Y-100422587D01*
X152484494Y-100282479D01*
X152496496Y-100141466D01*
X152500501Y-100000000D01*
X152496496Y-99858534D01*
X152484494Y-99717521D01*
X152464534Y-99577413D01*
X152436678Y-99438659D01*
X152401018Y-99301703D01*
X152357666Y-99166984D01*
X152306762Y-99034933D01*
X152248469Y-98905973D01*
X152182973Y-98780518D01*
X152110484Y-98658970D01*
X152110476Y-98658958D01*
X152110467Y-98658944D01*
X152031254Y-98541743D01*
X152031229Y-98541708D01*
X151945493Y-98429153D01*
X151945470Y-98429124D01*
X151898930Y-98374712D01*
X151853491Y-98321586D01*
X151755566Y-98219413D01*
X151652018Y-98122943D01*
X151652015Y-98122940D01*
X151543179Y-98032489D01*
X151543158Y-98032472D01*
X151429399Y-97948336D01*
X151429391Y-97948330D01*
X151311021Y-97870744D01*
X151188468Y-97799988D01*
X151062094Y-97736272D01*
X151062087Y-97736269D01*
X150932343Y-97679819D01*
X150932332Y-97679814D01*
X150932328Y-97679813D01*
X150932312Y-97679807D01*
X150799580Y-97630785D01*
X150799566Y-97630780D01*
X150664252Y-97589341D01*
X150526802Y-97555621D01*
X150526799Y-97555620D01*
X150387672Y-97529733D01*
X150247292Y-97511756D01*
X150106126Y-97501752D01*
X150095238Y-97501597D01*
X149964616Y-97499749D01*
X149964610Y-97499749D01*
X149964592Y-97499749D01*
X149964591Y-97499749D01*
X149823226Y-97505755D01*
X149823215Y-97505756D01*
X149682400Y-97519750D01*
X149542579Y-97541693D01*
X149404238Y-97571508D01*
X149404224Y-97571511D01*
X149267787Y-97609106D01*
X149133718Y-97654352D01*
X149133702Y-97654358D01*
X149002382Y-97707127D01*
X149002381Y-97707127D01*
X148874294Y-97767223D01*
X148874253Y-97767244D01*
X148749748Y-97834503D01*
X148629228Y-97908710D01*
X148513116Y-97989606D01*
X148513115Y-97989607D01*
X148401757Y-98076948D01*
X148401755Y-98076950D01*
X148295519Y-98170449D01*
X148194750Y-98269803D01*
X148099751Y-98374712D01*
X148010847Y-98484817D01*
X148010831Y-98484838D01*
X147928327Y-98599757D01*
X147928315Y-98599775D01*
X147928311Y-98599782D01*
X147852412Y-98719231D01*
X147852410Y-98719235D01*
X147783390Y-98842784D01*
X147721472Y-98970041D01*
X147721463Y-98970061D01*
X147666864Y-99100565D01*
X147666850Y-99100603D01*
X147619702Y-99234043D01*
X147619699Y-99234052D01*
X147580183Y-99369928D01*
X147548412Y-99507836D01*
X147548406Y-99507866D01*
X147524497Y-99647309D01*
X147524493Y-99647333D01*
X147508506Y-99787946D01*
X147508505Y-99787957D01*
X147500500Y-99929222D01*
X147500500Y-99929244D01*
X147500000Y-100000000D01*
X125550500Y-100000000D01*
X125550500Y-77604066D01*
X125550765Y-77595956D01*
X125559224Y-77466894D01*
X125565364Y-77373207D01*
X125567479Y-77357153D01*
X125610232Y-77142215D01*
X125614425Y-77126568D01*
X125684867Y-76919052D01*
X125691068Y-76904081D01*
X125787996Y-76707530D01*
X125796100Y-76693494D01*
X125917845Y-76511289D01*
X125927711Y-76498430D01*
X126072207Y-76333665D01*
X126083665Y-76322207D01*
X126248430Y-76177711D01*
X126261289Y-76167845D01*
X126443494Y-76046100D01*
X126457530Y-76037996D01*
X126654081Y-75941068D01*
X126669052Y-75934867D01*
X126876568Y-75864425D01*
X126892215Y-75860232D01*
X127107153Y-75817479D01*
X127123209Y-75815364D01*
X127328058Y-75801938D01*
X127345958Y-75800765D01*
X127354067Y-75800500D01*
X127389882Y-75800500D01*
X166610118Y-75800500D01*
X166645933Y-75800500D01*
X166654043Y-75800765D01*
G37*
%TD.AperFunction*%
D11*
X125350000Y-77600000D02*
X125350000Y-77600000D01*
G75*
G02*
X127350000Y-75600000I2000000J0D01*
G01*
X166650000Y-75600000D01*
G75*
G02*
X168650000Y-77600000I0J-2000000D01*
G01*
X168650000Y-122400000D01*
G75*
G02*
X166650000Y-124400000I-2000000J0D01*
G01*
X127350000Y-124400000D01*
G75*
G02*
X125350000Y-122400000I0J2000000D01*
G01*
X125350000Y-77600000D01*
M02*
