%TF.GenerationSoftware,KiCad,Pcbnew,10.0.1*%
%TF.CreationDate,2026-04-22T03:48:45-05:00*%
%TF.ProjectId,5GhzPatch,3547687a-5061-4746-9368-2e6b69636164,rev?*%
%TF.SameCoordinates,Original*%
%TF.FileFunction,Legend,Bot*%
%TF.FilePolarity,Positive*%
%FSLAX46Y46*%
G04 Gerber Fmt 4.6, Leading zero omitted, Abs format (unit mm)*
G04 Created by KiCad (PCBNEW 10.0.1) date 2026-04-22 03:48:45*
%MOMM*%
%LPD*%
G01*
G04 APERTURE LIST*
%ADD10C,0.200000*%
%ADD11C,0.000000*%
%TA.AperFunction,Profile*%
%ADD12C,0.050000*%
%TD*%
G04 APERTURE END LIST*
D10*
G36*
X166549418Y-114773013D02*
G01*
X166570508Y-114788939D01*
X166585110Y-114817112D01*
X166840613Y-115678392D01*
X166844441Y-115702236D01*
X166839744Y-115728161D01*
X166825836Y-115749588D01*
X166804845Y-115764064D01*
X166778416Y-115769000D01*
X166759063Y-115766191D01*
X166741139Y-115757715D01*
X166727045Y-115745263D01*
X166721526Y-115733603D01*
X166666382Y-115554066D01*
X166381796Y-115554066D01*
X166331153Y-115721647D01*
X166317530Y-115748162D01*
X166296605Y-115763483D01*
X166266001Y-115769000D01*
X166243467Y-115764366D01*
X166223148Y-115749991D01*
X166209167Y-115728940D01*
X166204476Y-115703713D01*
X166207566Y-115684369D01*
X166283364Y-115420807D01*
X166419880Y-115420807D01*
X166626754Y-115420807D01*
X166521503Y-115069457D01*
X166419880Y-115420807D01*
X166283364Y-115420807D01*
X166459240Y-114809253D01*
X166471495Y-114786048D01*
X166490884Y-114772398D01*
X166519891Y-114767408D01*
X166549418Y-114773013D01*
G37*
G36*
X165660224Y-115364924D02*
G01*
X165532540Y-115364924D01*
X165507927Y-115369673D01*
X165486665Y-115384067D01*
X165472110Y-115405250D01*
X165467254Y-115430546D01*
X165467254Y-115538550D01*
X165471993Y-115563958D01*
X165486262Y-115585769D01*
X165507361Y-115600691D01*
X165532540Y-115605650D01*
X165661701Y-115605650D01*
X165686865Y-115600783D01*
X165707979Y-115586172D01*
X165722266Y-115564789D01*
X165726987Y-115540028D01*
X165726987Y-115430546D01*
X165722131Y-115405250D01*
X165707576Y-115384067D01*
X165686108Y-115369740D01*
X165660224Y-115364924D01*
G37*
G36*
X163801719Y-115162483D02*
G01*
X163801719Y-115131049D01*
X163928127Y-114948356D01*
X163928127Y-115703713D01*
X163932906Y-115728909D01*
X163947202Y-115749991D01*
X163968223Y-115764233D01*
X163993413Y-115769000D01*
X164018582Y-115764147D01*
X164039691Y-115749588D01*
X164053985Y-115728355D01*
X164058699Y-115703848D01*
X164058699Y-114767408D01*
X163892327Y-114767408D01*
X163737910Y-114991880D01*
X163578994Y-114767408D01*
X163415711Y-114767408D01*
X163415711Y-115703848D01*
X163420653Y-115728974D01*
X163435525Y-115750058D01*
X163457154Y-115764271D01*
X163482475Y-115769000D01*
X163507004Y-115764181D01*
X163528283Y-115749521D01*
X163542888Y-115728118D01*
X163547694Y-115703445D01*
X163547694Y-114948423D01*
X163671147Y-115128027D01*
X163671147Y-115162483D01*
X163675961Y-115186886D01*
X163690625Y-115208090D01*
X163711888Y-115222592D01*
X163736433Y-115227367D01*
X163761613Y-115222544D01*
X163782711Y-115208090D01*
X163797006Y-115186922D01*
X163801719Y-115162483D01*
G37*
G36*
X162871459Y-114711526D02*
G01*
X162805367Y-114711526D01*
X162780172Y-114716278D01*
X162759156Y-114730467D01*
X162744857Y-114751354D01*
X162740081Y-114776342D01*
X162740081Y-114830075D01*
X162744817Y-114855206D01*
X162759089Y-114876756D01*
X162780167Y-114891467D01*
X162805367Y-114896369D01*
X162872937Y-114896369D01*
X162898734Y-114891331D01*
X162919953Y-114876286D01*
X162934156Y-114854720D01*
X162938223Y-114831486D01*
X162936745Y-114776342D01*
X162931983Y-114751349D01*
X162917737Y-114730467D01*
X162896665Y-114716275D01*
X162871459Y-114711526D01*
G37*
G36*
X162614479Y-115769000D02*
G01*
X162999210Y-115769000D01*
X163024427Y-115764279D01*
X163045488Y-115750193D01*
X163059738Y-115729385D01*
X163064496Y-115704519D01*
X163059783Y-115680231D01*
X163045488Y-115659249D01*
X163024395Y-115644848D01*
X162999210Y-115640039D01*
X162872131Y-115640039D01*
X162872131Y-115171484D01*
X162997665Y-115171484D01*
X163022865Y-115166583D01*
X163043943Y-115151871D01*
X163058229Y-115130424D01*
X163062951Y-115105593D01*
X163058206Y-115080070D01*
X163043943Y-115058241D01*
X163022833Y-115043213D01*
X162997665Y-115038225D01*
X162805367Y-115038225D01*
X162780188Y-115043184D01*
X162759089Y-115058106D01*
X162744825Y-115079870D01*
X162740081Y-115105325D01*
X162740081Y-115640039D01*
X162615956Y-115640039D01*
X162590672Y-115644733D01*
X162569007Y-115658846D01*
X162554130Y-115679671D01*
X162549193Y-115704519D01*
X162554041Y-115729411D01*
X162568604Y-115750260D01*
X162589835Y-115764338D01*
X162614479Y-115769000D01*
G37*
G36*
X161684890Y-115769000D02*
G01*
X162066599Y-115769000D01*
X162091772Y-115764026D01*
X162112877Y-115749051D01*
X162127142Y-115727166D01*
X162131885Y-115701631D01*
X162127163Y-115676800D01*
X162112877Y-115655353D01*
X162091799Y-115640642D01*
X162066599Y-115635741D01*
X161942542Y-115635741D01*
X161942542Y-114896369D01*
X162068077Y-114896369D01*
X162093294Y-114891648D01*
X162114355Y-114877562D01*
X162128605Y-114856754D01*
X162133363Y-114831889D01*
X162128605Y-114807023D01*
X162114355Y-114786215D01*
X162093294Y-114772129D01*
X162068077Y-114767408D01*
X161875778Y-114767408D01*
X161851186Y-114772215D01*
X161829904Y-114786820D01*
X161815295Y-114808028D01*
X161810492Y-114832493D01*
X161810492Y-115635741D01*
X161684890Y-115635741D01*
X161660314Y-115640591D01*
X161639016Y-115655353D01*
X161624414Y-115676831D01*
X161619604Y-115701631D01*
X161624348Y-115727166D01*
X161638613Y-115749051D01*
X161659717Y-115764026D01*
X161684890Y-115769000D01*
G37*
G36*
X160755302Y-115769000D02*
G01*
X161137011Y-115769000D01*
X161162184Y-115764026D01*
X161183289Y-115749051D01*
X161197554Y-115727166D01*
X161202297Y-115701631D01*
X161197574Y-115676800D01*
X161183289Y-115655353D01*
X161162211Y-115640642D01*
X161137011Y-115635741D01*
X161012954Y-115635741D01*
X161012954Y-114896369D01*
X161138489Y-114896369D01*
X161163705Y-114891648D01*
X161184767Y-114877562D01*
X161199017Y-114856754D01*
X161203775Y-114831889D01*
X161199017Y-114807023D01*
X161184767Y-114786215D01*
X161163705Y-114772129D01*
X161138489Y-114767408D01*
X160946190Y-114767408D01*
X160921598Y-114772215D01*
X160900315Y-114786820D01*
X160885707Y-114808028D01*
X160880904Y-114832493D01*
X160880904Y-115635741D01*
X160755302Y-115635741D01*
X160730726Y-115640591D01*
X160709427Y-115655353D01*
X160694826Y-115676831D01*
X160690016Y-115701631D01*
X160694759Y-115727166D01*
X160709024Y-115749051D01*
X160730129Y-115764026D01*
X160755302Y-115769000D01*
G37*
G36*
X160142605Y-115042914D02*
G01*
X160181074Y-115056919D01*
X160217834Y-115080876D01*
X160270425Y-115122251D01*
X160296896Y-115149809D01*
X160319524Y-115188544D01*
X160334788Y-115229550D01*
X160338868Y-115256450D01*
X160338868Y-115546274D01*
X160334706Y-115578658D01*
X160321002Y-115616464D01*
X160300362Y-115651150D01*
X160276537Y-115675906D01*
X160220184Y-115725543D01*
X160199652Y-115739530D01*
X160165779Y-115754962D01*
X160129093Y-115765632D01*
X160095523Y-115769000D01*
X159762644Y-115769000D01*
X159738656Y-115764301D01*
X159717172Y-115749857D01*
X159702247Y-115728803D01*
X159697358Y-115704519D01*
X159702209Y-115679639D01*
X159716769Y-115658846D01*
X159738006Y-115644716D01*
X159762644Y-115640039D01*
X160087261Y-115640039D01*
X160113048Y-115634828D01*
X160143010Y-115617135D01*
X160179817Y-115586239D01*
X160200250Y-115561612D01*
X160206818Y-115532975D01*
X160206818Y-115498183D01*
X159762644Y-115498183D01*
X159738063Y-115493347D01*
X159716769Y-115478637D01*
X159702164Y-115457234D01*
X159697358Y-115432561D01*
X159697358Y-115279152D01*
X159697365Y-115279085D01*
X159826386Y-115279085D01*
X159826386Y-115364924D01*
X160205273Y-115364924D01*
X160205273Y-115269346D01*
X160199337Y-115243149D01*
X160181295Y-115222128D01*
X160144420Y-115191231D01*
X160119468Y-115176332D01*
X160092433Y-115171484D01*
X159933920Y-115171484D01*
X159912289Y-115176437D01*
X159884283Y-115194253D01*
X159847409Y-115226561D01*
X159831938Y-115248065D01*
X159826386Y-115279085D01*
X159697365Y-115279085D01*
X159703778Y-115219780D01*
X159721369Y-115174556D01*
X159749144Y-115140117D01*
X159796496Y-115094779D01*
X159838941Y-115062388D01*
X159881101Y-115044159D01*
X159924180Y-115038225D01*
X160101501Y-115038225D01*
X160142605Y-115042914D01*
G37*
G36*
X159407735Y-115703713D02*
G01*
X159407735Y-115104989D01*
X159402992Y-115079673D01*
X159388727Y-115058039D01*
X159367633Y-115043170D01*
X159342449Y-115038225D01*
X159317333Y-115043032D01*
X159296305Y-115057435D01*
X159282023Y-115078684D01*
X159277230Y-115104250D01*
X159277230Y-115177596D01*
X159177823Y-115092831D01*
X159132631Y-115061072D01*
X159091019Y-115043701D01*
X159051684Y-115038225D01*
X158959262Y-115038225D01*
X158908918Y-115044536D01*
X158864361Y-115063067D01*
X158824056Y-115094511D01*
X158792613Y-115134859D01*
X158774081Y-115179461D01*
X158767770Y-115229852D01*
X158767770Y-115263704D01*
X158772569Y-115289604D01*
X158786845Y-115311124D01*
X158807889Y-115325683D01*
X158832989Y-115330535D01*
X158858174Y-115325726D01*
X158879267Y-115311325D01*
X158893505Y-115290044D01*
X158898275Y-115264577D01*
X158898275Y-115228844D01*
X158902745Y-115205017D01*
X158916074Y-115185186D01*
X158935716Y-115171694D01*
X158959262Y-115167185D01*
X159041139Y-115167185D01*
X159066314Y-115173171D01*
X159098365Y-115194656D01*
X159277230Y-115350886D01*
X159277230Y-115703512D01*
X159282083Y-115728751D01*
X159296641Y-115749924D01*
X159317889Y-115764268D01*
X159342449Y-115769000D01*
X159367650Y-115764235D01*
X159388727Y-115749991D01*
X159402971Y-115728914D01*
X159407735Y-115703713D01*
G37*
G36*
X156973812Y-114900667D02*
G01*
X157418053Y-114900667D01*
X157418053Y-115201575D01*
X157227837Y-115201575D01*
X157203261Y-115206425D01*
X157181962Y-115221187D01*
X157167361Y-115242665D01*
X157162551Y-115267465D01*
X157167340Y-115293567D01*
X157181559Y-115315221D01*
X157202637Y-115329932D01*
X157227837Y-115334833D01*
X157418053Y-115334833D01*
X157418053Y-115640039D01*
X156972335Y-115640039D01*
X156947696Y-115644716D01*
X156926460Y-115658846D01*
X156911899Y-115679639D01*
X156907049Y-115704519D01*
X156911984Y-115729379D01*
X156926863Y-115750260D01*
X156948522Y-115764321D01*
X156973812Y-115769000D01*
X157548558Y-115769000D01*
X157548558Y-114767408D01*
X156973812Y-114767408D01*
X156948620Y-114772364D01*
X156926863Y-114787424D01*
X156911969Y-114809315D01*
X156907049Y-114834777D01*
X156911945Y-114859546D01*
X156926863Y-114881055D01*
X156948589Y-114895798D01*
X156973812Y-114900667D01*
G37*
G36*
X156044224Y-114900667D02*
G01*
X156488465Y-114900667D01*
X156488465Y-115201575D01*
X156298249Y-115201575D01*
X156273672Y-115206425D01*
X156252374Y-115221187D01*
X156237773Y-115242665D01*
X156232963Y-115267465D01*
X156237751Y-115293567D01*
X156251971Y-115315221D01*
X156273049Y-115329932D01*
X156298249Y-115334833D01*
X156488465Y-115334833D01*
X156488465Y-115640039D01*
X156042746Y-115640039D01*
X156018108Y-115644716D01*
X155996871Y-115658846D01*
X155982311Y-115679639D01*
X155977460Y-115704519D01*
X155982396Y-115729379D01*
X155997274Y-115750260D01*
X156018934Y-115764321D01*
X156044224Y-115769000D01*
X156618970Y-115769000D01*
X156618970Y-114767408D01*
X156044224Y-114767408D01*
X156019032Y-114772364D01*
X155997274Y-114787424D01*
X155982381Y-114809315D01*
X155977460Y-114834777D01*
X155982357Y-114859546D01*
X155997274Y-114881055D01*
X156019001Y-114895798D01*
X156044224Y-114900667D01*
G37*
G36*
X155276844Y-115704452D02*
G01*
X155276844Y-115446599D01*
X155657075Y-115446599D01*
X155657075Y-114834441D01*
X155652158Y-114809106D01*
X155637260Y-114787290D01*
X155615513Y-114772335D01*
X155590311Y-114767408D01*
X155565755Y-114772316D01*
X155544436Y-114787290D01*
X155529853Y-114809010D01*
X155525025Y-114834307D01*
X155525025Y-115313340D01*
X155276844Y-115313340D01*
X155276844Y-114945938D01*
X155272101Y-114920622D01*
X155257835Y-114898988D01*
X155236741Y-114884119D01*
X155211557Y-114879174D01*
X155186431Y-114884116D01*
X155165347Y-114898988D01*
X155151081Y-114920622D01*
X155146338Y-114945938D01*
X155146338Y-115313340D01*
X155123033Y-115318106D01*
X155102277Y-115332818D01*
X155087994Y-115354254D01*
X155083202Y-115379969D01*
X155087992Y-115405697D01*
X155102277Y-115427188D01*
X155123028Y-115441847D01*
X155146338Y-115446599D01*
X155146338Y-115704721D01*
X155151186Y-115729543D01*
X155165750Y-115750327D01*
X155186967Y-115764356D01*
X155211557Y-115769000D01*
X155236774Y-115764279D01*
X155257835Y-115750193D01*
X155272088Y-115729330D01*
X155276844Y-115704452D01*
G37*
G36*
X154699008Y-115640039D02*
G01*
X154507314Y-115640039D01*
X154507314Y-114896369D01*
X154696052Y-114896369D01*
X154721269Y-114891648D01*
X154742330Y-114877562D01*
X154756581Y-114856754D01*
X154761338Y-114831889D01*
X154756581Y-114807023D01*
X154742330Y-114786215D01*
X154721269Y-114772129D01*
X154696052Y-114767408D01*
X154376809Y-114767408D01*
X154376809Y-115640039D01*
X154254834Y-115640039D01*
X154254834Y-115378693D01*
X154250114Y-115354070D01*
X154235826Y-115332818D01*
X154214712Y-115318207D01*
X154189548Y-115313340D01*
X154164416Y-115318104D01*
X154143404Y-115332348D01*
X154129107Y-115353366D01*
X154124329Y-115378492D01*
X154124329Y-115703848D01*
X154129107Y-115728974D01*
X154143404Y-115749991D01*
X154164425Y-115764233D01*
X154189615Y-115769000D01*
X154699008Y-115769000D01*
X154724213Y-115764113D01*
X154745286Y-115749454D01*
X154759560Y-115728034D01*
X154764294Y-115703042D01*
X154759554Y-115678823D01*
X154745286Y-115658443D01*
X154724256Y-115644671D01*
X154699008Y-115640039D01*
G37*
G36*
X153833228Y-114886898D02*
G01*
X153833228Y-114832762D01*
X153828463Y-114807561D01*
X153814220Y-114786484D01*
X153793137Y-114772188D01*
X153767942Y-114767408D01*
X153193196Y-114767408D01*
X153193196Y-115157916D01*
X153199204Y-115187027D01*
X153217241Y-115210709D01*
X153448698Y-115408851D01*
X153448698Y-115702101D01*
X153453442Y-115727486D01*
X153467706Y-115749185D01*
X153488800Y-115764055D01*
X153513984Y-115769000D01*
X153539223Y-115764174D01*
X153560934Y-115749588D01*
X153575857Y-115728219D01*
X153580748Y-115703646D01*
X153580748Y-115384403D01*
X153574630Y-115350803D01*
X153557441Y-115327109D01*
X153325245Y-115128363D01*
X153325245Y-114896369D01*
X153703126Y-114896369D01*
X153717050Y-114928425D01*
X153738038Y-114946092D01*
X153767942Y-114952251D01*
X153793137Y-114947472D01*
X153814220Y-114933176D01*
X153828463Y-114912099D01*
X153833228Y-114886898D01*
G37*
G36*
X152263204Y-114880316D02*
G01*
X152775687Y-115748312D01*
X152791682Y-115763649D01*
X152815785Y-115769000D01*
X152840171Y-115764759D01*
X152863474Y-115751603D01*
X152880087Y-115731573D01*
X152885572Y-115706736D01*
X152882006Y-115682984D01*
X152870325Y-115656092D01*
X152357775Y-114788499D01*
X152341033Y-114772861D01*
X152316132Y-114767408D01*
X152292350Y-114771472D01*
X152269249Y-114784133D01*
X152252605Y-114803502D01*
X152247084Y-114828127D01*
X152250909Y-114853229D01*
X152263204Y-114880316D01*
G37*
G36*
X151738229Y-115640039D02*
G01*
X151448068Y-115640039D01*
X151448068Y-115330535D01*
X151829777Y-115330535D01*
X151829777Y-114767408D01*
X151382782Y-114767408D01*
X151358175Y-114772172D01*
X151336907Y-114786618D01*
X151322296Y-114807631D01*
X151317496Y-114831889D01*
X151322268Y-114856749D01*
X151336571Y-114877562D01*
X151357577Y-114891646D01*
X151382782Y-114896369D01*
X151697727Y-114896369D01*
X151697727Y-115201575D01*
X151445919Y-115201575D01*
X151412824Y-115205819D01*
X151383082Y-115218377D01*
X151355714Y-115239860D01*
X151334273Y-115267266D01*
X151321735Y-115297053D01*
X151317496Y-115330199D01*
X151317496Y-115640375D01*
X151321731Y-115674019D01*
X151334191Y-115703928D01*
X151355378Y-115731117D01*
X151382483Y-115752303D01*
X151412324Y-115764764D01*
X151445919Y-115769000D01*
X151738229Y-115769000D01*
X151777886Y-115764543D01*
X151822456Y-115750193D01*
X151917833Y-115710699D01*
X151939945Y-115696528D01*
X151952898Y-115676596D01*
X151957528Y-115648972D01*
X151953018Y-115623891D01*
X151939662Y-115603098D01*
X151919741Y-115588875D01*
X151896004Y-115584157D01*
X151876354Y-115586772D01*
X151851539Y-115595709D01*
X151768051Y-115631173D01*
X151753051Y-115637889D01*
X151738229Y-115640039D01*
G37*
G36*
X150980655Y-115640039D02*
G01*
X150788961Y-115640039D01*
X150788961Y-114896369D01*
X150977699Y-114896369D01*
X151002916Y-114891648D01*
X151023977Y-114877562D01*
X151038227Y-114856754D01*
X151042985Y-114831889D01*
X151038227Y-114807023D01*
X151023977Y-114786215D01*
X151002916Y-114772129D01*
X150977699Y-114767408D01*
X150658456Y-114767408D01*
X150658456Y-115640039D01*
X150536481Y-115640039D01*
X150536481Y-115378693D01*
X150531761Y-115354070D01*
X150517472Y-115332818D01*
X150496359Y-115318207D01*
X150471195Y-115313340D01*
X150446063Y-115318104D01*
X150425051Y-115332348D01*
X150410754Y-115353366D01*
X150405976Y-115378492D01*
X150405976Y-115703848D01*
X150410754Y-115728974D01*
X150425051Y-115749991D01*
X150446072Y-115764233D01*
X150471262Y-115769000D01*
X150980655Y-115769000D01*
X151005860Y-115764113D01*
X151026933Y-115749454D01*
X151041207Y-115728034D01*
X151045941Y-115703042D01*
X151041201Y-115678823D01*
X151026933Y-115658443D01*
X151005902Y-115644671D01*
X150980655Y-115640039D01*
G37*
G36*
X150114875Y-114886898D02*
G01*
X150114875Y-114832762D01*
X150110110Y-114807561D01*
X150095867Y-114786484D01*
X150074784Y-114772188D01*
X150049589Y-114767408D01*
X149474842Y-114767408D01*
X149474842Y-115157916D01*
X149480851Y-115187027D01*
X149498888Y-115210709D01*
X149730345Y-115408851D01*
X149730345Y-115702101D01*
X149735089Y-115727486D01*
X149749353Y-115749185D01*
X149770447Y-115764055D01*
X149795631Y-115769000D01*
X149820870Y-115764174D01*
X149842581Y-115749588D01*
X149857503Y-115728219D01*
X149862395Y-115703646D01*
X149862395Y-115384403D01*
X149856277Y-115350803D01*
X149839088Y-115327109D01*
X149606892Y-115128363D01*
X149606892Y-114896369D01*
X149984773Y-114896369D01*
X149998697Y-114928425D01*
X150019684Y-114946092D01*
X150049589Y-114952251D01*
X150074784Y-114947472D01*
X150095867Y-114933176D01*
X150110110Y-114912099D01*
X150114875Y-114886898D01*
G37*
G36*
X166611641Y-117488039D02*
G01*
X166321481Y-117488039D01*
X166321481Y-117178535D01*
X166703189Y-117178535D01*
X166703189Y-116615408D01*
X166256195Y-116615408D01*
X166231587Y-116620172D01*
X166210320Y-116634618D01*
X166195708Y-116655631D01*
X166190908Y-116679889D01*
X166195681Y-116704749D01*
X166209984Y-116725562D01*
X166230989Y-116739646D01*
X166256195Y-116744369D01*
X166571140Y-116744369D01*
X166571140Y-117049575D01*
X166319331Y-117049575D01*
X166286237Y-117053819D01*
X166256494Y-117066377D01*
X166229126Y-117087860D01*
X166207685Y-117115266D01*
X166195148Y-117145053D01*
X166190908Y-117178199D01*
X166190908Y-117488375D01*
X166195143Y-117522019D01*
X166207604Y-117551928D01*
X166228790Y-117579117D01*
X166255895Y-117600303D01*
X166285736Y-117612764D01*
X166319331Y-117617000D01*
X166611641Y-117617000D01*
X166651298Y-117612543D01*
X166695868Y-117598193D01*
X166791245Y-117558699D01*
X166813357Y-117544528D01*
X166826310Y-117524596D01*
X166830941Y-117496972D01*
X166826430Y-117471891D01*
X166813074Y-117451098D01*
X166793154Y-117436875D01*
X166769416Y-117432157D01*
X166749767Y-117434772D01*
X166724952Y-117443709D01*
X166641463Y-117479173D01*
X166626463Y-117485889D01*
X166611641Y-117488039D01*
G37*
G36*
X165660224Y-117212924D02*
G01*
X165532540Y-117212924D01*
X165507927Y-117217673D01*
X165486665Y-117232067D01*
X165472110Y-117253250D01*
X165467254Y-117278546D01*
X165467254Y-117386550D01*
X165471993Y-117411958D01*
X165486262Y-117433769D01*
X165507361Y-117448691D01*
X165532540Y-117453650D01*
X165661701Y-117453650D01*
X165686865Y-117448783D01*
X165707979Y-117434172D01*
X165722266Y-117412789D01*
X165726987Y-117388028D01*
X165726987Y-117278546D01*
X165722131Y-117253250D01*
X165707576Y-117232067D01*
X165686108Y-117217740D01*
X165660224Y-117212924D01*
G37*
G36*
X164752465Y-117488039D02*
G01*
X164462304Y-117488039D01*
X164462304Y-117178535D01*
X164844013Y-117178535D01*
X164844013Y-116615408D01*
X164397018Y-116615408D01*
X164372410Y-116620172D01*
X164351143Y-116634618D01*
X164336532Y-116655631D01*
X164331732Y-116679889D01*
X164336504Y-116704749D01*
X164350807Y-116725562D01*
X164371813Y-116739646D01*
X164397018Y-116744369D01*
X164711963Y-116744369D01*
X164711963Y-117049575D01*
X164460155Y-117049575D01*
X164427060Y-117053819D01*
X164397318Y-117066377D01*
X164369950Y-117087860D01*
X164348509Y-117115266D01*
X164335971Y-117145053D01*
X164331732Y-117178199D01*
X164331732Y-117488375D01*
X164335967Y-117522019D01*
X164348427Y-117551928D01*
X164369614Y-117579117D01*
X164396719Y-117600303D01*
X164426560Y-117612764D01*
X164460155Y-117617000D01*
X164752465Y-117617000D01*
X164792122Y-117612543D01*
X164836692Y-117598193D01*
X164932069Y-117558699D01*
X164954180Y-117544528D01*
X164967133Y-117524596D01*
X164971764Y-117496972D01*
X164967254Y-117471891D01*
X164953898Y-117451098D01*
X164933977Y-117436875D01*
X164910239Y-117432157D01*
X164890590Y-117434772D01*
X164865775Y-117443709D01*
X164782287Y-117479173D01*
X164767287Y-117485889D01*
X164752465Y-117488039D01*
G37*
G36*
X163687602Y-116615408D02*
G01*
X163477975Y-116615408D01*
X163452801Y-116620219D01*
X163431764Y-116634618D01*
X163417476Y-116655849D01*
X163412689Y-116681299D01*
X163417868Y-116707960D01*
X163433242Y-116729525D01*
X163455134Y-116744065D01*
X163477975Y-116748667D01*
X163677863Y-116748667D01*
X163703713Y-116754567D01*
X163727231Y-116774930D01*
X163904551Y-117002289D01*
X163920660Y-117032446D01*
X163926649Y-117076038D01*
X163926649Y-117425574D01*
X163922184Y-117449800D01*
X163908917Y-117469904D01*
X163889209Y-117483503D01*
X163865662Y-117488039D01*
X163608681Y-117488039D01*
X163585727Y-117483505D01*
X163565829Y-117469703D01*
X163552191Y-117449615D01*
X163547694Y-117426380D01*
X163547694Y-117290300D01*
X163676318Y-117290300D01*
X163702102Y-117285534D01*
X163722932Y-117271494D01*
X163736920Y-117250712D01*
X163741605Y-117225820D01*
X163736920Y-117200928D01*
X163722932Y-117180147D01*
X163702102Y-117166106D01*
X163676318Y-117161340D01*
X163417189Y-117161340D01*
X163417189Y-117425910D01*
X163423497Y-117476163D01*
X163442026Y-117520654D01*
X163473475Y-117560915D01*
X163513766Y-117592238D01*
X163558324Y-117610708D01*
X163608681Y-117617000D01*
X163865662Y-117617000D01*
X163916565Y-117610694D01*
X163961521Y-117592209D01*
X164002077Y-117560915D01*
X164033726Y-117520671D01*
X164052357Y-117476206D01*
X164058699Y-117425977D01*
X164058699Y-117077516D01*
X164052746Y-117016313D01*
X164035685Y-116963671D01*
X164007854Y-116917860D01*
X163821533Y-116681299D01*
X163797591Y-116656459D01*
X163764105Y-116634618D01*
X163726317Y-116620154D01*
X163687602Y-116615408D01*
G37*
G36*
X163129111Y-117551848D02*
G01*
X163129111Y-116680560D01*
X163124397Y-116656053D01*
X163110102Y-116634820D01*
X163088994Y-116620261D01*
X163063825Y-116615408D01*
X163039290Y-116620212D01*
X163018017Y-116634820D01*
X163003359Y-116656043D01*
X162998538Y-116680560D01*
X162998538Y-117049575D01*
X162618106Y-117049575D01*
X162618106Y-116680560D01*
X162613387Y-116656006D01*
X162599098Y-116634820D01*
X162577989Y-116620261D01*
X162552820Y-116615408D01*
X162527720Y-116620260D01*
X162506676Y-116634820D01*
X162492399Y-116656274D01*
X162487601Y-116682105D01*
X162487601Y-117551848D01*
X162492488Y-117576293D01*
X162507415Y-117597588D01*
X162528863Y-117612242D01*
X162552820Y-117617000D01*
X162578581Y-117612174D01*
X162599433Y-117597924D01*
X162613417Y-117576818D01*
X162618106Y-117551579D01*
X162618106Y-117178535D01*
X162997061Y-117178535D01*
X162997061Y-117551579D01*
X163001952Y-117576152D01*
X163016875Y-117597521D01*
X163038591Y-117612160D01*
X163063825Y-117617000D01*
X163088448Y-117612280D01*
X163109699Y-117597991D01*
X163124259Y-117576948D01*
X163129111Y-117551848D01*
G37*
G36*
X161554990Y-116953459D02*
G01*
X161554990Y-117004976D01*
X161560607Y-117033787D01*
X161577491Y-117057970D01*
X162021463Y-117488039D01*
X161621821Y-117488039D01*
X161596616Y-117492762D01*
X161575610Y-117506846D01*
X161561307Y-117527659D01*
X161556535Y-117552519D01*
X161561307Y-117577380D01*
X161575610Y-117598193D01*
X161596616Y-117612277D01*
X161621821Y-117617000D01*
X162129736Y-117617000D01*
X162155646Y-117612258D01*
X162177089Y-117598193D01*
X162191650Y-117577279D01*
X162196500Y-117552318D01*
X162196500Y-117498652D01*
X162189115Y-117471758D01*
X162162043Y-117437530D01*
X161727004Y-117019484D01*
X162100384Y-117019484D01*
X162125584Y-117014583D01*
X162146662Y-116999871D01*
X162160882Y-116978218D01*
X162165670Y-116952116D01*
X162160920Y-116927888D01*
X162146326Y-116906241D01*
X162124987Y-116891165D01*
X162100384Y-116886225D01*
X161620276Y-116886225D01*
X161595103Y-116891199D01*
X161573998Y-116906173D01*
X161559732Y-116927993D01*
X161554990Y-116953459D01*
G37*
G36*
X160337323Y-117551848D02*
G01*
X160332472Y-117576948D01*
X160317912Y-117597991D01*
X160296454Y-117612213D01*
X160270560Y-117617000D01*
X160245375Y-117612218D01*
X160224349Y-117597924D01*
X160210056Y-117576832D01*
X160205273Y-117551579D01*
X160205273Y-117234418D01*
X159887306Y-117234418D01*
X159836944Y-117228132D01*
X159792386Y-117209683D01*
X159752099Y-117178400D01*
X159720645Y-117138183D01*
X159702120Y-117093759D01*
X159695813Y-117043597D01*
X159695813Y-116809319D01*
X159826386Y-116809319D01*
X159826386Y-117044806D01*
X159830920Y-117068214D01*
X159844521Y-117087792D01*
X159864367Y-117101068D01*
X159887373Y-117105457D01*
X160205273Y-117105457D01*
X160205273Y-116748667D01*
X159887373Y-116748667D01*
X159864367Y-116753056D01*
X159844521Y-116766332D01*
X159830920Y-116785911D01*
X159826386Y-116809319D01*
X159695813Y-116809319D01*
X159695813Y-116807707D01*
X159702137Y-116757544D01*
X159720756Y-116712888D01*
X159752435Y-116672232D01*
X159793013Y-116640410D01*
X159837471Y-116621741D01*
X159887306Y-116615408D01*
X160337323Y-116615408D01*
X160337323Y-117551848D01*
G37*
G36*
X159241459Y-116890945D02*
G01*
X159262520Y-116905032D01*
X159276771Y-116925839D01*
X159281529Y-116950705D01*
X159276731Y-116974974D01*
X159262117Y-116996043D01*
X159240855Y-117010436D01*
X159216243Y-117015185D01*
X158976524Y-117015185D01*
X158952989Y-117019723D01*
X158933336Y-117033320D01*
X158920010Y-117053346D01*
X158915537Y-117077382D01*
X158914126Y-117165706D01*
X158970546Y-117157041D01*
X159217720Y-117157041D01*
X159268584Y-117163404D01*
X159313536Y-117182074D01*
X159354136Y-117213730D01*
X159385752Y-117254325D01*
X159404401Y-117299278D01*
X159410758Y-117350146D01*
X159410758Y-117423895D01*
X159404413Y-117475268D01*
X159385862Y-117520340D01*
X159354539Y-117560714D01*
X159314160Y-117592077D01*
X159269088Y-117610648D01*
X159217720Y-117617000D01*
X159003727Y-117617000D01*
X158899753Y-117554199D01*
X158895074Y-117576608D01*
X158880341Y-117597588D01*
X158858852Y-117612125D01*
X158832989Y-117617000D01*
X158808429Y-117612268D01*
X158787181Y-117597924D01*
X158772625Y-117576806D01*
X158767770Y-117551579D01*
X158772698Y-117403073D01*
X158904387Y-117403073D01*
X159040266Y-117483741D01*
X159217720Y-117483741D01*
X159240685Y-117479235D01*
X159260573Y-117465538D01*
X159274218Y-117445535D01*
X159278708Y-117422484D01*
X159278708Y-117351556D01*
X159274259Y-117327909D01*
X159260976Y-117308167D01*
X159241288Y-117294778D01*
X159217720Y-117290300D01*
X158969069Y-117290300D01*
X158945533Y-117294688D01*
X158926216Y-117307696D01*
X158913058Y-117327051D01*
X158908081Y-117351153D01*
X158904387Y-117403073D01*
X158772698Y-117403073D01*
X158783487Y-117077986D01*
X158791092Y-117026544D01*
X158810321Y-116981649D01*
X158841653Y-116941772D01*
X158881659Y-116910788D01*
X158926100Y-116892476D01*
X158976524Y-116886225D01*
X159216243Y-116886225D01*
X159241459Y-116890945D01*
G37*
G36*
X158032697Y-117617000D02*
G01*
X158158903Y-117617000D01*
X158209305Y-117610685D01*
X158254163Y-117592101D01*
X158294983Y-117560512D01*
X158326820Y-117519943D01*
X158345562Y-117475144D01*
X158351940Y-117424567D01*
X158351940Y-117015185D01*
X158414405Y-117015185D01*
X158439653Y-117010553D01*
X158460683Y-116996781D01*
X158474884Y-116976194D01*
X158479692Y-116950705D01*
X158474934Y-116925839D01*
X158460683Y-116905032D01*
X158439622Y-116890945D01*
X158414405Y-116886225D01*
X158350396Y-116886225D01*
X158350396Y-116732614D01*
X158345630Y-116707344D01*
X158331387Y-116686202D01*
X158310295Y-116671801D01*
X158285109Y-116666993D01*
X158261163Y-116671779D01*
X158239705Y-116686538D01*
X158224783Y-116707973D01*
X158219890Y-116732614D01*
X158219890Y-116886225D01*
X157968082Y-116886225D01*
X157943475Y-116890988D01*
X157922207Y-116905435D01*
X157907596Y-116926448D01*
X157902796Y-116950705D01*
X157907645Y-116975597D01*
X157922207Y-116996446D01*
X157943439Y-117010524D01*
X157968082Y-117015185D01*
X158221368Y-117015185D01*
X158221368Y-117426447D01*
X158216788Y-117449594D01*
X158202830Y-117469703D01*
X158182504Y-117483487D01*
X158158903Y-117488039D01*
X158035652Y-117488039D01*
X158007007Y-117482201D01*
X157985776Y-117465204D01*
X157970366Y-117434306D01*
X157954946Y-117403426D01*
X157933654Y-117386420D01*
X157904878Y-117380572D01*
X157878528Y-117385384D01*
X157857929Y-117399379D01*
X157844319Y-117420334D01*
X157839659Y-117446530D01*
X157845113Y-117482728D01*
X157862361Y-117520256D01*
X157893997Y-117560378D01*
X157933285Y-117591673D01*
X157978873Y-117610473D01*
X158032697Y-117617000D01*
G37*
G36*
X156972335Y-117617000D02*
G01*
X157242076Y-117617000D01*
X157288604Y-117612003D01*
X157329228Y-117597529D01*
X157365260Y-117573543D01*
X157487705Y-117466680D01*
X157520471Y-117430087D01*
X157540178Y-117386145D01*
X157547081Y-117332548D01*
X157547081Y-117167721D01*
X157541217Y-117116433D01*
X157519607Y-117069841D01*
X157480183Y-117026066D01*
X157369760Y-116930421D01*
X157331954Y-116905374D01*
X157293701Y-116890974D01*
X157254099Y-116886225D01*
X156970857Y-116886225D01*
X156945652Y-116890947D01*
X156924646Y-116905032D01*
X156910343Y-116925845D01*
X156905571Y-116950705D01*
X156910393Y-116976189D01*
X156924646Y-116996781D01*
X156945621Y-117010551D01*
X156970857Y-117015185D01*
X157242076Y-117015185D01*
X157265733Y-117019920D01*
X157289563Y-117035134D01*
X157390985Y-117122383D01*
X157408876Y-117146187D01*
X157415031Y-117177662D01*
X157415031Y-117333153D01*
X157410384Y-117355316D01*
X157396224Y-117374057D01*
X157284996Y-117469636D01*
X157261956Y-117483190D01*
X157230792Y-117488039D01*
X156972335Y-117488039D01*
X156947696Y-117492716D01*
X156926460Y-117506846D01*
X156911899Y-117527639D01*
X156907049Y-117552519D01*
X156911821Y-117577380D01*
X156926124Y-117598193D01*
X156947130Y-117612277D01*
X156972335Y-117617000D01*
G37*
G36*
X156620515Y-117551713D02*
G01*
X156620515Y-116679217D01*
X156615771Y-116654721D01*
X156601507Y-116634081D01*
X156580456Y-116620099D01*
X156555229Y-116615408D01*
X156530045Y-116620190D01*
X156509018Y-116634484D01*
X156494725Y-116655575D01*
X156489943Y-116680829D01*
X156489943Y-116996110D01*
X156391879Y-116930958D01*
X156343803Y-116904628D01*
X156302826Y-116890530D01*
X156267419Y-116886225D01*
X156189304Y-116886225D01*
X156139381Y-116892486D01*
X156095038Y-116910896D01*
X156054769Y-116942175D01*
X156023178Y-116982307D01*
X156003871Y-117027087D01*
X155996267Y-117077986D01*
X155980483Y-117551579D01*
X155984784Y-117576807D01*
X155999155Y-117597924D01*
X156020506Y-117612234D01*
X156045702Y-117617000D01*
X156070827Y-117612044D01*
X156091644Y-117597185D01*
X156105855Y-117575688D01*
X156110988Y-117551646D01*
X156126772Y-117076374D01*
X156131828Y-117053396D01*
X156145713Y-117033454D01*
X156165700Y-117019736D01*
X156189237Y-117015185D01*
X156259897Y-117015185D01*
X156283208Y-117019419D01*
X156311279Y-117033857D01*
X156489943Y-117151735D01*
X156489943Y-117551781D01*
X156494719Y-117576918D01*
X156509018Y-117597991D01*
X156530040Y-117612233D01*
X156555229Y-117617000D01*
X156580430Y-117612235D01*
X156601507Y-117597991D01*
X156615751Y-117576914D01*
X156620515Y-117551713D01*
G37*
G36*
X154464770Y-116621013D02*
G01*
X154485860Y-116636939D01*
X154500463Y-116665112D01*
X154755965Y-117526392D01*
X154759794Y-117550236D01*
X154755096Y-117576161D01*
X154741188Y-117597588D01*
X154720197Y-117612064D01*
X154693769Y-117617000D01*
X154674415Y-117614191D01*
X154656491Y-117605715D01*
X154642397Y-117593263D01*
X154636878Y-117581603D01*
X154581734Y-117402066D01*
X154297149Y-117402066D01*
X154246505Y-117569647D01*
X154232882Y-117596162D01*
X154211957Y-117611483D01*
X154181353Y-117617000D01*
X154158820Y-117612366D01*
X154138501Y-117597991D01*
X154124519Y-117576940D01*
X154119829Y-117551713D01*
X154122918Y-117532369D01*
X154198716Y-117268807D01*
X154335232Y-117268807D01*
X154542106Y-117268807D01*
X154436856Y-116917457D01*
X154335232Y-117268807D01*
X154198716Y-117268807D01*
X154374592Y-116657253D01*
X154386847Y-116634048D01*
X154406237Y-116620398D01*
X154435244Y-116615408D01*
X154464770Y-116621013D01*
G37*
G36*
X153528559Y-117037283D02*
G01*
X153699700Y-117151735D01*
X153699700Y-117552049D01*
X153704500Y-117576457D01*
X153719112Y-117597655D01*
X153740380Y-117612210D01*
X153764919Y-117617000D01*
X153789511Y-117612192D01*
X153810794Y-117597588D01*
X153825398Y-117576305D01*
X153830205Y-117551713D01*
X153830205Y-116952989D01*
X153825463Y-116927673D01*
X153811197Y-116906039D01*
X153790103Y-116891170D01*
X153764919Y-116886225D01*
X153740380Y-116891149D01*
X153719112Y-116906173D01*
X153704531Y-116928024D01*
X153699700Y-116953459D01*
X153699700Y-116992013D01*
X153588002Y-116923637D01*
X153547691Y-116902966D01*
X153504012Y-116890488D01*
X153456086Y-116886225D01*
X153397517Y-116886225D01*
X153348997Y-116892249D01*
X153305654Y-116909994D01*
X153266072Y-116940160D01*
X153234866Y-116978973D01*
X153215509Y-117022806D01*
X153207502Y-117073150D01*
X153190240Y-117551646D01*
X153194463Y-117576292D01*
X153208913Y-117597588D01*
X153230290Y-117612161D01*
X153255459Y-117617000D01*
X153279511Y-117612640D01*
X153300595Y-117599469D01*
X153315143Y-117579206D01*
X153320745Y-117551646D01*
X153339552Y-117079397D01*
X153344947Y-117050308D01*
X153357360Y-117031278D01*
X153376947Y-117019570D01*
X153406517Y-117015185D01*
X153468176Y-117015185D01*
X153495860Y-117020226D01*
X153528559Y-117037283D01*
G37*
G36*
X152455167Y-117617000D02*
G01*
X152581373Y-117617000D01*
X152631776Y-117610685D01*
X152676634Y-117592101D01*
X152717453Y-117560512D01*
X152749290Y-117519943D01*
X152768032Y-117475144D01*
X152774411Y-117424567D01*
X152774411Y-117015185D01*
X152836876Y-117015185D01*
X152862124Y-117010553D01*
X152883154Y-116996781D01*
X152897354Y-116976194D01*
X152902162Y-116950705D01*
X152897404Y-116925839D01*
X152883154Y-116905032D01*
X152862092Y-116890945D01*
X152836876Y-116886225D01*
X152772866Y-116886225D01*
X152772866Y-116732614D01*
X152768101Y-116707344D01*
X152753858Y-116686202D01*
X152732765Y-116671801D01*
X152707580Y-116666993D01*
X152683633Y-116671779D01*
X152662175Y-116686538D01*
X152647253Y-116707973D01*
X152642361Y-116732614D01*
X152642361Y-116886225D01*
X152390553Y-116886225D01*
X152365945Y-116890988D01*
X152344678Y-116905435D01*
X152330066Y-116926448D01*
X152325266Y-116950705D01*
X152330115Y-116975597D01*
X152344678Y-116996446D01*
X152365909Y-117010524D01*
X152390553Y-117015185D01*
X152643838Y-117015185D01*
X152643838Y-117426447D01*
X152639258Y-117449594D01*
X152625300Y-117469703D01*
X152604974Y-117483487D01*
X152581373Y-117488039D01*
X152458122Y-117488039D01*
X152429478Y-117482201D01*
X152408247Y-117465204D01*
X152392836Y-117434306D01*
X152377416Y-117403426D01*
X152356125Y-117386420D01*
X152327349Y-117380572D01*
X152300998Y-117385384D01*
X152280399Y-117399379D01*
X152266789Y-117420334D01*
X152262130Y-117446530D01*
X152267583Y-117482728D01*
X152284832Y-117520256D01*
X152316468Y-117560378D01*
X152355755Y-117591673D01*
X152401344Y-117610473D01*
X152455167Y-117617000D01*
G37*
G36*
X151776310Y-116890914D02*
G01*
X151814779Y-116904919D01*
X151851539Y-116928876D01*
X151904131Y-116970251D01*
X151930601Y-116997809D01*
X151953230Y-117036544D01*
X151968494Y-117077550D01*
X151972574Y-117104450D01*
X151972574Y-117394274D01*
X151968412Y-117426658D01*
X151954707Y-117464464D01*
X151934068Y-117499150D01*
X151910243Y-117523906D01*
X151853890Y-117573543D01*
X151833358Y-117587530D01*
X151799485Y-117602962D01*
X151762799Y-117613632D01*
X151729228Y-117617000D01*
X151396350Y-117617000D01*
X151372361Y-117612301D01*
X151350878Y-117597857D01*
X151335953Y-117576803D01*
X151331064Y-117552519D01*
X151335914Y-117527639D01*
X151350475Y-117506846D01*
X151371711Y-117492716D01*
X151396350Y-117488039D01*
X151720967Y-117488039D01*
X151746754Y-117482828D01*
X151776715Y-117465135D01*
X151813523Y-117434239D01*
X151833956Y-117409612D01*
X151840524Y-117380975D01*
X151840524Y-117346183D01*
X151396350Y-117346183D01*
X151371768Y-117341347D01*
X151350475Y-117326637D01*
X151335870Y-117305234D01*
X151331064Y-117280561D01*
X151331064Y-117127152D01*
X151331071Y-117127085D01*
X151460091Y-117127085D01*
X151460091Y-117212924D01*
X151838979Y-117212924D01*
X151838979Y-117117346D01*
X151833043Y-117091149D01*
X151815000Y-117070128D01*
X151778126Y-117039231D01*
X151753173Y-117024332D01*
X151726139Y-117019484D01*
X151567625Y-117019484D01*
X151545995Y-117024437D01*
X151517989Y-117042253D01*
X151481114Y-117074561D01*
X151465644Y-117096065D01*
X151460091Y-117127085D01*
X151331071Y-117127085D01*
X151337483Y-117067780D01*
X151355075Y-117022556D01*
X151382849Y-116988117D01*
X151430202Y-116942779D01*
X151472647Y-116910388D01*
X151514806Y-116892159D01*
X151557886Y-116886225D01*
X151735206Y-116886225D01*
X151776310Y-116890914D01*
G37*
G36*
X150739795Y-117037283D02*
G01*
X150910935Y-117151735D01*
X150910935Y-117552049D01*
X150915735Y-117576457D01*
X150930347Y-117597655D01*
X150951615Y-117612210D01*
X150976154Y-117617000D01*
X151000747Y-117612192D01*
X151022029Y-117597588D01*
X151036634Y-117576305D01*
X151041441Y-117551713D01*
X151041441Y-116952989D01*
X151036698Y-116927673D01*
X151022432Y-116906039D01*
X151001338Y-116891170D01*
X150976154Y-116886225D01*
X150951615Y-116891149D01*
X150930347Y-116906173D01*
X150915766Y-116928024D01*
X150910935Y-116953459D01*
X150910935Y-116992013D01*
X150799237Y-116923637D01*
X150758927Y-116902966D01*
X150715247Y-116890488D01*
X150667322Y-116886225D01*
X150608752Y-116886225D01*
X150560233Y-116892249D01*
X150516890Y-116909994D01*
X150477307Y-116940160D01*
X150446102Y-116978973D01*
X150426744Y-117022806D01*
X150418737Y-117073150D01*
X150401475Y-117551646D01*
X150405698Y-117576292D01*
X150420148Y-117597588D01*
X150441525Y-117612161D01*
X150466694Y-117617000D01*
X150490746Y-117612640D01*
X150511830Y-117599469D01*
X150526379Y-117579206D01*
X150531980Y-117551646D01*
X150550787Y-117079397D01*
X150556182Y-117050308D01*
X150568595Y-117031278D01*
X150588182Y-117019570D01*
X150617752Y-117015185D01*
X150679412Y-117015185D01*
X150707095Y-117020226D01*
X150739795Y-117037283D01*
G37*
G36*
X149810206Y-117037283D02*
G01*
X149981347Y-117151735D01*
X149981347Y-117552049D01*
X149986147Y-117576457D01*
X150000758Y-117597655D01*
X150022027Y-117612210D01*
X150046566Y-117617000D01*
X150071158Y-117612192D01*
X150092441Y-117597588D01*
X150107045Y-117576305D01*
X150111852Y-117551713D01*
X150111852Y-116952989D01*
X150107109Y-116927673D01*
X150092844Y-116906039D01*
X150071750Y-116891170D01*
X150046566Y-116886225D01*
X150022027Y-116891149D01*
X150000758Y-116906173D01*
X149986178Y-116928024D01*
X149981347Y-116953459D01*
X149981347Y-116992013D01*
X149869649Y-116923637D01*
X149829338Y-116902966D01*
X149785659Y-116890488D01*
X149737733Y-116886225D01*
X149679164Y-116886225D01*
X149630644Y-116892249D01*
X149587301Y-116909994D01*
X149547718Y-116940160D01*
X149516513Y-116978973D01*
X149497156Y-117022806D01*
X149489149Y-117073150D01*
X149471887Y-117551646D01*
X149476109Y-117576292D01*
X149490560Y-117597588D01*
X149511937Y-117612161D01*
X149537106Y-117617000D01*
X149561158Y-117612640D01*
X149582242Y-117599469D01*
X149596790Y-117579206D01*
X149602392Y-117551646D01*
X149621199Y-117079397D01*
X149626594Y-117050308D01*
X149639007Y-117031278D01*
X149658594Y-117019570D01*
X149688164Y-117015185D01*
X149749823Y-117015185D01*
X149777507Y-117020226D01*
X149810206Y-117037283D01*
G37*
G36*
X149015988Y-116890945D02*
G01*
X149037049Y-116905032D01*
X149051300Y-116925839D01*
X149056058Y-116950705D01*
X149051260Y-116974974D01*
X149036646Y-116996043D01*
X149015384Y-117010436D01*
X148990771Y-117015185D01*
X148751053Y-117015185D01*
X148727518Y-117019723D01*
X148707865Y-117033320D01*
X148694539Y-117053346D01*
X148690066Y-117077382D01*
X148688655Y-117165706D01*
X148745075Y-117157041D01*
X148992249Y-117157041D01*
X149043113Y-117163404D01*
X149088065Y-117182074D01*
X149128665Y-117213730D01*
X149160281Y-117254325D01*
X149178930Y-117299278D01*
X149185286Y-117350146D01*
X149185286Y-117423895D01*
X149178942Y-117475268D01*
X149160391Y-117520340D01*
X149129068Y-117560714D01*
X149088689Y-117592077D01*
X149043617Y-117610648D01*
X148992249Y-117617000D01*
X148778256Y-117617000D01*
X148674282Y-117554199D01*
X148669603Y-117576608D01*
X148654870Y-117597588D01*
X148633381Y-117612125D01*
X148607518Y-117617000D01*
X148582958Y-117612268D01*
X148561710Y-117597924D01*
X148547154Y-117576806D01*
X148542299Y-117551579D01*
X148547227Y-117403073D01*
X148678916Y-117403073D01*
X148814795Y-117483741D01*
X148992249Y-117483741D01*
X149015214Y-117479235D01*
X149035102Y-117465538D01*
X149048747Y-117445535D01*
X149053237Y-117422484D01*
X149053237Y-117351556D01*
X149048788Y-117327909D01*
X149035505Y-117308167D01*
X149015817Y-117294778D01*
X148992249Y-117290300D01*
X148743598Y-117290300D01*
X148720062Y-117294688D01*
X148700745Y-117307696D01*
X148687587Y-117327051D01*
X148682610Y-117351153D01*
X148678916Y-117403073D01*
X148547227Y-117403073D01*
X148558016Y-117077986D01*
X148565621Y-117026544D01*
X148584850Y-116981649D01*
X148616182Y-116941772D01*
X148656188Y-116910788D01*
X148700629Y-116892476D01*
X148751053Y-116886225D01*
X148990771Y-116886225D01*
X149015988Y-116890945D01*
G37*
G36*
X166699495Y-118463408D02*
G01*
X166371184Y-118463408D01*
X166332407Y-118468747D01*
X166294327Y-118485172D01*
X166255859Y-118514388D01*
X166225371Y-118551155D01*
X166207518Y-118591812D01*
X166201454Y-118637841D01*
X166206415Y-118663533D01*
X166221268Y-118684924D01*
X166242494Y-118699492D01*
X166265195Y-118704134D01*
X166294949Y-118699823D01*
X166311003Y-118689156D01*
X166321953Y-118670695D01*
X166334242Y-118635423D01*
X166344679Y-118613223D01*
X166359813Y-118600938D01*
X166380923Y-118596667D01*
X166692711Y-118596667D01*
X166708894Y-118600172D01*
X166713130Y-118608489D01*
X166703861Y-118628034D01*
X166235709Y-119227766D01*
X166209771Y-119274123D01*
X166201454Y-119321934D01*
X166206041Y-119358170D01*
X166219665Y-119391148D01*
X166243030Y-119421878D01*
X166272771Y-119446457D01*
X166303392Y-119460403D01*
X166335854Y-119465000D01*
X166676256Y-119465000D01*
X166719813Y-119459319D01*
X166759100Y-119442472D01*
X166795409Y-119413550D01*
X166824238Y-119376917D01*
X166840604Y-119339581D01*
X166845986Y-119300441D01*
X166841207Y-119267451D01*
X166828623Y-119246241D01*
X166808423Y-119233373D01*
X166777677Y-119228572D01*
X166753224Y-119233269D01*
X166732609Y-119247379D01*
X166718550Y-119267944D01*
X166713936Y-119291508D01*
X166710596Y-119309081D01*
X166700704Y-119323345D01*
X166685890Y-119332790D01*
X166667255Y-119336039D01*
X166353116Y-119336039D01*
X166339101Y-119332304D01*
X166334981Y-119322404D01*
X166344250Y-119304202D01*
X166811664Y-118704873D01*
X166836953Y-118659087D01*
X166845180Y-118610369D01*
X166840429Y-118572501D01*
X166826396Y-118538476D01*
X166802462Y-118507201D01*
X166771758Y-118482706D01*
X166737833Y-118468307D01*
X166699495Y-118463408D01*
G37*
G36*
X165660895Y-118858483D02*
G01*
X165660895Y-118827049D01*
X165787303Y-118644356D01*
X165787303Y-119399713D01*
X165792082Y-119424909D01*
X165806379Y-119445991D01*
X165827400Y-119460233D01*
X165852589Y-119465000D01*
X165877759Y-119460147D01*
X165898867Y-119445588D01*
X165913162Y-119424355D01*
X165917875Y-119399848D01*
X165917875Y-118463408D01*
X165751503Y-118463408D01*
X165597087Y-118687880D01*
X165438170Y-118463408D01*
X165274888Y-118463408D01*
X165274888Y-119399848D01*
X165279829Y-119424974D01*
X165294702Y-119446058D01*
X165316331Y-119460271D01*
X165341652Y-119465000D01*
X165366181Y-119460181D01*
X165387459Y-119445521D01*
X165402065Y-119424118D01*
X165406871Y-119399445D01*
X165406871Y-118644423D01*
X165530323Y-118824027D01*
X165530323Y-118858483D01*
X165535137Y-118882886D01*
X165549801Y-118904090D01*
X165571065Y-118918592D01*
X165595609Y-118923367D01*
X165620789Y-118918544D01*
X165641887Y-118904090D01*
X165656183Y-118882922D01*
X165660895Y-118858483D01*
G37*
G36*
X164690241Y-118469013D02*
G01*
X164711331Y-118484939D01*
X164725934Y-118513112D01*
X164981436Y-119374392D01*
X164985265Y-119398236D01*
X164980567Y-119424161D01*
X164966659Y-119445588D01*
X164945668Y-119460064D01*
X164919240Y-119465000D01*
X164899886Y-119462191D01*
X164881962Y-119453715D01*
X164867868Y-119441263D01*
X164862349Y-119429603D01*
X164807206Y-119250066D01*
X164522620Y-119250066D01*
X164471976Y-119417647D01*
X164458353Y-119444162D01*
X164437428Y-119459483D01*
X164406824Y-119465000D01*
X164384291Y-119460366D01*
X164363972Y-119445991D01*
X164349990Y-119424940D01*
X164345300Y-119399713D01*
X164348389Y-119380369D01*
X164424187Y-119116807D01*
X164560703Y-119116807D01*
X164767577Y-119116807D01*
X164662327Y-118765457D01*
X164560703Y-119116807D01*
X164424187Y-119116807D01*
X164600063Y-118505253D01*
X164612318Y-118482048D01*
X164631708Y-118468398D01*
X164660715Y-118463408D01*
X164690241Y-118469013D01*
G37*
G36*
X163126088Y-119399848D02*
G01*
X163121237Y-119424948D01*
X163106677Y-119445991D01*
X163085219Y-119460213D01*
X163059324Y-119465000D01*
X163034140Y-119460218D01*
X163013114Y-119445924D01*
X162998820Y-119424832D01*
X162994038Y-119399579D01*
X162994038Y-119082418D01*
X162676071Y-119082418D01*
X162625709Y-119076132D01*
X162581151Y-119057683D01*
X162540864Y-119026400D01*
X162509410Y-118986183D01*
X162490884Y-118941759D01*
X162484578Y-118891597D01*
X162484578Y-118657319D01*
X162615150Y-118657319D01*
X162615150Y-118892806D01*
X162619684Y-118916214D01*
X162633285Y-118935792D01*
X162653132Y-118949068D01*
X162676138Y-118953457D01*
X162994038Y-118953457D01*
X162994038Y-118596667D01*
X162676138Y-118596667D01*
X162653132Y-118601056D01*
X162633285Y-118614332D01*
X162619684Y-118633911D01*
X162615150Y-118657319D01*
X162484578Y-118657319D01*
X162484578Y-118655707D01*
X162490902Y-118605544D01*
X162509521Y-118560888D01*
X162541200Y-118520232D01*
X162581778Y-118488410D01*
X162626236Y-118469741D01*
X162676071Y-118463408D01*
X163126088Y-118463408D01*
X163126088Y-119399848D01*
G37*
G36*
X161556535Y-118530105D02*
G01*
X161556535Y-119465000D01*
X161729892Y-119465000D01*
X162065995Y-118699365D01*
X162065995Y-119399848D01*
X162070773Y-119424974D01*
X162085070Y-119445991D01*
X162106082Y-119460236D01*
X162131214Y-119465000D01*
X162156415Y-119460235D01*
X162177492Y-119445991D01*
X162191736Y-119424979D01*
X162196500Y-119399848D01*
X162196500Y-118463408D01*
X162025359Y-118463408D01*
X161688517Y-119229110D01*
X161688517Y-118530172D01*
X161683614Y-118504913D01*
X161668770Y-118483223D01*
X161647019Y-118468324D01*
X161621754Y-118463408D01*
X161596654Y-118468260D01*
X161575610Y-118482820D01*
X161561333Y-118504274D01*
X161556535Y-118530105D01*
G37*
G36*
X161010805Y-118622459D02*
G01*
X160884531Y-118622459D01*
X160858755Y-118627702D01*
X160837178Y-118643550D01*
X160822376Y-118665761D01*
X160817767Y-118688081D01*
X160817767Y-118797563D01*
X160822663Y-118822263D01*
X160837581Y-118843707D01*
X160859090Y-118858415D01*
X160883053Y-118863185D01*
X161012282Y-118863185D01*
X161037423Y-118858450D01*
X161057821Y-118844446D01*
X161071443Y-118823528D01*
X161076091Y-118797563D01*
X161076091Y-118688081D01*
X161071367Y-118663331D01*
X161057083Y-118642005D01*
X161035963Y-118627341D01*
X161010805Y-118622459D01*
G37*
G36*
X161010805Y-119060924D02*
G01*
X160884531Y-119060924D01*
X160859272Y-119065691D01*
X160837581Y-119080067D01*
X160822716Y-119101235D01*
X160817767Y-119126546D01*
X160817767Y-119234550D01*
X160822595Y-119259927D01*
X160837178Y-119281769D01*
X160858452Y-119296737D01*
X160883053Y-119301650D01*
X161012282Y-119301650D01*
X161037364Y-119296754D01*
X161057821Y-119282172D01*
X161071530Y-119260846D01*
X161076091Y-119236028D01*
X161076091Y-119126546D01*
X161071276Y-119100652D01*
X161057083Y-119079731D01*
X161036021Y-119065644D01*
X161010805Y-119060924D01*
G37*
G36*
X159346949Y-119336039D02*
G01*
X159155255Y-119336039D01*
X159155255Y-118592369D01*
X159343994Y-118592369D01*
X159369210Y-118587648D01*
X159390272Y-118573562D01*
X159404522Y-118552754D01*
X159409280Y-118527889D01*
X159404522Y-118503023D01*
X159390272Y-118482215D01*
X159369210Y-118468129D01*
X159343994Y-118463408D01*
X159024750Y-118463408D01*
X159024750Y-119336039D01*
X158902775Y-119336039D01*
X158902775Y-119074693D01*
X158898055Y-119050070D01*
X158883767Y-119028818D01*
X158862653Y-119014207D01*
X158837489Y-119009340D01*
X158812357Y-119014104D01*
X158791345Y-119028348D01*
X158777048Y-119049366D01*
X158772270Y-119074492D01*
X158772270Y-119399848D01*
X158777048Y-119424974D01*
X158791345Y-119445991D01*
X158812367Y-119460233D01*
X158837556Y-119465000D01*
X159346949Y-119465000D01*
X159372154Y-119460113D01*
X159393227Y-119445454D01*
X159407501Y-119424034D01*
X159412235Y-119399042D01*
X159407495Y-119374823D01*
X159393227Y-119354443D01*
X159372197Y-119340671D01*
X159346949Y-119336039D01*
G37*
G36*
X157838182Y-118591764D02*
G01*
X157838182Y-118828326D01*
X157844148Y-118881956D01*
X157861009Y-118925832D01*
X157888422Y-118962122D01*
X157859138Y-119002917D01*
X157842247Y-119045125D01*
X157836637Y-119089873D01*
X157836637Y-119336509D01*
X157840905Y-119370129D01*
X157853468Y-119400013D01*
X157874855Y-119427185D01*
X157902218Y-119448304D01*
X157932437Y-119460758D01*
X157966537Y-119465000D01*
X158412861Y-119465000D01*
X158438077Y-119460279D01*
X158459139Y-119446193D01*
X158473389Y-119425385D01*
X158478147Y-119400519D01*
X158473389Y-119375654D01*
X158459139Y-119354846D01*
X158438077Y-119340760D01*
X158412861Y-119336039D01*
X157970164Y-119336039D01*
X157970164Y-119089604D01*
X157974608Y-119065708D01*
X157987964Y-119045274D01*
X158007710Y-119031198D01*
X158031152Y-119026535D01*
X158285109Y-119026535D01*
X158310357Y-119021903D01*
X158331387Y-119008131D01*
X158345588Y-118987544D01*
X158350396Y-118962055D01*
X158345638Y-118937189D01*
X158331387Y-118916381D01*
X158310326Y-118902295D01*
X158285109Y-118897575D01*
X158029674Y-118897575D01*
X158006684Y-118893142D01*
X157986822Y-118879708D01*
X157973224Y-118859870D01*
X157968687Y-118836184D01*
X157968687Y-118592369D01*
X158417361Y-118592369D01*
X158442577Y-118587648D01*
X158463639Y-118573562D01*
X158477889Y-118552754D01*
X158482647Y-118527889D01*
X158477889Y-118503023D01*
X158463639Y-118482215D01*
X158442577Y-118468129D01*
X158417361Y-118463408D01*
X157966537Y-118463408D01*
X157932463Y-118467667D01*
X157902527Y-118480132D01*
X157875661Y-118501223D01*
X157854717Y-118528300D01*
X157842379Y-118558143D01*
X157838182Y-118591764D01*
G37*
G36*
X156973879Y-119465000D02*
G01*
X157550103Y-119465000D01*
X157550103Y-119027341D01*
X157545862Y-118993287D01*
X157533409Y-118963113D01*
X157512288Y-118935792D01*
X157485118Y-118914403D01*
X157455255Y-118901841D01*
X157421680Y-118897575D01*
X157040576Y-118897575D01*
X157040576Y-118592369D01*
X157489317Y-118592369D01*
X157515101Y-118587603D01*
X157535931Y-118573562D01*
X157549919Y-118552780D01*
X157554603Y-118527889D01*
X157549919Y-118502997D01*
X157535931Y-118482215D01*
X157515101Y-118468175D01*
X157489317Y-118463408D01*
X157038494Y-118463408D01*
X157004402Y-118467662D01*
X156974185Y-118480158D01*
X156946811Y-118501358D01*
X156925430Y-118528573D01*
X156912864Y-118558524D01*
X156908593Y-118592234D01*
X156908593Y-118900530D01*
X156912904Y-118935217D01*
X156925510Y-118965639D01*
X156946811Y-118992884D01*
X156974185Y-119014084D01*
X157004402Y-119026579D01*
X157038494Y-119030833D01*
X157419531Y-119030833D01*
X157419531Y-119336039D01*
X156973879Y-119336039D01*
X156949241Y-119340716D01*
X156928005Y-119354846D01*
X156913444Y-119375639D01*
X156908593Y-119400519D01*
X156913442Y-119425411D01*
X156928005Y-119446260D01*
X156949236Y-119460338D01*
X156973879Y-119465000D01*
G37*
G36*
X156558184Y-119336039D02*
G01*
X156366490Y-119336039D01*
X156366490Y-118592369D01*
X156555229Y-118592369D01*
X156580445Y-118587648D01*
X156601507Y-118573562D01*
X156615757Y-118552754D01*
X156620515Y-118527889D01*
X156615757Y-118503023D01*
X156601507Y-118482215D01*
X156580445Y-118468129D01*
X156555229Y-118463408D01*
X156235985Y-118463408D01*
X156235985Y-119336039D01*
X156114010Y-119336039D01*
X156114010Y-119074693D01*
X156109290Y-119050070D01*
X156095002Y-119028818D01*
X156073888Y-119014207D01*
X156048724Y-119009340D01*
X156023593Y-119014104D01*
X156002581Y-119028348D01*
X155988283Y-119049366D01*
X155983505Y-119074492D01*
X155983505Y-119399848D01*
X155988283Y-119424974D01*
X156002581Y-119445991D01*
X156023602Y-119460233D01*
X156048791Y-119465000D01*
X156558184Y-119465000D01*
X156583389Y-119460113D01*
X156604462Y-119445454D01*
X156618736Y-119424034D01*
X156623470Y-119399042D01*
X156618731Y-119374823D01*
X156604462Y-119354443D01*
X156583432Y-119340671D01*
X156558184Y-119336039D01*
G37*
G36*
X155456582Y-119336039D02*
G01*
X155166421Y-119336039D01*
X155166421Y-119026535D01*
X155548130Y-119026535D01*
X155548130Y-118463408D01*
X155101135Y-118463408D01*
X155076528Y-118468172D01*
X155055260Y-118482618D01*
X155040649Y-118503631D01*
X155035849Y-118527889D01*
X155040622Y-118552749D01*
X155054924Y-118573562D01*
X155075930Y-118587646D01*
X155101135Y-118592369D01*
X155416080Y-118592369D01*
X155416080Y-118897575D01*
X155164272Y-118897575D01*
X155131177Y-118901819D01*
X155101435Y-118914377D01*
X155074067Y-118935860D01*
X155052626Y-118963266D01*
X155040088Y-118993053D01*
X155035849Y-119026199D01*
X155035849Y-119336375D01*
X155040084Y-119370019D01*
X155052545Y-119399928D01*
X155073731Y-119427117D01*
X155100836Y-119448303D01*
X155130677Y-119460764D01*
X155164272Y-119465000D01*
X155456582Y-119465000D01*
X155496239Y-119460543D01*
X155540809Y-119446193D01*
X155636186Y-119406699D01*
X155658298Y-119392528D01*
X155671251Y-119372596D01*
X155675881Y-119344972D01*
X155671371Y-119319891D01*
X155658015Y-119299098D01*
X155638094Y-119284875D01*
X155614357Y-119280157D01*
X155594708Y-119282772D01*
X155569892Y-119291709D01*
X155486404Y-119327173D01*
X155471404Y-119333889D01*
X155456582Y-119336039D01*
G37*
G36*
X154671091Y-118467490D02*
G01*
X154699834Y-118479534D01*
X154726143Y-118500081D01*
X154746692Y-118526348D01*
X154758735Y-118555046D01*
X154762816Y-118587130D01*
X154762816Y-119341278D01*
X154758775Y-119373930D01*
X154746929Y-119402748D01*
X154726882Y-119428729D01*
X154701027Y-119448929D01*
X154672070Y-119460901D01*
X154638961Y-119465000D01*
X154246639Y-119465000D01*
X154214008Y-119460928D01*
X154185168Y-119448980D01*
X154159121Y-119428729D01*
X154138832Y-119402720D01*
X154126864Y-119373903D01*
X154122784Y-119341278D01*
X154122784Y-119336039D01*
X154251811Y-119336039D01*
X154632244Y-119336039D01*
X154632244Y-118596667D01*
X154251811Y-118596667D01*
X154251811Y-119336039D01*
X154122784Y-119336039D01*
X154122784Y-118587130D01*
X154126833Y-118555024D01*
X154138775Y-118526324D01*
X154159121Y-118500081D01*
X154185167Y-118479507D01*
X154213532Y-118467478D01*
X154245162Y-118463408D01*
X154638961Y-118463408D01*
X154671091Y-118467490D01*
G37*
G36*
X166842964Y-121247848D02*
G01*
X166838200Y-121272979D01*
X166823955Y-121293991D01*
X166802878Y-121308235D01*
X166777677Y-121313000D01*
X166752408Y-121308262D01*
X166730728Y-121293991D01*
X166715859Y-121272832D01*
X166710914Y-121247579D01*
X166710914Y-120767068D01*
X166623328Y-120767068D01*
X166327190Y-121278207D01*
X166311326Y-121297911D01*
X166292063Y-121309199D01*
X166268217Y-121313000D01*
X166244162Y-121308341D01*
X166222410Y-121293991D01*
X166207185Y-121272979D01*
X166202192Y-121248519D01*
X166205161Y-121228783D01*
X166214551Y-121208286D01*
X166471061Y-120767068D01*
X166394424Y-120767068D01*
X166344079Y-120760757D01*
X166299523Y-120742226D01*
X166259217Y-120710782D01*
X166227787Y-120670387D01*
X166209248Y-120625676D01*
X166202931Y-120575105D01*
X166202931Y-120504983D01*
X166333504Y-120504983D01*
X166333504Y-120577792D01*
X166337961Y-120601099D01*
X166351303Y-120620577D01*
X166370908Y-120633702D01*
X166394491Y-120638108D01*
X166712391Y-120638108D01*
X166712391Y-120444667D01*
X166394491Y-120444667D01*
X166370913Y-120449088D01*
X166351303Y-120462265D01*
X166337963Y-120481687D01*
X166333504Y-120504983D01*
X166202931Y-120504983D01*
X166202931Y-120503371D01*
X166209253Y-120453299D01*
X166227869Y-120408709D01*
X166259553Y-120368097D01*
X166300121Y-120336357D01*
X166344580Y-120317729D01*
X166394424Y-120311408D01*
X166842964Y-120311408D01*
X166842964Y-121247848D01*
G37*
G36*
X165720134Y-120586914D02*
G01*
X165758603Y-120600919D01*
X165795363Y-120624876D01*
X165847955Y-120666251D01*
X165874425Y-120693809D01*
X165897054Y-120732544D01*
X165912318Y-120773550D01*
X165916398Y-120800450D01*
X165916398Y-121090274D01*
X165912236Y-121122658D01*
X165898531Y-121160464D01*
X165877892Y-121195150D01*
X165854067Y-121219906D01*
X165797714Y-121269543D01*
X165777182Y-121283530D01*
X165743309Y-121298962D01*
X165706623Y-121309632D01*
X165673053Y-121313000D01*
X165340174Y-121313000D01*
X165316186Y-121308301D01*
X165294702Y-121293857D01*
X165279777Y-121272803D01*
X165274888Y-121248519D01*
X165279738Y-121223639D01*
X165294299Y-121202846D01*
X165315536Y-121188716D01*
X165340174Y-121184039D01*
X165664791Y-121184039D01*
X165690578Y-121178828D01*
X165720539Y-121161135D01*
X165757347Y-121130239D01*
X165777780Y-121105612D01*
X165784348Y-121076975D01*
X165784348Y-121042183D01*
X165340174Y-121042183D01*
X165315592Y-121037347D01*
X165294299Y-121022637D01*
X165279694Y-121001234D01*
X165274888Y-120976561D01*
X165274888Y-120823152D01*
X165274895Y-120823085D01*
X165403915Y-120823085D01*
X165403915Y-120908924D01*
X165782803Y-120908924D01*
X165782803Y-120813346D01*
X165776867Y-120787149D01*
X165758825Y-120766128D01*
X165721950Y-120735231D01*
X165696998Y-120720332D01*
X165669963Y-120715484D01*
X165511449Y-120715484D01*
X165489819Y-120720437D01*
X165461813Y-120738253D01*
X165424938Y-120770561D01*
X165409468Y-120792065D01*
X165403915Y-120823085D01*
X165274895Y-120823085D01*
X165281308Y-120763780D01*
X165298899Y-120718556D01*
X165326673Y-120684117D01*
X165374026Y-120638779D01*
X165416471Y-120606388D01*
X165458630Y-120588159D01*
X165501710Y-120582225D01*
X165679030Y-120582225D01*
X165720134Y-120586914D01*
G37*
G36*
X164345300Y-120647511D02*
G01*
X164345300Y-120768277D01*
X164564129Y-121267259D01*
X164581503Y-121294207D01*
X164600401Y-121308428D01*
X164621691Y-121313000D01*
X164702828Y-121313000D01*
X164730319Y-121307851D01*
X164752038Y-121292763D01*
X164769391Y-121265781D01*
X164986810Y-120769822D01*
X164986810Y-120647511D01*
X164982048Y-120622368D01*
X164967801Y-120601300D01*
X164946719Y-120587004D01*
X164921523Y-120582225D01*
X164896329Y-120586977D01*
X164875313Y-120601166D01*
X164861015Y-120622118D01*
X164856237Y-120647175D01*
X164856237Y-120743089D01*
X164666021Y-121172285D01*
X164477282Y-120742418D01*
X164477282Y-120647511D01*
X164472428Y-120622353D01*
X164457871Y-120601300D01*
X164436408Y-120587026D01*
X164410519Y-120582225D01*
X164385392Y-120587003D01*
X164364375Y-120601300D01*
X164350081Y-120622327D01*
X164345300Y-120647511D01*
G37*
G36*
X163037386Y-120315490D02*
G01*
X163066128Y-120327534D01*
X163092438Y-120348081D01*
X163112986Y-120374348D01*
X163125030Y-120403046D01*
X163129111Y-120435130D01*
X163129111Y-121189278D01*
X163125069Y-121221930D01*
X163113224Y-121250748D01*
X163093176Y-121276729D01*
X163067322Y-121296929D01*
X163038364Y-121308901D01*
X163005255Y-121313000D01*
X162612934Y-121313000D01*
X162580302Y-121308928D01*
X162551462Y-121296980D01*
X162525416Y-121276729D01*
X162505127Y-121250720D01*
X162493158Y-121221903D01*
X162489078Y-121189278D01*
X162489078Y-121184039D01*
X162618106Y-121184039D01*
X162998538Y-121184039D01*
X162998538Y-120444667D01*
X162618106Y-120444667D01*
X162618106Y-121184039D01*
X162489078Y-121184039D01*
X162489078Y-120435130D01*
X162493128Y-120403024D01*
X162505069Y-120374324D01*
X162525416Y-120348081D01*
X162551461Y-120327507D01*
X162579827Y-120315478D01*
X162611456Y-120311408D01*
X163005255Y-120311408D01*
X163037386Y-120315490D01*
G37*
D11*
%TO.C,REF\u002A\u002A*%
G36*
X130793001Y-117427729D02*
G01*
X130807536Y-117427729D01*
X130822076Y-117429543D01*
X130838438Y-117429543D01*
X130847524Y-117431367D01*
X130854796Y-117431367D01*
X130863887Y-117433181D01*
X130872972Y-117435002D01*
X130882058Y-117436809D01*
X130891147Y-117438637D01*
X130900243Y-117440452D01*
X130912958Y-117444087D01*
X130923873Y-117445903D01*
X130936593Y-117449546D01*
X130947487Y-117453179D01*
X130960217Y-117456809D01*
X130971126Y-117462258D01*
X130991116Y-117469535D01*
X131011110Y-117476808D01*
X131029288Y-117484071D01*
X131049287Y-117493161D01*
X131069274Y-117502257D01*
X131089266Y-117513160D01*
X131107444Y-117522247D01*
X131127438Y-117533151D01*
X131147436Y-117544054D01*
X131165613Y-117554964D01*
X131183786Y-117567685D01*
X131203780Y-117578590D01*
X131234677Y-117600401D01*
X131263754Y-117622213D01*
X131269216Y-117625855D01*
X131272851Y-117629482D01*
X131278303Y-117633122D01*
X131281939Y-117634940D01*
X131285573Y-117638570D01*
X131289204Y-117642213D01*
X131294663Y-117647662D01*
X131298299Y-117651291D01*
X131301937Y-117654937D01*
X131303746Y-117656758D01*
X131305565Y-117658567D01*
X131305565Y-117660385D01*
X131307379Y-117660385D01*
X131309203Y-117662211D01*
X131311014Y-117664025D01*
X131312842Y-117665837D01*
X131312842Y-117667655D01*
X131314656Y-117669479D01*
X131316481Y-117673111D01*
X131316481Y-117674923D01*
X131318289Y-117676745D01*
X131320110Y-117678560D01*
X131320110Y-117680377D01*
X131321925Y-117682199D01*
X131321925Y-117684016D01*
X131323743Y-117684016D01*
X131323743Y-117685835D01*
X131323743Y-117687654D01*
X131325565Y-117687654D01*
X131325565Y-117689470D01*
X131325565Y-117691283D01*
X131327376Y-117693104D01*
X131327376Y-117694926D01*
X131327376Y-117696737D01*
X131327376Y-117698555D01*
X131327376Y-117700375D01*
X131329201Y-117702188D01*
X131329201Y-117704009D01*
X131329201Y-117705829D01*
X131329201Y-117707645D01*
X131329201Y-117709459D01*
X131329201Y-117711279D01*
X131329201Y-117713097D01*
X131329201Y-117714910D01*
X131327376Y-117716730D01*
X131327376Y-117718552D01*
X131327376Y-117720374D01*
X131327376Y-117722188D01*
X131327376Y-117723998D01*
X131325565Y-117725822D01*
X131325565Y-117727636D01*
X131325565Y-117729458D01*
X131323743Y-117731272D01*
X131323743Y-117733091D01*
X131323743Y-117734913D01*
X131321925Y-117734913D01*
X131321925Y-117736723D01*
X131321925Y-117738544D01*
X131320110Y-117740358D01*
X131320110Y-117742175D01*
X131318289Y-117742175D01*
X131318289Y-117743994D01*
X131318289Y-117745818D01*
X131316481Y-117745818D01*
X131316481Y-117747632D01*
X131314656Y-117747632D01*
X131314656Y-117749448D01*
X131312842Y-117751271D01*
X131311014Y-117753084D01*
X131309203Y-117754899D01*
X131309203Y-117756722D01*
X131307379Y-117756722D01*
X131307379Y-117758539D01*
X131305565Y-117758539D01*
X131305565Y-117760352D01*
X131303746Y-117760352D01*
X131303746Y-117762175D01*
X131301937Y-117762175D01*
X131298299Y-117765810D01*
X131294663Y-117767626D01*
X131291031Y-117771260D01*
X131287393Y-117773080D01*
X131283757Y-117774898D01*
X131280121Y-117778533D01*
X131276485Y-117780350D01*
X131272851Y-117782172D01*
X131269216Y-117785806D01*
X131265581Y-117787618D01*
X131261944Y-117789436D01*
X131180151Y-117831246D01*
X131140170Y-117851239D01*
X131100171Y-117869412D01*
X131063822Y-117885776D01*
X131025648Y-117900319D01*
X131000205Y-117909400D01*
X130976574Y-117918494D01*
X130951130Y-117925764D01*
X130925684Y-117933030D01*
X130902054Y-117940302D01*
X130876599Y-117947572D01*
X130869340Y-117949392D01*
X130863887Y-117951209D01*
X130856612Y-117953029D01*
X130851152Y-117953029D01*
X130843887Y-117954842D01*
X130838438Y-117956661D01*
X130831162Y-117956661D01*
X130825713Y-117958480D01*
X130818448Y-117958480D01*
X130812988Y-117958480D01*
X130805713Y-117958480D01*
X130798453Y-117960297D01*
X130793001Y-117960297D01*
X130785727Y-117960297D01*
X130780270Y-117960297D01*
X130772997Y-117960297D01*
X130762091Y-117960297D01*
X130751184Y-117958480D01*
X130742108Y-117958480D01*
X130731190Y-117956661D01*
X130720287Y-117956661D01*
X130709383Y-117954842D01*
X130698474Y-117953029D01*
X130689383Y-117951209D01*
X130678484Y-117949392D01*
X130667577Y-117947572D01*
X130656671Y-117945756D01*
X130640312Y-117940302D01*
X130622139Y-117936671D01*
X130605778Y-117931215D01*
X130587600Y-117925764D01*
X130571242Y-117920308D01*
X130553063Y-117914855D01*
X130536705Y-117907580D01*
X130520346Y-117902136D01*
X130476725Y-117883952D01*
X130434923Y-117865779D01*
X130391297Y-117845787D01*
X130349490Y-117825789D01*
X130264057Y-117782172D01*
X130260426Y-117780350D01*
X130258612Y-117778533D01*
X130254977Y-117776721D01*
X130253160Y-117774898D01*
X130249519Y-117773080D01*
X130245884Y-117771260D01*
X130244068Y-117769446D01*
X130240431Y-117767626D01*
X130238616Y-117765810D01*
X130234978Y-117763993D01*
X130233162Y-117762175D01*
X130231340Y-117760352D01*
X130227714Y-117756722D01*
X130225889Y-117756722D01*
X130225889Y-117754899D01*
X130224069Y-117754899D01*
X130224069Y-117753084D01*
X130222254Y-117753084D01*
X130222254Y-117751271D01*
X130220439Y-117749448D01*
X130218618Y-117747632D01*
X130218618Y-117745818D01*
X130216804Y-117745818D01*
X130216804Y-117743994D01*
X130216804Y-117742175D01*
X130214983Y-117742175D01*
X130214983Y-117740358D01*
X130214983Y-117738544D01*
X130213164Y-117738544D01*
X130213164Y-117736723D01*
X130213164Y-117734913D01*
X130213164Y-117733091D01*
X130211348Y-117731272D01*
X130211348Y-117729458D01*
X130211348Y-117727636D01*
X130211348Y-117725822D01*
X130211348Y-117723998D01*
X130209530Y-117722188D01*
X130209530Y-117720374D01*
X130209530Y-117718552D01*
X130209530Y-117716730D01*
X130209530Y-117714910D01*
X130209530Y-117713097D01*
X130209530Y-117711279D01*
X130209530Y-117709459D01*
X130209530Y-117707645D01*
X130209530Y-117705829D01*
X130209530Y-117704009D01*
X130211348Y-117702188D01*
X130211348Y-117700375D01*
X130211348Y-117698555D01*
X130211348Y-117696737D01*
X130211348Y-117694926D01*
X130213164Y-117694926D01*
X130213164Y-117693104D01*
X130213164Y-117691283D01*
X130213164Y-117689470D01*
X130214983Y-117687654D01*
X130214983Y-117685835D01*
X130214983Y-117684016D01*
X130216804Y-117684016D01*
X130216804Y-117682199D01*
X130218618Y-117680377D01*
X130218618Y-117678560D01*
X130220439Y-117676745D01*
X130220439Y-117674923D01*
X130222254Y-117673111D01*
X130224069Y-117669479D01*
X130225889Y-117667655D01*
X130227714Y-117665837D01*
X130229533Y-117664025D01*
X130229533Y-117662211D01*
X130231340Y-117658567D01*
X130233162Y-117656758D01*
X130234978Y-117654937D01*
X130236793Y-117653114D01*
X130238616Y-117651291D01*
X130240431Y-117649479D01*
X130244068Y-117645844D01*
X130247706Y-117642213D01*
X130251341Y-117638570D01*
X130256790Y-117634940D01*
X130260426Y-117631303D01*
X130264057Y-117627668D01*
X130267694Y-117624027D01*
X130271335Y-117622213D01*
X130276786Y-117618580D01*
X130294963Y-117605859D01*
X130313136Y-117593134D01*
X130331310Y-117580413D01*
X130356758Y-117564050D01*
X130382207Y-117547689D01*
X130409473Y-117531329D01*
X130427649Y-117522247D01*
X130445831Y-117511342D01*
X130463997Y-117502257D01*
X130483998Y-117493161D01*
X130498538Y-117487709D01*
X130513082Y-117480435D01*
X130527618Y-117474981D01*
X130542162Y-117469535D01*
X130556700Y-117464079D01*
X130573067Y-117458633D01*
X130587600Y-117453179D01*
X130603965Y-117447726D01*
X130618505Y-117444087D01*
X130634857Y-117440452D01*
X130640312Y-117438637D01*
X130647576Y-117436809D01*
X130653037Y-117435002D01*
X130660308Y-117435002D01*
X130665754Y-117433181D01*
X130673035Y-117431367D01*
X130680305Y-117431367D01*
X130685751Y-117429543D01*
X130693026Y-117429543D01*
X130707567Y-117427729D01*
X130722113Y-117427729D01*
X130734834Y-117427729D01*
X130749371Y-117425918D01*
X130763915Y-117425918D01*
X130778453Y-117425918D01*
X130793001Y-117427729D01*
G37*
G36*
X130898416Y-119596166D02*
G01*
X130929313Y-119596166D01*
X130958398Y-119597991D01*
X130989295Y-119601626D01*
X131023835Y-119603441D01*
X131060191Y-119608897D01*
X131096533Y-119614350D01*
X131132895Y-119619797D01*
X131212868Y-119634340D01*
X131294663Y-119650698D01*
X131371005Y-119668876D01*
X131447346Y-119688868D01*
X131467339Y-119694325D01*
X131487329Y-119699771D01*
X131507322Y-119707049D01*
X131525504Y-119712500D01*
X131545491Y-119719766D01*
X131563673Y-119727043D01*
X131632738Y-119756114D01*
X131699992Y-119785203D01*
X131739980Y-119803386D01*
X131779976Y-119823380D01*
X131819959Y-119843368D01*
X131856313Y-119863365D01*
X131892665Y-119885175D01*
X131929023Y-119906983D01*
X131954468Y-119923341D01*
X131981730Y-119939703D01*
X132007178Y-119957884D01*
X132030805Y-119974239D01*
X132067158Y-120001505D01*
X132101692Y-120026951D01*
X132136226Y-120054212D01*
X132168943Y-120083303D01*
X132201667Y-120112381D01*
X132234383Y-120141458D01*
X132265281Y-120170548D01*
X132288911Y-120194178D01*
X132312538Y-120215985D01*
X132334351Y-120239616D01*
X132356163Y-120263250D01*
X132377977Y-120286877D01*
X132397962Y-120312323D01*
X132417963Y-120337766D01*
X132437957Y-120363214D01*
X132457949Y-120388663D01*
X132476124Y-120414110D01*
X132494300Y-120439547D01*
X132512476Y-120465000D01*
X132530654Y-120492269D01*
X132547017Y-120517711D01*
X132563379Y-120544979D01*
X132579734Y-120572243D01*
X132594273Y-120601328D01*
X132608818Y-120628590D01*
X132623360Y-120657674D01*
X132637894Y-120686759D01*
X132650619Y-120715838D01*
X132663348Y-120744922D01*
X132676071Y-120774006D01*
X132688794Y-120803083D01*
X132699703Y-120833979D01*
X132710602Y-120863062D01*
X132719689Y-120893964D01*
X132739684Y-120957587D01*
X132745141Y-120972130D01*
X132748771Y-120988485D01*
X132752408Y-121003025D01*
X132756045Y-121021197D01*
X132759681Y-121037568D01*
X132763314Y-121053918D01*
X132774219Y-121124805D01*
X132776036Y-121139352D01*
X132779671Y-121153896D01*
X132779671Y-121168431D01*
X132781492Y-121182968D01*
X132783307Y-121197509D01*
X132783307Y-121212047D01*
X132785124Y-121226592D01*
X132785124Y-121242951D01*
X132785124Y-121257492D01*
X132785124Y-121272032D01*
X132785124Y-121286572D01*
X132783307Y-121301119D01*
X132783307Y-121315656D01*
X132781492Y-121330194D01*
X132779671Y-121346557D01*
X132777860Y-121361102D01*
X132776036Y-121377460D01*
X132774219Y-121393816D01*
X132770588Y-121408360D01*
X132766950Y-121424717D01*
X132765131Y-121441074D01*
X132761493Y-121455617D01*
X132756045Y-121471973D01*
X132752408Y-121486514D01*
X132748771Y-121502880D01*
X132743315Y-121517418D01*
X132737867Y-121533770D01*
X132732414Y-121548312D01*
X132726963Y-121562857D01*
X132721507Y-121577401D01*
X132716060Y-121590124D01*
X132710602Y-121604668D01*
X132705147Y-121617384D01*
X132697877Y-121630108D01*
X132692423Y-121644650D01*
X132685152Y-121657378D01*
X132677883Y-121670093D01*
X132670617Y-121682819D01*
X132663348Y-121695542D01*
X132656074Y-121708270D01*
X132646987Y-121720993D01*
X132639710Y-121731901D01*
X132630632Y-121744615D01*
X132623360Y-121757348D01*
X132614271Y-121766430D01*
X132606996Y-121777338D01*
X132597907Y-121788243D01*
X132590642Y-121799147D01*
X132581544Y-121808235D01*
X132572462Y-121819148D01*
X132563379Y-121828232D01*
X132554292Y-121837324D01*
X132545204Y-121846409D01*
X132536111Y-121855496D01*
X132525197Y-121864583D01*
X132516113Y-121873673D01*
X132505212Y-121882762D01*
X132496124Y-121891845D01*
X132485219Y-121899118D01*
X132474310Y-121908204D01*
X132461588Y-121917295D01*
X132447048Y-121928198D01*
X132432498Y-121937291D01*
X132417963Y-121946375D01*
X132403422Y-121955465D01*
X132388878Y-121964553D01*
X132352534Y-121986369D01*
X132316169Y-122006357D01*
X132278002Y-122024531D01*
X132238020Y-122044536D01*
X132198025Y-122064526D01*
X132158043Y-122082694D01*
X132128954Y-122095422D01*
X132098058Y-122106327D01*
X132068981Y-122117234D01*
X132038074Y-122128144D01*
X132012628Y-122137232D01*
X131985373Y-122146318D01*
X131959921Y-122153590D01*
X131932659Y-122160853D01*
X131781786Y-122199034D01*
X131616381Y-122235386D01*
X131540045Y-122249919D01*
X131463706Y-122262647D01*
X131407355Y-122271738D01*
X131351006Y-122279006D01*
X131294663Y-122286276D01*
X131238313Y-122291730D01*
X131180151Y-122295365D01*
X131121989Y-122298997D01*
X131025648Y-122302639D01*
X130927492Y-122304453D01*
X130682121Y-122304453D01*
X130547611Y-122300820D01*
X130413108Y-122295365D01*
X130338585Y-122289913D01*
X130264057Y-122282640D01*
X130189540Y-122275368D01*
X130113191Y-122264462D01*
X130038677Y-122251744D01*
X129964152Y-122239013D01*
X129829650Y-122211757D01*
X129696959Y-122180853D01*
X129658789Y-122171766D01*
X129620618Y-122162679D01*
X129582443Y-122151765D01*
X129544275Y-122139046D01*
X129506105Y-122126328D01*
X129467933Y-122111787D01*
X129427952Y-122097243D01*
X129389774Y-122082694D01*
X129353431Y-122066342D01*
X129317066Y-122049982D01*
X129282529Y-122033623D01*
X129246187Y-122015444D01*
X129226190Y-122004544D01*
X129204374Y-121993634D01*
X129184381Y-121982737D01*
X129164388Y-121970008D01*
X129146220Y-121959100D01*
X129126219Y-121946375D01*
X129113496Y-121937291D01*
X129100773Y-121928198D01*
X129089866Y-121919114D01*
X129077142Y-121910023D01*
X129066239Y-121900935D01*
X129049874Y-121888210D01*
X129033521Y-121873673D01*
X129018981Y-121860954D01*
X129002621Y-121846409D01*
X128989901Y-121833687D01*
X128975353Y-121819148D01*
X128960818Y-121804607D01*
X128948093Y-121790060D01*
X128942637Y-121784609D01*
X128937186Y-121779160D01*
X128933550Y-121771889D01*
X128928097Y-121766430D01*
X128924459Y-121760977D01*
X128919007Y-121753703D01*
X128915377Y-121748257D01*
X128909919Y-121742796D01*
X128902650Y-121728262D01*
X128893564Y-121715537D01*
X128884476Y-121700999D01*
X128877207Y-121686454D01*
X128869935Y-121673733D01*
X128862663Y-121659192D01*
X128855394Y-121644650D01*
X128848120Y-121630108D01*
X128840855Y-121615573D01*
X128835395Y-121601021D01*
X128828123Y-121584670D01*
X128820855Y-121568307D01*
X128813582Y-121550134D01*
X128808136Y-121533770D01*
X128802683Y-121517418D01*
X128797226Y-121499241D01*
X128791777Y-121482877D01*
X128786312Y-121464701D01*
X128782686Y-121446522D01*
X128779051Y-121430168D01*
X128775416Y-121411995D01*
X128771784Y-121395635D01*
X128768145Y-121377460D01*
X128766326Y-121359286D01*
X128762687Y-121342916D01*
X128760874Y-121324744D01*
X128759062Y-121306572D01*
X128757240Y-121288394D01*
X128757240Y-121275674D01*
X128757240Y-121261133D01*
X128755422Y-121248402D01*
X128755422Y-121233863D01*
X128757240Y-121219324D01*
X128757240Y-121206594D01*
X128757240Y-121192062D01*
X128759062Y-121179335D01*
X128759062Y-121164791D01*
X128760874Y-121152073D01*
X128762687Y-121137525D01*
X128764511Y-121119356D01*
X128768145Y-121101178D01*
X128771784Y-121082996D01*
X128775416Y-121064818D01*
X128779051Y-121044829D01*
X128793591Y-120988485D01*
X128808136Y-120932140D01*
X128822677Y-120879425D01*
X128840855Y-120824897D01*
X128842666Y-120817628D01*
X128846306Y-120810354D01*
X128848120Y-120803083D01*
X128851750Y-120795814D01*
X128855394Y-120788544D01*
X128857211Y-120781274D01*
X128860845Y-120774006D01*
X128864475Y-120766734D01*
X128868118Y-120759456D01*
X128873568Y-120748553D01*
X128889929Y-120717659D01*
X128906286Y-120683119D01*
X128926285Y-120643133D01*
X128940819Y-120615868D01*
X128953540Y-120588604D01*
X128969897Y-120561337D01*
X128984448Y-120534073D01*
X129000803Y-120508625D01*
X129015349Y-120483173D01*
X129031706Y-120457733D01*
X129049874Y-120434106D01*
X129066239Y-120408662D01*
X129084413Y-120385026D01*
X129102588Y-120361397D01*
X129122583Y-120337766D01*
X129142580Y-120314135D01*
X129162571Y-120290506D01*
X129182565Y-120268701D01*
X129213467Y-120235985D01*
X129242545Y-120206900D01*
X129273449Y-120176003D01*
X129304353Y-120146914D01*
X129324339Y-120128734D01*
X129344335Y-120112381D01*
X129364325Y-120094208D01*
X129435217Y-120036042D01*
X129506105Y-119985146D01*
X129513375Y-119979700D01*
X129520643Y-119974239D01*
X129527919Y-119968783D01*
X129537003Y-119965156D01*
X129544275Y-119959700D01*
X129551549Y-119954251D01*
X129556999Y-119952430D01*
X129562450Y-119948794D01*
X129566094Y-119946982D01*
X129569718Y-119945152D01*
X129573356Y-119941524D01*
X129576992Y-119939703D01*
X129580633Y-119936066D01*
X129580633Y-119934256D01*
X129580633Y-119932435D01*
X129580633Y-119930616D01*
X129582443Y-119930616D01*
X129582443Y-119928805D01*
X129582443Y-119926981D01*
X129584264Y-119925164D01*
X129584264Y-119923341D01*
X129586078Y-119923341D01*
X129586078Y-119921527D01*
X129587895Y-119921527D01*
X129587895Y-119919711D01*
X129589714Y-119919711D01*
X129707863Y-119859728D01*
X129767846Y-119830649D01*
X129826011Y-119803386D01*
X129858724Y-119788843D01*
X129891445Y-119774299D01*
X129925982Y-119761576D01*
X129956881Y-119748856D01*
X129987778Y-119736132D01*
X130011409Y-119727043D01*
X130015043Y-119725224D01*
X130016864Y-119725224D01*
X130020494Y-119723407D01*
X130027763Y-119719766D01*
X130035037Y-119716135D01*
X130042313Y-119714319D01*
X130049581Y-119710689D01*
X130056845Y-119708868D01*
X130064122Y-119705225D01*
X130071391Y-119703410D01*
X130078657Y-119701591D01*
X130085932Y-119697961D01*
X130093204Y-119696143D01*
X130100473Y-119694325D01*
X130256790Y-119657971D01*
X130342224Y-119639797D01*
X130425827Y-119625254D01*
X130474909Y-119617986D01*
X130523985Y-119610716D01*
X130573067Y-119605262D01*
X130594872Y-119601626D01*
X130616680Y-119599811D01*
X130638492Y-119597991D01*
X130662126Y-119597991D01*
X130780270Y-119594347D01*
X130898416Y-119596166D01*
G37*
G36*
X129375230Y-116611611D02*
G01*
X129391598Y-116611611D01*
X129406133Y-116613427D01*
X129422491Y-116615242D01*
X129431580Y-116617058D01*
X129440668Y-116618874D01*
X129449763Y-116620693D01*
X129457022Y-116622514D01*
X129466116Y-116624332D01*
X129475202Y-116626157D01*
X129484290Y-116627966D01*
X129493382Y-116631603D01*
X129502478Y-116633417D01*
X129509745Y-116637057D01*
X129518831Y-116638878D01*
X129527919Y-116642513D01*
X129535190Y-116646147D01*
X129544275Y-116649781D01*
X129553365Y-116651598D01*
X129560630Y-116655230D01*
X129569718Y-116660682D01*
X129576992Y-116664319D01*
X129586078Y-116667954D01*
X129593352Y-116673404D01*
X129602442Y-116677041D01*
X129609713Y-116682500D01*
X129618800Y-116686134D01*
X129626070Y-116691588D01*
X129633338Y-116697045D01*
X129642430Y-116702486D01*
X129649697Y-116707945D01*
X129658789Y-116715212D01*
X129669697Y-116722488D01*
X129678783Y-116729758D01*
X129689697Y-116738844D01*
X129698773Y-116746117D01*
X129709679Y-116755206D01*
X129718769Y-116764290D01*
X129729672Y-116775197D01*
X129740577Y-116784286D01*
X129749674Y-116795192D01*
X129760575Y-116807914D01*
X129766028Y-116813369D01*
X129771484Y-116818819D01*
X129775118Y-116824264D01*
X129780572Y-116829724D01*
X129784203Y-116836996D01*
X129789652Y-116842449D01*
X129793292Y-116849720D01*
X129798749Y-116856994D01*
X129804200Y-116866075D01*
X129809651Y-116873349D01*
X129815105Y-116882436D01*
X129820561Y-116889708D01*
X129826011Y-116898795D01*
X129844180Y-116935149D01*
X129862360Y-116969685D01*
X129871450Y-116991494D01*
X129882356Y-117011491D01*
X129887814Y-117024215D01*
X129891445Y-117036935D01*
X129896899Y-117049661D01*
X129900539Y-117060566D01*
X129905985Y-117073287D01*
X129909621Y-117086013D01*
X129913257Y-117100555D01*
X129916897Y-117113278D01*
X129920527Y-117127814D01*
X129925982Y-117151447D01*
X129929620Y-117175077D01*
X129931434Y-117182346D01*
X129933249Y-117189616D01*
X129933249Y-117198711D01*
X129935068Y-117205982D01*
X129935068Y-117213247D01*
X129936884Y-117224153D01*
X129936884Y-117235067D01*
X129936884Y-117245964D01*
X129936884Y-117258686D01*
X129938705Y-117335027D01*
X129936884Y-117415007D01*
X129936884Y-117424095D01*
X129936884Y-117431367D01*
X129936884Y-117440452D01*
X129935068Y-117449546D01*
X129935068Y-117456809D01*
X129935068Y-117464079D01*
X129933249Y-117469535D01*
X129933249Y-117476808D01*
X129931434Y-117482258D01*
X129929620Y-117489529D01*
X129929620Y-117494987D01*
X129922348Y-117522247D01*
X129915073Y-117549507D01*
X129909621Y-117574961D01*
X129904169Y-117602220D01*
X129898716Y-117627668D01*
X129896899Y-117636756D01*
X129895075Y-117647662D01*
X129893264Y-117656758D01*
X129891445Y-117665837D01*
X129891445Y-117674923D01*
X129889624Y-117684016D01*
X129889624Y-117693104D01*
X129889624Y-117700375D01*
X129889624Y-117707645D01*
X129889624Y-117714910D01*
X129889624Y-117722188D01*
X129889624Y-117727636D01*
X129889624Y-117734913D01*
X129889624Y-117742175D01*
X129891445Y-117749448D01*
X129891445Y-117753084D01*
X129891445Y-117758539D01*
X129891445Y-117762175D01*
X129893264Y-117767626D01*
X129893264Y-117771260D01*
X129895075Y-117776721D01*
X129895075Y-117780350D01*
X129896899Y-117785806D01*
X129896899Y-117789436D01*
X129898716Y-117794897D01*
X129900539Y-117798527D01*
X129902353Y-117803977D01*
X129904169Y-117811252D01*
X129905985Y-117816702D01*
X129907806Y-117822152D01*
X129911435Y-117829429D01*
X129913257Y-117834876D01*
X129915073Y-117840329D01*
X129918708Y-117843977D01*
X129920527Y-117849426D01*
X129922348Y-117853053D01*
X129924158Y-117856693D01*
X129925982Y-117860329D01*
X129927801Y-117865779D01*
X129931434Y-117869412D01*
X129933249Y-117873049D01*
X129935068Y-117876682D01*
X129938705Y-117882140D01*
X129942341Y-117887593D01*
X129947792Y-117893037D01*
X129951428Y-117898496D01*
X129955062Y-117903954D01*
X129958704Y-117909400D01*
X129964152Y-117913039D01*
X129976877Y-117929398D01*
X129991415Y-117943932D01*
X130004140Y-117958480D01*
X130013229Y-117967567D01*
X130022313Y-117976655D01*
X130031405Y-117985747D01*
X130040490Y-117993014D01*
X130051394Y-118002101D01*
X130060483Y-118009377D01*
X130069575Y-118018460D01*
X130080486Y-118025730D01*
X130089562Y-118033008D01*
X130100473Y-118040271D01*
X130111380Y-118047544D01*
X130120470Y-118054819D01*
X130131370Y-118062086D01*
X130142279Y-118067537D01*
X130153183Y-118074807D01*
X130178632Y-118089348D01*
X130204083Y-118103894D01*
X130229533Y-118116616D01*
X130256790Y-118131157D01*
X130284049Y-118143874D01*
X130309502Y-118156597D01*
X130336769Y-118167509D01*
X130364035Y-118180228D01*
X130391297Y-118191142D01*
X130418559Y-118200233D01*
X130447639Y-118211125D01*
X130474909Y-118220221D01*
X130503987Y-118229304D01*
X130531253Y-118238397D01*
X130560335Y-118245661D01*
X130589422Y-118254753D01*
X130602139Y-118256571D01*
X130616680Y-118260207D01*
X130629405Y-118263841D01*
X130643952Y-118265660D01*
X130656671Y-118267471D01*
X130671216Y-118271111D01*
X130685751Y-118272935D01*
X130698474Y-118274750D01*
X130713014Y-118274750D01*
X130725745Y-118276569D01*
X130740287Y-118276569D01*
X130754829Y-118278389D01*
X130767546Y-118278389D01*
X130782089Y-118278389D01*
X130789359Y-118278389D01*
X130798453Y-118278389D01*
X130805713Y-118278389D01*
X130812988Y-118276569D01*
X130820260Y-118276569D01*
X130827532Y-118276569D01*
X130836615Y-118274750D01*
X130860245Y-118271111D01*
X130883873Y-118267471D01*
X130907509Y-118263841D01*
X130932952Y-118260207D01*
X130956586Y-118254753D01*
X130982030Y-118249300D01*
X131005659Y-118242028D01*
X131029288Y-118236582D01*
X131051095Y-118229304D01*
X131065635Y-118225671D01*
X131080178Y-118220221D01*
X131092903Y-118216584D01*
X131105628Y-118211125D01*
X131120168Y-118205674D01*
X131163794Y-118187501D01*
X131209232Y-118167509D01*
X131252857Y-118147511D01*
X131298299Y-118125700D01*
X131321925Y-118112984D01*
X131347373Y-118098441D01*
X131371005Y-118085714D01*
X131392814Y-118071177D01*
X131414623Y-118058449D01*
X131423716Y-118052996D01*
X131432807Y-118045725D01*
X131441886Y-118040271D01*
X131449161Y-118033008D01*
X131458252Y-118027546D01*
X131465517Y-118020276D01*
X131474611Y-118013004D01*
X131481884Y-118005734D01*
X131501879Y-117987558D01*
X131520054Y-117969385D01*
X131556409Y-117931215D01*
X131561855Y-117925764D01*
X131567309Y-117920308D01*
X131572763Y-117914855D01*
X131576396Y-117909400D01*
X131581852Y-117902136D01*
X131583668Y-117898496D01*
X131587298Y-117894857D01*
X131590943Y-117889416D01*
X131594576Y-117885776D01*
X131596390Y-117880317D01*
X131600025Y-117876682D01*
X131603659Y-117871236D01*
X131607296Y-117863959D01*
X131609117Y-117858511D01*
X131612755Y-117853053D01*
X131616381Y-117845787D01*
X131625476Y-117827606D01*
X131632738Y-117811252D01*
X131632738Y-117809431D01*
X131634563Y-117807612D01*
X131634563Y-117805795D01*
X131634563Y-117803977D01*
X131636379Y-117802157D01*
X131636379Y-117800345D01*
X131636379Y-117798527D01*
X131638195Y-117796710D01*
X131638195Y-117794897D01*
X131638195Y-117793075D01*
X131638195Y-117791254D01*
X131640011Y-117789436D01*
X131640011Y-117785806D01*
X131640011Y-117783982D01*
X131640011Y-117782172D01*
X131641837Y-117778533D01*
X131641837Y-117776721D01*
X131641837Y-117774898D01*
X131641837Y-117771260D01*
X131641837Y-117769446D01*
X131641837Y-117767626D01*
X131641837Y-117763993D01*
X131641837Y-117716730D01*
X131641837Y-117694926D01*
X131641837Y-117673111D01*
X131640011Y-117665837D01*
X131640011Y-117660385D01*
X131640011Y-117653114D01*
X131638195Y-117645844D01*
X131638195Y-117638570D01*
X131636379Y-117629482D01*
X131634563Y-117620396D01*
X131632738Y-117613130D01*
X131630923Y-117604043D01*
X131620019Y-117554964D01*
X131616381Y-117542235D01*
X131612755Y-117527701D01*
X131609117Y-117513160D01*
X131607296Y-117498615D01*
X131603659Y-117484071D01*
X131601834Y-117469535D01*
X131600025Y-117454992D01*
X131598209Y-117440452D01*
X131596390Y-117425918D01*
X131594576Y-117411365D01*
X131594576Y-117396825D01*
X131592755Y-117380470D01*
X131592755Y-117364110D01*
X131590943Y-117347756D01*
X131590943Y-117331394D01*
X131592755Y-117315029D01*
X131592755Y-117298683D01*
X131592755Y-117293226D01*
X131965369Y-117293226D01*
X131965369Y-117298683D01*
X131965369Y-117304130D01*
X131965369Y-117309583D01*
X131965369Y-117313218D01*
X131965369Y-117318668D01*
X131965369Y-117322308D01*
X131967187Y-117327756D01*
X131967187Y-117333214D01*
X131967187Y-117336845D01*
X131967187Y-117342297D01*
X131969006Y-117347756D01*
X131969006Y-117351387D01*
X131970827Y-117356840D01*
X131970827Y-117360477D01*
X131972641Y-117365931D01*
X131972641Y-117371382D01*
X131974454Y-117375014D01*
X131974454Y-117380470D01*
X131976276Y-117384108D01*
X131978093Y-117389556D01*
X131979903Y-117393196D01*
X131981730Y-117398648D01*
X131983551Y-117402284D01*
X131983551Y-117407741D01*
X131985373Y-117411365D01*
X131987178Y-117415007D01*
X131990817Y-117420458D01*
X131992634Y-117424095D01*
X131994451Y-117427729D01*
X131996274Y-117433181D01*
X131998091Y-117436809D01*
X132001728Y-117440452D01*
X132003535Y-117444087D01*
X132005358Y-117449546D01*
X132008993Y-117453179D01*
X132010811Y-117456809D01*
X132014449Y-117460449D01*
X132016268Y-117464079D01*
X132019903Y-117467717D01*
X132021723Y-117471346D01*
X132025353Y-117474981D01*
X132027170Y-117478619D01*
X132030805Y-117482258D01*
X132032626Y-117484071D01*
X132036262Y-117487709D01*
X132039898Y-117491347D01*
X132041708Y-117494987D01*
X132045347Y-117496800D01*
X132048982Y-117500430D01*
X132052620Y-117502257D01*
X132056254Y-117505888D01*
X132058070Y-117509527D01*
X132061705Y-117511342D01*
X132065341Y-117514973D01*
X132068981Y-117516792D01*
X132072609Y-117518605D01*
X132076248Y-117522247D01*
X132081705Y-117524065D01*
X132085336Y-117527701D01*
X132090789Y-117529510D01*
X132094422Y-117533151D01*
X132099882Y-117534969D01*
X132103506Y-117538613D01*
X132108970Y-117540420D01*
X132114421Y-117542235D01*
X132118051Y-117544054D01*
X132119871Y-117545878D01*
X132123505Y-117547689D01*
X132127143Y-117547689D01*
X132130776Y-117549507D01*
X132134410Y-117551331D01*
X132136226Y-117551331D01*
X132139864Y-117553152D01*
X132143503Y-117553152D01*
X132147135Y-117554964D01*
X132150769Y-117554964D01*
X132154401Y-117556781D01*
X132158043Y-117556781D01*
X132163495Y-117558599D01*
X132167122Y-117558599D01*
X132170766Y-117558599D01*
X132174401Y-117560413D01*
X132178036Y-117560413D01*
X132183486Y-117560413D01*
X132187124Y-117560413D01*
X132190758Y-117562228D01*
X132198025Y-117562228D01*
X132203484Y-117562228D01*
X132210750Y-117562228D01*
X132218021Y-117562228D01*
X132223479Y-117562228D01*
X132230746Y-117560413D01*
X132238020Y-117560413D01*
X132241648Y-117560413D01*
X132247109Y-117560413D01*
X132250740Y-117558599D01*
X132256195Y-117558599D01*
X132259830Y-117558599D01*
X132265281Y-117556781D01*
X132268916Y-117556781D01*
X132274373Y-117554964D01*
X132278002Y-117554964D01*
X132283460Y-117553152D01*
X132287088Y-117551331D01*
X132292551Y-117551331D01*
X132296179Y-117549507D01*
X132301633Y-117547689D01*
X132305275Y-117545878D01*
X132308907Y-117545878D01*
X132312538Y-117544054D01*
X132316169Y-117542235D01*
X132319811Y-117540420D01*
X132323450Y-117538613D01*
X132328893Y-117536792D01*
X132332533Y-117534969D01*
X132336171Y-117533151D01*
X132339809Y-117531329D01*
X132343445Y-117529510D01*
X132347072Y-117527701D01*
X132350709Y-117524065D01*
X132354345Y-117522247D01*
X132356163Y-117520427D01*
X132359801Y-117516792D01*
X132363431Y-117514973D01*
X132367071Y-117513160D01*
X132370701Y-117509527D01*
X132374334Y-117507711D01*
X132377977Y-117504069D01*
X132379793Y-117502257D01*
X132383428Y-117498615D01*
X132387071Y-117494987D01*
X132390699Y-117493161D01*
X132392513Y-117489529D01*
X132396151Y-117485891D01*
X132399785Y-117484071D01*
X132401601Y-117480435D01*
X132405240Y-117476808D01*
X132408873Y-117473171D01*
X132412515Y-117467717D01*
X132416139Y-117464079D01*
X132419782Y-117458633D01*
X132421596Y-117454992D01*
X132425232Y-117449546D01*
X132428869Y-117444087D01*
X132432498Y-117440452D01*
X132434324Y-117435002D01*
X132437957Y-117429543D01*
X132441588Y-117424095D01*
X132443410Y-117418640D01*
X132448866Y-117409553D01*
X132452498Y-117400467D01*
X132457949Y-117391382D01*
X132457949Y-117389556D01*
X132459770Y-117387740D01*
X132459770Y-117385923D01*
X132461588Y-117384108D01*
X132461588Y-117382292D01*
X132461588Y-117380470D01*
X132463403Y-117378654D01*
X132463403Y-117376832D01*
X132463403Y-117375014D01*
X132463403Y-117373196D01*
X132465226Y-117371382D01*
X132465226Y-117367747D01*
X132465226Y-117365931D01*
X132465226Y-117364110D01*
X132465226Y-117362292D01*
X132467040Y-117360477D01*
X132467040Y-117356840D01*
X132467040Y-117355020D01*
X132467040Y-117353206D01*
X132467040Y-117351387D01*
X132467040Y-117333214D01*
X132467040Y-117313218D01*
X132467040Y-117295041D01*
X132467040Y-117276863D01*
X132467040Y-117275048D01*
X132467040Y-117273229D01*
X132467040Y-117269588D01*
X132465226Y-117267776D01*
X132465226Y-117264140D01*
X132465226Y-117262322D01*
X132465226Y-117260501D01*
X132465226Y-117256868D01*
X132463403Y-117255053D01*
X132463403Y-117251418D01*
X132463403Y-117249601D01*
X132461588Y-117247783D01*
X132461588Y-117244146D01*
X132461588Y-117242336D01*
X132459770Y-117240513D01*
X132459770Y-117238693D01*
X132457949Y-117235067D01*
X132457949Y-117233238D01*
X132454319Y-117224153D01*
X132448866Y-117213247D01*
X132445226Y-117204154D01*
X132441588Y-117198711D01*
X132439772Y-117193248D01*
X132437957Y-117189616D01*
X132434324Y-117184170D01*
X132432498Y-117178707D01*
X132428869Y-117175077D01*
X132425232Y-117169629D01*
X132423413Y-117165981D01*
X132419782Y-117160532D01*
X132416139Y-117155083D01*
X132412515Y-117151447D01*
X132410697Y-117147809D01*
X132407057Y-117144181D01*
X132403422Y-117140543D01*
X132401601Y-117136906D01*
X132397962Y-117133269D01*
X132394337Y-117129633D01*
X132390699Y-117126003D01*
X132387071Y-117122362D01*
X132383428Y-117118733D01*
X132379793Y-117115098D01*
X132376154Y-117111457D01*
X132372523Y-117107820D01*
X132368888Y-117106007D01*
X132365247Y-117102373D01*
X132361622Y-117100555D01*
X132357985Y-117096917D01*
X132354345Y-117095099D01*
X132350709Y-117091466D01*
X132347072Y-117089647D01*
X132343445Y-117087830D01*
X132339809Y-117084196D01*
X132336171Y-117082377D01*
X132332533Y-117080565D01*
X132327080Y-117078739D01*
X132323450Y-117075109D01*
X132319811Y-117073287D01*
X132314353Y-117071472D01*
X132310720Y-117069657D01*
X132305275Y-117067835D01*
X132301633Y-117066022D01*
X132296179Y-117064199D01*
X132290729Y-117062387D01*
X132287088Y-117060566D01*
X132281645Y-117058749D01*
X132278002Y-117056930D01*
X132272549Y-117055115D01*
X132267099Y-117055115D01*
X132261652Y-117053292D01*
X132254382Y-117051477D01*
X132248919Y-117049661D01*
X132241648Y-117049661D01*
X132236201Y-117047844D01*
X132232563Y-117047844D01*
X132230746Y-117046020D01*
X132227111Y-117046020D01*
X132225297Y-117046020D01*
X132221660Y-117046020D01*
X132218021Y-117046020D01*
X132216201Y-117046020D01*
X132212578Y-117046020D01*
X132210750Y-117046020D01*
X132207117Y-117046020D01*
X132203484Y-117046020D01*
X132201667Y-117046020D01*
X132198025Y-117046020D01*
X132196212Y-117046020D01*
X132192577Y-117046020D01*
X132190758Y-117047844D01*
X132187124Y-117047844D01*
X132183486Y-117047844D01*
X132176218Y-117049661D01*
X132168943Y-117051477D01*
X132159855Y-117053292D01*
X132152588Y-117055115D01*
X132148957Y-117056930D01*
X132145320Y-117056930D01*
X132141681Y-117058749D01*
X132138045Y-117058749D01*
X132134410Y-117060566D01*
X132130776Y-117062387D01*
X132128954Y-117064199D01*
X132125325Y-117064199D01*
X132121692Y-117066022D01*
X132118051Y-117067835D01*
X132114421Y-117069657D01*
X132112601Y-117071472D01*
X132108970Y-117073287D01*
X132105328Y-117075109D01*
X132101692Y-117076923D01*
X132099882Y-117078739D01*
X132094422Y-117080565D01*
X132090789Y-117084196D01*
X132085336Y-117086013D01*
X132081705Y-117089647D01*
X132076248Y-117093281D01*
X132072609Y-117096917D01*
X132068981Y-117098735D01*
X132063528Y-117102373D01*
X132059887Y-117106007D01*
X132056254Y-117109645D01*
X132052620Y-117113278D01*
X132048982Y-117116912D01*
X132045347Y-117120543D01*
X132039898Y-117124177D01*
X132036262Y-117127814D01*
X132032626Y-117131457D01*
X132028983Y-117136906D01*
X132025353Y-117140543D01*
X132023535Y-117144181D01*
X132019903Y-117147809D01*
X132016268Y-117153263D01*
X132012628Y-117156901D01*
X132008993Y-117160532D01*
X132007178Y-117165981D01*
X132005358Y-117169629D01*
X132001728Y-117171440D01*
X131999903Y-117175077D01*
X131998091Y-117178707D01*
X131996274Y-117182346D01*
X131994451Y-117185986D01*
X131992634Y-117189616D01*
X131990817Y-117193248D01*
X131989004Y-117196886D01*
X131987178Y-117200520D01*
X131985373Y-117202339D01*
X131985373Y-117205982D01*
X131983551Y-117209609D01*
X131981730Y-117213247D01*
X131979903Y-117218704D01*
X131978093Y-117222334D01*
X131978093Y-117227786D01*
X131976276Y-117233238D01*
X131974454Y-117236876D01*
X131972641Y-117242336D01*
X131972641Y-117247783D01*
X131970827Y-117253230D01*
X131970827Y-117256868D01*
X131969006Y-117262322D01*
X131969006Y-117267776D01*
X131967187Y-117273229D01*
X131967187Y-117278676D01*
X131967187Y-117284130D01*
X131967187Y-117287769D01*
X131965369Y-117293226D01*
X131592755Y-117293226D01*
X131592755Y-117282312D01*
X131594576Y-117265960D01*
X131596390Y-117247783D01*
X131598209Y-117231422D01*
X131600025Y-117215062D01*
X131601834Y-117200520D01*
X131603659Y-117184170D01*
X131607296Y-117167806D01*
X131609117Y-117151447D01*
X131612755Y-117135086D01*
X131616381Y-117118733D01*
X131621837Y-117104191D01*
X131625476Y-117087830D01*
X131629110Y-117071472D01*
X131634563Y-117058749D01*
X131638195Y-117044209D01*
X131643652Y-117031487D01*
X131647287Y-117018755D01*
X131652736Y-117006030D01*
X131658191Y-116991494D01*
X131663644Y-116978770D01*
X131669100Y-116966047D01*
X131676369Y-116953321D01*
X131681822Y-116940592D01*
X131689088Y-116927870D01*
X131696365Y-116915154D01*
X131705448Y-116900604D01*
X131712719Y-116886075D01*
X131721808Y-116871537D01*
X131730895Y-116858804D01*
X131739980Y-116844261D01*
X131747252Y-116836996D01*
X131752703Y-116827906D01*
X131758165Y-116820635D01*
X131765431Y-116813369D01*
X131770884Y-116806097D01*
X131778155Y-116798825D01*
X131783609Y-116791555D01*
X131790872Y-116784286D01*
X131798150Y-116777016D01*
X131803604Y-116769741D01*
X131810876Y-116762470D01*
X131818146Y-116757023D01*
X131825420Y-116749750D01*
X131832684Y-116744297D01*
X131839950Y-116738844D01*
X131847225Y-116731571D01*
X131854495Y-116726117D01*
X131861769Y-116720668D01*
X131870851Y-116715212D01*
X131881762Y-116707945D01*
X131890850Y-116702486D01*
X131899932Y-116695222D01*
X131910841Y-116689766D01*
X131919926Y-116684310D01*
X131929023Y-116678862D01*
X131939928Y-116673404D01*
X131952644Y-116667954D01*
X131965369Y-116660682D01*
X131978093Y-116655230D01*
X131990817Y-116649781D01*
X132003535Y-116644327D01*
X132010811Y-116640691D01*
X132018085Y-116638878D01*
X132025353Y-116635244D01*
X132032626Y-116633417D01*
X132039898Y-116631603D01*
X132047159Y-116629790D01*
X132054434Y-116627966D01*
X132061705Y-116626157D01*
X132068981Y-116624332D01*
X132076248Y-116622514D01*
X132083522Y-116620693D01*
X132090789Y-116618874D01*
X132098058Y-116618874D01*
X132105328Y-116617058D01*
X132112601Y-116617058D01*
X132119871Y-116615242D01*
X132134410Y-116615242D01*
X132148957Y-116613427D01*
X132163495Y-116613427D01*
X132178036Y-116613427D01*
X132192577Y-116613427D01*
X132208934Y-116613427D01*
X132210750Y-116613427D01*
X132227111Y-116613427D01*
X132243467Y-116615242D01*
X132261652Y-116615242D01*
X132270728Y-116617058D01*
X132281645Y-116617058D01*
X132290729Y-116618874D01*
X132299815Y-116620693D01*
X132310720Y-116622514D01*
X132319811Y-116624332D01*
X132327080Y-116624332D01*
X132336171Y-116626157D01*
X132343445Y-116627966D01*
X132350709Y-116631603D01*
X132357985Y-116633417D01*
X132365247Y-116635244D01*
X132374334Y-116637057D01*
X132383428Y-116640691D01*
X132392513Y-116644327D01*
X132401601Y-116647966D01*
X132410697Y-116651598D01*
X132419782Y-116655230D01*
X132428869Y-116658858D01*
X132441588Y-116666136D01*
X132454319Y-116671588D01*
X132465226Y-116678862D01*
X132477948Y-116684310D01*
X132490666Y-116691588D01*
X132503394Y-116698852D01*
X132514297Y-116706128D01*
X132525197Y-116713399D01*
X132534290Y-116720668D01*
X132545204Y-116726117D01*
X132554292Y-116733388D01*
X132563379Y-116740656D01*
X132572462Y-116747930D01*
X132581544Y-116755206D01*
X132590642Y-116764290D01*
X132599727Y-116771566D01*
X132608818Y-116780651D01*
X132617898Y-116787917D01*
X132626994Y-116797009D01*
X132636079Y-116806097D01*
X132643350Y-116815182D01*
X132652440Y-116824264D01*
X132659709Y-116833365D01*
X132670617Y-116846086D01*
X132681522Y-116858804D01*
X132692423Y-116873349D01*
X132703337Y-116886075D01*
X132712423Y-116900604D01*
X132723325Y-116915154D01*
X132732414Y-116927870D01*
X132739684Y-116942420D01*
X132748771Y-116955141D01*
X132756045Y-116969685D01*
X132763314Y-116982403D01*
X132772403Y-116996946D01*
X132779671Y-117011491D01*
X132785124Y-117026033D01*
X132790583Y-117038756D01*
X132796032Y-117049661D01*
X132801482Y-117062387D01*
X132806937Y-117075109D01*
X132812389Y-117087830D01*
X132816023Y-117100555D01*
X132819658Y-117113278D01*
X132823294Y-117126003D01*
X132828745Y-117138728D01*
X132832386Y-117155083D01*
X132836022Y-117171440D01*
X132839657Y-117187801D01*
X132843291Y-117204154D01*
X132845110Y-117220519D01*
X132848745Y-117236876D01*
X132850561Y-117253230D01*
X132852376Y-117269588D01*
X132857833Y-117309583D01*
X132859647Y-117349570D01*
X132863283Y-117389556D01*
X132865102Y-117429543D01*
X132865102Y-117464079D01*
X132865102Y-117500430D01*
X132865102Y-117534969D01*
X132863283Y-117569498D01*
X132861464Y-117587679D01*
X132859647Y-117604043D01*
X132859647Y-117622213D01*
X132856018Y-117638570D01*
X132854195Y-117654937D01*
X132852376Y-117671292D01*
X132848745Y-117689470D01*
X132846923Y-117702188D01*
X132843291Y-117714910D01*
X132841477Y-117727636D01*
X132837838Y-117740358D01*
X132834205Y-117753084D01*
X132830565Y-117765810D01*
X132826934Y-117778533D01*
X132821480Y-117791254D01*
X132817850Y-117802157D01*
X132814206Y-117813069D01*
X132810571Y-117823977D01*
X132805125Y-117834876D01*
X132801482Y-117845787D01*
X132796032Y-117856693D01*
X132790583Y-117865779D01*
X132786945Y-117876682D01*
X132781492Y-117887593D01*
X132768765Y-117907580D01*
X132757858Y-117929398D01*
X132745141Y-117949392D01*
X132732414Y-117971204D01*
X132717873Y-117991196D01*
X132705147Y-118011186D01*
X132690611Y-118031178D01*
X132677883Y-118047544D01*
X132665164Y-118063901D01*
X132652440Y-118080262D01*
X132639710Y-118096621D01*
X132625169Y-118111161D01*
X132612454Y-118127515D01*
X132597907Y-118142058D01*
X132583367Y-118156597D01*
X132568827Y-118171144D01*
X132554292Y-118185685D01*
X132539750Y-118200233D01*
X132523380Y-118214763D01*
X132507029Y-118227490D01*
X132492486Y-118240212D01*
X132476124Y-118252936D01*
X132459770Y-118265660D01*
X132439772Y-118280199D01*
X132419782Y-118294744D01*
X132399785Y-118309284D01*
X132379793Y-118322001D01*
X132359801Y-118334726D01*
X132337989Y-118347455D01*
X132317992Y-118358363D01*
X132292551Y-118372898D01*
X132265281Y-118389258D01*
X132241648Y-118401986D01*
X132227111Y-118411070D01*
X132219837Y-118416525D01*
X132212578Y-118420156D01*
X132205300Y-118425615D01*
X132198025Y-118429246D01*
X132188940Y-118432888D01*
X132181667Y-118436514D01*
X132174401Y-118440158D01*
X132070796Y-118485590D01*
X131959921Y-118529217D01*
X131932659Y-118540123D01*
X131903572Y-118551029D01*
X131874488Y-118560126D01*
X131805420Y-118581929D01*
X131736351Y-118601919D01*
X131669100Y-118620100D01*
X131601834Y-118636464D01*
X131536411Y-118651000D01*
X131470974Y-118665540D01*
X131405543Y-118676444D01*
X131341925Y-118687351D01*
X131191058Y-118707343D01*
X131154703Y-118710980D01*
X131118354Y-118714615D01*
X131080178Y-118718252D01*
X131023835Y-118720069D01*
X130965671Y-118721884D01*
X130794812Y-118723709D01*
X130587600Y-118721884D01*
X130533071Y-118720069D01*
X130478542Y-118716436D01*
X130424015Y-118710980D01*
X130369486Y-118707343D01*
X130316776Y-118700076D01*
X130264057Y-118692808D01*
X130071391Y-118660086D01*
X130027763Y-118651000D01*
X129982332Y-118641909D01*
X129875086Y-118614648D01*
X129766028Y-118585567D01*
X129669697Y-118556478D01*
X129640617Y-118547395D01*
X129611530Y-118536487D01*
X129584264Y-118525581D01*
X129555179Y-118514677D01*
X129486114Y-118485590D01*
X129418860Y-118456515D01*
X129353431Y-118425615D01*
X129287993Y-118394711D01*
X129267999Y-118383813D01*
X129249818Y-118372898D01*
X129229828Y-118361991D01*
X129209830Y-118351096D01*
X129191652Y-118338363D01*
X129171653Y-118325644D01*
X129149850Y-118312923D01*
X129131669Y-118300197D01*
X129111680Y-118285650D01*
X129091684Y-118271111D01*
X129073506Y-118256571D01*
X129053514Y-118242028D01*
X129035336Y-118225671D01*
X129017160Y-118211125D01*
X129000803Y-118196593D01*
X128986263Y-118183869D01*
X128971723Y-118169323D01*
X128957177Y-118154780D01*
X128942637Y-118138424D01*
X128928097Y-118123888D01*
X128913555Y-118109342D01*
X128900835Y-118092985D01*
X128886293Y-118076628D01*
X128873568Y-118060265D01*
X128862663Y-118047544D01*
X128851750Y-118033008D01*
X128842666Y-118018460D01*
X128831762Y-118003921D01*
X128820855Y-117989376D01*
X128811767Y-117973023D01*
X128802683Y-117958480D01*
X128793591Y-117943932D01*
X128784497Y-117927581D01*
X128775416Y-117911223D01*
X128768145Y-117896679D01*
X128760874Y-117883952D01*
X128755422Y-117871236D01*
X128748149Y-117856693D01*
X128742694Y-117843977D01*
X128737247Y-117831246D01*
X128731795Y-117818522D01*
X128726336Y-117803977D01*
X128722702Y-117791254D01*
X128717257Y-117776721D01*
X128713614Y-117763993D01*
X128708160Y-117749448D01*
X128704524Y-117736723D01*
X128700892Y-117722188D01*
X128697258Y-117702188D01*
X128691806Y-117682199D01*
X128688169Y-117662211D01*
X128684528Y-117642213D01*
X128680894Y-117620396D01*
X128677261Y-117600401D01*
X128675444Y-117580413D01*
X128673626Y-117558599D01*
X128671807Y-117538613D01*
X128671807Y-117518605D01*
X128669984Y-117496800D01*
X128669984Y-117476808D01*
X128669984Y-117454992D01*
X128669984Y-117433181D01*
X128671807Y-117411365D01*
X128671807Y-117389556D01*
X128673626Y-117369561D01*
X128677261Y-117347756D01*
X128679085Y-117320486D01*
X128684528Y-117293226D01*
X128685014Y-117289590D01*
X129066239Y-117289590D01*
X129066239Y-117307767D01*
X129066239Y-117324126D01*
X129068054Y-117342297D01*
X129068054Y-117344120D01*
X129068054Y-117347756D01*
X129068054Y-117349570D01*
X129068054Y-117353206D01*
X129068054Y-117356840D01*
X129069873Y-117358654D01*
X129069873Y-117362292D01*
X129069873Y-117364110D01*
X129069873Y-117365931D01*
X129071693Y-117369561D01*
X129071693Y-117371382D01*
X129071693Y-117373196D01*
X129073506Y-117375014D01*
X129073506Y-117376832D01*
X129073506Y-117380470D01*
X129075327Y-117382292D01*
X129075327Y-117384108D01*
X129077142Y-117389556D01*
X129078958Y-117393196D01*
X129080787Y-117398648D01*
X129084413Y-117402284D01*
X129086233Y-117407741D01*
X129088056Y-117411365D01*
X129089866Y-117415007D01*
X129091684Y-117420458D01*
X129095321Y-117424095D01*
X129097138Y-117427729D01*
X129098950Y-117433181D01*
X129102588Y-117436809D01*
X129104406Y-117440452D01*
X129108042Y-117444087D01*
X129111680Y-117449546D01*
X129115308Y-117454992D01*
X129118949Y-117460449D01*
X129124396Y-117465895D01*
X129128032Y-117471346D01*
X129131669Y-117476808D01*
X129137121Y-117480435D01*
X129140761Y-117485891D01*
X129146220Y-117491347D01*
X129149850Y-117494987D01*
X129155303Y-117500430D01*
X129160749Y-117504069D01*
X129164388Y-117507711D01*
X129169846Y-117513160D01*
X129173476Y-117514973D01*
X129177114Y-117518605D01*
X129180747Y-117520427D01*
X129184381Y-117524065D01*
X129188017Y-117525879D01*
X129193476Y-117529510D01*
X129197107Y-117531329D01*
X129200740Y-117534969D01*
X129204374Y-117536792D01*
X129211651Y-117540420D01*
X129217102Y-117544054D01*
X129224374Y-117547689D01*
X129229828Y-117549507D01*
X129231643Y-117551331D01*
X129233460Y-117551331D01*
X129235276Y-117553152D01*
X129237102Y-117553152D01*
X129238916Y-117553152D01*
X129240731Y-117554964D01*
X129242545Y-117554964D01*
X129244368Y-117554964D01*
X129246187Y-117554964D01*
X129248004Y-117556781D01*
X129251637Y-117556781D01*
X129253461Y-117556781D01*
X129255273Y-117556781D01*
X129258903Y-117558599D01*
X129260727Y-117558599D01*
X129262543Y-117558599D01*
X129266178Y-117558599D01*
X129267999Y-117558599D01*
X129269815Y-117558599D01*
X129315255Y-117558599D01*
X129324339Y-117558599D01*
X129335249Y-117558599D01*
X129344335Y-117558599D01*
X129353431Y-117558599D01*
X129364325Y-117556781D01*
X129373421Y-117556781D01*
X129377049Y-117554964D01*
X129378871Y-117554964D01*
X129382512Y-117554964D01*
X129384333Y-117554964D01*
X129387955Y-117553152D01*
X129391598Y-117553152D01*
X129393409Y-117553152D01*
X129397051Y-117551331D01*
X129398872Y-117551331D01*
X129402501Y-117549507D01*
X129404319Y-117549507D01*
X129407948Y-117547689D01*
X129409770Y-117547689D01*
X129413405Y-117545878D01*
X129415218Y-117545878D01*
X129418860Y-117544054D01*
X129420681Y-117542235D01*
X129424310Y-117542235D01*
X129426133Y-117540420D01*
X129427952Y-117538613D01*
X129431580Y-117536792D01*
X129433399Y-117536792D01*
X129437037Y-117534969D01*
X129438854Y-117533151D01*
X129440668Y-117531329D01*
X129444303Y-117529510D01*
X129446121Y-117527701D01*
X129447940Y-117527701D01*
X129449763Y-117525879D01*
X129453399Y-117524065D01*
X129460666Y-117516792D01*
X129467933Y-117511342D01*
X129475202Y-117504069D01*
X129482476Y-117498615D01*
X129489743Y-117491347D01*
X129497011Y-117484071D01*
X129500657Y-117480435D01*
X129506105Y-117474981D01*
X129511557Y-117469535D01*
X129515199Y-117464079D01*
X129520643Y-117458633D01*
X129524280Y-117453179D01*
X129527919Y-117447726D01*
X129533374Y-117442273D01*
X129533374Y-117440452D01*
X129535190Y-117438637D01*
X129537003Y-117435002D01*
X129538824Y-117433181D01*
X129540646Y-117429543D01*
X129542457Y-117427729D01*
X129544275Y-117424095D01*
X129546095Y-117422279D01*
X129546095Y-117418640D01*
X129547908Y-117416823D01*
X129549729Y-117413183D01*
X129551549Y-117411365D01*
X129551549Y-117407741D01*
X129553365Y-117405917D01*
X129553365Y-117402284D01*
X129555179Y-117400467D01*
X129556999Y-117396825D01*
X129556999Y-117393196D01*
X129558817Y-117391382D01*
X129558817Y-117387740D01*
X129558817Y-117384108D01*
X129560630Y-117382292D01*
X129560630Y-117378654D01*
X129562450Y-117375014D01*
X129562450Y-117373196D01*
X129562450Y-117369561D01*
X129564272Y-117365931D01*
X129564272Y-117362292D01*
X129564272Y-117360477D01*
X129564272Y-117356840D01*
X129566094Y-117347756D01*
X129566094Y-117340483D01*
X129566094Y-117331394D01*
X129566094Y-117322308D01*
X129566094Y-117313218D01*
X129566094Y-117305948D01*
X129566094Y-117296860D01*
X129566094Y-117289590D01*
X129566094Y-117280499D01*
X129564272Y-117273229D01*
X129564272Y-117265960D01*
X129562450Y-117258686D01*
X129562450Y-117249601D01*
X129560630Y-117242336D01*
X129560630Y-117238693D01*
X129558817Y-117235067D01*
X129558817Y-117231422D01*
X129556999Y-117227786D01*
X129556999Y-117224153D01*
X129555179Y-117220519D01*
X129555179Y-117216884D01*
X129553365Y-117213247D01*
X129551549Y-117209609D01*
X129551549Y-117205982D01*
X129549729Y-117202339D01*
X129547908Y-117198711D01*
X129546095Y-117195065D01*
X129546095Y-117191435D01*
X129544275Y-117189616D01*
X129542457Y-117185986D01*
X129540646Y-117182346D01*
X129538824Y-117180530D01*
X129538824Y-117176893D01*
X129537003Y-117175077D01*
X129535190Y-117171440D01*
X129533374Y-117167806D01*
X129531555Y-117165981D01*
X129529736Y-117162354D01*
X129527919Y-117160532D01*
X129524280Y-117155083D01*
X129520643Y-117151447D01*
X129517012Y-117147809D01*
X129513375Y-117142358D01*
X129511557Y-117138728D01*
X129507931Y-117135086D01*
X129504287Y-117131457D01*
X129500657Y-117126003D01*
X129497011Y-117122362D01*
X129493382Y-117120543D01*
X129489743Y-117116912D01*
X129486114Y-117113278D01*
X129482476Y-117111457D01*
X129480660Y-117107820D01*
X129477023Y-117106007D01*
X129473388Y-117102373D01*
X129469747Y-117100555D01*
X129466116Y-117096917D01*
X129462483Y-117095099D01*
X129458850Y-117091466D01*
X129455213Y-117089647D01*
X129451579Y-117087830D01*
X129447940Y-117086013D01*
X129444303Y-117082377D01*
X129438854Y-117080565D01*
X129435217Y-117078739D01*
X129429763Y-117075109D01*
X129424310Y-117073287D01*
X129420681Y-117071472D01*
X129415218Y-117069657D01*
X129409770Y-117066022D01*
X129406133Y-117064199D01*
X129400684Y-117062387D01*
X129395227Y-117060566D01*
X129389774Y-117058749D01*
X129384333Y-117058749D01*
X129380689Y-117056930D01*
X129375230Y-117055115D01*
X129369785Y-117053292D01*
X129364325Y-117053292D01*
X129360693Y-117051477D01*
X129355247Y-117049661D01*
X129349789Y-117049661D01*
X129344335Y-117047844D01*
X129340707Y-117047844D01*
X129335249Y-117047844D01*
X129329791Y-117046020D01*
X129324339Y-117046020D01*
X129318891Y-117046020D01*
X129315255Y-117046020D01*
X129311615Y-117046020D01*
X129307978Y-117046020D01*
X129306169Y-117046020D01*
X129302529Y-117046020D01*
X129300712Y-117046020D01*
X129297077Y-117046020D01*
X129293446Y-117046020D01*
X129291623Y-117046020D01*
X129287993Y-117046020D01*
X129286172Y-117047844D01*
X129282529Y-117047844D01*
X129280722Y-117047844D01*
X129277087Y-117047844D01*
X129273449Y-117049661D01*
X129271638Y-117049661D01*
X129267999Y-117049661D01*
X129266178Y-117051477D01*
X129262543Y-117051477D01*
X129260727Y-117053292D01*
X129257085Y-117053292D01*
X129251637Y-117055115D01*
X129248004Y-117056930D01*
X129242545Y-117058749D01*
X129237102Y-117060566D01*
X129233460Y-117064199D01*
X129228012Y-117066022D01*
X129222552Y-117067835D01*
X129218916Y-117069657D01*
X129213467Y-117073287D01*
X129209830Y-117075109D01*
X129204374Y-117076923D01*
X129200740Y-117080565D01*
X129195290Y-117082377D01*
X129191652Y-117086013D01*
X129186203Y-117089647D01*
X129182565Y-117091466D01*
X129177114Y-117095099D01*
X129173476Y-117098735D01*
X129169846Y-117102373D01*
X129164388Y-117106007D01*
X129160749Y-117109645D01*
X129157124Y-117111457D01*
X129153487Y-117115098D01*
X129149850Y-117120543D01*
X129144403Y-117124177D01*
X129140761Y-117127814D01*
X129137121Y-117131457D01*
X129133489Y-117135086D01*
X129129850Y-117138728D01*
X129126219Y-117144181D01*
X129122583Y-117147809D01*
X129120768Y-117151447D01*
X129117131Y-117156901D01*
X129113496Y-117160532D01*
X129109860Y-117165981D01*
X129106221Y-117171440D01*
X129102588Y-117176893D01*
X129098950Y-117182346D01*
X129097138Y-117185986D01*
X129093503Y-117191435D01*
X129089866Y-117196886D01*
X129088056Y-117202339D01*
X129084413Y-117207794D01*
X129082596Y-117213247D01*
X129080787Y-117216884D01*
X129078958Y-117222334D01*
X129077142Y-117225973D01*
X129075327Y-117231422D01*
X129073506Y-117233238D01*
X129073506Y-117235067D01*
X129073506Y-117236876D01*
X129071693Y-117238693D01*
X129071693Y-117240513D01*
X129071693Y-117242336D01*
X129071693Y-117244146D01*
X129069873Y-117245964D01*
X129069873Y-117247783D01*
X129069873Y-117249601D01*
X129069873Y-117253230D01*
X129068054Y-117255053D01*
X129068054Y-117258686D01*
X129068054Y-117260501D01*
X129068054Y-117264140D01*
X129068054Y-117265960D01*
X129068054Y-117269588D01*
X129068054Y-117271411D01*
X129066239Y-117289590D01*
X128685014Y-117289590D01*
X128688169Y-117265960D01*
X128693626Y-117238693D01*
X128699075Y-117211426D01*
X128713614Y-117142358D01*
X128715428Y-117133269D01*
X128717257Y-117122362D01*
X128720885Y-117113278D01*
X128722702Y-117102373D01*
X128724524Y-117096917D01*
X128728156Y-117089647D01*
X128729973Y-117082377D01*
X128731795Y-117076923D01*
X128735428Y-117069657D01*
X128744515Y-117047844D01*
X128753606Y-117026033D01*
X128759062Y-117013309D01*
X128766326Y-117000586D01*
X128771784Y-116987858D01*
X128779051Y-116975135D01*
X128786312Y-116962416D01*
X128793591Y-116949689D01*
X128800861Y-116936966D01*
X128809953Y-116926064D01*
X128817224Y-116913342D01*
X128824490Y-116900604D01*
X128833578Y-116889708D01*
X128842666Y-116878804D01*
X128849942Y-116867894D01*
X128859029Y-116856994D01*
X128866293Y-116847906D01*
X128875382Y-116836996D01*
X128884476Y-116827906D01*
X128893564Y-116817000D01*
X128902650Y-116807914D01*
X128911742Y-116798825D01*
X128920829Y-116789738D01*
X128929916Y-116780651D01*
X128940819Y-116771566D01*
X128949911Y-116762470D01*
X128960818Y-116755206D01*
X128969897Y-116746117D01*
X128978989Y-116738844D01*
X128989901Y-116731571D01*
X129000803Y-116724298D01*
X129009891Y-116717027D01*
X129020797Y-116709756D01*
X129031706Y-116702486D01*
X129042606Y-116695222D01*
X129053514Y-116689766D01*
X129064424Y-116682500D01*
X129075327Y-116677041D01*
X129086233Y-116671588D01*
X129097138Y-116666136D01*
X129106221Y-116660682D01*
X129115308Y-116657049D01*
X129124396Y-116653416D01*
X129133489Y-116649781D01*
X129140761Y-116646147D01*
X129149850Y-116642513D01*
X129158938Y-116640691D01*
X129168028Y-116637057D01*
X129178934Y-116633417D01*
X129188017Y-116631603D01*
X129197107Y-116629790D01*
X129206197Y-116626157D01*
X129215281Y-116624332D01*
X129224374Y-116622514D01*
X129233460Y-116620693D01*
X129244368Y-116618874D01*
X129260727Y-116617058D01*
X129275263Y-116613427D01*
X129291623Y-116611611D01*
X129300712Y-116611611D01*
X129307978Y-116609794D01*
X129309799Y-116609794D01*
X129317066Y-116609794D01*
X129326155Y-116609794D01*
X129333429Y-116609794D01*
X129342520Y-116609794D01*
X129349789Y-116609794D01*
X129358880Y-116609794D01*
X129366147Y-116609794D01*
X129375230Y-116611611D01*
G37*
G36*
X130962033Y-114846677D02*
G01*
X131005659Y-114848497D01*
X131051095Y-114850318D01*
X131096533Y-114855764D01*
X131140170Y-114859408D01*
X131185602Y-114864862D01*
X131243773Y-114873943D01*
X131303746Y-114883036D01*
X131361910Y-114895752D01*
X131420081Y-114906667D01*
X131480060Y-114921207D01*
X131540045Y-114935750D01*
X131600025Y-114952100D01*
X131658191Y-114970285D01*
X131718172Y-114988450D01*
X131778155Y-115008453D01*
X131836322Y-115030263D01*
X131894482Y-115052077D01*
X131949013Y-115073883D01*
X132001728Y-115095702D01*
X132054434Y-115119323D01*
X132105328Y-115142956D01*
X132156225Y-115168401D01*
X132205300Y-115193847D01*
X132256195Y-115221113D01*
X132305275Y-115248376D01*
X132354345Y-115277464D01*
X132428869Y-115324719D01*
X132503394Y-115373791D01*
X132563379Y-115413778D01*
X132621541Y-115455589D01*
X132654251Y-115479217D01*
X132686974Y-115504666D01*
X132719689Y-115530114D01*
X132750593Y-115555568D01*
X132781492Y-115582825D01*
X132812389Y-115610085D01*
X132865102Y-115659165D01*
X132915994Y-115708240D01*
X132957805Y-115750048D01*
X132997793Y-115791849D01*
X133037782Y-115833661D01*
X133077763Y-115877281D01*
X133115935Y-115920906D01*
X133154105Y-115966347D01*
X133183189Y-116002702D01*
X133212269Y-116039048D01*
X133239536Y-116075407D01*
X133266796Y-116113577D01*
X133292242Y-116151747D01*
X133319512Y-116189917D01*
X133343136Y-116229903D01*
X133368595Y-116269890D01*
X133392213Y-116309887D01*
X133414027Y-116351686D01*
X133437659Y-116393490D01*
X133457648Y-116435302D01*
X133479465Y-116477101D01*
X133499462Y-116518906D01*
X133528539Y-116586165D01*
X133555798Y-116651598D01*
X133583070Y-116718847D01*
X133606697Y-116786098D01*
X133630329Y-116853355D01*
X133648510Y-116906067D01*
X133664868Y-116960597D01*
X133679407Y-117015125D01*
X133695765Y-117071472D01*
X133708484Y-117126003D01*
X133721203Y-117182346D01*
X133732117Y-117236876D01*
X133743025Y-117289590D01*
X133750293Y-117333214D01*
X133759381Y-117382292D01*
X133766651Y-117429543D01*
X133773918Y-117465895D01*
X133779375Y-117496800D01*
X133783011Y-117522247D01*
X133788464Y-117545878D01*
X133788464Y-117547689D01*
X133790278Y-117547689D01*
X133792095Y-117547689D01*
X133793913Y-117547689D01*
X133795732Y-117547689D01*
X133797551Y-117545878D01*
X133799367Y-117545878D01*
X133799367Y-117544054D01*
X133801185Y-117544054D01*
X133803006Y-117542235D01*
X133804820Y-117540420D01*
X133808455Y-117536792D01*
X133812089Y-117534969D01*
X133815728Y-117531329D01*
X133819358Y-117529510D01*
X133822998Y-117525879D01*
X133826636Y-117524065D01*
X133935690Y-117447726D01*
X134044754Y-117371382D01*
X134048386Y-117369561D01*
X134052021Y-117365931D01*
X134055659Y-117364110D01*
X134061111Y-117362292D01*
X134064741Y-117358654D01*
X134068378Y-117356840D01*
X134072017Y-117355020D01*
X134073832Y-117353206D01*
X134077470Y-117351387D01*
X134092011Y-117342297D01*
X134110182Y-117331394D01*
X134128360Y-117320486D01*
X134159259Y-117300500D01*
X134193803Y-117280499D01*
X134226516Y-117260501D01*
X134248323Y-117247783D01*
X134271955Y-117236876D01*
X134293766Y-117225973D01*
X134317395Y-117215062D01*
X134333753Y-117205982D01*
X134350113Y-117198711D01*
X134368291Y-117191435D01*
X134384644Y-117185986D01*
X134402824Y-117178707D01*
X134419178Y-117173261D01*
X134435542Y-117167806D01*
X134453720Y-117162354D01*
X134470077Y-117156901D01*
X134488260Y-117153263D01*
X134513702Y-117145997D01*
X134537327Y-117140543D01*
X134542781Y-117138728D01*
X134548234Y-117138728D01*
X134553687Y-117136906D01*
X134559144Y-117136906D01*
X134564592Y-117136906D01*
X134571856Y-117135086D01*
X134579131Y-117135086D01*
X134586408Y-117135086D01*
X134593680Y-117133269D01*
X134600950Y-117133269D01*
X134608220Y-117133269D01*
X134673652Y-117135086D01*
X134733633Y-117136906D01*
X134742724Y-117138728D01*
X134751813Y-117138728D01*
X134760901Y-117140543D01*
X134769990Y-117140543D01*
X134775439Y-117142358D01*
X134779074Y-117142358D01*
X134784527Y-117142358D01*
X134789984Y-117144181D01*
X134793617Y-117145997D01*
X134799069Y-117145997D01*
X134808160Y-117149635D01*
X134815427Y-117151447D01*
X134824516Y-117153263D01*
X134833598Y-117156901D01*
X134840872Y-117158716D01*
X134848140Y-117162354D01*
X134857233Y-117165981D01*
X134864507Y-117167806D01*
X134871780Y-117171440D01*
X134879053Y-117175077D01*
X134886320Y-117178707D01*
X134895406Y-117182346D01*
X134902673Y-117185986D01*
X134909947Y-117189616D01*
X134917213Y-117195065D01*
X134924486Y-117198711D01*
X134931752Y-117202339D01*
X134939035Y-117207794D01*
X134944475Y-117211426D01*
X134951753Y-117216884D01*
X134959018Y-117222334D01*
X134966294Y-117225973D01*
X134973562Y-117231422D01*
X134979016Y-117236876D01*
X134986286Y-117244146D01*
X134993553Y-117249601D01*
X135000826Y-117255053D01*
X135006283Y-117260501D01*
X135013548Y-117267776D01*
X135020824Y-117273229D01*
X135026273Y-117280499D01*
X135031727Y-117285949D01*
X135039000Y-117293226D01*
X135044454Y-117300500D01*
X135049907Y-117307767D01*
X135055351Y-117313218D01*
X135060812Y-117320486D01*
X135066262Y-117327756D01*
X135071721Y-117335027D01*
X135077172Y-117344120D01*
X135084440Y-117351387D01*
X135089893Y-117360477D01*
X135095349Y-117369561D01*
X135098984Y-117376832D01*
X135104438Y-117385923D01*
X135109889Y-117395011D01*
X135113524Y-117404098D01*
X135118980Y-117413183D01*
X135122612Y-117422279D01*
X135128062Y-117431367D01*
X135131701Y-117440452D01*
X135135335Y-117449546D01*
X135138973Y-117458633D01*
X135142599Y-117467717D01*
X135146234Y-117476808D01*
X135149868Y-117489529D01*
X135155324Y-117502257D01*
X135158957Y-117514973D01*
X135162591Y-117527701D01*
X135164416Y-117540420D01*
X135168053Y-117553152D01*
X135171692Y-117565866D01*
X135173502Y-117578590D01*
X135177145Y-117591317D01*
X135178957Y-117605859D01*
X135180774Y-117618580D01*
X135182592Y-117631303D01*
X135184403Y-117644023D01*
X135186231Y-117664025D01*
X135186231Y-117684016D01*
X135188043Y-117702188D01*
X135189866Y-117722188D01*
X135189866Y-117740358D01*
X135189866Y-117776721D01*
X135188043Y-117813069D01*
X135186231Y-117849426D01*
X135184403Y-117887593D01*
X135180774Y-117925764D01*
X135177145Y-117962111D01*
X135171692Y-118000282D01*
X135166227Y-118036636D01*
X135160779Y-118072988D01*
X135153509Y-118107522D01*
X135146234Y-118142058D01*
X135124423Y-118227490D01*
X135100797Y-118311102D01*
X135095349Y-118331095D01*
X135088076Y-118351096D01*
X135080805Y-118371084D01*
X135071721Y-118396529D01*
X135060812Y-118429246D01*
X135048084Y-118463782D01*
X135037180Y-118492865D01*
X135029910Y-118512866D01*
X135020824Y-118534676D01*
X135013548Y-118554664D01*
X135004469Y-118574667D01*
X134946301Y-118696442D01*
X134882683Y-118821857D01*
X134866326Y-118852754D01*
X134848140Y-118883659D01*
X134829972Y-118914557D01*
X134811789Y-118945456D01*
X134795440Y-118972728D01*
X134782713Y-118996348D01*
X134782713Y-118998167D01*
X134780896Y-118998167D01*
X134780896Y-118999989D01*
X134780896Y-119001804D01*
X134780896Y-119003620D01*
X134730000Y-119078153D01*
X134679098Y-119150845D01*
X134635486Y-119214471D01*
X134600950Y-119261724D01*
X134564592Y-119308983D01*
X134528242Y-119356244D01*
X134464620Y-119430765D01*
X134401014Y-119503474D01*
X134335575Y-119576174D01*
X134266503Y-119647065D01*
X134224699Y-119688868D01*
X134181073Y-119730676D01*
X134137450Y-119770661D01*
X134053832Y-119845187D01*
X134059294Y-119877906D01*
X134061111Y-119894260D01*
X134062927Y-119908807D01*
X134064741Y-119925164D01*
X134066561Y-119941524D01*
X134068378Y-119957884D01*
X134073832Y-120099662D01*
X134079290Y-120248702D01*
X134079290Y-120310505D01*
X134077470Y-120370481D01*
X134075649Y-120425008D01*
X134073832Y-120477730D01*
X134070202Y-120532257D01*
X134064741Y-120584964D01*
X134059294Y-120637677D01*
X134052021Y-120692211D01*
X134044754Y-120743093D01*
X134035664Y-120793990D01*
X134026573Y-120844891D01*
X134015663Y-120895783D01*
X134004762Y-120946673D01*
X133992038Y-120997571D01*
X133981133Y-121039383D01*
X133968411Y-121079365D01*
X133955683Y-121121166D01*
X133942963Y-121162978D01*
X133928414Y-121202963D01*
X133913880Y-121244772D01*
X133897519Y-121284759D01*
X133881158Y-121322930D01*
X133864809Y-121361102D01*
X133846621Y-121401089D01*
X133828457Y-121437445D01*
X133810273Y-121475610D01*
X133790278Y-121513784D01*
X133770288Y-121550134D01*
X133750293Y-121584670D01*
X133730299Y-121617384D01*
X133708484Y-121651920D01*
X133688490Y-121684634D01*
X133666684Y-121717359D01*
X133643047Y-121748257D01*
X133621244Y-121779160D01*
X133597613Y-121810053D01*
X133573982Y-121839139D01*
X133548539Y-121870036D01*
X133523087Y-121899118D01*
X133497640Y-121928198D01*
X133470372Y-121957286D01*
X133441294Y-121984548D01*
X133414027Y-122013626D01*
X133384947Y-122040893D01*
X133350406Y-122073618D01*
X133321330Y-122102697D01*
X133297702Y-122126328D01*
X133295885Y-122126328D01*
X133295885Y-122128144D01*
X133295885Y-122129962D01*
X133295885Y-122131775D01*
X133297702Y-122131775D01*
X133306794Y-122144499D01*
X133319512Y-122159042D01*
X133332234Y-122177218D01*
X133337690Y-122182666D01*
X133343136Y-122188121D01*
X133346779Y-122195394D01*
X133352236Y-122200843D01*
X133357684Y-122206301D01*
X133361321Y-122213574D01*
X133364958Y-122219021D01*
X133370407Y-122226297D01*
X133374037Y-122233570D01*
X133377681Y-122239013D01*
X133381308Y-122246291D01*
X133386770Y-122253559D01*
X133390400Y-122262647D01*
X133394032Y-122269920D01*
X133397667Y-122277190D01*
X133401303Y-122286276D01*
X133404936Y-122293547D01*
X133408577Y-122300820D01*
X133412212Y-122309905D01*
X133415851Y-122317179D01*
X133417659Y-122326265D01*
X133421306Y-122335353D01*
X133423121Y-122344440D01*
X133426753Y-122351714D01*
X133428571Y-122360804D01*
X133432201Y-122369889D01*
X133434023Y-122378979D01*
X133435844Y-122388057D01*
X133437659Y-122397153D01*
X133439473Y-122406238D01*
X133441294Y-122413508D01*
X133441294Y-122424415D01*
X133443114Y-122435327D01*
X133444936Y-122446226D01*
X133444936Y-122455315D01*
X133446741Y-122466226D01*
X133446741Y-122477136D01*
X133448564Y-122486222D01*
X133448564Y-122497126D01*
X133448564Y-122508027D01*
X133448564Y-122528024D01*
X133446741Y-122548016D01*
X133446741Y-122555294D01*
X133446741Y-122562562D01*
X133446741Y-122569824D01*
X133444936Y-122577097D01*
X133444936Y-122582553D01*
X133443114Y-122588010D01*
X133443114Y-122593456D01*
X133441294Y-122598917D01*
X133441294Y-122604369D01*
X133439473Y-122611635D01*
X133437659Y-122618900D01*
X133434023Y-122626170D01*
X133432201Y-122633444D01*
X133430390Y-122644352D01*
X133426753Y-122653441D01*
X133423121Y-122664345D01*
X133419481Y-122673436D01*
X133415851Y-122682522D01*
X133412212Y-122693429D01*
X133406760Y-122702514D01*
X133403124Y-122711602D01*
X133397667Y-122720694D01*
X133394032Y-122729784D01*
X133388578Y-122740688D01*
X133384947Y-122747960D01*
X133381308Y-122755230D01*
X133375857Y-122760675D01*
X133372232Y-122767955D01*
X133366772Y-122775224D01*
X133363138Y-122782487D01*
X133357684Y-122789766D01*
X133352236Y-122795211D01*
X133346779Y-122802488D01*
X133343136Y-122809759D01*
X133337690Y-122815211D01*
X133332234Y-122822485D01*
X133326783Y-122827932D01*
X133319512Y-122835204D01*
X133312241Y-122842476D01*
X133306794Y-122847925D01*
X133299526Y-122855200D01*
X133292242Y-122862468D01*
X133284978Y-122867921D01*
X133277706Y-122875189D01*
X133270437Y-122880645D01*
X133263167Y-122886097D01*
X133255901Y-122891552D01*
X133248626Y-122897004D01*
X133241355Y-122902454D01*
X133226817Y-122913361D01*
X133214086Y-122922452D01*
X133199548Y-122929719D01*
X133186823Y-122938807D01*
X133172282Y-122946082D01*
X133157744Y-122955166D01*
X133143199Y-122962440D01*
X133128658Y-122969707D01*
X133105033Y-122980617D01*
X133081400Y-122993341D01*
X133057767Y-123002420D01*
X133032325Y-123013335D01*
X133008698Y-123022423D01*
X132983245Y-123031511D01*
X132957805Y-123040600D01*
X132932353Y-123049686D01*
X132908726Y-123056953D01*
X132883288Y-123064227D01*
X132857833Y-123071493D01*
X132830565Y-123078766D01*
X132805125Y-123084222D01*
X132779671Y-123089672D01*
X132754223Y-123095124D01*
X132708782Y-123102398D01*
X132665164Y-123109666D01*
X132619726Y-123116937D01*
X132574279Y-123122396D01*
X132530654Y-123126028D01*
X132485219Y-123129663D01*
X132439772Y-123133296D01*
X132394337Y-123135112D01*
X132348899Y-123136931D01*
X132305275Y-123136931D01*
X132259830Y-123135112D01*
X132216201Y-123135112D01*
X132170766Y-123131483D01*
X132125325Y-123129663D01*
X132081705Y-123126028D01*
X132038074Y-123120574D01*
X131992634Y-123115119D01*
X131949013Y-123107851D01*
X131905386Y-123102398D01*
X131861769Y-123093315D01*
X131838133Y-123089672D01*
X131816327Y-123084222D01*
X131794514Y-123078766D01*
X131772701Y-123073314D01*
X131752703Y-123067863D01*
X131730895Y-123060589D01*
X131709085Y-123053317D01*
X131687268Y-123047863D01*
X131667283Y-123038780D01*
X131645467Y-123031511D01*
X131625476Y-123024237D01*
X131603659Y-123015157D01*
X131583668Y-123006066D01*
X131563673Y-122996974D01*
X131543681Y-122986066D01*
X131523683Y-122976985D01*
X131503691Y-122966069D01*
X131489154Y-122958799D01*
X131474611Y-122949720D01*
X131460070Y-122942447D01*
X131438260Y-122927903D01*
X131414623Y-122911544D01*
X131394634Y-122898818D01*
X131372824Y-122884280D01*
X131369184Y-122880645D01*
X131363727Y-122877011D01*
X131358281Y-122871553D01*
X131354647Y-122867921D01*
X131349194Y-122864283D01*
X131345558Y-122860648D01*
X131327376Y-122844297D01*
X131196508Y-122857016D01*
X131145615Y-122860648D01*
X131092903Y-122864283D01*
X131042011Y-122864283D01*
X130805713Y-122867921D01*
X130569429Y-122867921D01*
X130533071Y-122866103D01*
X130496720Y-122864283D01*
X130460368Y-122862468D01*
X130422199Y-122860648D01*
X130382207Y-122857016D01*
X130342224Y-122853384D01*
X130304049Y-122849746D01*
X130280418Y-122847925D01*
X130231340Y-122844297D01*
X130184083Y-122880645D01*
X130169546Y-122891552D01*
X130155004Y-122902454D01*
X130140464Y-122913361D01*
X130125919Y-122922452D01*
X130109561Y-122933354D01*
X130095020Y-122942447D01*
X130078657Y-122951534D01*
X130062304Y-122960619D01*
X130045953Y-122969707D01*
X130029589Y-122976985D01*
X130013229Y-122986066D01*
X129995053Y-122993341D01*
X129973235Y-123004241D01*
X129951428Y-123013335D01*
X129929620Y-123022423D01*
X129907806Y-123029689D01*
X129884177Y-123038780D01*
X129853273Y-123047863D01*
X129820561Y-123058770D01*
X129787838Y-123067863D01*
X129755120Y-123076948D01*
X129693324Y-123091494D01*
X129631526Y-123106033D01*
X129604259Y-123111477D01*
X129578811Y-123115119D01*
X129553365Y-123118752D01*
X129526097Y-123122396D01*
X129498834Y-123126028D01*
X129471575Y-123127842D01*
X129442489Y-123129663D01*
X129415218Y-123131483D01*
X129342520Y-123133296D01*
X129271638Y-123135112D01*
X129151668Y-123133296D01*
X129126219Y-123133296D01*
X129098950Y-123131483D01*
X129071693Y-123129663D01*
X129044431Y-123127842D01*
X129018981Y-123124206D01*
X128991717Y-123120574D01*
X128875382Y-123104217D01*
X128828123Y-123096941D01*
X128780869Y-123087859D01*
X128733610Y-123078766D01*
X128700892Y-123071493D01*
X128669984Y-123064227D01*
X128637275Y-123055137D01*
X128606377Y-123046050D01*
X128577291Y-123036963D01*
X128550032Y-123027875D01*
X128520947Y-123018787D01*
X128493686Y-123007875D01*
X128477323Y-123000606D01*
X128460962Y-122995152D01*
X128444607Y-122987878D01*
X128428245Y-122980617D01*
X128411885Y-122971532D01*
X128397344Y-122964259D01*
X128339185Y-122933354D01*
X128331910Y-122929719D01*
X128326464Y-122924270D01*
X128319194Y-122920634D01*
X128311916Y-122916998D01*
X128306462Y-122911544D01*
X128301005Y-122909723D01*
X128295563Y-122906093D01*
X128291919Y-122902454D01*
X128286474Y-122898818D01*
X128282830Y-122895186D01*
X128277387Y-122891552D01*
X128259203Y-122875189D01*
X128242847Y-122858837D01*
X128235577Y-122851566D01*
X128228306Y-122844297D01*
X128221036Y-122838839D01*
X128215581Y-122831571D01*
X128208307Y-122822485D01*
X128201044Y-122815211D01*
X128195588Y-122807934D01*
X128188318Y-122800672D01*
X128182864Y-122793402D01*
X128177412Y-122784313D01*
X128171960Y-122778855D01*
X128168326Y-122771590D01*
X128164688Y-122766142D01*
X128159242Y-122758865D01*
X128155607Y-122751585D01*
X128151963Y-122746138D01*
X128148328Y-122738867D01*
X128144700Y-122731601D01*
X128141061Y-122724330D01*
X128137426Y-122717058D01*
X128133783Y-122709786D01*
X128131973Y-122704334D01*
X128128338Y-122697061D01*
X128124700Y-122689792D01*
X128122881Y-122682522D01*
X128119243Y-122675255D01*
X128117428Y-122666168D01*
X128115610Y-122658894D01*
X128113802Y-122651622D01*
X128110159Y-122644352D01*
X128108343Y-122637079D01*
X128106521Y-122629809D01*
X128106521Y-122622541D01*
X128104709Y-122613457D01*
X128102887Y-122604369D01*
X128101069Y-122593456D01*
X128099257Y-122584366D01*
X128099257Y-122573458D01*
X128097440Y-122564382D01*
X128097440Y-122553471D01*
X128095618Y-122544385D01*
X128095618Y-122533476D01*
X128095618Y-122524391D01*
X128095618Y-122513493D01*
X128095618Y-122504393D01*
X128095618Y-122493489D01*
X128095618Y-122484403D01*
X128097440Y-122475320D01*
X128097440Y-122464402D01*
X128097440Y-122455315D01*
X128099257Y-122446226D01*
X128101069Y-122435327D01*
X128102887Y-122426235D01*
X128102887Y-122417146D01*
X128104709Y-122408053D01*
X128106521Y-122400789D01*
X128108343Y-122391699D01*
X128110159Y-122384424D01*
X128113802Y-122375342D01*
X128115610Y-122368075D01*
X128117428Y-122358982D01*
X128121061Y-122351714D01*
X128122881Y-122342621D01*
X128126512Y-122335353D01*
X128130149Y-122326265D01*
X128131973Y-122318995D01*
X128135605Y-122311726D01*
X128139246Y-122304453D01*
X128142873Y-122295365D01*
X128146513Y-122288091D01*
X128150147Y-122280823D01*
X128153787Y-122273553D01*
X128159242Y-122266283D01*
X128162881Y-122259016D01*
X128166502Y-122251744D01*
X128171960Y-122244467D01*
X128177412Y-122237200D01*
X128182864Y-122229929D01*
X128188318Y-122222658D01*
X128193772Y-122213574D01*
X128199228Y-122206301D01*
X128204674Y-122199034D01*
X128211952Y-122191759D01*
X128217398Y-122184485D01*
X128224664Y-122179036D01*
X128230127Y-122171766D01*
X128273746Y-122126328D01*
X128246479Y-122102697D01*
X128231941Y-122088157D01*
X128204674Y-122064526D01*
X128173776Y-122035438D01*
X128141061Y-122006357D01*
X128119243Y-121986369D01*
X128097440Y-121966369D01*
X128075623Y-121944558D01*
X128053813Y-121922749D01*
X128033820Y-121900935D01*
X128013827Y-121879128D01*
X127993833Y-121855496D01*
X127975649Y-121831861D01*
X127952021Y-121802790D01*
X127928395Y-121773708D01*
X127906585Y-121744615D01*
X127884768Y-121713721D01*
X127864780Y-121682819D01*
X127842964Y-121651920D01*
X127822979Y-121621026D01*
X127801159Y-121582851D01*
X127777528Y-121544680D01*
X127755720Y-121504686D01*
X127733910Y-121466521D01*
X127713917Y-121426536D01*
X127695736Y-121384729D01*
X127675743Y-121344743D01*
X127659379Y-121304756D01*
X127641214Y-121262948D01*
X127624846Y-121221137D01*
X127610306Y-121179335D01*
X127595768Y-121137525D01*
X127568507Y-121053918D01*
X127550327Y-120988485D01*
X127532150Y-120921230D01*
X127512154Y-120835802D01*
X127512154Y-120833979D01*
X127510341Y-120832163D01*
X127510341Y-120830351D01*
X127510341Y-120828525D01*
X127508516Y-120828525D01*
X127508516Y-120826713D01*
X127508516Y-120824897D01*
X127506701Y-120824897D01*
X127506701Y-120823077D01*
X127504885Y-120823077D01*
X127504885Y-120821259D01*
X127503067Y-120821259D01*
X127501248Y-120821259D01*
X127499433Y-120821259D01*
X127497615Y-120821259D01*
X127495798Y-120821259D01*
X127477624Y-120830351D01*
X127457631Y-120839432D01*
X127433998Y-120850346D01*
X127406734Y-120864882D01*
X127377654Y-120877605D01*
X127314034Y-120906688D01*
X127252231Y-120932140D01*
X127235870Y-120937587D01*
X127219511Y-120943044D01*
X127203158Y-120948498D01*
X127183165Y-120955762D01*
X127163171Y-120961217D01*
X127144992Y-120964851D01*
X127135904Y-120966669D01*
X127128640Y-120968486D01*
X127121366Y-120970303D01*
X127112278Y-120972130D01*
X127105008Y-120973938D01*
X127095916Y-120973938D01*
X127085013Y-120975760D01*
X127075920Y-120977574D01*
X127065015Y-120977574D01*
X127054110Y-120979402D01*
X127045025Y-120979402D01*
X127008669Y-120979402D01*
X126974134Y-120979402D01*
X126914157Y-120979402D01*
X126906882Y-120979402D01*
X126901428Y-120977574D01*
X126894161Y-120977574D01*
X126886887Y-120977574D01*
X126879616Y-120975760D01*
X126875983Y-120975760D01*
X126870531Y-120975760D01*
X126866889Y-120973938D01*
X126863261Y-120973938D01*
X126859621Y-120972130D01*
X126854173Y-120972130D01*
X126850540Y-120970303D01*
X126841449Y-120968486D01*
X126834170Y-120966669D01*
X126825092Y-120964851D01*
X126816005Y-120961217D01*
X126810545Y-120959405D01*
X126803274Y-120957587D01*
X126797820Y-120953945D01*
X126790547Y-120952127D01*
X126781470Y-120948498D01*
X126770563Y-120943044D01*
X126761469Y-120939404D01*
X126752387Y-120933951D01*
X126741472Y-120928499D01*
X126732386Y-120923045D01*
X126726939Y-120919411D01*
X126719663Y-120915773D01*
X126714214Y-120912138D01*
X126708761Y-120908503D01*
X126699674Y-120903051D01*
X126692397Y-120897595D01*
X126683314Y-120892147D01*
X126676047Y-120886694D01*
X126668774Y-120881243D01*
X126661504Y-120873969D01*
X126654231Y-120868515D01*
X126646955Y-120861248D01*
X126639690Y-120855798D01*
X126632420Y-120848527D01*
X126625146Y-120841254D01*
X126617879Y-120835802D01*
X126610607Y-120828525D01*
X126605153Y-120821259D01*
X126599696Y-120815806D01*
X126594250Y-120808531D01*
X126590611Y-120803083D01*
X126585160Y-120797630D01*
X126579707Y-120792174D01*
X126576073Y-120784912D01*
X126572438Y-120779449D01*
X126566984Y-120772178D01*
X126563356Y-120766734D01*
X126559711Y-120759456D01*
X126554256Y-120754007D01*
X126550620Y-120746738D01*
X126546988Y-120741284D01*
X126543349Y-120734014D01*
X126539719Y-120726742D01*
X126536083Y-120721292D01*
X126534265Y-120714020D01*
X126530627Y-120704931D01*
X126527001Y-120695848D01*
X126523366Y-120688570D01*
X126519732Y-120679477D01*
X126516091Y-120670393D01*
X126512457Y-120661309D01*
X126510643Y-120652227D01*
X126507009Y-120644946D01*
X126505184Y-120635863D01*
X126503373Y-120626773D01*
X126499727Y-120617683D01*
X126497908Y-120608599D01*
X126496098Y-120599506D01*
X126494275Y-120590420D01*
X126492455Y-120581335D01*
X126490643Y-120563153D01*
X126487008Y-120544979D01*
X126485197Y-120526803D01*
X126483369Y-120508625D01*
X126481557Y-120490451D01*
X126481557Y-120472272D01*
X126479734Y-120452281D01*
X126479734Y-120434106D01*
X126479734Y-120415932D01*
X126479734Y-120401389D01*
X126696038Y-120401389D01*
X126696038Y-120421379D01*
X126696038Y-120432282D01*
X126696038Y-120443191D01*
X126697852Y-120454095D01*
X126697852Y-120463187D01*
X126699674Y-120474091D01*
X126699674Y-120484999D01*
X126701484Y-120495902D01*
X126703306Y-120506814D01*
X126705128Y-120517711D01*
X126706943Y-120528614D01*
X126708761Y-120537708D01*
X126710582Y-120548617D01*
X126712403Y-120559520D01*
X126716029Y-120570419D01*
X126717847Y-120579512D01*
X126719663Y-120584964D01*
X126721482Y-120588604D01*
X126721482Y-120594052D01*
X126723299Y-120597690D01*
X126725125Y-120601328D01*
X126726939Y-120604964D01*
X126728756Y-120610413D01*
X126730565Y-120614050D01*
X126732386Y-120617683D01*
X126734208Y-120623140D01*
X126736021Y-120626773D01*
X126737848Y-120630404D01*
X126739658Y-120634040D01*
X126743295Y-120637677D01*
X126745114Y-120641315D01*
X126746932Y-120644946D01*
X126748747Y-120650404D01*
X126752387Y-120654034D01*
X126754203Y-120657674D01*
X126757840Y-120661309D01*
X126759653Y-120664942D01*
X126763291Y-120668577D01*
X126765110Y-120672212D01*
X126768743Y-120674030D01*
X126770563Y-120677660D01*
X126774194Y-120681300D01*
X126777830Y-120684934D01*
X126779643Y-120688570D01*
X126783280Y-120692211D01*
X126786917Y-120694030D01*
X126788733Y-120697661D01*
X126792369Y-120699484D01*
X126796005Y-120703112D01*
X126797820Y-120704931D01*
X126801457Y-120706749D01*
X126805093Y-120710384D01*
X126806914Y-120712200D01*
X126810545Y-120714020D01*
X126814181Y-120717659D01*
X126817814Y-120719474D01*
X126821460Y-120721292D01*
X126825092Y-120723107D01*
X126826906Y-120724930D01*
X126830539Y-120726742D01*
X126834170Y-120730377D01*
X126837814Y-120732196D01*
X126841449Y-120734014D01*
X126845084Y-120735824D01*
X126848712Y-120735824D01*
X126852348Y-120737647D01*
X126855992Y-120739467D01*
X126859621Y-120741284D01*
X126863261Y-120743093D01*
X126866889Y-120744922D01*
X126870531Y-120744922D01*
X126875983Y-120746738D01*
X126879616Y-120748553D01*
X126883257Y-120748553D01*
X126886887Y-120750374D01*
X126890526Y-120750374D01*
X126897797Y-120752187D01*
X126905059Y-120754007D01*
X126912336Y-120755826D01*
X126921426Y-120755826D01*
X126928694Y-120757641D01*
X126935967Y-120759456D01*
X126943235Y-120759456D01*
X126950506Y-120759456D01*
X126959597Y-120761276D01*
X126966864Y-120761276D01*
X126974134Y-120761276D01*
X126981404Y-120761276D01*
X126988676Y-120761276D01*
X126997763Y-120761276D01*
X127005024Y-120761276D01*
X127012303Y-120761276D01*
X127019574Y-120759456D01*
X127026848Y-120759456D01*
X127035935Y-120759456D01*
X127048656Y-120757641D01*
X127059570Y-120755826D01*
X127072295Y-120754007D01*
X127085013Y-120750374D01*
X127094096Y-120748553D01*
X127103186Y-120746738D01*
X127112278Y-120744922D01*
X127121366Y-120741284D01*
X127130451Y-120739467D01*
X127143170Y-120735824D01*
X127157712Y-120730377D01*
X127170439Y-120726742D01*
X127183165Y-120721292D01*
X127259498Y-120690391D01*
X127339477Y-120655852D01*
X127372196Y-120639499D01*
X127406734Y-120623140D01*
X127435823Y-120608599D01*
X127464898Y-120594052D01*
X127481259Y-120584964D01*
X127497615Y-120575876D01*
X127512154Y-120564977D01*
X127530333Y-120554065D01*
X127546690Y-120543158D01*
X127561233Y-120535887D01*
X127563048Y-120535887D01*
X127564864Y-120534073D01*
X127566692Y-120534073D01*
X127568507Y-120534073D01*
X127584867Y-120523168D01*
X127604859Y-120508625D01*
X127626666Y-120492269D01*
X127683017Y-120450459D01*
X127684834Y-120470449D01*
X127692105Y-120546793D01*
X127701189Y-120621320D01*
X127713917Y-120701297D01*
X127728458Y-120781274D01*
X127741186Y-120850346D01*
X127755720Y-120921230D01*
X127757538Y-120928499D01*
X127759354Y-120935772D01*
X127761167Y-120941225D01*
X127762983Y-120948498D01*
X127764799Y-120955762D01*
X127768444Y-120961217D01*
X127770256Y-120968486D01*
X127772081Y-120975760D01*
X127775715Y-120981214D01*
X127777528Y-120988485D01*
X127781164Y-120993937D01*
X127781164Y-120997571D01*
X127782987Y-120999390D01*
X127782987Y-121001203D01*
X127784800Y-121003025D01*
X127792075Y-121024839D01*
X127799349Y-121048464D01*
X127808436Y-121075731D01*
X127819336Y-121108452D01*
X127830246Y-121139352D01*
X127842964Y-121170246D01*
X127853872Y-121201144D01*
X127868415Y-121232043D01*
X127881136Y-121264761D01*
X127895682Y-121295660D01*
X127910219Y-121326562D01*
X127926575Y-121357467D01*
X127942936Y-121386547D01*
X127962926Y-121424717D01*
X127984741Y-121462888D01*
X128008372Y-121499241D01*
X128032003Y-121535588D01*
X128050172Y-121564677D01*
X128070177Y-121593753D01*
X128090165Y-121621026D01*
X128111977Y-121648283D01*
X128131973Y-121675552D01*
X128148328Y-121695542D01*
X128162881Y-121713721D01*
X128179230Y-121731901D01*
X128195588Y-121751893D01*
X128211952Y-121768249D01*
X128230127Y-121786420D01*
X128259203Y-121817325D01*
X128290110Y-121846409D01*
X128321000Y-121875483D01*
X128351907Y-121902753D01*
X128395529Y-121940927D01*
X128439151Y-121977278D01*
X128482777Y-122011813D01*
X128506402Y-122029991D01*
X128530030Y-122046352D01*
X128555476Y-122064526D01*
X128579108Y-122080884D01*
X128604556Y-122095422D01*
X128624555Y-122108150D01*
X128639091Y-122119052D01*
X128653634Y-122128144D01*
X128653634Y-122129962D01*
X128653634Y-122131775D01*
X128644545Y-122135413D01*
X128642729Y-122137232D01*
X128639091Y-122139046D01*
X128635458Y-122140863D01*
X128630006Y-122142683D01*
X128624555Y-122146318D01*
X128619101Y-122149959D01*
X128611833Y-122151765D01*
X128606377Y-122155408D01*
X128599105Y-122159042D01*
X128593650Y-122162679D01*
X128588200Y-122166309D01*
X128580929Y-122169943D01*
X128550032Y-122189944D01*
X128519124Y-122211757D01*
X128486411Y-122233570D01*
X128455514Y-122257188D01*
X128448238Y-122262647D01*
X128440969Y-122268106D01*
X128433697Y-122275368D01*
X128426428Y-122280823D01*
X128419156Y-122286276D01*
X128413699Y-122293547D01*
X128408249Y-122297177D01*
X128402804Y-122302639D01*
X128399163Y-122308086D01*
X128393712Y-122313539D01*
X128388260Y-122318995D01*
X128384622Y-122324447D01*
X128379170Y-122329903D01*
X128375536Y-122335353D01*
X128370074Y-122340805D01*
X128366452Y-122346256D01*
X128362806Y-122353525D01*
X128357359Y-122358982D01*
X128353725Y-122364437D01*
X128350088Y-122369889D01*
X128346453Y-122377162D01*
X128344637Y-122382611D01*
X128317364Y-122433507D01*
X128317364Y-122511657D01*
X128317364Y-122557104D01*
X128317364Y-122560736D01*
X128317364Y-122564382D01*
X128317364Y-122568008D01*
X128317364Y-122569824D01*
X128319194Y-122573458D01*
X128319194Y-122577097D01*
X128319194Y-122580737D01*
X128319194Y-122582553D01*
X128319194Y-122584366D01*
X128321000Y-122586189D01*
X128321000Y-122588010D01*
X128321000Y-122589822D01*
X128321000Y-122591642D01*
X128322821Y-122593456D01*
X128322821Y-122595273D01*
X128322821Y-122597091D01*
X128322821Y-122598917D01*
X128324639Y-122600733D01*
X128324639Y-122602541D01*
X128326464Y-122604369D01*
X128326464Y-122608000D01*
X128328276Y-122609816D01*
X128330096Y-122613457D01*
X128330096Y-122615266D01*
X128331910Y-122617092D01*
X128331910Y-122618900D01*
X128333731Y-122622541D01*
X128337366Y-122626170D01*
X128339185Y-122629809D01*
X128341003Y-122633444D01*
X128342817Y-122635266D01*
X128344637Y-122638899D01*
X128346453Y-122642540D01*
X128348270Y-122646171D01*
X128351907Y-122647988D01*
X128353725Y-122651622D01*
X128355535Y-122655260D01*
X128360992Y-122658894D01*
X128364626Y-122664345D01*
X128370074Y-122669799D01*
X128375536Y-122675255D01*
X128379170Y-122680710D01*
X128384622Y-122684334D01*
X128390077Y-122689792D01*
X128397344Y-122695240D01*
X128404617Y-122702514D01*
X128410068Y-122707967D01*
X128417343Y-122713424D01*
X128424609Y-122718872D01*
X128431885Y-122724330D01*
X128440969Y-122729784D01*
X128451874Y-122737053D01*
X128460962Y-122742506D01*
X128470052Y-122749772D01*
X128480964Y-122755230D01*
X128508224Y-122769770D01*
X128537308Y-122786123D01*
X128546387Y-122789766D01*
X128555476Y-122795211D01*
X128564567Y-122798852D01*
X128573657Y-122802488D01*
X128582741Y-122806125D01*
X128591837Y-122809759D01*
X128600926Y-122813391D01*
X128610010Y-122817029D01*
X128620917Y-122818856D01*
X128630006Y-122822485D01*
X128697258Y-122840657D01*
X128744515Y-122853384D01*
X128791777Y-122864283D01*
X128839035Y-122873374D01*
X128869935Y-122878827D01*
X128902650Y-122884280D01*
X128935367Y-122889733D01*
X128968082Y-122893373D01*
X129002621Y-122897004D01*
X129037155Y-122900639D01*
X129071693Y-122902454D01*
X129106221Y-122904277D01*
X129189840Y-122907912D01*
X129275263Y-122909723D01*
X129387955Y-122907912D01*
X129417043Y-122906093D01*
X129446121Y-122906093D01*
X129477023Y-122902454D01*
X129502478Y-122900639D01*
X129529736Y-122897004D01*
X129556999Y-122893373D01*
X129584264Y-122887913D01*
X129613346Y-122884280D01*
X129642430Y-122877011D01*
X129669697Y-122871553D01*
X129696959Y-122866103D01*
X129720587Y-122862468D01*
X129735136Y-122858837D01*
X129740577Y-122857016D01*
X129747856Y-122855200D01*
X129755120Y-122853384D01*
X129762393Y-122851566D01*
X129767846Y-122849746D01*
X129775118Y-122847925D01*
X129802381Y-122838839D01*
X129829650Y-122827932D01*
X129858724Y-122817029D01*
X129885991Y-122806125D01*
X129893264Y-122802488D01*
X129902353Y-122798852D01*
X129911435Y-122795211D01*
X129918708Y-122789766D01*
X129927801Y-122786123D01*
X129945974Y-122775224D01*
X129965966Y-122764310D01*
X129984144Y-122753406D01*
X130013229Y-122733411D01*
X130044124Y-122713424D01*
X130071391Y-122695240D01*
X130098656Y-122675255D01*
X130102291Y-122673436D01*
X130105927Y-122669799D01*
X130109561Y-122666168D01*
X130113191Y-122664345D01*
X130116831Y-122660709D01*
X130120470Y-122657072D01*
X130122289Y-122655260D01*
X130125919Y-122651622D01*
X130129555Y-122647988D01*
X130133189Y-122644352D01*
X130138638Y-122640715D01*
X130142279Y-122635266D01*
X130145917Y-122631627D01*
X130147732Y-122631627D01*
X130147732Y-122629809D01*
X130149546Y-122629809D01*
X130151370Y-122627993D01*
X130153183Y-122627993D01*
X130153183Y-122626170D01*
X130155004Y-122626170D01*
X130156822Y-122626170D01*
X130156822Y-122624357D01*
X130158643Y-122624357D01*
X130160455Y-122624357D01*
X130160455Y-122622541D01*
X130162278Y-122622541D01*
X130164095Y-122622541D01*
X130165909Y-122622541D01*
X130167721Y-122622541D01*
X130167721Y-122620722D01*
X130169546Y-122620722D01*
X130171364Y-122620722D01*
X130176815Y-122620722D01*
X130182271Y-122620722D01*
X130187716Y-122620722D01*
X130194989Y-122620722D01*
X130202261Y-122620722D01*
X130211348Y-122620722D01*
X130233162Y-122622541D01*
X130256790Y-122624357D01*
X130265876Y-122626170D01*
X130276786Y-122627993D01*
X130296776Y-122629809D01*
X130318594Y-122633444D01*
X130338585Y-122635266D01*
X130360397Y-122637079D01*
X130500359Y-122646171D01*
X130647576Y-122651622D01*
X130771184Y-122653441D01*
X130898416Y-122653441D01*
X131031108Y-122647988D01*
X131160163Y-122640715D01*
X131276485Y-122629809D01*
X131314656Y-122626170D01*
X131349194Y-122622541D01*
X131378274Y-122620722D01*
X131380090Y-122620722D01*
X131381905Y-122620722D01*
X131385551Y-122620722D01*
X131387366Y-122620722D01*
X131389182Y-122620722D01*
X131390992Y-122620722D01*
X131392814Y-122620722D01*
X131392814Y-122622541D01*
X131394634Y-122622541D01*
X131398265Y-122624357D01*
X131401906Y-122626170D01*
X131405543Y-122627993D01*
X131409174Y-122631627D01*
X131412810Y-122633444D01*
X131416440Y-122637079D01*
X131420081Y-122638899D01*
X131423716Y-122642540D01*
X131429169Y-122646171D01*
X131434622Y-122651622D01*
X131440067Y-122655260D01*
X131450982Y-122666168D01*
X131461889Y-122675255D01*
X131472784Y-122684334D01*
X131485517Y-122693429D01*
X131496418Y-122702514D01*
X131509145Y-122711602D01*
X131520054Y-122720694D01*
X131532776Y-122727964D01*
X131545491Y-122737053D01*
X131558220Y-122744313D01*
X131570944Y-122751585D01*
X131583668Y-122760675D01*
X131596390Y-122767955D01*
X131609117Y-122773406D01*
X131621837Y-122780675D01*
X131636379Y-122787945D01*
X131652736Y-122795211D01*
X131669100Y-122802488D01*
X131685456Y-122809759D01*
X131703634Y-122817029D01*
X131719986Y-122822485D01*
X131736351Y-122829747D01*
X131754527Y-122835204D01*
X131781786Y-122844297D01*
X131809058Y-122851566D01*
X131836322Y-122858837D01*
X131863583Y-122866103D01*
X131892665Y-122873374D01*
X131919926Y-122878827D01*
X131950831Y-122884280D01*
X131979903Y-122889733D01*
X132008993Y-122893373D01*
X132038074Y-122897004D01*
X132067158Y-122900639D01*
X132098058Y-122904277D01*
X132127143Y-122906093D01*
X132172589Y-122907912D01*
X132218021Y-122909723D01*
X132261652Y-122911544D01*
X132307088Y-122911544D01*
X132352534Y-122909723D01*
X132397962Y-122909723D01*
X132443410Y-122906093D01*
X132487035Y-122904277D01*
X132532479Y-122900639D01*
X132577916Y-122895186D01*
X132621541Y-122889733D01*
X132666979Y-122884280D01*
X132692423Y-122878827D01*
X132717873Y-122875189D01*
X132743315Y-122869739D01*
X132766950Y-122864283D01*
X132792393Y-122858837D01*
X132817850Y-122851566D01*
X132843291Y-122846108D01*
X132866917Y-122838839D01*
X132892365Y-122831571D01*
X132912360Y-122824301D01*
X132932353Y-122817029D01*
X132954172Y-122809759D01*
X132974160Y-122800672D01*
X132994156Y-122793402D01*
X133012331Y-122784313D01*
X133032325Y-122775224D01*
X133039594Y-122771590D01*
X133046864Y-122767955D01*
X133054139Y-122764310D01*
X133061410Y-122760675D01*
X133066857Y-122757047D01*
X133074130Y-122753406D01*
X133081400Y-122747960D01*
X133086859Y-122744313D01*
X133094122Y-122740688D01*
X133101392Y-122735233D01*
X133106853Y-122731601D01*
X133114124Y-122726136D01*
X133119568Y-122720694D01*
X133125028Y-122717058D01*
X133132292Y-122711602D01*
X133135924Y-122707967D01*
X133139570Y-122704334D01*
X133143199Y-122700696D01*
X133146839Y-122697061D01*
X133150476Y-122693429D01*
X133154105Y-122689792D01*
X133157744Y-122686157D01*
X133161376Y-122682522D01*
X133165022Y-122677072D01*
X133168650Y-122673436D01*
X133172282Y-122669799D01*
X133174099Y-122666168D01*
X133177733Y-122660709D01*
X133181367Y-122657072D01*
X133183189Y-122653441D01*
X133186823Y-122647988D01*
X133190463Y-122644352D01*
X133192277Y-122638899D01*
X133195914Y-122635266D01*
X133197723Y-122629809D01*
X133199548Y-122626170D01*
X133201366Y-122622541D01*
X133205006Y-122617092D01*
X133206822Y-122613457D01*
X133208638Y-122608000D01*
X133210453Y-122604369D01*
X133212269Y-122598917D01*
X133214086Y-122595273D01*
X133215905Y-122589822D01*
X133217726Y-122586189D01*
X133219537Y-122580737D01*
X133219537Y-122577097D01*
X133221362Y-122571649D01*
X133223180Y-122568008D01*
X133224993Y-122562562D01*
X133224993Y-122557104D01*
X133226817Y-122553471D01*
X133226817Y-122548016D01*
X133228631Y-122542559D01*
X133228631Y-122538924D01*
X133228631Y-122533476D01*
X133230449Y-122529839D01*
X133230449Y-122524391D01*
X133230449Y-122518930D01*
X133230449Y-122515299D01*
X133232267Y-122509846D01*
X133232267Y-122504393D01*
X133232267Y-122500761D01*
X133232267Y-122495304D01*
X133232267Y-122491670D01*
X133232267Y-122486222D01*
X133232267Y-122482585D01*
X133230449Y-122478951D01*
X133230449Y-122473494D01*
X133230449Y-122469856D01*
X133230449Y-122466226D01*
X133228631Y-122462591D01*
X133228631Y-122457133D01*
X133228631Y-122453496D01*
X133226817Y-122449870D01*
X133226817Y-122444411D01*
X133224993Y-122440780D01*
X133223180Y-122437145D01*
X133223180Y-122431687D01*
X133221362Y-122428055D01*
X133219537Y-122422592D01*
X133217726Y-122417146D01*
X133215905Y-122413508D01*
X133214086Y-122408053D01*
X133212269Y-122404421D01*
X133210453Y-122400789D01*
X133208638Y-122395335D01*
X133206822Y-122391699D01*
X133203187Y-122382611D01*
X133199548Y-122375342D01*
X133195914Y-122368075D01*
X133190463Y-122360804D01*
X133186823Y-122353525D01*
X133181367Y-122346256D01*
X133177733Y-122338993D01*
X133174099Y-122335353D01*
X133172282Y-122331716D01*
X133170464Y-122329903D01*
X133168650Y-122326265D01*
X133165022Y-122322632D01*
X133163198Y-122320813D01*
X133161376Y-122317179D01*
X133157744Y-122315364D01*
X133155926Y-122311726D01*
X133154105Y-122309905D01*
X133150476Y-122306268D01*
X133148653Y-122304453D01*
X133135924Y-122293547D01*
X133125028Y-122282640D01*
X133112299Y-122271738D01*
X133101392Y-122262647D01*
X133086859Y-122249919D01*
X133072312Y-122239013D01*
X133057767Y-122228112D01*
X133043229Y-122219021D01*
X133021420Y-122204480D01*
X133001423Y-122189944D01*
X132979619Y-122177218D01*
X132917813Y-122140863D01*
X132917813Y-122139046D01*
X132915994Y-122139046D01*
X132915994Y-122137232D01*
X132914178Y-122137232D01*
X132914178Y-122135413D01*
X132912360Y-122135413D01*
X132912360Y-122133598D01*
X132910538Y-122133598D01*
X132910538Y-122131775D01*
X132910538Y-122129962D01*
X132908726Y-122129962D01*
X132908726Y-122128144D01*
X132908726Y-122126328D01*
X132908726Y-122124510D01*
X132908726Y-122122691D01*
X132910538Y-122120878D01*
X132910538Y-122119052D01*
X132912360Y-122119052D01*
X132912360Y-122117234D01*
X132914178Y-122117234D01*
X132934172Y-122104513D01*
X132954172Y-122091787D01*
X132975974Y-122079065D01*
X132995974Y-122066342D01*
X133014151Y-122053624D01*
X133034142Y-122039080D01*
X133054139Y-122026353D01*
X133074130Y-122011813D01*
X133105033Y-121986369D01*
X133135924Y-121962735D01*
X133166831Y-121937291D01*
X133195914Y-121911845D01*
X133224993Y-121884579D01*
X133254080Y-121857314D01*
X133281340Y-121830047D01*
X133308608Y-121802790D01*
X133324963Y-121786420D01*
X133341324Y-121770067D01*
X133355861Y-121753703D01*
X133370407Y-121735540D01*
X133384947Y-121717359D01*
X133397667Y-121699180D01*
X133408577Y-121688275D01*
X133415851Y-121677367D01*
X133423121Y-121668273D01*
X133424939Y-121668273D01*
X133424939Y-121666463D01*
X133430390Y-121660999D01*
X133434023Y-121657378D01*
X133437659Y-121653742D01*
X133443114Y-121648283D01*
X133446741Y-121644650D01*
X133450388Y-121639192D01*
X133454019Y-121635562D01*
X133457648Y-121630108D01*
X133461293Y-121626474D01*
X133464926Y-121621026D01*
X133468556Y-121615573D01*
X133472194Y-121611928D01*
X133475828Y-121606482D01*
X133477644Y-121601021D01*
X133519453Y-121535588D01*
X133557623Y-121468345D01*
X133584889Y-121419263D01*
X133610336Y-121368366D01*
X133635780Y-121319302D01*
X133652141Y-121284759D01*
X133666684Y-121252043D01*
X133681221Y-121217503D01*
X133695765Y-121184789D01*
X133706674Y-121155703D01*
X133715756Y-121126622D01*
X133726664Y-121095724D01*
X133763015Y-120981214D01*
X133793913Y-120864882D01*
X133801185Y-120835802D01*
X133808455Y-120806720D01*
X133813915Y-120775821D01*
X133821178Y-120735824D01*
X133828457Y-120695848D01*
X133833904Y-120655852D01*
X133839354Y-120614050D01*
X133848447Y-120517711D01*
X133855716Y-120421379D01*
X133859346Y-120323223D01*
X133861164Y-120225076D01*
X133861164Y-120183263D01*
X133859346Y-120141458D01*
X133857533Y-120099662D01*
X133855716Y-120057852D01*
X133848447Y-119959700D01*
X133837543Y-119863365D01*
X133828457Y-119776117D01*
X133828457Y-119774299D01*
X133828457Y-119772486D01*
X133828457Y-119770661D01*
X133828457Y-119768843D01*
X133826636Y-119768843D01*
X133826636Y-119767035D01*
X133826636Y-119765212D01*
X133826636Y-119763397D01*
X133826636Y-119761576D01*
X133824812Y-119761576D01*
X133824812Y-119759758D01*
X133824812Y-119757939D01*
X133824812Y-119756114D01*
X133822998Y-119756114D01*
X133822998Y-119754305D01*
X133822998Y-119752489D01*
X133822998Y-119750670D01*
X133822998Y-119748856D01*
X133824812Y-119748856D01*
X133824812Y-119747035D01*
X133826636Y-119747035D01*
X133826636Y-119745223D01*
X133826636Y-119743394D01*
X133828457Y-119743394D01*
X133828457Y-119741578D01*
X133830268Y-119741578D01*
X133830268Y-119739763D01*
X133832089Y-119737948D01*
X133833904Y-119736132D01*
X133835725Y-119734318D01*
X133837543Y-119732499D01*
X133839354Y-119730676D01*
X133841175Y-119728860D01*
X133842994Y-119727043D01*
X133844811Y-119725224D01*
X133853899Y-119717953D01*
X133862990Y-119708868D01*
X133901156Y-119676148D01*
X133939321Y-119643434D01*
X133975682Y-119610716D01*
X134110182Y-119481656D01*
X134235602Y-119354431D01*
X134257418Y-119330796D01*
X134277407Y-119307165D01*
X134299216Y-119283537D01*
X134319214Y-119259908D01*
X134361019Y-119207200D01*
X134402824Y-119154485D01*
X134442811Y-119099947D01*
X134480986Y-119045427D01*
X134517329Y-118990895D01*
X134553687Y-118936369D01*
X134590033Y-118878213D01*
X134622755Y-118821857D01*
X134657297Y-118763689D01*
X134690017Y-118703712D01*
X134720909Y-118643729D01*
X134751813Y-118583749D01*
X134775439Y-118532849D01*
X134799069Y-118480139D01*
X134819060Y-118431066D01*
X134826337Y-118414706D01*
X134833598Y-118398348D01*
X134868143Y-118294744D01*
X134897226Y-118211125D01*
X134917213Y-118140243D01*
X134922668Y-118122068D01*
X134926305Y-118102072D01*
X134931752Y-118083900D01*
X134953571Y-117965751D01*
X134957197Y-117949392D01*
X134959018Y-117934852D01*
X134962657Y-117918494D01*
X134964472Y-117902136D01*
X134964472Y-117891221D01*
X134966294Y-117878498D01*
X134966294Y-117867598D01*
X134968116Y-117856693D01*
X134968116Y-117843977D01*
X134968116Y-117756722D01*
X134968116Y-117676745D01*
X134968116Y-117669479D01*
X134968116Y-117662211D01*
X134968116Y-117653114D01*
X134966294Y-117645844D01*
X134966294Y-117638570D01*
X134966294Y-117634940D01*
X134964472Y-117631303D01*
X134964472Y-117627668D01*
X134964472Y-117624027D01*
X134962657Y-117620396D01*
X134962657Y-117616763D01*
X134960839Y-117613130D01*
X134960839Y-117611302D01*
X134959018Y-117604043D01*
X134957197Y-117596769D01*
X134955386Y-117589497D01*
X134951753Y-117584043D01*
X134949937Y-117576771D01*
X134948118Y-117569498D01*
X134944475Y-117562228D01*
X134940844Y-117554964D01*
X134937214Y-117544054D01*
X134931752Y-117531329D01*
X134926305Y-117520427D01*
X134920853Y-117509527D01*
X134919034Y-117507711D01*
X134917213Y-117504069D01*
X134915397Y-117500430D01*
X134913583Y-117496800D01*
X134911760Y-117494987D01*
X134908131Y-117489529D01*
X134906309Y-117485891D01*
X134902673Y-117482258D01*
X134900857Y-117478619D01*
X134897226Y-117474981D01*
X134893583Y-117471346D01*
X134891770Y-117465895D01*
X134888130Y-117462258D01*
X134884500Y-117458633D01*
X134879053Y-117453179D01*
X134873595Y-117447726D01*
X134868143Y-117440452D01*
X134862686Y-117435002D01*
X134855419Y-117429543D01*
X134849961Y-117424095D01*
X134844508Y-117418640D01*
X134837237Y-117413183D01*
X134831786Y-117407741D01*
X134824516Y-117404098D01*
X134819060Y-117398648D01*
X134811789Y-117393196D01*
X134808160Y-117391382D01*
X134804519Y-117389556D01*
X134800886Y-117387740D01*
X134799069Y-117384108D01*
X134795440Y-117382292D01*
X134791802Y-117380470D01*
X134788167Y-117378654D01*
X134784527Y-117376832D01*
X134780896Y-117375014D01*
X134777262Y-117373196D01*
X134771803Y-117371382D01*
X134766354Y-117369561D01*
X134760901Y-117365931D01*
X134757264Y-117364110D01*
X134751813Y-117362292D01*
X134749997Y-117362292D01*
X134748174Y-117362292D01*
X134746359Y-117360477D01*
X134744538Y-117360477D01*
X134740906Y-117360477D01*
X134739093Y-117358654D01*
X134737272Y-117358654D01*
X134735453Y-117358654D01*
X134733633Y-117358654D01*
X134731817Y-117358654D01*
X134730000Y-117356840D01*
X134726365Y-117356840D01*
X134722731Y-117356840D01*
X134717273Y-117356840D01*
X134713641Y-117355020D01*
X134710003Y-117355020D01*
X134706368Y-117355020D01*
X134702736Y-117355020D01*
X134648208Y-117355020D01*
X134626395Y-117355020D01*
X134604585Y-117355020D01*
X134584587Y-117356840D01*
X134579131Y-117356840D01*
X134573684Y-117356840D01*
X134568229Y-117358654D01*
X134564592Y-117358654D01*
X134559144Y-117358654D01*
X134553687Y-117360477D01*
X134548234Y-117360477D01*
X134544598Y-117362292D01*
X134539149Y-117364110D01*
X134533696Y-117364110D01*
X134528242Y-117365931D01*
X134524608Y-117367747D01*
X134519156Y-117369561D01*
X134513702Y-117369561D01*
X134510065Y-117371382D01*
X134504614Y-117373196D01*
X134499161Y-117375014D01*
X134495523Y-117376832D01*
X134475529Y-117385923D01*
X134453720Y-117396825D01*
X134433730Y-117405917D01*
X134382828Y-117431367D01*
X134333753Y-117458633D01*
X134282865Y-117487709D01*
X134233777Y-117516792D01*
X134177436Y-117551331D01*
X134122910Y-117587679D01*
X133992038Y-117678560D01*
X133968411Y-117693104D01*
X133932059Y-117718552D01*
X133893885Y-117745818D01*
X133855716Y-117771260D01*
X133817542Y-117796710D01*
X133781194Y-117822152D01*
X133750293Y-117843977D01*
X133732117Y-117856693D01*
X133721203Y-117865779D01*
X133710303Y-117873049D01*
X133699404Y-117880317D01*
X133655773Y-117909400D01*
X133610336Y-117936671D01*
X133608519Y-117936671D01*
X133606697Y-117936671D01*
X133606697Y-117934852D01*
X133604885Y-117934852D01*
X133601248Y-117898496D01*
X133597613Y-117856693D01*
X133592161Y-117807612D01*
X133583070Y-117720374D01*
X133572160Y-117631303D01*
X133541262Y-117425918D01*
X133504912Y-117227786D01*
X133495824Y-117180530D01*
X133484912Y-117133269D01*
X133472194Y-117086013D01*
X133457648Y-117035116D01*
X133443114Y-116984223D01*
X133426753Y-116933331D01*
X133410397Y-116884253D01*
X133392213Y-116835174D01*
X133372232Y-116784286D01*
X133354046Y-116735209D01*
X133332234Y-116687956D01*
X133314065Y-116644327D01*
X133294064Y-116602518D01*
X133274071Y-116560713D01*
X133252257Y-116520732D01*
X133230449Y-116478919D01*
X133206822Y-116438933D01*
X133185002Y-116398941D01*
X133159561Y-116358954D01*
X133135924Y-116318968D01*
X133110481Y-116280792D01*
X133083224Y-116242620D01*
X133057767Y-116206271D01*
X133030509Y-116168107D01*
X133001423Y-116131751D01*
X132974160Y-116095398D01*
X132945076Y-116059046D01*
X132914178Y-116024513D01*
X132883288Y-115989976D01*
X132852376Y-115955439D01*
X132821480Y-115922724D01*
X132788764Y-115890003D01*
X132756045Y-115857282D01*
X132723325Y-115824570D01*
X132688794Y-115793675D01*
X132654251Y-115762769D01*
X132619726Y-115733693D01*
X132583367Y-115704607D01*
X132550651Y-115677340D01*
X132516113Y-115650078D01*
X132479760Y-115624635D01*
X132417963Y-115581007D01*
X132354345Y-115539202D01*
X132292551Y-115499209D01*
X132230746Y-115461039D01*
X132210750Y-115450136D01*
X132192577Y-115439236D01*
X132172589Y-115428325D01*
X132154401Y-115417424D01*
X132134410Y-115408336D01*
X132119871Y-115401063D01*
X132094422Y-115386518D01*
X132063528Y-115371977D01*
X132034444Y-115357438D01*
X132007178Y-115342894D01*
X131979903Y-115328357D01*
X131952644Y-115315628D01*
X131923561Y-115302905D01*
X131896299Y-115290184D01*
X131867219Y-115279282D01*
X131838133Y-115268374D01*
X131778155Y-115244749D01*
X131716358Y-115224754D01*
X131654557Y-115204754D01*
X131592755Y-115184758D01*
X131529136Y-115166583D01*
X131463706Y-115150228D01*
X131400090Y-115133863D01*
X131334650Y-115117512D01*
X131287393Y-115108421D01*
X131240131Y-115099333D01*
X131192875Y-115092063D01*
X131145615Y-115084787D01*
X131098358Y-115077521D01*
X131072910Y-115075706D01*
X131047461Y-115072067D01*
X131023835Y-115072067D01*
X130998384Y-115070248D01*
X130843887Y-115064799D01*
X130689383Y-115062979D01*
X130663941Y-115064799D01*
X130640312Y-115064799D01*
X130614870Y-115066616D01*
X130589422Y-115068437D01*
X130531253Y-115073883D01*
X130473092Y-115079342D01*
X130414924Y-115086608D01*
X130358586Y-115095702D01*
X130300416Y-115106607D01*
X130242249Y-115117512D01*
X130182271Y-115130235D01*
X130124109Y-115142956D01*
X130065941Y-115157502D01*
X130007775Y-115173854D01*
X129949614Y-115190215D01*
X129893264Y-115208390D01*
X129836916Y-115226575D01*
X129780572Y-115246559D01*
X129724218Y-115266558D01*
X129680596Y-115284731D01*
X129636974Y-115302905D01*
X129593352Y-115321088D01*
X129549729Y-115341081D01*
X129507931Y-115362894D01*
X129466116Y-115382887D01*
X129409770Y-115411971D01*
X129355247Y-115442868D01*
X129302529Y-115473767D01*
X129248004Y-115504666D01*
X129195290Y-115537380D01*
X129155303Y-115562828D01*
X129117131Y-115590103D01*
X129077142Y-115617356D01*
X129038968Y-115644628D01*
X129002621Y-115673707D01*
X128964453Y-115702792D01*
X128928097Y-115731869D01*
X128893564Y-115762769D01*
X128857211Y-115793675D01*
X128822677Y-115826395D01*
X128788140Y-115859108D01*
X128755422Y-115891821D01*
X128713614Y-115937267D01*
X128671807Y-115980886D01*
X128630006Y-116028148D01*
X128590017Y-116073587D01*
X128550032Y-116120846D01*
X128537308Y-116137210D01*
X128526401Y-116151747D01*
X128513674Y-116168107D01*
X128502769Y-116184465D01*
X128431885Y-116288063D01*
X128362806Y-116391679D01*
X128351907Y-116408029D01*
X128342817Y-116422577D01*
X128333731Y-116438933D01*
X128324639Y-116455285D01*
X128273746Y-116549809D01*
X128228306Y-116644327D01*
X128208307Y-116687956D01*
X128188318Y-116729758D01*
X128170138Y-116773381D01*
X128151963Y-116817000D01*
X128135605Y-116858804D01*
X128121061Y-116900604D01*
X128108343Y-116942420D01*
X128093804Y-116984223D01*
X128082889Y-117026033D01*
X128070177Y-117066022D01*
X128061081Y-117107820D01*
X128050172Y-117149635D01*
X128042908Y-117184170D01*
X128037460Y-117216884D01*
X128030185Y-117244146D01*
X128026553Y-117258686D01*
X128024733Y-117273229D01*
X128019273Y-117291401D01*
X128015645Y-117311404D01*
X128013827Y-117331394D01*
X128010186Y-117351387D01*
X128004732Y-117376832D01*
X128001099Y-117402284D01*
X127995648Y-117422279D01*
X127992019Y-117447726D01*
X127988379Y-117471346D01*
X127973835Y-117573140D01*
X127957477Y-117684016D01*
X127944752Y-117783982D01*
X127915676Y-118020276D01*
X127897499Y-118151149D01*
X127892036Y-118180228D01*
X127888406Y-118207499D01*
X127881136Y-118236582D01*
X127879322Y-118251117D01*
X127875687Y-118263841D01*
X127872049Y-118278389D01*
X127866594Y-118292918D01*
X127862958Y-118305650D01*
X127859327Y-118316558D01*
X127855685Y-118325644D01*
X127852058Y-118334726D01*
X127848422Y-118343820D01*
X127844788Y-118352906D01*
X127839332Y-118365628D01*
X127833875Y-118376534D01*
X127828425Y-118389258D01*
X127822979Y-118400164D01*
X127817523Y-118409257D01*
X127812067Y-118420156D01*
X127806610Y-118429246D01*
X127801159Y-118438329D01*
X127799349Y-118440158D01*
X127799349Y-118441975D01*
X127797527Y-118441975D01*
X127797527Y-118443790D01*
X127795708Y-118443790D01*
X127795708Y-118445606D01*
X127793889Y-118445606D01*
X127793889Y-118447424D01*
X127792075Y-118449243D01*
X127790257Y-118449243D01*
X127790257Y-118451056D01*
X127788442Y-118451056D01*
X127786620Y-118452875D01*
X127784800Y-118452875D01*
X127784800Y-118454696D01*
X127782987Y-118454696D01*
X127782987Y-118456515D01*
X127781164Y-118456515D01*
X127779344Y-118456515D01*
X127779344Y-118458329D01*
X127768444Y-118469233D01*
X127762983Y-118474686D01*
X127755720Y-118481955D01*
X127742996Y-118496504D01*
X127728458Y-118514677D01*
X127710284Y-118536487D01*
X127690282Y-118558299D01*
X127672115Y-118578295D01*
X127635759Y-118620100D01*
X127586680Y-118674626D01*
X127539422Y-118730977D01*
X127503067Y-118772785D01*
X127492164Y-118787323D01*
X127481259Y-118800045D01*
X127470355Y-118814588D01*
X127381292Y-118932733D01*
X127294041Y-119050883D01*
X127248599Y-119114497D01*
X127234058Y-119136310D01*
X127214064Y-119167209D01*
X127194071Y-119198109D01*
X127175892Y-119225377D01*
X127157712Y-119254451D01*
X127135904Y-119290809D01*
X127114094Y-119325342D01*
X127095916Y-119354431D01*
X127065015Y-119403493D01*
X127035935Y-119452579D01*
X127008669Y-119501653D01*
X126981404Y-119552545D01*
X126945053Y-119623433D01*
X126908699Y-119694325D01*
X126875983Y-119767035D01*
X126845084Y-119836102D01*
X126816005Y-119905172D01*
X126790547Y-119976059D01*
X126779643Y-120006956D01*
X126768743Y-120036042D01*
X126759653Y-120065121D01*
X126750566Y-120096020D01*
X126743295Y-120125107D01*
X126736021Y-120156008D01*
X126716029Y-120245069D01*
X126710582Y-120265063D01*
X126706943Y-120286877D01*
X126705128Y-120308681D01*
X126701484Y-120321402D01*
X126701484Y-120335947D01*
X126699674Y-120348678D01*
X126697852Y-120363214D01*
X126697852Y-120381391D01*
X126696038Y-120401389D01*
X126479734Y-120401389D01*
X126479734Y-120397747D01*
X126481557Y-120377759D01*
X126481557Y-120359580D01*
X126483369Y-120339590D01*
X126485197Y-120321402D01*
X126488826Y-120283234D01*
X126494275Y-120246888D01*
X126499727Y-120210534D01*
X126507009Y-120172365D01*
X126514276Y-120134183D01*
X126523366Y-120096020D01*
X126528815Y-120070580D01*
X126536083Y-120043308D01*
X126543349Y-120016049D01*
X126552441Y-119990602D01*
X126563356Y-119954251D01*
X126576073Y-119919711D01*
X126588795Y-119885175D01*
X126601524Y-119850645D01*
X126636052Y-119767035D01*
X126672407Y-119685242D01*
X126712403Y-119599811D01*
X126752387Y-119516190D01*
X126794191Y-119438037D01*
X126837814Y-119359883D01*
X126863261Y-119316260D01*
X126888704Y-119272634D01*
X126983223Y-119125406D01*
X127081374Y-118978171D01*
X127110456Y-118934550D01*
X127139546Y-118890928D01*
X127188614Y-118825496D01*
X127237691Y-118760058D01*
X127281321Y-118703712D01*
X127310387Y-118667362D01*
X127366747Y-118600111D01*
X127439456Y-118516501D01*
X127508516Y-118436514D01*
X127553960Y-118387442D01*
X127563048Y-118376534D01*
X127573961Y-118363810D01*
X127595768Y-118338363D01*
X127615768Y-118311102D01*
X127621214Y-118305650D01*
X127626666Y-118298376D01*
X127630299Y-118291104D01*
X127632121Y-118287469D01*
X127635759Y-118283835D01*
X127637569Y-118280199D01*
X127639395Y-118276569D01*
X127641214Y-118272935D01*
X127643027Y-118269292D01*
X127644844Y-118265660D01*
X127646662Y-118262025D01*
X127648477Y-118256571D01*
X127650295Y-118252936D01*
X127652114Y-118249300D01*
X127653937Y-118245661D01*
X127653937Y-118242028D01*
X127657571Y-118234766D01*
X127659379Y-118229304D01*
X127661201Y-118222046D01*
X127663027Y-118216584D01*
X127664838Y-118209317D01*
X127666656Y-118202043D01*
X127668472Y-118196593D01*
X127670290Y-118189317D01*
X127670290Y-118182043D01*
X127677562Y-118149333D01*
X127683017Y-118114795D01*
X127686648Y-118080262D01*
X127721183Y-117811252D01*
X127748449Y-117600401D01*
X127782987Y-117391382D01*
X127797527Y-117304130D01*
X127815701Y-117216884D01*
X127835696Y-117129633D01*
X127857511Y-117042388D01*
X127873868Y-116982403D01*
X127890225Y-116922425D01*
X127910219Y-116862440D01*
X127928395Y-116804278D01*
X127950207Y-116744297D01*
X127966566Y-116698852D01*
X127984741Y-116653416D01*
X128004732Y-116607975D01*
X128024733Y-116564348D01*
X128044720Y-116518906D01*
X128066532Y-116475280D01*
X128113802Y-116384407D01*
X128131973Y-116351686D01*
X128150147Y-116318968D01*
X128168326Y-116286253D01*
X128188318Y-116255349D01*
X128242847Y-116171739D01*
X128268297Y-116133570D01*
X128295563Y-116095398D01*
X128322821Y-116057229D01*
X128350088Y-116020874D01*
X128379170Y-115984526D01*
X128408249Y-115948169D01*
X128439151Y-115911818D01*
X128470052Y-115877281D01*
X128506402Y-115835477D01*
X128542765Y-115797307D01*
X128580929Y-115757319D01*
X128620917Y-115719144D01*
X128659089Y-115680983D01*
X128700892Y-115644628D01*
X128740884Y-115608271D01*
X128782686Y-115571922D01*
X128826309Y-115535572D01*
X128869935Y-115501024D01*
X128913555Y-115468314D01*
X128958998Y-115433775D01*
X129004436Y-115402879D01*
X129049874Y-115371977D01*
X129097138Y-115341081D01*
X129144403Y-115310178D01*
X129191652Y-115281099D01*
X129240731Y-115253830D01*
X129289807Y-115226575D01*
X129338881Y-115199305D01*
X129387955Y-115173854D01*
X129467933Y-115135684D01*
X129560630Y-115095702D01*
X129651515Y-115057526D01*
X129686049Y-115042984D01*
X129720587Y-115030263D01*
X129735136Y-115026626D01*
X129749674Y-115021169D01*
X129760575Y-115015720D01*
X129764214Y-115013901D01*
X129767846Y-115012091D01*
X129775118Y-115010272D01*
X129780572Y-115008453D01*
X129787838Y-115004820D01*
X129793292Y-115002992D01*
X129836916Y-114990282D01*
X129889624Y-114973919D01*
X129949614Y-114955737D01*
X130040490Y-114932110D01*
X130133189Y-114910297D01*
X130189540Y-114897575D01*
X130245884Y-114886666D01*
X130302235Y-114877579D01*
X130358586Y-114868494D01*
X130413108Y-114861223D01*
X130469449Y-114855764D01*
X130527618Y-114850318D01*
X130585783Y-114846677D01*
X130643952Y-114844864D01*
X130689383Y-114843048D01*
X130722113Y-114841229D01*
X130778453Y-114841229D01*
X130845709Y-114841229D01*
X130962033Y-114846677D01*
G37*
%TO.C,G\u002A\u002A\u002A*%
G36*
X143036671Y-115319299D02*
G01*
X143038634Y-115367859D01*
X143257635Y-115371200D01*
X143476632Y-115374544D01*
X143562113Y-115459839D01*
X143647592Y-115545138D01*
X143789655Y-115545138D01*
X143931716Y-115545138D01*
X143931716Y-115598991D01*
X143931716Y-115652845D01*
X143772234Y-115650834D01*
X143612725Y-115648821D01*
X143518842Y-115560082D01*
X143424981Y-115471344D01*
X143231811Y-115473108D01*
X143038634Y-115474896D01*
X143036671Y-115523445D01*
X143034705Y-115571998D01*
X142641975Y-115570275D01*
X142249251Y-115568549D01*
X142249251Y-115421378D01*
X142249251Y-115274201D01*
X142641975Y-115272474D01*
X143034705Y-115270751D01*
X143036671Y-115319299D01*
G37*
G36*
X135479213Y-115954437D02*
G01*
X135589588Y-115956555D01*
X135855534Y-116222479D01*
X136121498Y-116488394D01*
X136193391Y-116488394D01*
X136265266Y-116488394D01*
X136265266Y-116438163D01*
X136265266Y-116387930D01*
X136658294Y-116389664D01*
X137051309Y-116391392D01*
X137053102Y-116543576D01*
X137054906Y-116695772D01*
X136660094Y-116695772D01*
X136265266Y-116695772D01*
X136265266Y-116645599D01*
X136265266Y-116595423D01*
X136181315Y-116595423D01*
X136149215Y-116595080D01*
X136116143Y-116593510D01*
X136093401Y-116590481D01*
X136079292Y-116585825D01*
X136076177Y-116583564D01*
X136063552Y-116572468D01*
X136042948Y-116553250D01*
X136015275Y-116526834D01*
X135981468Y-116494110D01*
X135942469Y-116455970D01*
X135899235Y-116413341D01*
X135852674Y-116367130D01*
X135803717Y-116318236D01*
X135546188Y-116060253D01*
X135457518Y-116060253D01*
X135368844Y-116060253D01*
X135368844Y-116006273D01*
X135368844Y-115952312D01*
X135479213Y-115954437D01*
G37*
G36*
X136658294Y-115272472D02*
G01*
X137051309Y-115274201D01*
X137051309Y-115424720D01*
X137051309Y-115575235D01*
X136658294Y-115576960D01*
X136265266Y-115578682D01*
X136265266Y-115528459D01*
X136265266Y-115478236D01*
X136066561Y-115478236D01*
X135867832Y-115478236D01*
X135780014Y-115565193D01*
X135692192Y-115652178D01*
X135530511Y-115652178D01*
X135368844Y-115652178D01*
X135368844Y-115601997D01*
X135368844Y-115551830D01*
X135507758Y-115551830D01*
X135646678Y-115551830D01*
X135726865Y-115470850D01*
X135746360Y-115451495D01*
X135773542Y-115425660D01*
X135797672Y-115404013D01*
X135816708Y-115388362D01*
X135828546Y-115380541D01*
X135829572Y-115380120D01*
X135839443Y-115377431D01*
X135854648Y-115375292D01*
X135876533Y-115373677D01*
X135906437Y-115372518D01*
X135945694Y-115371746D01*
X135995685Y-115371328D01*
X136057668Y-115371200D01*
X136265266Y-115371200D01*
X136265266Y-115320974D01*
X136265266Y-115270751D01*
X136658294Y-115272472D01*
G37*
G36*
X143035295Y-114759089D02*
G01*
X143035295Y-114809265D01*
X143119245Y-114809265D01*
X143151345Y-114809605D01*
X143184417Y-114811176D01*
X143207159Y-114814205D01*
X143221268Y-114818863D01*
X143224383Y-114821124D01*
X143237008Y-114832220D01*
X143257618Y-114851438D01*
X143285290Y-114877854D01*
X143319092Y-114910578D01*
X143358091Y-114948718D01*
X143401325Y-114991347D01*
X143447886Y-115037558D01*
X143496843Y-115086452D01*
X143754372Y-115344435D01*
X143843042Y-115344435D01*
X143931716Y-115344435D01*
X143931716Y-115398415D01*
X143931716Y-115452376D01*
X143821354Y-115450251D01*
X143710972Y-115448133D01*
X143445029Y-115182209D01*
X143179062Y-114916294D01*
X143107169Y-114916294D01*
X143035295Y-114916294D01*
X143035295Y-114966525D01*
X143035295Y-115016758D01*
X142642267Y-115015024D01*
X142249251Y-115013296D01*
X142247458Y-114861112D01*
X142245654Y-114708916D01*
X142640469Y-114708916D01*
X143035295Y-114708916D01*
X143035295Y-114759089D01*
G37*
G36*
X143931716Y-115802691D02*
G01*
X143931716Y-115852858D01*
X143792802Y-115852858D01*
X143653882Y-115852858D01*
X143573695Y-115933838D01*
X143554207Y-115953193D01*
X143527018Y-115979028D01*
X143502888Y-116000675D01*
X143483852Y-116016326D01*
X143472014Y-116024145D01*
X143470990Y-116024568D01*
X143461117Y-116027257D01*
X143445916Y-116029396D01*
X143424027Y-116031011D01*
X143394123Y-116032169D01*
X143354866Y-116032942D01*
X143304875Y-116033360D01*
X143242892Y-116033488D01*
X143035295Y-116033488D01*
X143035295Y-116083714D01*
X143035295Y-116133937D01*
X142642267Y-116132214D01*
X142249251Y-116130487D01*
X142249251Y-115979968D01*
X142249251Y-115829452D01*
X142642267Y-115827728D01*
X143035295Y-115826003D01*
X143035295Y-115876226D01*
X143035295Y-115926450D01*
X143233999Y-115926450D01*
X143432728Y-115926450D01*
X143520546Y-115839495D01*
X143608368Y-115752510D01*
X143770049Y-115752510D01*
X143931716Y-115752510D01*
X143931716Y-115802691D01*
G37*
G36*
X143931716Y-116006148D02*
G01*
X143931716Y-116060253D01*
X143843042Y-116060253D01*
X143754372Y-116060253D01*
X143496843Y-116318236D01*
X143470885Y-116344209D01*
X143423067Y-116391801D01*
X143378127Y-116436248D01*
X143337002Y-116476638D01*
X143300616Y-116512032D01*
X143269918Y-116541561D01*
X143245851Y-116564310D01*
X143229315Y-116579363D01*
X143221268Y-116585825D01*
X143211612Y-116589441D01*
X143191291Y-116592865D01*
X143161062Y-116594817D01*
X143119245Y-116595423D01*
X143035295Y-116595423D01*
X143035295Y-116645599D01*
X143035295Y-116695772D01*
X142640469Y-116695772D01*
X142245654Y-116695772D01*
X142247458Y-116543576D01*
X142249251Y-116391392D01*
X142642267Y-116389664D01*
X143035295Y-116387930D01*
X143035295Y-116438163D01*
X143035295Y-116488394D01*
X143107169Y-116488394D01*
X143179062Y-116488394D01*
X143445036Y-116222479D01*
X143710986Y-115956555D01*
X143821354Y-115954310D01*
X143931716Y-115952064D01*
X143931716Y-116006148D01*
G37*
G36*
X135528326Y-115753854D02*
G01*
X135687839Y-115755867D01*
X135781718Y-115844604D01*
X135875579Y-115933344D01*
X136068749Y-115931571D01*
X136261926Y-115929792D01*
X136263889Y-115881243D01*
X136265855Y-115832690D01*
X136658585Y-115834413D01*
X137051309Y-115836139D01*
X137053121Y-115976451D01*
X137053270Y-115988863D01*
X137053559Y-116030200D01*
X137053523Y-116066634D01*
X137053188Y-116096031D01*
X137052551Y-116116305D01*
X137051662Y-116125292D01*
X137051463Y-116125610D01*
X137047477Y-116127427D01*
X137037929Y-116128969D01*
X137021954Y-116130271D01*
X136998663Y-116131319D01*
X136967225Y-116132167D01*
X136926743Y-116132813D01*
X136876355Y-116133286D01*
X136815217Y-116133591D01*
X136742427Y-116133776D01*
X136657123Y-116133834D01*
X136265855Y-116133834D01*
X136263889Y-116085331D01*
X136261926Y-116036829D01*
X136042925Y-116033488D01*
X135823928Y-116030144D01*
X135738447Y-115944849D01*
X135652968Y-115859550D01*
X135510909Y-115859550D01*
X135368844Y-115859550D01*
X135368844Y-115805697D01*
X135368844Y-115751843D01*
X135528326Y-115753854D01*
G37*
G36*
X137053102Y-114861112D02*
G01*
X137051309Y-115013296D01*
X136658294Y-115015024D01*
X136265266Y-115016758D01*
X136265266Y-114966525D01*
X136265266Y-114916294D01*
X136193322Y-114916294D01*
X136121382Y-114916294D01*
X135857482Y-115180261D01*
X135825214Y-115212457D01*
X135777355Y-115259899D01*
X135732610Y-115303872D01*
X135691871Y-115343549D01*
X135656066Y-115378037D01*
X135626043Y-115406496D01*
X135602750Y-115428034D01*
X135587063Y-115441808D01*
X135579885Y-115446924D01*
X135576862Y-115447342D01*
X135560988Y-115448363D01*
X135535614Y-115449296D01*
X135503543Y-115450068D01*
X135467513Y-115450563D01*
X135368844Y-115451479D01*
X135368844Y-115397964D01*
X135368844Y-115344435D01*
X135457518Y-115344435D01*
X135546188Y-115344435D01*
X135803717Y-115086452D01*
X135829675Y-115060479D01*
X135877493Y-115012887D01*
X135922438Y-114968440D01*
X135963558Y-114928050D01*
X135999944Y-114892656D01*
X136030642Y-114863127D01*
X136054711Y-114840378D01*
X136071245Y-114825325D01*
X136079292Y-114818863D01*
X136088948Y-114815247D01*
X136109269Y-114811823D01*
X136139498Y-114809871D01*
X136181315Y-114809265D01*
X136265266Y-114809265D01*
X136265266Y-114759089D01*
X136265266Y-114708916D01*
X136660094Y-114708916D01*
X137054906Y-114708916D01*
X137053102Y-114861112D01*
G37*
G36*
X139079987Y-114854673D02*
G01*
X139080010Y-114854681D01*
X139093179Y-114855350D01*
X139118575Y-114855980D01*
X139155042Y-114856554D01*
X139201442Y-114857078D01*
X139256611Y-114857568D01*
X139319400Y-114857988D01*
X139388668Y-114858365D01*
X139463260Y-114858673D01*
X139542035Y-114858936D01*
X139623834Y-114859146D01*
X139707527Y-114859290D01*
X139791929Y-114859381D01*
X139875917Y-114859397D01*
X139958332Y-114859371D01*
X140038033Y-114859273D01*
X140113846Y-114859111D01*
X140184658Y-114858886D01*
X140249287Y-114858596D01*
X140306595Y-114858233D01*
X140355432Y-114857812D01*
X140394674Y-114857311D01*
X140423130Y-114856739D01*
X140439670Y-114856095D01*
X140489839Y-114852739D01*
X140489839Y-114993224D01*
X140489839Y-115133705D01*
X140463082Y-115132117D01*
X140461592Y-115132051D01*
X140446557Y-115131544D01*
X140420099Y-115130890D01*
X140383847Y-115130093D01*
X140339439Y-115129221D01*
X140288475Y-115128270D01*
X140232628Y-115127293D01*
X140173489Y-115126322D01*
X139910656Y-115122106D01*
X139913296Y-115823643D01*
X139913638Y-115906302D01*
X139914121Y-115999545D01*
X139914664Y-116088525D01*
X139915258Y-116172332D01*
X139915926Y-116250027D01*
X139916599Y-116320740D01*
X139917327Y-116383530D01*
X139918056Y-116437505D01*
X139918801Y-116481751D01*
X139919551Y-116515331D01*
X139920294Y-116537363D01*
X139921003Y-116546924D01*
X139926086Y-116568666D01*
X139764094Y-116568666D01*
X139602104Y-116568666D01*
X139606691Y-116536895D01*
X139607192Y-116529814D01*
X139607876Y-116509376D01*
X139608591Y-116477186D01*
X139609318Y-116434191D01*
X139610045Y-116381326D01*
X139610766Y-116319534D01*
X139611471Y-116249743D01*
X139612144Y-116172902D01*
X139612795Y-116089934D01*
X139613393Y-116001768D01*
X139613931Y-115909341D01*
X139614403Y-115813619D01*
X139617527Y-115122106D01*
X139354603Y-115126129D01*
X139342808Y-115126322D01*
X139284073Y-115127348D01*
X139228879Y-115128496D01*
X139178848Y-115129705D01*
X139135624Y-115130938D01*
X139100860Y-115132145D01*
X139076191Y-115133300D01*
X139063259Y-115134311D01*
X139034824Y-115138458D01*
X139034824Y-114994182D01*
X139034824Y-114849907D01*
X139079987Y-114854673D01*
G37*
G36*
X140662098Y-114852882D02*
G01*
X140668046Y-114853459D01*
X140687041Y-114854247D01*
X140717635Y-114855071D01*
X140758855Y-114855889D01*
X140809668Y-114856699D01*
X140869059Y-114857470D01*
X140936011Y-114858204D01*
X141009520Y-114858888D01*
X141088558Y-114859520D01*
X141172101Y-114860058D01*
X141259168Y-114860517D01*
X141326646Y-114860857D01*
X141410073Y-114861371D01*
X141488791Y-114861968D01*
X141561836Y-114862620D01*
X141628244Y-114863346D01*
X141687056Y-114864088D01*
X141737303Y-114864859D01*
X141778024Y-114865648D01*
X141808260Y-114866436D01*
X141827030Y-114867220D01*
X141833400Y-114867980D01*
X141833033Y-114870951D01*
X141831702Y-114885361D01*
X141829712Y-114909358D01*
X141827235Y-114940539D01*
X141824462Y-114976511D01*
X141824085Y-114982365D01*
X141823022Y-115007950D01*
X141822119Y-115044780D01*
X141821317Y-115091776D01*
X141820654Y-115147890D01*
X141820118Y-115212046D01*
X141819707Y-115283147D01*
X141819392Y-115360164D01*
X141819206Y-115441991D01*
X141819138Y-115527570D01*
X141819170Y-115615841D01*
X141819308Y-115705720D01*
X141819534Y-115796136D01*
X141819877Y-115886019D01*
X141820301Y-115974307D01*
X141820826Y-116059924D01*
X141821433Y-116141792D01*
X141822141Y-116218853D01*
X141822917Y-116290027D01*
X141823771Y-116354244D01*
X141824694Y-116410442D01*
X141825699Y-116457545D01*
X141826787Y-116494464D01*
X141827910Y-116520164D01*
X141829127Y-116533550D01*
X141835431Y-116568666D01*
X141273013Y-116569325D01*
X141222879Y-116569410D01*
X141138087Y-116569640D01*
X141057105Y-116569960D01*
X140980971Y-116570380D01*
X140910786Y-116570892D01*
X140847605Y-116571464D01*
X140792456Y-116572100D01*
X140746460Y-116572780D01*
X140710625Y-116573523D01*
X140686079Y-116574285D01*
X140673816Y-116575073D01*
X140658846Y-116577118D01*
X140639619Y-116579700D01*
X140628663Y-116581100D01*
X140625895Y-116578688D01*
X140623674Y-116569413D01*
X140622089Y-116551953D01*
X140621040Y-116524985D01*
X140620468Y-116487263D01*
X140620294Y-116437461D01*
X140620294Y-116292865D01*
X140642029Y-116297660D01*
X140644069Y-116297940D01*
X140658608Y-116298847D01*
X140684954Y-116299771D01*
X140721915Y-116300713D01*
X140768303Y-116301662D01*
X140822952Y-116302580D01*
X140884664Y-116303455D01*
X140952255Y-116304275D01*
X141024564Y-116305000D01*
X141100366Y-116305605D01*
X141536952Y-116308786D01*
X141535199Y-116059084D01*
X141533469Y-115809382D01*
X141312685Y-115807475D01*
X141276185Y-115807259D01*
X141214820Y-115807277D01*
X141151468Y-115807687D01*
X141087677Y-115808462D01*
X141024990Y-115809594D01*
X140964917Y-115810987D01*
X140909023Y-115812613D01*
X140858810Y-115814445D01*
X140815857Y-115816441D01*
X140781654Y-115818537D01*
X140757765Y-115820714D01*
X140745733Y-115822916D01*
X140744157Y-115823454D01*
X140740636Y-115823241D01*
X140738036Y-115819349D01*
X140736213Y-115810148D01*
X140735040Y-115794025D01*
X140734387Y-115769380D01*
X140734092Y-115734574D01*
X140734022Y-115688007D01*
X140734016Y-115548488D01*
X141132055Y-115550626D01*
X141530093Y-115552763D01*
X141530093Y-115334134D01*
X141530093Y-115115508D01*
X141123700Y-115119628D01*
X141052825Y-115120405D01*
X140981981Y-115121279D01*
X140915404Y-115122221D01*
X140854439Y-115123181D01*
X140800331Y-115124162D01*
X140754443Y-115125122D01*
X140718017Y-115126048D01*
X140692390Y-115126910D01*
X140678832Y-115127686D01*
X140640350Y-115131602D01*
X140640350Y-114989746D01*
X140640350Y-114847889D01*
X140662098Y-114852882D01*
G37*
G36*
X138186249Y-114825946D02*
G01*
X138292312Y-114839892D01*
X138390719Y-114864761D01*
X138481429Y-114900597D01*
X138564469Y-114947387D01*
X138567545Y-114949429D01*
X138623090Y-114992380D01*
X138677986Y-115045351D01*
X138729602Y-115105301D01*
X138775330Y-115169211D01*
X138812560Y-115234051D01*
X138837684Y-115290605D01*
X138867557Y-115380922D01*
X138889186Y-115478314D01*
X138902587Y-115580687D01*
X138907764Y-115685992D01*
X138904699Y-115792182D01*
X138893424Y-115897152D01*
X138873927Y-115998864D01*
X138846221Y-116095252D01*
X138810309Y-116184258D01*
X138797165Y-116210764D01*
X138746894Y-116293839D01*
X138687537Y-116367618D01*
X138619637Y-116431539D01*
X138543754Y-116485078D01*
X138460420Y-116527683D01*
X138435189Y-116537536D01*
X138383622Y-116554087D01*
X138326481Y-116568898D01*
X138268733Y-116580714D01*
X138215317Y-116588334D01*
X138181757Y-116590772D01*
X138129342Y-116592051D01*
X138071486Y-116591305D01*
X138012631Y-116588644D01*
X137957189Y-116584230D01*
X137909540Y-116578214D01*
X137833029Y-116563941D01*
X137759460Y-116545361D01*
X137687793Y-116521618D01*
X137614122Y-116491429D01*
X137534541Y-116453479D01*
X137442448Y-116407065D01*
X137447569Y-116352395D01*
X137447763Y-116350175D01*
X137449039Y-116327114D01*
X137450132Y-116292830D01*
X137451001Y-116249227D01*
X137451690Y-116198186D01*
X137452201Y-116141616D01*
X137452486Y-116081397D01*
X137452576Y-116019420D01*
X137452466Y-115957582D01*
X137452169Y-115897773D01*
X137451641Y-115841877D01*
X137450933Y-115791799D01*
X137450057Y-115749418D01*
X137448948Y-115716643D01*
X137447636Y-115695338D01*
X137442571Y-115641502D01*
X137708527Y-115641818D01*
X137719917Y-115641827D01*
X137779984Y-115641710D01*
X137837241Y-115641364D01*
X137889921Y-115640801D01*
X137936267Y-115640045D01*
X137974509Y-115639132D01*
X138002887Y-115638083D01*
X138019645Y-115636931D01*
X138064805Y-115631732D01*
X138064805Y-115767454D01*
X138064805Y-115903177D01*
X137897564Y-115900691D01*
X137730315Y-115898197D01*
X137730315Y-116072176D01*
X137730315Y-116246160D01*
X137785516Y-116273287D01*
X137820872Y-116289435D01*
X137880683Y-116310670D01*
X137944596Y-116325480D01*
X138016932Y-116335011D01*
X138072100Y-116338120D01*
X138145141Y-116336387D01*
X138214356Y-116328269D01*
X138275594Y-116314094D01*
X138296390Y-116307161D01*
X138362379Y-116276379D01*
X138420852Y-116234620D01*
X138471692Y-116182042D01*
X138514811Y-116118762D01*
X138550113Y-116044942D01*
X138577486Y-115960719D01*
X138596828Y-115866243D01*
X138600302Y-115838478D01*
X138604003Y-115789214D01*
X138605980Y-115733775D01*
X138606258Y-115676051D01*
X138604813Y-115619927D01*
X138601665Y-115569288D01*
X138596801Y-115528039D01*
X138590500Y-115493627D01*
X138567216Y-115406554D01*
X138535060Y-115329152D01*
X138494113Y-115261562D01*
X138444548Y-115203961D01*
X138386494Y-115156529D01*
X138320081Y-115119421D01*
X138245428Y-115092797D01*
X138241141Y-115091705D01*
X138205457Y-115085685D01*
X138161334Y-115082141D01*
X138112820Y-115081075D01*
X138064008Y-115082504D01*
X138019008Y-115086412D01*
X137981873Y-115092792D01*
X137936849Y-115106545D01*
X137882336Y-115133551D01*
X137835601Y-115170643D01*
X137795738Y-115218590D01*
X137761823Y-115278165D01*
X137753929Y-115294148D01*
X137741799Y-115316421D01*
X137731948Y-115331756D01*
X137725964Y-115337527D01*
X137725901Y-115337528D01*
X137716790Y-115335861D01*
X137697399Y-115331240D01*
X137670073Y-115324313D01*
X137637120Y-115315693D01*
X137600870Y-115306014D01*
X137563632Y-115295915D01*
X137527718Y-115286013D01*
X137495504Y-115276952D01*
X137469253Y-115269350D01*
X137451323Y-115263837D01*
X137444011Y-115261054D01*
X137443368Y-115259280D01*
X137445547Y-115247418D01*
X137452610Y-115227487D01*
X137463388Y-115202147D01*
X137476721Y-115174056D01*
X137491403Y-115145903D01*
X137506262Y-115120328D01*
X137532013Y-115082283D01*
X137589167Y-115015406D01*
X137655346Y-114957931D01*
X137729874Y-114910140D01*
X137812105Y-114872400D01*
X137901372Y-114845024D01*
X137997047Y-114828317D01*
X138098438Y-114822662D01*
X138186249Y-114825946D01*
G37*
%TD*%
D12*
X125350000Y-77600000D02*
X125350000Y-77600000D01*
G75*
G02*
X127350000Y-75600000I2000000J0D01*
G01*
X166650000Y-75600000D01*
G75*
G02*
X168650000Y-77600000I0J-2000000D01*
G01*
X168650000Y-122400000D01*
G75*
G02*
X166650000Y-124400000I-2000000J0D01*
G01*
X127350000Y-124400000D01*
G75*
G02*
X125350000Y-122400000I0J2000000D01*
G01*
X125350000Y-77600000D01*
M02*
