%TF.GenerationSoftware,KiCad,Pcbnew,10.0.1*%
%TF.CreationDate,2026-04-22T03:48:46-05:00*%
%TF.ProjectId,5GhzPatch,3547687a-5061-4746-9368-2e6b69636164,rev?*%
%TF.SameCoordinates,Original*%
%TF.FileFunction,Soldermask,Top*%
%TF.FilePolarity,Negative*%
%FSLAX46Y46*%
G04 Gerber Fmt 4.6, Leading zero omitted, Abs format (unit mm)*
G04 Created by KiCad (PCBNEW 10.0.1) date 2026-04-22 03:48:46*
%MOMM*%
%LPD*%
G01*
G04 APERTURE LIST*
G04 Aperture macros list*
%AMFreePoly0*
4,1,33,0.253999,0.837323,0.412472,0.771681,0.555094,0.676384,0.676384,0.555094,0.771681,0.412472,0.837323,0.253999,0.870787,0.085765,0.870787,-0.085765,0.837323,-0.253999,0.771681,-0.412472,0.676384,-0.555094,0.555094,-0.676384,0.412472,-0.771681,0.253999,-0.837323,0.085765,-0.870787,-0.085765,-0.870787,-0.253999,-0.837323,-0.412472,-0.771681,-0.555094,-0.676384,-0.676384,-0.555094,
-0.771681,-0.412472,-0.837323,-0.253999,-0.870787,-0.085765,-0.870787,0.085765,-0.837323,0.253999,-0.771681,0.412472,-0.676384,0.555094,-0.555094,0.676384,-0.412472,0.771681,-0.253999,0.837323,-0.085765,0.870787,0.085765,0.870787,0.253999,0.837323,0.253999,0.837323,$1*%
G04 Aperture macros list end*
%ADD10FreePoly0,0.000000*%
%TA.AperFunction,Profile*%
%ADD11C,0.050000*%
%TD*%
G04 APERTURE END LIST*
D10*
%TO.C,Ant1*%
X150000000Y-100000000D03*
%TD*%
G36*
X166654417Y-75600316D02*
G01*
X166925783Y-75619723D01*
X166943296Y-75622241D01*
X167204794Y-75679127D01*
X167221770Y-75684111D01*
X167471913Y-75777410D01*
X167481374Y-75781393D01*
X167482783Y-75782056D01*
X167489415Y-75785423D01*
X167721536Y-75912171D01*
X167728557Y-75916310D01*
X167732039Y-75918520D01*
X167739902Y-75923946D01*
X167952624Y-76083188D01*
X167965994Y-76094774D01*
X168155225Y-76284005D01*
X168166811Y-76297376D01*
X168326052Y-76510097D01*
X168331478Y-76517959D01*
X168333688Y-76521441D01*
X168337827Y-76528462D01*
X168464575Y-76760583D01*
X168467942Y-76767215D01*
X168468605Y-76768624D01*
X168472588Y-76778085D01*
X168565888Y-77028229D01*
X168570872Y-77045205D01*
X168627757Y-77306702D01*
X168630275Y-77324214D01*
X168649684Y-77595581D01*
X168650000Y-77604427D01*
X168650000Y-122395572D01*
X168649684Y-122404418D01*
X168630275Y-122675784D01*
X168627757Y-122693296D01*
X168570872Y-122954794D01*
X168565887Y-122971770D01*
X168472587Y-123221912D01*
X168468620Y-123231342D01*
X168467957Y-123232752D01*
X168464575Y-123239415D01*
X168337827Y-123471536D01*
X168333686Y-123478561D01*
X168331472Y-123482049D01*
X168326048Y-123489907D01*
X168166813Y-123702621D01*
X168155227Y-123715992D01*
X167965992Y-123905227D01*
X167952621Y-123916813D01*
X167739907Y-124076048D01*
X167732049Y-124081472D01*
X167728561Y-124083686D01*
X167721536Y-124087827D01*
X167489415Y-124214575D01*
X167482752Y-124217957D01*
X167481342Y-124218620D01*
X167471912Y-124222587D01*
X167221770Y-124315887D01*
X167204794Y-124320872D01*
X166943296Y-124377757D01*
X166925784Y-124380275D01*
X166654418Y-124399684D01*
X166645572Y-124400000D01*
X127354428Y-124400000D01*
X127345582Y-124399684D01*
X127074214Y-124380275D01*
X127056702Y-124377757D01*
X126795205Y-124320872D01*
X126778229Y-124315888D01*
X126528085Y-124222588D01*
X126518624Y-124218605D01*
X126517215Y-124217942D01*
X126510583Y-124214575D01*
X126278462Y-124087827D01*
X126271441Y-124083688D01*
X126267959Y-124081478D01*
X126260097Y-124076052D01*
X126047376Y-123916811D01*
X126034005Y-123905225D01*
X125844774Y-123715994D01*
X125833188Y-123702624D01*
X125673946Y-123489902D01*
X125668520Y-123482039D01*
X125666310Y-123478557D01*
X125662171Y-123471536D01*
X125535423Y-123239415D01*
X125532056Y-123232783D01*
X125531393Y-123231374D01*
X125527410Y-123221913D01*
X125434111Y-122971770D01*
X125429127Y-122954794D01*
X125372241Y-122693296D01*
X125369723Y-122675783D01*
X125350316Y-122404417D01*
X125350000Y-122395572D01*
X125350000Y-77604427D01*
X125350316Y-77595582D01*
X125369723Y-77324215D01*
X125372241Y-77306701D01*
X125429128Y-77045201D01*
X125434112Y-77028227D01*
X125527408Y-76778090D01*
X125531394Y-76768620D01*
X125532059Y-76767207D01*
X125535423Y-76760583D01*
X125662171Y-76528462D01*
X125666296Y-76521462D01*
X125668505Y-76517980D01*
X125673945Y-76510096D01*
X125833188Y-76297375D01*
X125844774Y-76284005D01*
X126034005Y-76094774D01*
X126047375Y-76083188D01*
X126260096Y-75923945D01*
X126267980Y-75918505D01*
X126271462Y-75916296D01*
X126278462Y-75912171D01*
X126510583Y-75785423D01*
X126517207Y-75782059D01*
X126518620Y-75781394D01*
X126528090Y-75777408D01*
X126778227Y-75684112D01*
X126795201Y-75679128D01*
X127056701Y-75622241D01*
X127074215Y-75619723D01*
X127345583Y-75600316D01*
X127354428Y-75600000D01*
X166645572Y-75600000D01*
X166654417Y-75600316D01*
G37*
D11*
X125350000Y-77600000D02*
X125350000Y-77600000D01*
G75*
G02*
X127350000Y-75600000I2000000J0D01*
G01*
X166650000Y-75600000D01*
G75*
G02*
X168650000Y-77600000I0J-2000000D01*
G01*
X168650000Y-122400000D01*
G75*
G02*
X166650000Y-124400000I-2000000J0D01*
G01*
X127350000Y-124400000D01*
G75*
G02*
X125350000Y-122400000I0J2000000D01*
G01*
X125350000Y-77600000D01*
M02*
